<?xml version="1.0" encoding="UTF-8"?>
<svg width="224px" height="190px" viewBox="0 0 224 190" version="1.1" xmlns="http://www.w3.org/2000/svg" xmlns:xlink="http://www.w3.org/1999/xlink">
    <!-- Generator: Sketch 39.1 (31720) - http://www.bohemiancoding.com/sketch -->
    <title>illustration</title>
    <desc>Created with Sketch.</desc>
    <defs></defs>
    <g id="18_База-знаний-(wiki)" stroke="none" stroke-width="1" fill="none" fill-rule="evenodd">
        <g id="9_Поиск_без-результата_1272" transform="translate(-648.000000, -554.000000)">
            <g id="content" transform="translate(548.000000, 405.000000)">
                <g id="illustration" transform="translate(100.000000, 149.000000)">
                    <g id="text">
                        <rect id="Rectangle-13" fill="#E7E7E7" x="0" y="0" width="189.4034" height="35.9779593"></rect>
                        <rect id="Rectangle-14" fill="#D3D3D3" x="0" y="62.9614288" width="189.4034" height="8.99448983"></rect>
                        <rect id="Rectangle-14-Copy" fill="#D3D3D3" x="0" y="84.8051898" width="189.4034" height="8.99448983"></rect>
                        <rect id="Rectangle-14-Copy-2" fill="#D3D3D3" x="0" y="106.648951" width="189.4034" height="8.99448983"></rect>
                        <rect id="Rectangle-14-Copy-3" fill="#D3D3D3" x="0" y="128.492712" width="141.730436" height="8.99448983"></rect>
                        <rect id="Rectangle-14-Copy-4" fill="#D3D3D3" x="0" y="174.750088" width="189.4034" height="8.99448983"></rect>
                    </g>
                    <path d="M221.49338,175.331026 L187.236244,140.970369 C186.400704,141.386862 185.35628,141.595108 184.311855,141.595108 C180.34304,141.595108 177.00088,138.679658 176.165341,134.931223 C182.640775,127.226106 186.400704,117.022032 186.400704,106.193219 C186.400704,80.9954032 165.721092,60.3790087 140.44601,60.3790087 C115.170928,60.3790087 94.4913151,80.9954032 94.4913151,106.193219 C94.4913151,131.391034 115.170928,152.007428 140.44601,152.007428 C151.308028,152.007428 161.543392,148.258993 169.272136,141.803354 C173.032066,142.63634 175.956456,145.968283 175.956456,149.924964 C175.956456,150.966196 175.747571,152.007428 175.329801,152.840414 L209.586937,186.992825 C212.929096,190.324768 218.151221,190.324768 221.49338,186.992825 C224.83554,183.869129 224.83554,178.454722 221.49338,175.331026 Z M102.846714,106.193219 C102.846714,85.5768242 119.766397,68.7088651 140.44601,68.7088651 C161.125622,68.7088651 178.045305,85.5768242 178.045305,106.193219 C178.045305,126.809613 161.125622,143.677572 140.44601,143.677572 C119.766397,143.677572 102.846714,126.809613 102.846714,106.193219 Z" id="Shape" fill="#57068C"></path>
                </g>
            </g>
        </g>
    </g>
</svg>