<?xml version="1.0" standalone="no"?>
<!DOCTYPE svg PUBLIC "-//W3C//DTD SVG 1.1//EN" "http://www.w3.org/Graphics/SVG/1.1/DTD/svg11.dtd" >
<svg xmlns="http://www.w3.org/2000/svg" xmlns:xlink="http://www.w3.org/1999/xlink" version="1.1">
<metadata></metadata>
<defs>
<font id="megafontregular" horiz-adv-x="1397" >
<font-face units-per-em="2048" ascent="1536" descent="-512" />
<missing-glyph horiz-adv-x="430" />
<glyph horiz-adv-x="0" />
<glyph horiz-adv-x="0" />
<glyph unicode="&#xd;" horiz-adv-x="512" />
<glyph unicode=" "  horiz-adv-x="430" />
<glyph unicode="&#x09;" horiz-adv-x="430" />
<glyph unicode="&#xa0;" horiz-adv-x="430" />
<glyph unicode="!" horiz-adv-x="484" d="M45 1497v611h395v-599l-97 -925h-201zM84 0v404h323v-404h-323z" />
<glyph unicode="&#x22;" horiz-adv-x="704" d="M45 1554v554h292v-180l-150 -374h-142zM367 1554v554h293v-180l-151 -374h-142z" />
<glyph unicode="#" horiz-adv-x="1472" d="M45 762l51 211h1214l-51 -211h-1214zM163 1262l51 211h1214l-52 -211h-1213zM229 358l382 1551h211l-379 -1551h-214zM657 358l382 1551h211l-380 -1551h-213z" />
<glyph unicode="$" horiz-adv-x="1090" d="M30 515v277h413v-289q0 -39 15 -80t78 -41t76.5 41t13.5 80v60q0 96 -43.5 165.5t-108 130t-140 116t-142 123.5t-113 153.5t-49.5 206.5v126q0 262 122 397.5t387 135.5q262 0 384 -134t122 -399v-226h-413v235q0 39 -12 81.5t-75 42.5t-75 -42.5t-12 -81.5v-78 q0 -69 43.5 -128t108.5 -116t141.5 -117.5t143 -135.5t113 -167.5t49.5 -212.5v-55.5v-37.5v-30q0 -265 -125 -399t-390 -134t-388.5 134t-123.5 399zM440 69h198v-223h-198v223zM440 2039v223h198v-223h-198z" />
<glyph unicode="%" horiz-adv-x="1313" d="M30 1403v467q0 136 73.5 208t215.5 72q139 0 212.5 -72t73.5 -208v-467q0 -136 -73.5 -209.5t-212.5 -73.5q-142 0 -215.5 74t-73.5 209zM166 0l798 2111h186l-798 -2111h-186zM211 1422q0 -51 19.5 -90.5t82.5 -39.5h9q63 0 81.5 39t18.5 91v421q0 51 -18 92t-82 41h-9 q-63 0 -82.5 -41t-19.5 -92v-421zM708 241v467q0 136 73.5 208t215.5 72q139 0 212.5 -72.5t73.5 -207.5v-467q0 -136 -74 -209.5t-212 -73.5q-142 0 -215.5 73.5t-73.5 209.5zM888 259q0 -51 20 -90t83 -39h9q63 0 81 39t18 90v422q0 51 -18 91.5t-81 40.5h-9 q-63 0 -83 -40.5t-20 -91.5v-422z" />
<glyph unicode="&#x26;" horiz-adv-x="1304" d="M45 491v247q0 151 45.5 241t168.5 141v6q-87 42 -135.5 128t-48.5 207v156q0 265 122 399t387 134q253 0 369 -135.5t116 -385.5v-162h-406v171q0 39 -12.5 68t-60.5 29t-60 -34.5t-12 -74.5v-192q0 -51 21 -92t87 -41h663v-376h-135v-925h-359l-30 163h-12 q-48 -126 -134 -165.5t-170 -39.5q-229 0 -316.5 135.5t-87.5 397.5zM488 512q0 -142 117 -145q63 3 92 42.5t29 105.5v410h-121q-72 0 -94.5 -47t-22.5 -104v-262z" />
<glyph unicode="'" horiz-adv-x="412" d="M45 1554v554h322v-180l-180 -374h-142z" />
<glyph unicode="(" horiz-adv-x="364" d="M45 220v1659q0 148 69.5 209.5t204.5 58.5v-189q-51 0 -63 -29t-12 -80v-1599q0 -51 12 -79.5t63 -28.5v-190q-136 -3 -205 58.5t-69 209.5z" />
<glyph unicode=")" horiz-adv-x="364" d="M45 -48v190q51 0 63 28.5t12 79.5v1599q0 51 -12 80t-63 29v189q136 3 205 -58.5t69 -209.5v-1659q0 -148 -69 -209.5t-205 -58.5z" />
<glyph unicode="*" horiz-adv-x="1264" d="M45 1021v193h422l-211 364l166 97l210 -368l211 368l166 -97l-211 -364h422v-193h-422l211 -364l-166 -97l-211 365l-210 -365l-166 97l211 364h-422z" />
<glyph unicode="+" horiz-adv-x="1204" d="M45 991v193h458v466h199v-466h458v-193h-458v-467h-199v467h-458z" />
<glyph unicode="," horiz-adv-x="412" d="M45 -151v555h322v-181l-180 -374h-142z" />
<glyph unicode="-" horiz-adv-x="1204" d="M45 991v193h1115v-193h-1115z" />
<glyph unicode="." horiz-adv-x="412" d="M45 0v404h322v-404h-322z" />
<glyph unicode="/" horiz-adv-x="1129" d="M15 -151l913 2410h186l-912 -2410h-187z" />
<glyph unicode="0" horiz-adv-x="1168" d="M45 503v1099q0 259 132.5 403.5t406.5 144.5q271 0 405 -144.5t134 -403.5v-1099q0 -259 -134 -403.5t-405 -144.5q-274 0 -406.5 144.5t-132.5 403.5zM488 485q0 -42 21 -78.5t72 -36.5h3q51 0 74 36.5t23 78.5v1132q0 45 -23 81.5t-74 36.5h-3q-51 0 -72 -36.5 t-21 -81.5v-1132z" />
<glyph unicode="1" horiz-adv-x="683" d="M15 1690v274l392 144h231v-2108h-442v1690h-181z" />
<glyph unicode="2" horiz-adv-x="1090" d="M30 0v398q0 117 43.5 224t111.5 205t145 186.5t144.5 170t111 157t43.5 144.5v138q0 39 -13.5 74t-70.5 35q-54 0 -69 -35t-15 -74v-268h-428v259q0 259 131 396t387 137q268 0 396 -126.5t128 -382.5v-114q0 -120 -45 -225.5t-114.5 -202t-147.5 -184t-147.5 -170 t-114.5 -162.5t-45 -161h593v-419h-1024z" />
<glyph unicode="3" horiz-adv-x="1096" d="M15 488v292h422v-301q0 -39 15 -74t78 -35t78 35t15 74v352q0 48 -22.5 84.5t-88.5 36.5h-289v340l355 398h-530v418h988v-409l-379 -404l3 -9q72 0 145.5 -19.5t131 -69.5t93.5 -131t36 -208v-370q0 -265 -132.5 -399t-397.5 -134q-130 0 -223 33t-159 96 q-139 136 -139 404z" />
<glyph unicode="4" horiz-adv-x="1054" d="M15 440v331l470 1337h446v-1328h108v-340h-108v-440h-443v440h-473zM346 780h142v470h-15z" />
<glyph unicode="5" horiz-adv-x="1126" d="M45 491v292h422v-301q0 -39 15 -74t78 -35t78.5 35t15.5 74v431q0 60 -23 97.5t-83 37.5q-27 0 -46.5 -9t-31.5 -21q-15 -12 -24 -30h-383v1123h967v-418h-584v-350l6 -6q27 18 63 33q30 12 72 21t94 9q208 0 311.5 -115.5t103.5 -305.5v-488q0 -265 -132.5 -399 t-397.5 -134q-130 0 -223 33t-159 96q-139 136 -139 404z" />
<glyph unicode="6" horiz-adv-x="1150" d="M45 488v1129q0 265 132.5 399t397.5 134q512 0 512 -533v-174h-415v183q0 39 -20 74t-74 35q-57 0 -73.5 -34.5t-16.5 -74.5v-370l6 -6q21 21 51 39q27 15 65 27t86 12q199 0 304 -128t105 -342v-370q0 -268 -138 -404q-139 -129 -389 -129q-265 0 -399 135.5t-134 397.5 zM488 479q0 -39 16.5 -74t76.5 -35q63 0 81.5 35t18.5 74v340q0 39 -18 74t-82 35q-60 0 -76.5 -35t-16.5 -74v-340z" />
<glyph unicode="7" horiz-adv-x="1054" d="M15 1690v418h1024v-409l-560 -1699h-407v160l542 1530h-599z" />
<glyph unicode="8" horiz-adv-x="1168" d="M45 485v220q0 151 39 241t145 141v6q-87 42 -134 128t-47 207l-3 186q0 265 134 399t399 134h12q265 0 399 -134t134 -399l-3 -186q0 -120 -46.5 -206.5t-133.5 -128.5v-6q105 -51 144 -141.5t39 -240.5v-220q0 -265 -134 -399t-399 -134h-12q-265 0 -399 134t-134 399z M488 476q0 -39 19.5 -74t76.5 -35q45 0 71 29t26 80v322q0 48 -19.5 84.5t-77.5 36.5q-54 0 -75 -36.5t-21 -84.5v-322zM488 1361q0 -51 21 -91.5t75 -40.5q57 3 77 42t20 90v268q0 36 -21.5 69.5t-75.5 33.5q-57 0 -76.5 -35t-19.5 -74v-262z" />
<glyph unicode="9" horiz-adv-x="1150" d="M45 1289v328q0 268 139 404q138 129 388 129q265 0 399 -135.5t134 -397.5v-1129q0 -265 -132.5 -399t-397.5 -134q-512 0 -512 533v217h416v-226q0 -39 19.5 -74t73.5 -35q57 0 74 35t17 74v412l-6 7q-21 -21 -52 -40q-27 -15 -64.5 -27t-85.5 -12q-199 0 -304.5 128 t-105.5 342zM470 1328q0 -39 18 -73.5t81 -34.5q60 0 77 34.5t17 73.5v298q0 39 -17 74t-77 35q-63 0 -81 -34.5t-18 -74.5v-298z" />
<glyph unicode=":" horiz-adv-x="412" d="M45 0v404h322v-404h-322zM45 873v404h322v-404h-322z" />
<glyph unicode=";" horiz-adv-x="412" d="M45 -151v555h322v-181l-180 -374h-142zM45 873v404h322v-404h-322z" />
<glyph unicode="&#x3c;" d="M16.5 1680.5q13.5 310.5 248.5 418.5q21 12 46.5 22.5t46.5 16.5q24 9 49 18l256 -548l-250 -120q-45 -24 -39 -60.5t24 -69.5l358 -783q18 -33 42 -61.5t66 -7.5l253 117l265 -551q-24 -15 -45 -27t-43.5 -25.5t-43.5 -22.5q-120 -54 -242.5 -34.5t-244 117.5 t-248 281.5t-256.5 460.5q-256 548 -242.5 858.5z" />
<glyph unicode="=" horiz-adv-x="1204" d="M45 795v193h1115v-193h-1115zM45 1193v192h1115v-192h-1115z" />
<glyph unicode="&#x3e;" d="M16.5 1680.5q13.5 310.5 248.5 418.5q21 12 46.5 22.5t46.5 16.5q24 9 49 18l256 -548l-250 -120q-45 -24 -39 -60.5t24 -69.5l358 -783q18 -33 42 -61.5t66 -7.5l253 117l265 -551q-24 -15 -45 -27t-43.5 -25.5t-43.5 -22.5q-120 -54 -242.5 -34.5t-244 117.5 t-248 281.5t-256.5 460.5q-256 548 -242.5 858.5z" />
<glyph unicode="?" horiz-adv-x="954" d="M15 1379v256q0 265 117.5 388.5t349.5 123.5q235 0 346.5 -122t111.5 -384v-42q-6 -181 -66.5 -298t-129.5 -218t-126.5 -209.5t-57.5 -274.5v-15h-235v154q0 169 33.5 277t71 191t70.5 160t33 179v105q0 39 -12 75.5t-63 36.5q-42 0 -59 -34.5t-17 -74.5v-274h-367z M283 0v404h322v-404h-322z" />
<glyph unicode="@" horiz-adv-x="1331" d="M45 434v1135q0 123 47 228.5t126.5 184t188 123.5t228.5 45h70q123 0 228.5 -45t184 -123.5t123.5 -183.5t45 -229v-1087q0 -133 -83 -206.5t-194 -73.5h-12q-60 0 -125 30t-86 81h-6q-15 -51 -57 -81t-91 -30q-114 0 -168 69t-54 169v533q0 114 61.5 176t176.5 62h78 v349q0 33 -18 46.5t-42 13.5t-41 -15t-17 -45v-205h-198v211q0 96 69 167t175 71h27q105 0 174.5 -71t69.5 -167v-1099q0 -30 24 -49.5t60 -19.5q21 0 49.5 16.5t28.5 58.5v1096q0 75 -30 146t-81 125t-120.5 87.5t-150.5 33.5h-79q-75 0 -145.5 -33.5t-122 -87.5t-83 -125 t-31.5 -146v-1144q0 -75 33 -146t87.5 -122.5t125 -83t145.5 -31.5h220v-190h-220q-120 0 -228.5 45.5t-188 123.5t-126.5 183.5t-47 229.5zM608 461q0 -33 20 -46.5t44 -13.5q15 0 33 13.5t21 40.5v587h-54q-24 0 -44 -18t-20 -48v-515z" />
<glyph unicode="A" horiz-adv-x="1267" d="M15 0v163l319 1945h597l322 -1945v-163h-440l-48 376h-295l-39 -376h-416zM518 735h202l-94 825h-15z" />
<glyph unicode="B" horiz-adv-x="1186" d="M45 -3v2111h551v-3q268 0 405 -132.5t137 -391.5v-33v-22v-11q0 -105 -39 -213.5t-153 -175.5v-6q117 -54 164 -152t47 -245v-187q0 -262 -142 -400.5t-410 -138.5h-560zM488 401h90q63 0 95 43.5t32 109.5v232q0 42 -19.5 87.5t-83.5 45.5h-114v-518zM488 1238h78 q42 0 66.5 18t36.5 43.5t15 52.5t3 42v157q0 63 -27.5 107t-90.5 44h-81v-464z" />
<glyph unicode="C" horiz-adv-x="1147" d="M45 485v1129q0 262 137 397.5t402 135.5q253 0 392 -129q142 -136 141 -404v-235h-427v244q0 39 -18 74t-82 35q-63 0 -82.5 -35t-19.5 -74v-1147q0 -39 19.5 -74t82.5 -35t81.5 35t18.5 74v289h427v-280q0 -268 -141 -404q-138 -129 -388 -129h-4q-265 0 -402 134 t-137 399z" />
<glyph unicode="D" horiz-adv-x="1204" d="M45 0v2108h557q271 0 414.5 -137t143.5 -396v-1042q0 -259 -143.5 -396t-414.5 -137h-557zM488 416h117q57 0 84.5 36t27.5 78v1045q0 45 -27 81.5t-85 36.5h-117v-1277z" />
<glyph unicode="E" horiz-adv-x="957" d="M45 0v2108h898v-418h-455v-410h403v-404h-403v-457h455v-419h-898z" />
<glyph unicode="F" horiz-adv-x="957" d="M45 0v2108h898v-418h-455v-410h434v-404h-434v-876h-443z" />
<glyph unicode="G" horiz-adv-x="1153" d="M45 491v1126q0 265 138.5 400.5t403.5 135.5q536 0 536 -536v-238h-427v250q0 39 -19.5 74t-83.5 35q-63 0 -84 -34.5t-21 -74.5v-1147q0 -39 19.5 -74t82.5 -38q63 3 84.5 38t21.5 74v364h-109v193h536v-1039h-117l-30 193h-18q-54 -120 -150.5 -177.5t-232.5 -57.5 q-268 0 -399 134t-131 399z" />
<glyph unicode="H" horiz-adv-x="1204" d="M45 0v2108h443v-804h229v804h443v-2108h-443v888h-229v-888h-443z" />
<glyph unicode="I" horiz-adv-x="533" d="M45 0v2108h443v-2108h-443z" />
<glyph unicode="J" horiz-adv-x="1114" d="M15 509v392h443v-419q0 -51 18 -84.5t66 -33.5q51 0 67.5 36.5t16.5 90.5v1617h443v-1596q0 -274 -128 -415.5t-399 -141.5q-274 0 -400.5 141.5t-126.5 412.5z" />
<glyph unicode="K" horiz-adv-x="1213" d="M45 0v2108h443v-894h24l268 894h407v-165l-296 -808l308 -972v-163h-431l-256 946h-24v-946h-443z" />
<glyph unicode="L" horiz-adv-x="942" d="M45 0v2108h446v-1689h437v-419h-883z" />
<glyph unicode="M" horiz-adv-x="1698" d="M45 0v2108h575l217 -1012h24l187 1012h605v-2108h-433v669l21 584h-15l-244 -1253h-268l-241 1253h-15l21 -584v-669h-434z" />
<glyph unicode="N" horiz-adv-x="1283" d="M45 0v2108h419l343 -1042h15l-18 545v497h434v-2108h-428l-337 1012h-15l21 -554v-458h-434z" />
<glyph unicode="O" horiz-adv-x="1204" d="M45 488v1129q0 259 141.5 396t415.5 137q271 0 414.5 -137t143.5 -396v-1129q0 -259 -143.5 -396t-414.5 -137q-274 0 -415.5 137t-141.5 396zM488 485q0 -42 25.5 -78.5t82.5 -36.5h6h3q57 0 84.5 36.5t27.5 78.5v1132q0 45 -27 81.5t-85 36.5h-3h-6q-57 0 -82.5 -36.5 t-25.5 -81.5v-1132z" />
<glyph unicode="P" horiz-adv-x="1153" d="M45 0v2108h506q280 0 433.5 -144.5t153.5 -418.5v-343q0 -274 -149 -419t-438 -145h-63v-638h-443zM488 1048h84q57 0 90.5 33t33.5 94v385q0 51 -27 92t-94 41h-87v-645z" />
<glyph unicode="Q" horiz-adv-x="1228" d="M45 503v1117q0 259 143 396t414 137q274 0 416 -137t142 -396v-1030q0 -126 -38 -230t-128 -173l3 -15h217v-196h-621q-265 3 -406.5 137t-141.5 390zM488 491q0 -45 28.5 -81.5t91.5 -36.5q57 0 83 36.5t26 81.5v1132q0 42 -27 78.5t-91 36.5q-57 0 -84 -36t-27 -79 v-1132z" />
<glyph unicode="R" horiz-adv-x="1228" d="M45 0v2108h527q280 0 434 -144.5t154 -418.5v-211q0 -319 -205 -452l259 -719v-163h-431l-241 786h-54v-786h-443zM488 1120h93q60 0 98 41t38 104v295q0 51 -27 92t-94 41h-108v-573z" />
<glyph unicode="S" horiz-adv-x="1138" d="M30 485v277h428v-286q0 -39 19.5 -74t82.5 -35t81.5 35t18.5 74v57q0 96 -45.5 170t-113 140.5t-147.5 129.5t-149 138.5t-117.5 165.5t-51.5 211v126q0 262 135.5 397.5t400.5 135.5q250 0 389 -129q69 -69 105 -167t36 -237v-226h-427v235q0 39 -16.5 74t-80.5 35 q-63 0 -79.5 -35t-16.5 -74v-78q0 -69 45 -132.5t113 -126.5t147.5 -132.5t149 -150.5t117.5 -178t51 -217v-55.5v-37.5v-30q0 -265 -137 -399t-402 -134q-256 0 -394 129q-142 136 -142 404z" />
<glyph unicode="T" horiz-adv-x="1090" d="M15 1684v424h1060v-424h-310v-1684h-443v1684h-307z" />
<glyph unicode="U" horiz-adv-x="1204" d="M45 488v1617h443v-1620q0 -42 25.5 -78.5t82.5 -36.5h9q57 0 84.5 36.5t27.5 78.5v1620h443v-1617q0 -259 -143.5 -396t-414.5 -137q-274 0 -415.5 137t-141.5 396z" />
<glyph unicode="V" horiz-adv-x="1267" d="M15 1946v162h443l184 -1551h15l177 1551h419v-162l-319 -1946h-597z" />
<glyph unicode="W" horiz-adv-x="1918" d="M15 1946v162h446l105 -1322h18l181 1322h389l183 -1322h18l106 1322h442v-162l-253 -1946h-563l-120 1126h-18l-118 -1126h-563z" />
<glyph unicode="X" horiz-adv-x="1210" d="M15 0v142l262 948l-238 865v153h446l84 -415l36 -287h12l37 287l75 415h443v-159l-232 -850l256 -942v-157h-443l-108 527l-34 262h-15l-33 -259l-102 -530h-446z" />
<glyph unicode="Y" horiz-adv-x="1267" d="M15 1946v162h443l184 -888h15l177 888h419v-162l-401 -1253v-693h-442v693z" />
<glyph unicode="Z" horiz-adv-x="1005" d="M15 0v410l500 1280h-479v418h934v-409l-500 -1280h521v-419h-976z" />
<glyph unicode="[" d="M16.5 1680.5q13.5 310.5 248.5 418.5q21 12 46.5 22.5t46.5 16.5q24 9 49 18l256 -548l-250 -120q-45 -24 -39 -60.5t24 -69.5l358 -783q18 -33 42 -61.5t66 -7.5l253 117l265 -551q-24 -15 -45 -27t-43.5 -25.5t-43.5 -22.5q-120 -54 -242.5 -34.5t-244 117.5 t-248 281.5t-256.5 460.5q-256 548 -242.5 858.5z" />
<glyph unicode="\" d="M16.5 1680.5q13.5 310.5 248.5 418.5q21 12 46.5 22.5t46.5 16.5q24 9 49 18l256 -548l-250 -120q-45 -24 -39 -60.5t24 -69.5l358 -783q18 -33 42 -61.5t66 -7.5l253 117l265 -551q-24 -15 -45 -27t-43.5 -25.5t-43.5 -22.5q-120 -54 -242.5 -34.5t-244 117.5 t-248 281.5t-256.5 460.5q-256 548 -242.5 858.5z" />
<glyph unicode="]" d="M16.5 1680.5q13.5 310.5 248.5 418.5q21 12 46.5 22.5t46.5 16.5q24 9 49 18l256 -548l-250 -120q-45 -24 -39 -60.5t24 -69.5l358 -783q18 -33 42 -61.5t66 -7.5l253 117l265 -551q-24 -15 -45 -27t-43.5 -25.5t-43.5 -22.5q-120 -54 -242.5 -34.5t-244 117.5 t-248 281.5t-256.5 460.5q-256 548 -242.5 858.5z" />
<glyph unicode="^" d="M16.5 1680.5q13.5 310.5 248.5 418.5q21 12 46.5 22.5t46.5 16.5q24 9 49 18l256 -548l-250 -120q-45 -24 -39 -60.5t24 -69.5l358 -783q18 -33 42 -61.5t66 -7.5l253 117l265 -551q-24 -15 -45 -27t-43.5 -25.5t-43.5 -22.5q-120 -54 -242.5 -34.5t-244 117.5 t-248 281.5t-256.5 460.5q-256 548 -242.5 858.5z" />
<glyph unicode="_" d="M16.5 1680.5q13.5 310.5 248.5 418.5q21 12 46.5 22.5t46.5 16.5q24 9 49 18l256 -548l-250 -120q-45 -24 -39 -60.5t24 -69.5l358 -783q18 -33 42 -61.5t66 -7.5l253 117l265 -551q-24 -15 -45 -27t-43.5 -25.5t-43.5 -22.5q-120 -54 -242.5 -34.5t-244 117.5 t-248 281.5t-256.5 460.5q-256 548 -242.5 858.5z" />
<glyph unicode="`" d="M16.5 1680.5q13.5 310.5 248.5 418.5q21 12 46.5 22.5t46.5 16.5q24 9 49 18l256 -548l-250 -120q-45 -24 -39 -60.5t24 -69.5l358 -783q18 -33 42 -61.5t66 -7.5l253 117l265 -551q-24 -15 -45 -27t-43.5 -25.5t-43.5 -22.5q-120 -54 -242.5 -34.5t-244 117.5 t-248 281.5t-256.5 460.5q-256 548 -242.5 858.5z" />
<glyph unicode="a" horiz-adv-x="1267" d="M15 0v163l319 1945h597l322 -1945v-163h-440l-48 376h-295l-39 -376h-416zM518 735h202l-94 825h-15z" />
<glyph unicode="b" horiz-adv-x="1186" d="M45 -3v2111h551v-3q268 0 405 -132.5t137 -391.5v-33v-22v-11q0 -105 -39 -213.5t-153 -175.5v-6q117 -54 164 -152t47 -245v-187q0 -262 -142 -400.5t-410 -138.5h-560zM488 401h90q63 0 95 43.5t32 109.5v232q0 42 -19.5 87.5t-83.5 45.5h-114v-518zM488 1238h78 q42 0 66.5 18t36.5 43.5t15 52.5t3 42v157q0 63 -27.5 107t-90.5 44h-81v-464z" />
<glyph unicode="c" horiz-adv-x="1147" d="M45 485v1129q0 262 137 397.5t402 135.5q253 0 392 -129q142 -136 141 -404v-235h-427v244q0 39 -18 74t-82 35q-63 0 -82.5 -35t-19.5 -74v-1147q0 -39 19.5 -74t82.5 -35t81.5 35t18.5 74v289h427v-280q0 -268 -141 -404q-138 -129 -388 -129h-4q-265 0 -402 134 t-137 399z" />
<glyph unicode="d" horiz-adv-x="1204" d="M45 0v2108h557q271 0 414.5 -137t143.5 -396v-1042q0 -259 -143.5 -396t-414.5 -137h-557zM488 416h117q57 0 84.5 36t27.5 78v1045q0 45 -27 81.5t-85 36.5h-117v-1277z" />
<glyph unicode="e" horiz-adv-x="957" d="M45 0v2108h898v-418h-455v-410h403v-404h-403v-457h455v-419h-898z" />
<glyph unicode="f" horiz-adv-x="957" d="M45 0v2108h898v-418h-455v-410h434v-404h-434v-876h-443z" />
<glyph unicode="g" horiz-adv-x="1153" d="M45 491v1126q0 265 138.5 400.5t403.5 135.5q536 0 536 -536v-238h-427v250q0 39 -19.5 74t-83.5 35q-63 0 -84 -34.5t-21 -74.5v-1147q0 -39 19.5 -74t82.5 -38q63 3 84.5 38t21.5 74v364h-109v193h536v-1039h-117l-30 193h-18q-54 -120 -150.5 -177.5t-232.5 -57.5 q-268 0 -399 134t-131 399z" />
<glyph unicode="h" horiz-adv-x="1204" d="M45 0v2108h443v-804h229v804h443v-2108h-443v888h-229v-888h-443z" />
<glyph unicode="i" horiz-adv-x="533" d="M45 0v2108h443v-2108h-443z" />
<glyph unicode="j" horiz-adv-x="1114" d="M15 509v392h443v-419q0 -51 18 -84.5t66 -33.5q51 0 67.5 36.5t16.5 90.5v1617h443v-1596q0 -274 -128 -415.5t-399 -141.5q-274 0 -400.5 141.5t-126.5 412.5z" />
<glyph unicode="k" horiz-adv-x="1213" d="M45 0v2108h443v-894h24l268 894h407v-165l-296 -808l308 -972v-163h-431l-256 946h-24v-946h-443z" />
<glyph unicode="l" horiz-adv-x="942" d="M45 0v2108h446v-1689h437v-419h-883z" />
<glyph unicode="m" horiz-adv-x="1698" d="M45 0v2108h575l217 -1012h24l187 1012h605v-2108h-433v669l21 584h-15l-244 -1253h-268l-241 1253h-15l21 -584v-669h-434z" />
<glyph unicode="n" horiz-adv-x="1283" d="M45 0v2108h419l343 -1042h15l-18 545v497h434v-2108h-428l-337 1012h-15l21 -554v-458h-434z" />
<glyph unicode="o" horiz-adv-x="1204" d="M45 488v1129q0 259 141.5 396t415.5 137q271 0 414.5 -137t143.5 -396v-1129q0 -259 -143.5 -396t-414.5 -137q-274 0 -415.5 137t-141.5 396zM488 485q0 -42 25.5 -78.5t82.5 -36.5h6h3q57 0 84.5 36.5t27.5 78.5v1132q0 45 -27 81.5t-85 36.5h-3h-6q-57 0 -82.5 -36.5 t-25.5 -81.5v-1132z" />
<glyph unicode="p" horiz-adv-x="1153" d="M45 0v2108h506q280 0 433.5 -144.5t153.5 -418.5v-343q0 -274 -149 -419t-438 -145h-63v-638h-443zM488 1048h84q57 0 90.5 33t33.5 94v385q0 51 -27 92t-94 41h-87v-645z" />
<glyph unicode="q" horiz-adv-x="1228" d="M45 503v1117q0 259 143 396t414 137q274 0 416 -137t142 -396v-1030q0 -126 -38 -230t-128 -173l3 -15h217v-196h-621q-265 3 -406.5 137t-141.5 390zM488 491q0 -45 28.5 -81.5t91.5 -36.5q57 0 83 36.5t26 81.5v1132q0 42 -27 78.5t-91 36.5q-57 0 -84 -36t-27 -79 v-1132z" />
<glyph unicode="r" horiz-adv-x="1228" d="M45 0v2108h527q280 0 434 -144.5t154 -418.5v-211q0 -319 -205 -452l259 -719v-163h-431l-241 786h-54v-786h-443zM488 1120h93q60 0 98 41t38 104v295q0 51 -27 92t-94 41h-108v-573z" />
<glyph unicode="s" horiz-adv-x="1138" d="M30 485v277h428v-286q0 -39 19.5 -74t82.5 -35t81.5 35t18.5 74v57q0 96 -45.5 170t-113 140.5t-147.5 129.5t-149 138.5t-117.5 165.5t-51.5 211v126q0 262 135.5 397.5t400.5 135.5q250 0 389 -129q69 -69 105 -167t36 -237v-226h-427v235q0 39 -16.5 74t-80.5 35 q-63 0 -79.5 -35t-16.5 -74v-78q0 -69 45 -132.5t113 -126.5t147.5 -132.5t149 -150.5t117.5 -178t51 -217v-55.5v-37.5v-30q0 -265 -137 -399t-402 -134q-256 0 -394 129q-142 136 -142 404z" />
<glyph unicode="t" horiz-adv-x="1090" d="M15 1684v424h1060v-424h-310v-1684h-443v1684h-307z" />
<glyph unicode="u" horiz-adv-x="1204" d="M45 488v1617h443v-1620q0 -42 25.5 -78.5t82.5 -36.5h9q57 0 84.5 36.5t27.5 78.5v1620h443v-1617q0 -259 -143.5 -396t-414.5 -137q-274 0 -415.5 137t-141.5 396z" />
<glyph unicode="v" horiz-adv-x="1267" d="M15 1946v162h443l184 -1551h15l177 1551h419v-162l-319 -1946h-597z" />
<glyph unicode="w" horiz-adv-x="1918" d="M15 1946v162h446l105 -1322h18l181 1322h389l183 -1322h18l106 1322h442v-162l-253 -1946h-563l-120 1126h-18l-118 -1126h-563z" />
<glyph unicode="x" horiz-adv-x="1210" d="M15 0v142l262 948l-238 865v153h446l84 -415l36 -287h12l37 287l75 415h443v-159l-232 -850l256 -942v-157h-443l-108 527l-34 262h-15l-33 -259l-102 -530h-446z" />
<glyph unicode="y" horiz-adv-x="1267" d="M15 1946v162h443l184 -888h15l177 888h419v-162l-401 -1253v-693h-442v693z" />
<glyph unicode="z" horiz-adv-x="1005" d="M15 0v410l500 1280h-479v418h934v-409l-500 -1280h521v-419h-976z" />
<glyph unicode="{" d="M16.5 1680.5q13.5 310.5 248.5 418.5q21 12 46.5 22.5t46.5 16.5q24 9 49 18l256 -548l-250 -120q-45 -24 -39 -60.5t24 -69.5l358 -783q18 -33 42 -61.5t66 -7.5l253 117l265 -551q-24 -15 -45 -27t-43.5 -25.5t-43.5 -22.5q-120 -54 -242.5 -34.5t-244 117.5 t-248 281.5t-256.5 460.5q-256 548 -242.5 858.5z" />
<glyph unicode="|" d="M16.5 1680.5q13.5 310.5 248.5 418.5q21 12 46.5 22.5t46.5 16.5q24 9 49 18l256 -548l-250 -120q-45 -24 -39 -60.5t24 -69.5l358 -783q18 -33 42 -61.5t66 -7.5l253 117l265 -551q-24 -15 -45 -27t-43.5 -25.5t-43.5 -22.5q-120 -54 -242.5 -34.5t-244 117.5 t-248 281.5t-256.5 460.5q-256 548 -242.5 858.5z" />
<glyph unicode="}" d="M16.5 1680.5q13.5 310.5 248.5 418.5q21 12 46.5 22.5t46.5 16.5q24 9 49 18l256 -548l-250 -120q-45 -24 -39 -60.5t24 -69.5l358 -783q18 -33 42 -61.5t66 -7.5l253 117l265 -551q-24 -15 -45 -27t-43.5 -25.5t-43.5 -22.5q-120 -54 -242.5 -34.5t-244 117.5 t-248 281.5t-256.5 460.5q-256 548 -242.5 858.5z" />
<glyph unicode="~" d="M16.5 1680.5q13.5 310.5 248.5 418.5q21 12 46.5 22.5t46.5 16.5q24 9 49 18l256 -548l-250 -120q-45 -24 -39 -60.5t24 -69.5l358 -783q18 -33 42 -61.5t66 -7.5l253 117l265 -551q-24 -15 -45 -27t-43.5 -25.5t-43.5 -22.5q-120 -54 -242.5 -34.5t-244 117.5 t-248 281.5t-256.5 460.5q-256 548 -242.5 858.5z" />
<glyph unicode="&#xa3;" d="M16.5 1680.5q13.5 310.5 248.5 418.5q21 12 46.5 22.5t46.5 16.5q24 9 49 18l256 -548l-250 -120q-45 -24 -39 -60.5t24 -69.5l358 -783q18 -33 42 -61.5t66 -7.5l253 117l265 -551q-24 -15 -45 -27t-43.5 -25.5t-43.5 -22.5q-120 -54 -242.5 -34.5t-244 117.5 t-248 281.5t-256.5 460.5q-256 548 -242.5 858.5z" />
<glyph unicode="&#xa9;" d="M16.5 1680.5q13.5 310.5 248.5 418.5q21 12 46.5 22.5t46.5 16.5q24 9 49 18l256 -548l-250 -120q-45 -24 -39 -60.5t24 -69.5l358 -783q18 -33 42 -61.5t66 -7.5l253 117l265 -551q-24 -15 -45 -27t-43.5 -25.5t-43.5 -22.5q-120 -54 -242.5 -34.5t-244 117.5 t-248 281.5t-256.5 460.5q-256 548 -242.5 858.5z" />
<glyph unicode="&#xab;" horiz-adv-x="743" d="M45 1078l310 666h115l-184 -666l184 -665h-115zM349 1078l250 575h100l-112 -575l112 -575h-100z" />
<glyph unicode="&#xad;" horiz-adv-x="1204" d="M45 991v193h1115v-193h-1115z" />
<glyph unicode="&#xae;" d="M16.5 1680.5q13.5 310.5 248.5 418.5q21 12 46.5 22.5t46.5 16.5q24 9 49 18l256 -548l-250 -120q-45 -24 -39 -60.5t24 -69.5l358 -783q18 -33 42 -61.5t66 -7.5l253 117l265 -551q-24 -15 -45 -27t-43.5 -25.5t-43.5 -22.5q-120 -54 -242.5 -34.5t-244 117.5 t-248 281.5t-256.5 460.5q-256 548 -242.5 858.5z" />
<glyph unicode="&#xbb;" horiz-adv-x="743" d="M45 503l112 575l-112 575h100l250 -575l-250 -575h-100zM274 413l184 665l-184 666h115l310 -666l-310 -665h-115z" />
<glyph unicode="&#x401;" horiz-adv-x="957" d="M45 0v2108h898v-418h-455v-410h403v-404h-403v-457h455v-419h-898zM142 2168v94h289v-94h-289zM542 2168v94h289v-94h-289z" />
<glyph unicode="&#x402;" d="M16.5 1680.5q13.5 310.5 248.5 418.5q21 12 46.5 22.5t46.5 16.5q24 9 49 18l256 -548l-250 -120q-45 -24 -39 -60.5t24 -69.5l358 -783q18 -33 42 -61.5t66 -7.5l253 117l265 -551q-24 -15 -45 -27t-43.5 -25.5t-43.5 -22.5q-120 -54 -242.5 -34.5t-244 117.5 t-248 281.5t-256.5 460.5q-256 548 -242.5 858.5z" />
<glyph unicode="&#x403;" d="M16.5 1680.5q13.5 310.5 248.5 418.5q21 12 46.5 22.5t46.5 16.5q24 9 49 18l256 -548l-250 -120q-45 -24 -39 -60.5t24 -69.5l358 -783q18 -33 42 -61.5t66 -7.5l253 117l265 -551q-24 -15 -45 -27t-43.5 -25.5t-43.5 -22.5q-120 -54 -242.5 -34.5t-244 117.5 t-248 281.5t-256.5 460.5q-256 548 -242.5 858.5z" />
<glyph unicode="&#x404;" d="M16.5 1680.5q13.5 310.5 248.5 418.5q21 12 46.5 22.5t46.5 16.5q24 9 49 18l256 -548l-250 -120q-45 -24 -39 -60.5t24 -69.5l358 -783q18 -33 42 -61.5t66 -7.5l253 117l265 -551q-24 -15 -45 -27t-43.5 -25.5t-43.5 -22.5q-120 -54 -242.5 -34.5t-244 117.5 t-248 281.5t-256.5 460.5q-256 548 -242.5 858.5z" />
<glyph unicode="&#x405;" d="M16.5 1680.5q13.5 310.5 248.5 418.5q21 12 46.5 22.5t46.5 16.5q24 9 49 18l256 -548l-250 -120q-45 -24 -39 -60.5t24 -69.5l358 -783q18 -33 42 -61.5t66 -7.5l253 117l265 -551q-24 -15 -45 -27t-43.5 -25.5t-43.5 -22.5q-120 -54 -242.5 -34.5t-244 117.5 t-248 281.5t-256.5 460.5q-256 548 -242.5 858.5z" />
<glyph unicode="&#x406;" d="M16.5 1680.5q13.5 310.5 248.5 418.5q21 12 46.5 22.5t46.5 16.5q24 9 49 18l256 -548l-250 -120q-45 -24 -39 -60.5t24 -69.5l358 -783q18 -33 42 -61.5t66 -7.5l253 117l265 -551q-24 -15 -45 -27t-43.5 -25.5t-43.5 -22.5q-120 -54 -242.5 -34.5t-244 117.5 t-248 281.5t-256.5 460.5q-256 548 -242.5 858.5z" />
<glyph unicode="&#x407;" d="M16.5 1680.5q13.5 310.5 248.5 418.5q21 12 46.5 22.5t46.5 16.5q24 9 49 18l256 -548l-250 -120q-45 -24 -39 -60.5t24 -69.5l358 -783q18 -33 42 -61.5t66 -7.5l253 117l265 -551q-24 -15 -45 -27t-43.5 -25.5t-43.5 -22.5q-120 -54 -242.5 -34.5t-244 117.5 t-248 281.5t-256.5 460.5q-256 548 -242.5 858.5z" />
<glyph unicode="&#x408;" d="M16.5 1680.5q13.5 310.5 248.5 418.5q21 12 46.5 22.5t46.5 16.5q24 9 49 18l256 -548l-250 -120q-45 -24 -39 -60.5t24 -69.5l358 -783q18 -33 42 -61.5t66 -7.5l253 117l265 -551q-24 -15 -45 -27t-43.5 -25.5t-43.5 -22.5q-120 -54 -242.5 -34.5t-244 117.5 t-248 281.5t-256.5 460.5q-256 548 -242.5 858.5z" />
<glyph unicode="&#x409;" d="M16.5 1680.5q13.5 310.5 248.5 418.5q21 12 46.5 22.5t46.5 16.5q24 9 49 18l256 -548l-250 -120q-45 -24 -39 -60.5t24 -69.5l358 -783q18 -33 42 -61.5t66 -7.5l253 117l265 -551q-24 -15 -45 -27t-43.5 -25.5t-43.5 -22.5q-120 -54 -242.5 -34.5t-244 117.5 t-248 281.5t-256.5 460.5q-256 548 -242.5 858.5z" />
<glyph unicode="&#x40a;" d="M16.5 1680.5q13.5 310.5 248.5 418.5q21 12 46.5 22.5t46.5 16.5q24 9 49 18l256 -548l-250 -120q-45 -24 -39 -60.5t24 -69.5l358 -783q18 -33 42 -61.5t66 -7.5l253 117l265 -551q-24 -15 -45 -27t-43.5 -25.5t-43.5 -22.5q-120 -54 -242.5 -34.5t-244 117.5 t-248 281.5t-256.5 460.5q-256 548 -242.5 858.5z" />
<glyph unicode="&#x40b;" d="M16.5 1680.5q13.5 310.5 248.5 418.5q21 12 46.5 22.5t46.5 16.5q24 9 49 18l256 -548l-250 -120q-45 -24 -39 -60.5t24 -69.5l358 -783q18 -33 42 -61.5t66 -7.5l253 117l265 -551q-24 -15 -45 -27t-43.5 -25.5t-43.5 -22.5q-120 -54 -242.5 -34.5t-244 117.5 t-248 281.5t-256.5 460.5q-256 548 -242.5 858.5z" />
<glyph unicode="&#x40c;" d="M16.5 1680.5q13.5 310.5 248.5 418.5q21 12 46.5 22.5t46.5 16.5q24 9 49 18l256 -548l-250 -120q-45 -24 -39 -60.5t24 -69.5l358 -783q18 -33 42 -61.5t66 -7.5l253 117l265 -551q-24 -15 -45 -27t-43.5 -25.5t-43.5 -22.5q-120 -54 -242.5 -34.5t-244 117.5 t-248 281.5t-256.5 460.5q-256 548 -242.5 858.5z" />
<glyph unicode="&#x40e;" d="M16.5 1680.5q13.5 310.5 248.5 418.5q21 12 46.5 22.5t46.5 16.5q24 9 49 18l256 -548l-250 -120q-45 -24 -39 -60.5t24 -69.5l358 -783q18 -33 42 -61.5t66 -7.5l253 117l265 -551q-24 -15 -45 -27t-43.5 -25.5t-43.5 -22.5q-120 -54 -242.5 -34.5t-244 117.5 t-248 281.5t-256.5 460.5q-256 548 -242.5 858.5z" />
<glyph unicode="&#x40f;" d="M16.5 1680.5q13.5 310.5 248.5 418.5q21 12 46.5 22.5t46.5 16.5q24 9 49 18l256 -548l-250 -120q-45 -24 -39 -60.5t24 -69.5l358 -783q18 -33 42 -61.5t66 -7.5l253 117l265 -551q-24 -15 -45 -27t-43.5 -25.5t-43.5 -22.5q-120 -54 -242.5 -34.5t-244 117.5 t-248 281.5t-256.5 460.5q-256 548 -242.5 858.5z" />
<glyph unicode="&#x410;" horiz-adv-x="1267" d="M15 0v163l319 1945h597l322 -1945v-163h-440l-48 376h-295l-39 -376h-416zM518 735h202l-94 825h-15z" />
<glyph unicode="&#x411;" horiz-adv-x="1150" d="M45 0v2108h988v-418h-545v-311h60q289 0 438 -144.5t149 -418.5v-253q0 -274 -153.5 -418.5t-433.5 -144.5h-503zM488 416h84q66 0 93.5 40.5t27.5 91.5v295q0 60 -33.5 93.5t-90.5 33.5h-81v-554z" />
<glyph unicode="&#x412;" horiz-adv-x="1186" d="M45 -3v2111h551v-3q268 0 405 -132.5t137 -391.5v-33v-22v-11q0 -105 -39 -213.5t-153 -175.5v-6q117 -54 164 -152t47 -245v-187q0 -262 -142 -400.5t-410 -138.5h-560zM488 401h90q63 0 95 43.5t32 109.5v232q0 42 -19.5 87.5t-83.5 45.5h-114v-518zM488 1238h78 q42 0 66.5 18t36.5 43.5t15 52.5t3 42v157q0 63 -27.5 107t-90.5 44h-81v-464z" />
<glyph unicode="&#x413;" horiz-adv-x="957" d="M45 0v2108h898v-418h-452v-1690h-446z" />
<glyph unicode="&#x414;" horiz-adv-x="1334" d="M15 -160v555q42 6 67.5 33t42.5 66t26 81t12 82q6 81 12 186.5t9 223t6 239.5t6 239q3 271 3 563h1012v-1707h108v-561h-193v160h-915v-160h-196zM515 410l6 -9h247v1319h-175q-3 -217 -6 -429.5t-9 -390t-19.5 -307t-43.5 -183.5z" />
<glyph unicode="&#x415;" horiz-adv-x="957" d="M45 0v2108h898v-418h-455v-410h403v-404h-403v-457h455v-419h-898z" />
<glyph unicode="&#x416;" horiz-adv-x="1810" d="M15 0v413q36 0 52.5 19.5t16.5 49.5v244q0 148 47 245.5t164 151.5v6q-99 60 -138.5 150.5t-39.5 187.5v108q0 51 -16.5 86t-64.5 35v412q18 3 42 6q21 3 51.5 4.5t69.5 1.5q160 -6 254.5 -116t94.5 -299v-259q0 -18 3 -44t16.5 -51.5t37.5 -43.5t67 -18h15l-3 -379h-55 q-63 0 -82.5 -45.5t-19.5 -87.5v-367q0 -193 -92 -307.5t-263 -114.5q-45 0 -74 1.5t-50 4.5t-33 6zM684 0v2108h439v-819h15q42 0 66.5 18t38 43.5t16.5 51.5t3 44v259q0 190 95 299.5t254 115.5q39 0 69.5 -1.5t51.5 -4.5q24 -3 42 -6v-412q-48 0 -64.5 -35t-16.5 -86 v-108q0 -96 -39.5 -186.5t-138.5 -151.5v-6q117 -54 164 -152t47 -245v-244q0 -30 16.5 -49.5t52.5 -19.5v-413q-12 -3 -33 -6t-49.5 -4.5t-74.5 -1.5q-172 0 -263.5 114.5t-91.5 307.5v367q0 42 -19.5 87.5t-82.5 45.5h-55v-910h-442z" />
<glyph unicode="&#x417;" horiz-adv-x="1132" d="M30 488v277h425v-286q0 -39 19.5 -74t82.5 -35t83 35t20 74v292q0 48 -21.5 84t-87.5 36h-181v371h181q66 0 87.5 40.5t21.5 91.5v232q0 39 -20 74t-83 35t-82.5 -34.5t-19.5 -74.5v-241h-425v232q0 268 142 404q136 130 391 129q265 0 402 -134t137 -399v-186 q0 -120 -48 -206.5t-135 -128.5v-6q105 -51 144 -141.5t39 -240.5v-220q0 -265 -137 -399t-402 -134q-256 0 -391 129q-142 136 -142 404z" />
<glyph unicode="&#x418;" horiz-adv-x="1213" d="M45 0v2108h434v-497l-9 -509h15l355 1006h329v-2108h-434v458l9 518h-15l-347 -976h-337z" />
<glyph unicode="&#x419;" horiz-adv-x="1213" d="M45 0v2108h434v-497l-9 -509h15l355 1006h329v-2108h-434v458l9 518h-15l-347 -976h-337zM226 2168v94h753v-94h-753z" />
<glyph unicode="&#x41a;" horiz-adv-x="1186" d="M45 0v2108h440v-819h30q42 0 66 18t37.5 43.5t16.5 51.5t3 44v259q0 190 95 299.5t255 115.5q39 0 69 -1.5t51 -4.5q24 -3 42 -6v-412q-48 0 -64.5 -35t-16.5 -86v-108q0 -96 -39 -186.5t-139 -151.5v-6q117 -54 164 -152t47 -245v-244q0 -30 16.5 -49.5t53.5 -19.5v-413 q-12 -3 -34 -6q-21 -3 -49.5 -4.5t-73.5 -1.5q-172 0 -263.5 114.5t-91.5 307.5v367q0 42 -20 87.5t-83 45.5h-69v-910h-443z" />
<glyph unicode="&#x41b;" horiz-adv-x="1255" d="M15 -3v419q90 15 116 75t32 138q3 87 7.5 197.5t7.5 231t4.5 244t4.5 240.5q6 274 9 566h1015v-2108h-443v1720h-166q-3 0 -4.5 -74t-3 -191.5t-4.5 -263.5t-6 -290.5t-9 -272.5t-12 -209q-15 -190 -111.5 -307.5t-255.5 -123.5h-78.5t-57.5 3q-27 3 -45 6z" />
<glyph unicode="&#x41c;" horiz-adv-x="1698" d="M45 0v2108h575l217 -1012h24l187 1012h605v-2108h-433v669l21 584h-15l-244 -1253h-268l-241 1253h-15l21 -584v-669h-434z" />
<glyph unicode="&#x41d;" horiz-adv-x="1204" d="M45 0v2108h443v-804h229v804h443v-2108h-443v888h-229v-888h-443z" />
<glyph unicode="&#x41e;" horiz-adv-x="1204" d="M45 488v1129q0 259 141.5 396t415.5 137q271 0 414.5 -137t143.5 -396v-1129q0 -259 -143.5 -396t-414.5 -137q-274 0 -415.5 137t-141.5 396zM488 485q0 -42 25.5 -78.5t82.5 -36.5h6h3q57 0 84.5 36.5t27.5 78.5v1132q0 45 -27 81.5t-85 36.5h-3h-6q-57 0 -82.5 -36.5 t-25.5 -81.5v-1132z" />
<glyph unicode="&#x41f;" horiz-adv-x="1204" d="M45 0v2108h1115v-2108h-443v1705h-229v-1705h-443z" />
<glyph unicode="&#x420;" horiz-adv-x="1153" d="M45 0v2108h506q280 0 433.5 -144.5t153.5 -418.5v-343q0 -274 -149 -419t-438 -145h-63v-638h-443zM488 1048h84q57 0 90.5 33t33.5 94v385q0 51 -27 92t-94 41h-87v-645z" />
<glyph unicode="&#x421;" horiz-adv-x="1162" d="M45 485v1129q0 262 137 397.5t402 135.5q253 0 392 -129q142 -136 141 -404v-235h-427v244q0 39 -18 74t-82 35q-63 0 -82.5 -35t-19.5 -74v-1147q0 -39 19.5 -74t82.5 -35t81.5 35t18.5 74v289h427v-280q0 -268 -141 -404q-139 -130 -392 -129q-265 0 -402 134t-137 399 z" />
<glyph unicode="&#x422;" horiz-adv-x="1090" d="M15 1684v424h1060v-424h-310v-1684h-443v1684h-307z" />
<glyph unicode="&#x423;" horiz-adv-x="1231" d="M15 1949v162h443l174 -909h16l150 909h419v-162q-54 -220 -118 -461q-36 -142 -64.5 -249t-61.5 -229t-69.5 -256t-72.5 -269q-27 -93 -66 -179t-95 -154t-128 -111.5t-163 -49.5q-45 -3 -88.5 -3t-76.5 3q-39 3 -75 6v434q84 -6 135 4.5t79.5 33t42.5 52.5t20 60z" />
<glyph unicode="&#x424;" horiz-adv-x="1710" d="M30 642v825q0 274 141.5 424.5t433.5 150.5h40v145h424v-145h36q295 0 435.5 -150.5t140.5 -424.5v-825q0 -274 -140.5 -425t-435.5 -151h-36v-144h-424v144h-40q-292 0 -433.5 150.5t-141.5 425.5zM473 617q0 -69 31.5 -108t100.5 -39h40v1168h-46q-69 0 -97.5 -42 t-28.5 -111v-868zM1069 470h42q66 0 96.5 39t30.5 108v868q0 69 -30 111t-103 42h-36v-1168z" />
<glyph unicode="&#x425;" horiz-adv-x="1210" d="M15 0v142l262 948l-238 865v153h446l84 -415l36 -287h12l37 287l75 415h443v-159l-232 -850l256 -942v-157h-443l-108 527l-34 262h-15l-33 -259l-102 -530h-446z" />
<glyph unicode="&#x426;" horiz-adv-x="1283" d="M45 0v2108h443v-1704h229v1704h443v-1707h108v-552h-193v151h-1030z" />
<glyph unicode="&#x427;" horiz-adv-x="1171" d="M15 1223v885h443v-813q0 -60 27 -94.5t81 -34.5q24 0 45 7.5t40 16.5q18 9 33 21v897h442v-2108h-442v807l-6 6q-27 -18 -61 -30q-33 -15 -72 -24t-87 -9q-199 0 -321 129.5t-122 343.5z" />
<glyph unicode="&#x428;" horiz-adv-x="1816" d="M45 0v2108h443v-1704h199v1704h442v-1704h199v1704h443v-2108h-1726z" />
<glyph unicode="&#x429;" horiz-adv-x="1894" d="M45 0v2108h443v-1704h199v1704h442v-1704h199v1704h443v-1707h108v-552h-192v151h-1642z" />
<glyph unicode="&#x42a;" horiz-adv-x="1295" d="M15 1909v199h593v-638h85q289 0 438 -144.5t149 -418.5v-344q0 -274 -153.5 -418.5t-433.5 -144.5h-527v1909h-151zM608 416h109q66 0 93 40.5t27 91.5v386q0 60 -33 93t-90 33h-106v-644z" />
<glyph unicode="&#x42b;" horiz-adv-x="1665" d="M45 0v2108h443v-638h54q289 0 430.5 -144.5t141.5 -418.5v-344q0 -274 -146 -418.5t-426 -144.5h-497zM488 416h78q66 0 93.5 40.5t27.5 91.5v386q0 60 -33.5 93t-90.5 33h-75v-644zM1178 0v2108h442v-2108h-442z" />
<glyph unicode="&#x42c;" horiz-adv-x="1174" d="M45 0v2108h443v-638h84q289 0 438.5 -144.5t149.5 -418.5v-344q0 -274 -154 -418.5t-434 -144.5h-527zM488 416h108q66 0 93.5 40.5t27.5 91.5v386q0 60 -33 93t-91 33h-105v-644z" />
<glyph unicode="&#x42d;" horiz-adv-x="1135" d="M30 485v280h425v-289q0 -39 19.5 -74t82.5 -35q60 0 80 35t20 74v415h-287v371h287v361q0 39 -20 74t-80 35q-63 0 -82.5 -35t-19.5 -74v-238h-425v229q0 268 139 404q138 129 391 129q265 0 397.5 -135.5t132.5 -397.5v-1129q0 -265 -132.5 -399t-397.5 -134 q-253 0 -391 129q-139 136 -139 404z" />
<glyph unicode="&#x42e;" horiz-adv-x="1788" d="M45 0v2108h443v-828h166v337q0 259 131 396t405 137q271 0 412.5 -137t141.5 -396v-1129q0 -259 -141.5 -396t-412.5 -137q-274 0 -405 137t-131 396v388h-166v-876h-443zM1078 485q0 -42 24 -78.5t82 -36.5h9q57 0 82.5 36.5t25.5 78.5v1132q0 45 -25.5 81.5t-82.5 36.5 h-9q-57 0 -81.5 -36.5t-24.5 -81.5v-1132z" />
<glyph unicode="&#x42f;" horiz-adv-x="1210" d="M15 0v413q36 0 52.5 19.5t16.5 49.5v135q0 145 44 229.5t155 138.5v12q-114 60 -173 162.5t-59 274.5v111q0 274 153.5 418.5t433.5 144.5h528v-2108h-443v819h-94q-63 0 -82.5 -45t-19.5 -87v-277q0 -193 -92 -307.5t-263 -114.5q-45 0 -74 1.5t-50 4.5t-33 6zM494 1325 q0 -63 37.5 -103.5t97.5 -40.5h94v512h-109q-66 0 -93 -41t-27 -92v-235z" />
<glyph unicode="&#x430;" horiz-adv-x="1267" d="M15 0v163l319 1945h597l322 -1945v-163h-440l-48 376h-295l-39 -376h-416zM518 735h202l-94 825h-15z" />
<glyph unicode="&#x431;" horiz-adv-x="1150" d="M45 0v2108h988v-418h-545v-311h60q289 0 438 -144.5t149 -418.5v-253q0 -274 -153.5 -418.5t-433.5 -144.5h-503zM488 416h84q66 0 93.5 40.5t27.5 91.5v295q0 60 -33.5 93.5t-90.5 33.5h-81v-554z" />
<glyph unicode="&#x432;" horiz-adv-x="1186" d="M45 -3v2111h551v-3q268 0 405 -132.5t137 -391.5v-33v-22v-11q0 -105 -39 -213.5t-153 -175.5v-6q117 -54 164 -152t47 -245v-187q0 -262 -142 -400.5t-410 -138.5h-560zM488 401h90q63 0 95 43.5t32 109.5v232q0 42 -19.5 87.5t-83.5 45.5h-114v-518zM488 1238h78 q42 0 66.5 18t36.5 43.5t15 52.5t3 42v157q0 63 -27.5 107t-90.5 44h-81v-464z" />
<glyph unicode="&#x433;" horiz-adv-x="957" d="M45 0v2108h898v-418h-452v-1690h-446z" />
<glyph unicode="&#x434;" horiz-adv-x="1334" d="M15 -160v555q42 6 67.5 33t42.5 66t26 81t12 82q6 81 12 186.5t9 223t6 239.5t6 239q3 271 3 563h1012v-1707h108v-561h-193v160h-915v-160h-196zM515 410l6 -9h247v1319h-175q-3 -217 -6 -429.5t-9 -390t-19.5 -307t-43.5 -183.5z" />
<glyph unicode="&#x435;" horiz-adv-x="957" d="M45 0v2108h898v-418h-455v-410h403v-404h-403v-457h455v-419h-898z" />
<glyph unicode="&#x436;" horiz-adv-x="1810" d="M15 0v413q36 0 52.5 19.5t16.5 49.5v244q0 148 47 245.5t164 151.5v6q-99 60 -138.5 150.5t-39.5 187.5v108q0 51 -16.5 86t-64.5 35v412q18 3 42 6q21 3 51.5 4.5t69.5 1.5q160 -6 254.5 -116t94.5 -299v-259q0 -18 3 -44t16.5 -51.5t37.5 -43.5t67 -18h15l-3 -379h-55 q-63 0 -82.5 -45.5t-19.5 -87.5v-367q0 -193 -92 -307.5t-263 -114.5q-45 0 -74 1.5t-50 4.5t-33 6zM684 0v2108h439v-819h15q42 0 66.5 18t38 43.5t16.5 51.5t3 44v259q0 190 95 299.5t254 115.5q39 0 69.5 -1.5t51.5 -4.5q24 -3 42 -6v-412q-48 0 -64.5 -35t-16.5 -86 v-108q0 -96 -39.5 -186.5t-138.5 -151.5v-6q117 -54 164 -152t47 -245v-244q0 -30 16.5 -49.5t52.5 -19.5v-413q-12 -3 -33 -6t-49.5 -4.5t-74.5 -1.5q-172 0 -263.5 114.5t-91.5 307.5v367q0 42 -19.5 87.5t-82.5 45.5h-55v-910h-442z" />
<glyph unicode="&#x437;" horiz-adv-x="1132" d="M30 488v277h425v-286q0 -39 19.5 -74t82.5 -35t83 35t20 74v292q0 48 -21.5 84t-87.5 36h-181v371h181q66 0 87.5 40.5t21.5 91.5v232q0 39 -20 74t-83 35t-82.5 -34.5t-19.5 -74.5v-241h-425v232q0 268 142 404q136 130 391 129q265 0 402 -134t137 -399v-186 q0 -120 -48 -206.5t-135 -128.5v-6q105 -51 144 -141.5t39 -240.5v-220q0 -265 -137 -399t-402 -134q-256 0 -391 129q-142 136 -142 404z" />
<glyph unicode="&#x438;" horiz-adv-x="1213" d="M45 0v2108h434v-497l-9 -509h15l355 1006h329v-2108h-434v458l9 518h-15l-347 -976h-337z" />
<glyph unicode="&#x439;" horiz-adv-x="1213" d="M45 0v2108h434v-497l-9 -509h15l355 1006h329v-2108h-434v458l9 518h-15l-347 -976h-337zM226 2168v94h753v-94h-753z" />
<glyph unicode="&#x43a;" horiz-adv-x="1186" d="M45 0v2108h440v-819h30q42 0 66 18t37.5 43.5t16.5 51.5t3 44v259q0 190 95 299.5t255 115.5q39 0 69 -1.5t51 -4.5q24 -3 42 -6v-412q-48 0 -64.5 -35t-16.5 -86v-108q0 -96 -39 -186.5t-139 -151.5v-6q117 -54 164 -152t47 -245v-244q0 -30 16.5 -49.5t53.5 -19.5v-413 q-12 -3 -34 -6q-21 -3 -49.5 -4.5t-73.5 -1.5q-172 0 -263.5 114.5t-91.5 307.5v367q0 42 -20 87.5t-83 45.5h-69v-910h-443z" />
<glyph unicode="&#x43b;" horiz-adv-x="1255" d="M15 -3v419q90 15 116 75t32 138q3 87 7.5 197.5t7.5 231t4.5 244t4.5 240.5q6 274 9 566h1015v-2108h-443v1720h-166q-3 0 -4.5 -74t-3 -191.5t-4.5 -263.5t-6 -290.5t-9 -272.5t-12 -209q-15 -190 -111.5 -307.5t-255.5 -123.5h-78.5t-57.5 3q-27 3 -45 6z" />
<glyph unicode="&#x43c;" horiz-adv-x="1698" d="M45 0v2108h575l217 -1012h24l187 1012h605v-2108h-433v669l21 584h-15l-244 -1253h-268l-241 1253h-15l21 -584v-669h-434z" />
<glyph unicode="&#x43d;" horiz-adv-x="1204" d="M45 0v2108h443v-804h229v804h443v-2108h-443v888h-229v-888h-443z" />
<glyph unicode="&#x43e;" horiz-adv-x="1204" d="M45 488v1129q0 259 141.5 396t415.5 137q271 0 414.5 -137t143.5 -396v-1129q0 -259 -143.5 -396t-414.5 -137q-274 0 -415.5 137t-141.5 396zM488 485q0 -42 25.5 -78.5t82.5 -36.5h6h3q57 0 84.5 36.5t27.5 78.5v1132q0 45 -27 81.5t-85 36.5h-3h-6q-57 0 -82.5 -36.5 t-25.5 -81.5v-1132z" />
<glyph unicode="&#x43f;" horiz-adv-x="1204" d="M45 0v2108h1115v-2108h-443v1705h-229v-1705h-443z" />
<glyph unicode="&#x440;" horiz-adv-x="1153" d="M45 0v2108h506q280 0 433.5 -144.5t153.5 -418.5v-343q0 -274 -149 -419t-438 -145h-63v-638h-443zM488 1048h84q57 0 90.5 33t33.5 94v385q0 51 -27 92t-94 41h-87v-645z" />
<glyph unicode="&#x441;" horiz-adv-x="1162" d="M45 485v1129q0 262 137 397.5t402 135.5q253 0 392 -129q142 -136 141 -404v-235h-427v244q0 39 -18 74t-82 35q-63 0 -82.5 -35t-19.5 -74v-1147q0 -39 19.5 -74t82.5 -35t81.5 35t18.5 74v289h427v-280q0 -268 -141 -404q-139 -130 -392 -129q-265 0 -402 134t-137 399 z" />
<glyph unicode="&#x442;" horiz-adv-x="1090" d="M15 1684v424h1060v-424h-310v-1684h-443v1684h-307z" />
<glyph unicode="&#x443;" horiz-adv-x="1231" d="M15 1949v162h443l174 -909h16l150 909h419v-162q-54 -220 -118 -461q-36 -142 -64.5 -249t-61.5 -229t-69.5 -256t-72.5 -269q-27 -93 -66 -179t-95 -154t-128 -111.5t-163 -49.5q-45 -3 -88.5 -3t-76.5 3q-39 3 -75 6v434q84 -6 135 4.5t79.5 33t42.5 52.5t20 60z" />
<glyph unicode="&#x444;" horiz-adv-x="1710" d="M30 642v825q0 274 141.5 424.5t433.5 150.5h40v145h424v-145h36q295 0 435.5 -150.5t140.5 -424.5v-825q0 -274 -140.5 -425t-435.5 -151h-36v-144h-424v144h-40q-292 0 -433.5 150.5t-141.5 425.5zM473 617q0 -69 31.5 -108t100.5 -39h40v1168h-46q-69 0 -97.5 -42 t-28.5 -111v-868zM1069 470h42q66 0 96.5 39t30.5 108v868q0 69 -30 111t-103 42h-36v-1168z" />
<glyph unicode="&#x445;" horiz-adv-x="1210" d="M15 0v142l262 948l-238 865v153h446l84 -415l36 -287h12l37 287l75 415h443v-159l-232 -850l256 -942v-157h-443l-108 527l-34 262h-15l-33 -259l-102 -530h-446z" />
<glyph unicode="&#x446;" horiz-adv-x="1283" d="M45 0v2108h443v-1704h229v1704h443v-1707h108v-552h-193v151h-1030z" />
<glyph unicode="&#x447;" horiz-adv-x="1171" d="M15 1223v885h443v-813q0 -60 27 -94.5t81 -34.5q24 0 45 7.5t40 16.5q18 9 33 21v897h442v-2108h-442v807l-6 6q-27 -18 -61 -30q-33 -15 -72 -24t-87 -9q-199 0 -321 129.5t-122 343.5z" />
<glyph unicode="&#x448;" horiz-adv-x="1816" d="M45 0v2108h443v-1704h199v1704h442v-1704h199v1704h443v-2108h-1726z" />
<glyph unicode="&#x449;" horiz-adv-x="1894" d="M45 0v2108h443v-1704h199v1704h442v-1704h199v1704h443v-1707h108v-552h-192v151h-1642z" />
<glyph unicode="&#x44a;" horiz-adv-x="1295" d="M15 1909v199h593v-638h85q289 0 438 -144.5t149 -418.5v-344q0 -274 -153.5 -418.5t-433.5 -144.5h-527v1909h-151zM608 416h109q66 0 93 40.5t27 91.5v386q0 60 -33 93t-90 33h-106v-644z" />
<glyph unicode="&#x44b;" horiz-adv-x="1665" d="M45 0v2108h443v-638h54q289 0 430.5 -144.5t141.5 -418.5v-344q0 -274 -146 -418.5t-426 -144.5h-497zM488 416h78q66 0 93.5 40.5t27.5 91.5v386q0 60 -33.5 93t-90.5 33h-75v-644zM1178 0v2108h442v-2108h-442z" />
<glyph unicode="&#x44c;" horiz-adv-x="1174" d="M45 0v2108h443v-638h84q289 0 438.5 -144.5t149.5 -418.5v-344q0 -274 -154 -418.5t-434 -144.5h-527zM488 416h108q66 0 93.5 40.5t27.5 91.5v386q0 60 -33 93t-91 33h-105v-644z" />
<glyph unicode="&#x44d;" horiz-adv-x="1135" d="M30 485v280h425v-289q0 -39 19.5 -74t82.5 -35q60 0 80 35t20 74v415h-287v371h287v361q0 39 -20 74t-80 35q-63 0 -82.5 -35t-19.5 -74v-238h-425v229q0 268 139 404q138 129 391 129q265 0 397.5 -135.5t132.5 -397.5v-1129q0 -265 -132.5 -399t-397.5 -134 q-253 0 -391 129q-139 136 -139 404z" />
<glyph unicode="&#x44e;" horiz-adv-x="1788" d="M45 0v2108h443v-828h166v337q0 259 131 396t405 137q271 0 412.5 -137t141.5 -396v-1129q0 -259 -141.5 -396t-412.5 -137q-274 0 -405 137t-131 396v388h-166v-876h-443zM1078 485q0 -42 24 -78.5t82 -36.5h9q57 0 82.5 36.5t25.5 78.5v1132q0 45 -25.5 81.5t-82.5 36.5 h-9q-57 0 -81.5 -36.5t-24.5 -81.5v-1132z" />
<glyph unicode="&#x44f;" horiz-adv-x="1210" d="M15 0v413q36 0 52.5 19.5t16.5 49.5v135q0 145 44 229.5t155 138.5v12q-114 60 -173 162.5t-59 274.5v111q0 274 153.5 418.5t433.5 144.5h528v-2108h-443v819h-94q-63 0 -82.5 -45t-19.5 -87v-277q0 -193 -92 -307.5t-263 -114.5q-45 0 -74 1.5t-50 4.5t-33 6zM494 1325 q0 -63 37.5 -103.5t97.5 -40.5h94v512h-109q-66 0 -93 -41t-27 -92v-235z" />
<glyph unicode="&#x451;" horiz-adv-x="957" d="M45 0v2108h898v-418h-455v-410h403v-404h-403v-457h455v-419h-898zM142 2168v94h289v-94h-289zM542 2168v94h289v-94h-289z" />
<glyph unicode="&#x452;" d="M16.5 1680.5q13.5 310.5 248.5 418.5q21 12 46.5 22.5t46.5 16.5q24 9 49 18l256 -548l-250 -120q-45 -24 -39 -60.5t24 -69.5l358 -783q18 -33 42 -61.5t66 -7.5l253 117l265 -551q-24 -15 -45 -27t-43.5 -25.5t-43.5 -22.5q-120 -54 -242.5 -34.5t-244 117.5 t-248 281.5t-256.5 460.5q-256 548 -242.5 858.5z" />
<glyph unicode="&#x453;" d="M16.5 1680.5q13.5 310.5 248.5 418.5q21 12 46.5 22.5t46.5 16.5q24 9 49 18l256 -548l-250 -120q-45 -24 -39 -60.5t24 -69.5l358 -783q18 -33 42 -61.5t66 -7.5l253 117l265 -551q-24 -15 -45 -27t-43.5 -25.5t-43.5 -22.5q-120 -54 -242.5 -34.5t-244 117.5 t-248 281.5t-256.5 460.5q-256 548 -242.5 858.5z" />
<glyph unicode="&#x454;" d="M16.5 1680.5q13.5 310.5 248.5 418.5q21 12 46.5 22.5t46.5 16.5q24 9 49 18l256 -548l-250 -120q-45 -24 -39 -60.5t24 -69.5l358 -783q18 -33 42 -61.5t66 -7.5l253 117l265 -551q-24 -15 -45 -27t-43.5 -25.5t-43.5 -22.5q-120 -54 -242.5 -34.5t-244 117.5 t-248 281.5t-256.5 460.5q-256 548 -242.5 858.5z" />
<glyph unicode="&#x455;" d="M16.5 1680.5q13.5 310.5 248.5 418.5q21 12 46.5 22.5t46.5 16.5q24 9 49 18l256 -548l-250 -120q-45 -24 -39 -60.5t24 -69.5l358 -783q18 -33 42 -61.5t66 -7.5l253 117l265 -551q-24 -15 -45 -27t-43.5 -25.5t-43.5 -22.5q-120 -54 -242.5 -34.5t-244 117.5 t-248 281.5t-256.5 460.5q-256 548 -242.5 858.5z" />
<glyph unicode="&#x456;" d="M16.5 1680.5q13.5 310.5 248.5 418.5q21 12 46.5 22.5t46.5 16.5q24 9 49 18l256 -548l-250 -120q-45 -24 -39 -60.5t24 -69.5l358 -783q18 -33 42 -61.5t66 -7.5l253 117l265 -551q-24 -15 -45 -27t-43.5 -25.5t-43.5 -22.5q-120 -54 -242.5 -34.5t-244 117.5 t-248 281.5t-256.5 460.5q-256 548 -242.5 858.5z" />
<glyph unicode="&#x457;" d="M16.5 1680.5q13.5 310.5 248.5 418.5q21 12 46.5 22.5t46.5 16.5q24 9 49 18l256 -548l-250 -120q-45 -24 -39 -60.5t24 -69.5l358 -783q18 -33 42 -61.5t66 -7.5l253 117l265 -551q-24 -15 -45 -27t-43.5 -25.5t-43.5 -22.5q-120 -54 -242.5 -34.5t-244 117.5 t-248 281.5t-256.5 460.5q-256 548 -242.5 858.5z" />
<glyph unicode="&#x458;" d="M16.5 1680.5q13.5 310.5 248.5 418.5q21 12 46.5 22.5t46.5 16.5q24 9 49 18l256 -548l-250 -120q-45 -24 -39 -60.5t24 -69.5l358 -783q18 -33 42 -61.5t66 -7.5l253 117l265 -551q-24 -15 -45 -27t-43.5 -25.5t-43.5 -22.5q-120 -54 -242.5 -34.5t-244 117.5 t-248 281.5t-256.5 460.5q-256 548 -242.5 858.5z" />
<glyph unicode="&#x459;" d="M16.5 1680.5q13.5 310.5 248.5 418.5q21 12 46.5 22.5t46.5 16.5q24 9 49 18l256 -548l-250 -120q-45 -24 -39 -60.5t24 -69.5l358 -783q18 -33 42 -61.5t66 -7.5l253 117l265 -551q-24 -15 -45 -27t-43.5 -25.5t-43.5 -22.5q-120 -54 -242.5 -34.5t-244 117.5 t-248 281.5t-256.5 460.5q-256 548 -242.5 858.5z" />
<glyph unicode="&#x45a;" d="M16.5 1680.5q13.5 310.5 248.5 418.5q21 12 46.5 22.5t46.5 16.5q24 9 49 18l256 -548l-250 -120q-45 -24 -39 -60.5t24 -69.5l358 -783q18 -33 42 -61.5t66 -7.5l253 117l265 -551q-24 -15 -45 -27t-43.5 -25.5t-43.5 -22.5q-120 -54 -242.5 -34.5t-244 117.5 t-248 281.5t-256.5 460.5q-256 548 -242.5 858.5z" />
<glyph unicode="&#x45b;" d="M16.5 1680.5q13.5 310.5 248.5 418.5q21 12 46.5 22.5t46.5 16.5q24 9 49 18l256 -548l-250 -120q-45 -24 -39 -60.5t24 -69.5l358 -783q18 -33 42 -61.5t66 -7.5l253 117l265 -551q-24 -15 -45 -27t-43.5 -25.5t-43.5 -22.5q-120 -54 -242.5 -34.5t-244 117.5 t-248 281.5t-256.5 460.5q-256 548 -242.5 858.5z" />
<glyph unicode="&#x45c;" d="M16.5 1680.5q13.5 310.5 248.5 418.5q21 12 46.5 22.5t46.5 16.5q24 9 49 18l256 -548l-250 -120q-45 -24 -39 -60.5t24 -69.5l358 -783q18 -33 42 -61.5t66 -7.5l253 117l265 -551q-24 -15 -45 -27t-43.5 -25.5t-43.5 -22.5q-120 -54 -242.5 -34.5t-244 117.5 t-248 281.5t-256.5 460.5q-256 548 -242.5 858.5z" />
<glyph unicode="&#x45e;" d="M16.5 1680.5q13.5 310.5 248.5 418.5q21 12 46.5 22.5t46.5 16.5q24 9 49 18l256 -548l-250 -120q-45 -24 -39 -60.5t24 -69.5l358 -783q18 -33 42 -61.5t66 -7.5l253 117l265 -551q-24 -15 -45 -27t-43.5 -25.5t-43.5 -22.5q-120 -54 -242.5 -34.5t-244 117.5 t-248 281.5t-256.5 460.5q-256 548 -242.5 858.5z" />
<glyph unicode="&#x45f;" d="M16.5 1680.5q13.5 310.5 248.5 418.5q21 12 46.5 22.5t46.5 16.5q24 9 49 18l256 -548l-250 -120q-45 -24 -39 -60.5t24 -69.5l358 -783q18 -33 42 -61.5t66 -7.5l253 117l265 -551q-24 -15 -45 -27t-43.5 -25.5t-43.5 -22.5q-120 -54 -242.5 -34.5t-244 117.5 t-248 281.5t-256.5 460.5q-256 548 -242.5 858.5z" />
<glyph unicode="&#x490;" d="M16.5 1680.5q13.5 310.5 248.5 418.5q21 12 46.5 22.5t46.5 16.5q24 9 49 18l256 -548l-250 -120q-45 -24 -39 -60.5t24 -69.5l358 -783q18 -33 42 -61.5t66 -7.5l253 117l265 -551q-24 -15 -45 -27t-43.5 -25.5t-43.5 -22.5q-120 -54 -242.5 -34.5t-244 117.5 t-248 281.5t-256.5 460.5q-256 548 -242.5 858.5z" />
<glyph unicode="&#x491;" d="M16.5 1680.5q13.5 310.5 248.5 418.5q21 12 46.5 22.5t46.5 16.5q24 9 49 18l256 -548l-250 -120q-45 -24 -39 -60.5t24 -69.5l358 -783q18 -33 42 -61.5t66 -7.5l253 117l265 -551q-24 -15 -45 -27t-43.5 -25.5t-43.5 -22.5q-120 -54 -242.5 -34.5t-244 117.5 t-248 281.5t-256.5 460.5q-256 548 -242.5 858.5z" />
<glyph unicode="&#x2000;" horiz-adv-x="1131" />
<glyph unicode="&#x2001;" horiz-adv-x="2262" />
<glyph unicode="&#x2002;" horiz-adv-x="1131" />
<glyph unicode="&#x2003;" horiz-adv-x="2262" />
<glyph unicode="&#x2004;" horiz-adv-x="754" />
<glyph unicode="&#x2005;" horiz-adv-x="565" />
<glyph unicode="&#x2006;" horiz-adv-x="377" />
<glyph unicode="&#x2007;" horiz-adv-x="377" />
<glyph unicode="&#x2008;" horiz-adv-x="282" />
<glyph unicode="&#x2009;" horiz-adv-x="452" />
<glyph unicode="&#x200a;" horiz-adv-x="125" />
<glyph unicode="&#x2010;" horiz-adv-x="1204" d="M45 991v193h1115v-193h-1115z" />
<glyph unicode="&#x2011;" horiz-adv-x="1204" d="M45 991v193h1115v-193h-1115z" />
<glyph unicode="&#x2012;" horiz-adv-x="1204" d="M45 991v193h1115v-193h-1115z" />
<glyph unicode="&#x2013;" horiz-adv-x="1204" d="M45 991v193h1115v-193h-1115z" />
<glyph unicode="&#x2014;" horiz-adv-x="1204" d="M45 991v193h1115v-193h-1115z" />
<glyph unicode="&#x2018;" d="M16.5 1680.5q13.5 310.5 248.5 418.5q21 12 46.5 22.5t46.5 16.5q24 9 49 18l256 -548l-250 -120q-45 -24 -39 -60.5t24 -69.5l358 -783q18 -33 42 -61.5t66 -7.5l253 117l265 -551q-24 -15 -45 -27t-43.5 -25.5t-43.5 -22.5q-120 -54 -242.5 -34.5t-244 117.5 t-248 281.5t-256.5 460.5q-256 548 -242.5 858.5z" />
<glyph unicode="&#x2019;" d="M16.5 1680.5q13.5 310.5 248.5 418.5q21 12 46.5 22.5t46.5 16.5q24 9 49 18l256 -548l-250 -120q-45 -24 -39 -60.5t24 -69.5l358 -783q18 -33 42 -61.5t66 -7.5l253 117l265 -551q-24 -15 -45 -27t-43.5 -25.5t-43.5 -22.5q-120 -54 -242.5 -34.5t-244 117.5 t-248 281.5t-256.5 460.5q-256 548 -242.5 858.5z" />
<glyph unicode="&#x201c;" d="M16.5 1680.5q13.5 310.5 248.5 418.5q21 12 46.5 22.5t46.5 16.5q24 9 49 18l256 -548l-250 -120q-45 -24 -39 -60.5t24 -69.5l358 -783q18 -33 42 -61.5t66 -7.5l253 117l265 -551q-24 -15 -45 -27t-43.5 -25.5t-43.5 -22.5q-120 -54 -242.5 -34.5t-244 117.5 t-248 281.5t-256.5 460.5q-256 548 -242.5 858.5z" />
<glyph unicode="&#x201d;" d="M16.5 1680.5q13.5 310.5 248.5 418.5q21 12 46.5 22.5t46.5 16.5q24 9 49 18l256 -548l-250 -120q-45 -24 -39 -60.5t24 -69.5l358 -783q18 -33 42 -61.5t66 -7.5l253 117l265 -551q-24 -15 -45 -27t-43.5 -25.5t-43.5 -22.5q-120 -54 -242.5 -34.5t-244 117.5 t-248 281.5t-256.5 460.5q-256 548 -242.5 858.5z" />
<glyph unicode="&#x201e;" horiz-adv-x="704" d="M45 -151v555h292v-181l-150 -374h-142zM367 -151v555h293v-181l-151 -374h-142z" />
<glyph unicode="&#x2022;" horiz-adv-x="611" d="M45 1096q0 108 75.5 185t183.5 77t185 -76.5t77 -185.5q0 -108 -76.5 -183.5t-185.5 -75.5q-108 0 -183.5 75.5t-75.5 183.5z" />
<glyph unicode="&#x2026;" horiz-adv-x="1237" d="M45 0v404h322v-404h-322zM458 0v404h322v-404h-322zM870 0v404h323v-404h-323z" />
<glyph unicode="&#x202f;" horiz-adv-x="452" />
<glyph unicode="&#x205f;" horiz-adv-x="565" />
<glyph unicode="&#x20ac;" d="M16.5 1680.5q13.5 310.5 248.5 418.5q21 12 46.5 22.5t46.5 16.5q24 9 49 18l256 -548l-250 -120q-45 -24 -39 -60.5t24 -69.5l358 -783q18 -33 42 -61.5t66 -7.5l253 117l265 -551q-24 -15 -45 -27t-43.5 -25.5t-43.5 -22.5q-120 -54 -242.5 -34.5t-244 117.5 t-248 281.5t-256.5 460.5q-256 548 -242.5 858.5z" />
<glyph unicode="&#x2122;" horiz-adv-x="993" d="M45 1988v120h365v-120h-121v-482h-126v482h-118zM428 1506v602h159l100 -319h6l90 319h166v-602h-124v190l6 168h-6l-99 -358h-75l-100 358h-3l6 -168v-190h-126z" />
<glyph unicode="&#x25fc;" horiz-adv-x="2108" d="M0 0v2108h2108v-2108h-2108z" />
</font>
</defs>
</svg>
