<svg xmlns="http://www.w3.org/2000/svg" viewBox="0 0 197 32"> <path class="ui-logo__chulakov" fill-rule="evenodd" clip-rule="evenodd" d="M0,32V0h140v32H0z M15.003,12.066c1.379,0,2.145,0.758,2.298,2.143h4.041 c-0.325-3.583-2.796-5.214-6.358-5.214c-4.002,0-6.99,2.75-6.99,6.921v0.151c0,4.153,2.356,6.922,7.144,6.922 c3.543,0,6.109-1.82,6.377-5.328h-3.907c-0.191,1.498-1.168,2.219-2.547,2.219c-1.877,0-2.93-1.385-2.93-3.83v-0.152 C12.131,13.431,13.242,12.066,15.003,12.066z M37.467,9.203h-3.926v5.177h-4.5V9.203h-3.945v13.558h3.945v-5.347h4.5v5.347h3.926 V9.203z M53.971,9.203h-3.964v7.832c0,2.028-0.517,2.901-2.145,2.901c-1.667,0-2.145-0.93-2.145-2.845V9.203h-3.926v8.059 c0,3.793,2.202,5.727,6.071,5.727c3.772,0,6.109-1.84,6.109-5.783V9.203z M67.401,19.746H62.23V9.203h-3.945v13.558h9.116V19.746z M79.609,9.203h-5.074l-4.386,13.558h3.657l0.729-2.522h4.539l0.727,2.522h4.156L79.609,9.203z M99.239,9.203h-4.099l-4.117,5.366 V9.203h-3.945v13.558h3.945v-5.67l3.945,5.67h4.539l-5.286-7.263L99.239,9.203z M115.575,15.82c0-4.209-3.083-6.807-7.259-6.807 c-4.098,0-7.238,2.769-7.238,6.902v0.151c0,4.078,2.758,6.922,7.182,6.922s7.315-2.844,7.315-7.016V15.82z M127.324,9.203 l-2.797,9.519l-2.776-9.519h-4.232l4.538,13.558h4.463L131,9.203H127.324z M108.336,19.936c-1.896,0-3.16-1.422-3.16-3.887v-0.152 c0-2.465,1.207-3.85,3.141-3.85c1.935,0,3.16,1.422,3.16,3.831v0.152C111.477,18.456,110.27,19.936,108.336,19.936z M76.814,12.351 l1.493,5.214h-3.007L76.814,12.351z"></path> <path class="ui-logo__domain" fill-rule="evenodd" clip-rule="evenodd" d="M168.813,22.988c-3.876,0-6.081-1.935-6.081-5.727v-8.06h3.933v7.889 c0,1.915,0.479,2.845,2.148,2.845c1.631,0,2.149-0.872,2.149-2.901V9.202h3.971v8.003C174.934,21.149,172.593,22.988,168.813,22.988 z M155.616,22.761l-2.782-4.854h-0.92v4.854H148V9.202h5.371c3.588,0,5.584,1.441,5.584,4.305v0.076 c0,1.935-1.037,3.015-2.475,3.564l3.279,5.613H155.616z M155.156,13.659c0-1.101-0.691-1.536-1.957-1.536h-1.285v3.262h1.266 c1.324,0,1.977-0.55,1.977-1.65V13.659z"></path> </svg>