<?xml version="1.0" encoding="UTF-8"?>
<svg width="392px" height="188px" viewBox="0 0 392 188" version="1.1" xmlns="http://www.w3.org/2000/svg" xmlns:xlink="http://www.w3.org/1999/xlink">
    <!-- Generator: Sketch 45.2 (43514) - http://www.bohemiancoding.com/sketch -->
    <title>Illustration/Illustration_2_(392_188)</title>
    <desc>Created with Sketch.</desc>
    <defs></defs>
    <g id="Symbols" stroke="none" stroke-width="1" fill="none" fill-rule="evenodd">
        <g id="Illustration/Illustration_2_(392_188)">
            <g id="Company" transform="translate(53.000000, 24.000000)">
                <path d="M1,148.405882 L1,122.782353 C1,117.735269 1.93822591,112.914729 3.81470588,108.320588 C5.69118585,103.726448 8.08527956,99.3264916 10.9970588,95.1205882 C13.9088381,90.9146849 17.0146894,86.9029603 20.3147059,83.0852941 C23.6147224,79.267628 26.7205737,75.6117822 29.6323529,72.1176471 C32.5441322,68.6235119 34.9382259,65.2588397 36.8147059,62.0235294 C38.6911859,58.7882191 39.6294118,55.6823678 39.6294118,52.7058824 L39.6294118,43.7764706 C39.6294118,42.0941092 39.3382382,40.508831 38.7558824,39.0205882 C38.1735265,37.5323455 36.6529535,36.7882353 34.1941176,36.7882353 C31.8646942,36.7882353 30.3764738,37.5323455 29.7294118,39.0205882 C29.0823497,40.508831 28.7588235,42.0941092 28.7588235,43.7764706 L28.7588235,61.0529412 L1.19411765,61.0529412 L1.19411765,44.3588235 C1.19411765,33.2293561 4.00879538,24.7206177 9.63823529,18.8323529 C15.2676752,12.9440882 23.5822979,10 34.5823529,10 C46.1000576,10 54.608796,12.7176199 60.1088235,18.1529412 C65.608851,23.5882625 68.3588235,31.8058274 68.3588235,42.8058824 L68.3588235,50.1823529 C68.3588235,55.3588494 67.388245,60.2117421 65.4470588,64.7411765 C63.5058726,69.2706109 61.0470737,73.6058616 58.0705882,77.7470588 C55.0941028,81.888256 51.9235462,85.8352754 48.5588235,89.5882353 C45.1941008,93.3411952 42.0235443,96.997041 39.0470588,100.555882 C36.0705734,104.114724 33.6117744,107.608806 31.6705882,111.038235 C29.7294021,114.467664 28.7588235,117.929394 28.7588235,121.423529 L67,121.423529 L67,148.405882 L1,148.405882 Z" id="2" fill="#F2F2F2"></path>
                <g id="Illustration/Company_512" transform="translate(0.109860, 0.591805)">
                    <g id="Group-5-Copy-3" stroke-width="1" fill-rule="evenodd" transform="translate(41.335938, 88.940625)">
                        <ellipse id="Oval-2" fill="#79CE93" cx="7.8203125" cy="7.83125" rx="7.26171875" ry="7.271875"></ellipse>
                        <path d="M7.8203125,15.6625 C3.50127317,15.6625 0,12.1563299 0,7.83125 C0,3.50617005 3.50127317,0 7.8203125,0 C12.1393518,0 15.640625,3.50617005 15.640625,7.83125 C15.640625,12.1563299 12.1393518,15.6625 7.8203125,15.6625 Z M7.8203125,14.54375 C11.5223462,14.54375 14.5234375,11.5384614 14.5234375,7.83125 C14.5234375,4.12403862 11.5223462,1.11875 7.8203125,1.11875 C4.11827879,1.11875 1.1171875,4.12403862 1.1171875,7.83125 C1.1171875,11.5384614 4.11827879,14.54375 7.8203125,14.54375 Z" id="Oval-2-Copy-4" fill="#682B90" fill-rule="nonzero"></path>
                        <polygon id="Line" fill="#682B90" fill-rule="nonzero" points="7.26171875 3.35625 7.26171875 38.0421611 8.37890625 38.0421611 8.37890625 3.35625"></polygon>
                        <polygon id="Line" fill="#682B90" fill-rule="nonzero" points="8.05168961 8.95 4.46875 5.36204929 3.67877914 6.153125 7.26171875 9.74107571"></polygon>
                    </g>
                    <polygon id="Path-34" fill="#D6E7BB" fill-rule="evenodd" points="3.3515625 139.84375 49.15625 106.840625 63.1210937 118.028125 136.855469 79.990625 170.929688 110.196875 221.761719 83.90625 282.648438 139.84375"></polygon>
                    <path d="M281.213286,139.84375 L221.671504,85.1418626 L170.845988,111.429118 L136.771446,81.2225813 L63.054948,119.250859 L49.138356,108.102014 L5.08433735,139.84375 L281.213286,139.84375 Z M221.851934,83.7893874 L284.083589,140.9625 L1.61878765,140.9625 L49.174144,106.697986 L63.1872395,117.924141 L136.939492,79.8774187 L171.013387,110.083382 L221.851934,83.7893874 Z" id="Path-34-Copy" fill="#682B90" fill-rule="nonzero"></path>
                    <path d="M60.4403937,115.7386 C64.3724901,117.938346 67.03125,122.147308 67.03125,126.978125 C67.03125,133.514864 62.1631418,138.913005 55.859375,139.735299 L55.859375,139.84375 L22.9023438,139.84375 L22.9023438,139.833153 C21.0275781,139.690337 19.5507812,138.121778 19.5507812,136.207812 C19.5507812,134.969618 20.1688402,133.875981 21.1128686,133.2194 C20.8238978,132.309475 20.6679688,131.34016 20.6679688,130.334375 C20.6679688,125.082492 24.9195147,120.825 30.1640625,120.825 C33.1265075,120.825 35.7721164,122.183433 37.5136024,124.312192 C38.8169809,123.108786 40.478673,122.288698 42.3202591,122.030599 C43.365578,119.519979 45.1824799,117.412102 47.4743495,116.004 C47.1186454,115.165095 46.921875,114.242277 46.921875,113.273437 C46.921875,109.411759 50.0480118,106.28125 53.9042969,106.28125 C57.760582,106.28125 60.8867187,109.411759 60.8867187,113.273437 C60.8867187,114.141148 60.7288831,114.971942 60.4403937,115.7386 L60.4403937,115.7386 Z" id="Oval-2-Copy-9" fill="#79CE93" fill-rule="evenodd"></path>
                    <path d="M55.7872207,139.18061 C61.8694994,138.387209 66.4726562,133.176994 66.4726562,126.978125 C66.4726562,122.467852 64.0293739,118.38714 60.1679635,116.226938 L59.7480871,115.992046 L59.9176797,115.541355 C60.1879431,114.823132 60.328125,114.05838 60.328125,113.273438 C60.328125,109.720693 57.4520792,106.840625 53.9042969,106.840625 C50.3565146,106.840625 47.4804688,109.720693 47.4804688,113.273438 C47.4804688,114.148487 47.6547186,114.998144 47.988514,115.785379 L48.1765465,116.228841 L47.766467,116.48079 C45.5633315,117.834375 43.830887,119.855971 42.8358339,122.245864 L42.7132212,122.540351 L42.3976826,122.584574 C40.7038712,122.821963 39.1389408,123.572374 37.8922484,124.723442 L37.4568213,125.12547 L37.0814947,124.666678 C35.393587,122.603413 32.879058,121.384375 30.1640625,121.384375 C25.2280175,121.384375 21.2265625,125.391426 21.2265625,130.334375 C21.2265625,131.266976 21.3688376,132.179676 21.6451918,133.049873 L21.7701404,133.443318 L21.4315174,133.678833 C20.6092174,134.250752 20.109375,135.186643 20.109375,136.207812 C20.109375,137.818743 21.3506158,139.153954 22.9447143,139.275389 L55.3007813,139.284375 L55.7872207,139.18061 Z M67.5898438,126.978125 C67.5898438,133.574539 62.8124058,139.144162 56.4179753,140.217467 L56.4179687,140.403125 L22.34375,140.403125 C20.4225645,139.929152 18.9921875,138.227613 18.9921875,136.207812 C18.9921875,134.956728 19.543586,133.797961 20.4686067,133.010777 C20.2311368,132.146328 20.109375,131.248318 20.109375,130.334375 C20.109375,124.773558 24.6110119,120.265625 30.1640625,120.265625 C33.0217718,120.265625 35.6840384,121.467478 37.5694256,123.52336 C38.8228556,122.498636 40.3195819,121.806959 41.9291927,121.525963 C42.9682996,119.187336 44.6601904,117.190634 46.7883522,115.778757 C46.5084125,114.98146 46.3632812,114.137261 46.3632812,113.273438 C46.3632812,109.102825 49.7395089,105.721875 53.9042969,105.721875 C58.0690848,105.721875 61.4453125,109.102825 61.4453125,113.273438 C61.4453125,114.031672 61.3335101,114.775068 61.1165124,115.485354 C65.0937734,117.894667 67.5898438,122.2175 67.5898438,126.978125 Z" id="Oval-2-Copy-11" fill="#682B90" fill-rule="nonzero"></path>
                    <path d="M255.863185,126.133455 C256.175724,121.30429 259.148937,117.201217 263.329694,115.2794 C262.147045,114.026773 261.421875,112.336472 261.421875,110.476562 C261.421875,106.614884 264.548012,103.484375 268.404297,103.484375 C272.260582,103.484375 275.386719,106.614884 275.386719,110.476562 C275.386719,112.251152 274.726555,113.871337 273.638742,115.104276 C278.274288,117.046455 281.53125,121.631406 281.53125,126.978125 C281.53125,127.953711 281.422815,128.903936 281.217356,129.817372 C281.772672,130.795056 282.089844,131.926061 282.089844,133.13125 C282.089844,136.838461 279.088752,139.84375 275.386719,139.84375 L236.84375,139.84375 L236.84375,139.831808 C236.81362,139.830518 236.783517,139.829123 236.753441,139.827625 C236.598731,139.838316 236.442577,139.84375 236.285156,139.84375 C235.293842,139.84375 234.352789,139.62826 233.506159,139.241505 C228.315371,137.589188 224.554688,132.723448 224.554688,126.978125 C224.554688,119.872637 230.306779,114.1125 237.402344,114.1125 C244.057692,114.1125 249.531098,119.180079 250.184632,125.67222 C250.90734,125.430769 251.680608,125.3 252.484375,125.3 C253.704278,125.3 254.853923,125.601227 255.863185,126.133455 L255.863185,126.133455 Z" id="Oval-2-Copy-10" fill="#79CE93" fill-rule="evenodd"></path>
                    <path d="M275.386719,139.284375 C278.78025,139.284375 281.53125,136.529527 281.53125,133.13125 C281.53125,132.050688 281.253234,131.011946 280.731809,130.09393 L280.624899,129.905705 L280.672415,129.694455 C280.871327,128.810126 280.972656,127.90092 280.972656,126.978125 C280.972656,121.970373 277.958141,117.520358 273.423142,115.620306 L272.70393,115.318974 L273.220131,114.733905 C274.250279,113.566324 274.828125,112.067108 274.828125,110.476562 C274.828125,106.923818 271.952079,104.04375 268.404297,104.04375 C264.856515,104.04375 261.980469,106.923818 261.980469,110.476562 C261.980469,112.143098 262.615217,113.708433 263.735594,114.895103 L264.271003,115.462192 L263.562731,115.787772 C259.486582,117.661503 256.714179,121.633561 256.420609,126.169632 L256.364911,127.030235 L255.602908,126.628397 C254.649641,126.125697 253.586766,125.859375 252.484375,125.859375 C251.75372,125.859375 251.039628,125.976257 250.361414,126.202843 L249.698904,126.424182 L249.628855,125.728324 C248.999451,119.475893 243.724951,114.671875 237.402344,114.671875 C230.615282,114.671875 225.113281,120.181571 225.113281,126.978125 C225.113281,132.37724 228.616889,137.098211 233.675377,138.708414 C234.53041,139.094571 235.393868,139.284375 236.285156,139.284375 C236.429125,139.284375 236.572454,139.279426 236.714985,139.269577 C236.824382,139.271042 237.134452,139.284375 237.134452,139.284375 L275.386719,139.284375 Z M236.285156,140.403125 C235.244625,140.403125 234.234013,140.183485 233.305225,139.764456 C227.803296,137.998057 223.996094,132.856737 223.996094,126.978125 C223.996094,119.563702 229.998276,113.553125 237.402344,113.553125 C244.075637,113.553125 249.678154,118.458227 250.657456,124.955597 C251.250773,124.813358 251.86284,124.740625 252.484375,124.740625 C253.490451,124.740625 254.469864,124.931333 255.381766,125.295819 C255.92845,120.928209 258.587293,117.128043 262.438099,115.095854 C261.427041,113.788731 260.863281,112.176396 260.863281,110.476562 C260.863281,106.30595 264.239509,102.925 268.404297,102.925 C272.569085,102.925 275.945312,106.30595 275.945312,110.476562 C275.945312,112.087064 275.439465,113.620017 274.52378,114.89048 C279.095798,117.107072 282.089844,121.765713 282.089844,126.978125 C282.089844,127.911386 281.994662,128.832601 281.8075,129.731549 C282.356594,130.769373 282.648438,131.929628 282.648438,133.13125 C282.648438,137.147396 279.397255,140.403125 275.386719,140.403125 L236.285156,140.403125 L236.285156,139.831808 L236.84375,139.831808 L236.819876,140.390672 C236.750222,140.387502 236.753441,139.827625 236.753441,139.827625 L236.791897,140.385672 C236.601427,140.398037 236.443577,140.403125 236.285156,140.403125 Z" id="Oval-2-Copy-12" fill="#682B90" fill-rule="nonzero"></path>
                    <rect id="Rectangle-10-Copy" fill="#F3C19C" fill-rule="evenodd" x="88.8164062" y="69.3625" width="60.8867188" height="55.378125"></rect>
                    <g id="Group-2" stroke-width="1" fill-rule="evenodd" transform="translate(42.453125, 123.621875)">
                        <rect id="Rectangle-8" fill="#F3C19C" x="0.55859375" y="7.271875" width="199.976562" height="8.95"></rect>
                        <path d="M1.1171875,7.83125 L1.1171875,15.6625 L199.976563,15.6625 L199.976563,7.83125 L1.1171875,7.83125 Z M201.09375,6.7125 L201.09375,16.78125 L0,16.78125 L0,6.7125 L201.09375,6.7125 Z" id="Rectangle-8-Copy-10" fill="#682B90" fill-rule="nonzero"></path>
                        <path d="M1.1171875,8.390625 L1.1171875,16.221875 L199.976563,16.221875 L199.976563,8.390625 L1.1171875,8.390625 Z M201.09375,7.271875 L201.09375,17.340625 L0,17.340625 L0,7.271875 L201.09375,7.271875 Z" id="Rectangle-8-Copy-22" fill="#682B90" fill-rule="nonzero"></path>
                        <rect id="Rectangle-8-Copy-2" fill="#F3C19C" x="2.79296875" y="3.915625" width="195.507812" height="3.35625"></rect>
                        <polygon id="Rectangle-8-Copy-4" fill="#FFDDC3" points="105.015625 3.915625 198.300781 3.915625 198.300781 7.271875 105.015625 7.271875"></polygon>
                        <path d="M3.3515625,6.7125 L197.742187,6.7125 L197.742188,4.475 L3.3515625,4.475 L3.3515625,6.7125 Z M198.859375,3.35625 L198.859375,7.83125 L2.234375,7.83125 L2.234375,3.35625 L198.859375,3.35625 Z" id="Rectangle-8-Copy-11" fill="#682B90" fill-rule="nonzero"></path>
                        <path d="M3.3515625,7.271875 L197.742187,7.271875 L197.742188,5.034375 L3.3515625,5.034375 L3.3515625,7.271875 Z M198.859375,3.915625 L198.859375,8.390625 L2.234375,8.390625 L2.234375,3.915625 L198.859375,3.915625 Z" id="Rectangle-8-Copy-23" fill="#682B90" fill-rule="nonzero"></path>
                        <rect id="Rectangle-8-Copy-3" fill="#F3C19C" x="5.02734375" y="0.559375" width="191.039062" height="3.35625"></rect>
                        <rect id="Rectangle-8-Copy-5" fill="#FFDDC3" x="102.78125" y="0.559375" width="93.2851562" height="3.35625"></rect>
                        <path d="M5.5859375,3.35625 L195.507813,3.35625 L195.507813,1.11875 L5.5859375,1.11875 L5.5859375,3.35625 Z M196.625,0 L196.625,4.475 L4.46875,4.475 L4.46875,0 L196.625,0 Z" id="Rectangle-8-Copy-12" fill="#682B90" fill-rule="nonzero"></path>
                        <path d="M5.5859375,3.915625 L195.507813,3.915625 L195.507813,1.678125 L5.5859375,1.678125 L5.5859375,3.915625 Z M196.625,0.559375 L196.625,5.034375 L4.46875,5.034375 L4.46875,0.559375 L196.625,0.559375 Z" id="Rectangle-8-Copy-21" fill="#682B90" fill-rule="nonzero"></path>
                        <polygon id="Rectangle-8-Copy" fill="#FFDDC3" points="107.25 8.390625 199.976562 8.390625 199.976562 15.6625 107.25 15.6625"></polygon>
                    </g>
                    <g id="Columns" stroke-width="1" fill-rule="evenodd" transform="translate(51.390625, 69.362500)">
                        <g id="Group-3">
                            <rect id="Rectangle-8-Copy-5" fill="#FFDDC3" x="1.67578125" y="50.34375" width="8.9375" height="4.475"></rect>
                            <path d="M2.234375,50.903125 L2.234375,54.259375 L10.0546875,54.259375 L10.0546875,50.903125 L2.234375,50.903125 Z M11.171875,49.784375 L11.171875,55.378125 L1.1171875,55.378125 L1.1171875,49.784375 L11.171875,49.784375 Z" id="Rectangle-8-Copy-18" fill="#682B90" fill-rule="nonzero"></path>
                            <polygon id="Rectangle-8-Copy-6" fill="#FFDDC3" points="3.91015625 0.559375 8.37890625 0.559375 9.49609375 50.34375 2.79296875 50.34375"></polygon>
                            <path d="M3.36425619,49.784375 L8.92480631,49.784375 L7.83272415,1.11875 L4.45633835,1.11875 L3.36425619,49.784375 Z M8.92508835,0 L10.0673812,50.903125 L2.22168131,50.903125 L3.36397415,0 L8.92508835,0 Z" id="Rectangle-8-Copy-17" fill="#682B90" fill-rule="nonzero"></path>
                            <path d="M2.234375,51.4625 L2.234375,54.81875 L10.0546875,54.81875 L10.0546875,51.4625 L2.234375,51.4625 Z M11.171875,50.34375 L11.171875,55.9375 L1.1171875,55.9375 L1.1171875,50.34375 L11.171875,50.34375 Z" id="Rectangle-8-Copy-27" fill="#682B90" fill-rule="nonzero"></path>
                            <path d="M3.3515625,0 C2.82454085,0 1.83697204,0.00258742197 1.77642052,0.00810075569 C0.773599799,0.0994095329 0,0.943277573 0,1.9578125 C0,3.03908249 0.875318292,3.915625 1.95507812,3.915625 C3.03483796,3.915625 3.91015625,3.03908249 3.91015625,1.9578125 L2.79296875,1.9578125 C2.79296875,2.42121392 2.41783234,2.796875 1.95507812,2.796875 C1.49232391,2.796875 1.1171875,2.42121392 1.1171875,1.9578125 C1.1171875,1.52316595 1.44893593,1.16128388 1.87758323,1.1222547 C1.88093885,1.12194917 3.10199962,1.11875 3.3515625,1.11875 L3.3515625,0 Z" id="Oval-12" fill="#682B90" fill-rule="nonzero"></path>
                            <path d="M8.9375,1.11875 C9.18706288,1.11875 10.4081236,1.12194917 10.4114793,1.1222547 C10.8401266,1.16128388 11.171875,1.52316595 11.171875,1.9578125 C11.171875,2.42121392 10.7967386,2.796875 10.3339844,2.796875 C9.87123016,2.796875 9.49609375,2.42121392 9.49609375,1.9578125 L8.37890625,1.9578125 C8.37890625,3.03908249 9.25422454,3.915625 10.3339844,3.915625 C11.4137442,3.915625 12.2890625,3.03908249 12.2890625,1.9578125 C12.2890625,0.943277573 11.5154627,0.0994095329 10.512642,0.00810075569 C10.4520905,0.00258742197 9.46452165,0 8.9375,0 L8.9375,1.11875 Z" id="Oval-12-Copy" fill="#682B90" fill-rule="nonzero"></path>
                        </g>
                        <g id="Group-3-Copy-2" transform="translate(31.281250, 0.000000)">
                            <rect id="Rectangle-8-Copy-5" fill="#FFDDC3" x="1.67578125" y="50.34375" width="8.9375" height="4.475"></rect>
                            <path d="M2.234375,50.903125 L2.234375,54.259375 L10.0546875,54.259375 L10.0546875,50.903125 L2.234375,50.903125 Z M11.171875,49.784375 L11.171875,55.378125 L1.1171875,55.378125 L1.1171875,49.784375 L11.171875,49.784375 Z" id="Rectangle-8-Copy-18" fill="#682B90" fill-rule="nonzero"></path>
                            <path d="M2.234375,51.4625 L2.234375,54.81875 L10.0546875,54.81875 L10.0546875,51.4625 L2.234375,51.4625 Z M11.171875,50.34375 L11.171875,55.9375 L1.1171875,55.9375 L1.1171875,50.34375 L11.171875,50.34375 Z" id="Rectangle-8-Copy-28" fill="#682B90" fill-rule="nonzero"></path>
                            <polygon id="Rectangle-8-Copy-6" fill="#FFDDC3" points="3.91015625 0.559375 8.37890625 0.559375 9.49609375 50.34375 2.79296875 50.34375"></polygon>
                            <path d="M3.36425619,49.784375 L8.92480631,49.784375 L7.83272415,1.11875 L4.45633835,1.11875 L3.36425619,49.784375 Z M8.92508835,0 L10.0673812,50.903125 L2.22168131,50.903125 L3.36397415,0 L8.92508835,0 Z" id="Rectangle-8-Copy-17" fill="#682B90" fill-rule="nonzero"></path>
                            <path d="M3.3515625,0 C2.82454085,0 1.83697204,0.00258742197 1.77642052,0.00810075569 C0.773599799,0.0994095329 0,0.943277573 0,1.9578125 C0,3.03908249 0.875318292,3.915625 1.95507812,3.915625 C3.03483796,3.915625 3.91015625,3.03908249 3.91015625,1.9578125 L2.79296875,1.9578125 C2.79296875,2.42121392 2.41783234,2.796875 1.95507812,2.796875 C1.49232391,2.796875 1.1171875,2.42121392 1.1171875,1.9578125 C1.1171875,1.52316595 1.44893593,1.16128388 1.87758323,1.1222547 C1.88093885,1.12194917 3.10199962,1.11875 3.3515625,1.11875 L3.3515625,0 Z" id="Oval-12" fill="#682B90" fill-rule="nonzero"></path>
                            <path d="M8.9375,1.11875 C9.18706288,1.11875 10.4081236,1.12194917 10.4114793,1.1222547 C10.8401266,1.16128388 11.171875,1.52316595 11.171875,1.9578125 C11.171875,2.42121392 10.7967386,2.796875 10.3339844,2.796875 C9.87123016,2.796875 9.49609375,2.42121392 9.49609375,1.9578125 L8.37890625,1.9578125 C8.37890625,3.03908249 9.25422454,3.915625 10.3339844,3.915625 C11.4137442,3.915625 12.2890625,3.03908249 12.2890625,1.9578125 C12.2890625,0.943277573 11.5154627,0.0994095329 10.512642,0.00810075569 C10.4520905,0.00258742197 9.46452165,0 8.9375,0 L8.9375,1.11875 Z" id="Oval-12-Copy" fill="#682B90" fill-rule="nonzero"></path>
                        </g>
                        <g id="Group-3-Copy-4" transform="translate(62.562500, 0.000000)">
                            <rect id="Rectangle-8-Copy-5" fill="#FFDDC3" x="1.67578125" y="50.34375" width="8.9375" height="4.475"></rect>
                            <path d="M2.234375,50.903125 L2.234375,54.259375 L10.0546875,54.259375 L10.0546875,50.903125 L2.234375,50.903125 Z M11.171875,49.784375 L11.171875,55.378125 L1.1171875,55.378125 L1.1171875,49.784375 L11.171875,49.784375 Z" id="Rectangle-8-Copy-18" fill="#682B90" fill-rule="nonzero"></path>
                            <path d="M2.234375,51.4625 L2.234375,54.81875 L10.0546875,54.81875 L10.0546875,51.4625 L2.234375,51.4625 Z M11.171875,50.34375 L11.171875,55.9375 L1.1171875,55.9375 L1.1171875,50.34375 L11.171875,50.34375 Z" id="Rectangle-8-Copy-30" fill="#682B90" fill-rule="nonzero"></path>
                            <polygon id="Rectangle-8-Copy-6" fill="#FFDDC3" points="3.91015625 0.559375 8.37890625 0.559375 9.49609375 50.34375 2.79296875 50.34375"></polygon>
                            <path d="M3.36425619,49.784375 L8.92480631,49.784375 L7.83272415,1.11875 L4.45633835,1.11875 L3.36425619,49.784375 Z M8.92508835,0 L10.0673812,50.903125 L2.22168131,50.903125 L3.36397415,0 L8.92508835,0 Z" id="Rectangle-8-Copy-17" fill="#682B90" fill-rule="nonzero"></path>
                            <path d="M3.3515625,0 C2.82454085,0 1.83697204,0.00258742197 1.77642052,0.00810075569 C0.773599799,0.0994095329 0,0.943277573 0,1.9578125 C0,3.03908249 0.875318292,3.915625 1.95507812,3.915625 C3.03483796,3.915625 3.91015625,3.03908249 3.91015625,1.9578125 L2.79296875,1.9578125 C2.79296875,2.42121392 2.41783234,2.796875 1.95507812,2.796875 C1.49232391,2.796875 1.1171875,2.42121392 1.1171875,1.9578125 C1.1171875,1.52316595 1.44893593,1.16128388 1.87758323,1.1222547 C1.88093885,1.12194917 3.10199962,1.11875 3.3515625,1.11875 L3.3515625,0 Z" id="Oval-12" fill="#682B90" fill-rule="nonzero"></path>
                            <path d="M8.9375,1.11875 C9.18706288,1.11875 10.4081236,1.12194917 10.4114793,1.1222547 C10.8401266,1.16128388 11.171875,1.52316595 11.171875,1.9578125 C11.171875,2.42121392 10.7967386,2.796875 10.3339844,2.796875 C9.87123016,2.796875 9.49609375,2.42121392 9.49609375,1.9578125 L8.37890625,1.9578125 C8.37890625,3.03908249 9.25422454,3.915625 10.3339844,3.915625 C11.4137442,3.915625 12.2890625,3.03908249 12.2890625,1.9578125 C12.2890625,0.943277573 11.5154627,0.0994095329 10.512642,0.00810075569 C10.4520905,0.00258742197 9.46452165,0 8.9375,0 L8.9375,1.11875 Z" id="Oval-12-Copy" fill="#682B90" fill-rule="nonzero"></path>
                        </g>
                        <g id="Group-3-Copy" transform="translate(15.640625, 0.000000)">
                            <rect id="Rectangle-8-Copy-5" fill="#FFDDC3" x="1.67578125" y="50.34375" width="8.9375" height="4.475"></rect>
                            <path d="M2.234375,50.903125 L2.234375,54.259375 L10.0546875,54.259375 L10.0546875,50.903125 L2.234375,50.903125 Z M11.171875,49.784375 L11.171875,55.378125 L1.1171875,55.378125 L1.1171875,49.784375 L11.171875,49.784375 Z" id="Rectangle-8-Copy-18" fill="#682B90" fill-rule="nonzero"></path>
                            <path d="M2.234375,51.4625 L2.234375,54.81875 L10.0546875,54.81875 L10.0546875,51.4625 L2.234375,51.4625 Z M11.171875,50.34375 L11.171875,55.9375 L1.1171875,55.9375 L1.1171875,50.34375 L11.171875,50.34375 Z" id="Rectangle-8-Copy-26" fill="#682B90" fill-rule="nonzero"></path>
                            <polygon id="Rectangle-8-Copy-6" fill="#FFDDC3" points="3.91015625 0.559375 8.37890625 0.559375 9.49609375 50.34375 2.79296875 50.34375"></polygon>
                            <path d="M3.36425619,49.784375 L8.92480631,49.784375 L7.83272415,1.11875 L4.45633835,1.11875 L3.36425619,49.784375 Z M8.92508835,0 L10.0673812,50.903125 L2.22168131,50.903125 L3.36397415,0 L8.92508835,0 Z" id="Rectangle-8-Copy-17" fill="#682B90" fill-rule="nonzero"></path>
                            <path d="M3.3515625,0 C2.82454085,0 1.83697204,0.00258742197 1.77642052,0.00810075569 C0.773599799,0.0994095329 0,0.943277573 0,1.9578125 C0,3.03908249 0.875318292,3.915625 1.95507812,3.915625 C3.03483796,3.915625 3.91015625,3.03908249 3.91015625,1.9578125 L2.79296875,1.9578125 C2.79296875,2.42121392 2.41783234,2.796875 1.95507812,2.796875 C1.49232391,2.796875 1.1171875,2.42121392 1.1171875,1.9578125 C1.1171875,1.52316595 1.44893593,1.16128388 1.87758323,1.1222547 C1.88093885,1.12194917 3.10199962,1.11875 3.3515625,1.11875 L3.3515625,0 Z" id="Oval-12" fill="#682B90" fill-rule="nonzero"></path>
                            <path d="M8.9375,1.11875 C9.18706288,1.11875 10.4081236,1.12194917 10.4114793,1.1222547 C10.8401266,1.16128388 11.171875,1.52316595 11.171875,1.9578125 C11.171875,2.42121392 10.7967386,2.796875 10.3339844,2.796875 C9.87123016,2.796875 9.49609375,2.42121392 9.49609375,1.9578125 L8.37890625,1.9578125 C8.37890625,3.03908249 9.25422454,3.915625 10.3339844,3.915625 C11.4137442,3.915625 12.2890625,3.03908249 12.2890625,1.9578125 C12.2890625,0.943277573 11.5154627,0.0994095329 10.512642,0.00810075569 C10.4520905,0.00258742197 9.46452165,0 8.9375,0 L8.9375,1.11875 Z" id="Oval-12-Copy" fill="#682B90" fill-rule="nonzero"></path>
                        </g>
                        <g id="Group-3-Copy-3" transform="translate(46.921875, 0.000000)">
                            <rect id="Rectangle-8-Copy-5" fill="#FFDDC3" x="1.67578125" y="50.34375" width="8.9375" height="4.475"></rect>
                            <path d="M2.234375,50.903125 L2.234375,54.259375 L10.0546875,54.259375 L10.0546875,50.903125 L2.234375,50.903125 Z M11.171875,49.784375 L11.171875,55.378125 L1.1171875,55.378125 L1.1171875,49.784375 L11.171875,49.784375 Z" id="Rectangle-8-Copy-18" fill="#682B90" fill-rule="nonzero"></path>
                            <path d="M2.234375,51.4625 L2.234375,54.81875 L10.0546875,54.81875 L10.0546875,51.4625 L2.234375,51.4625 Z M11.171875,50.34375 L11.171875,55.9375 L1.1171875,55.9375 L1.1171875,50.34375 L11.171875,50.34375 Z" id="Rectangle-8-Copy-29" fill="#682B90" fill-rule="nonzero"></path>
                            <polygon id="Rectangle-8-Copy-6" fill="#FFDDC3" points="3.91015625 0.559375 8.37890625 0.559375 9.49609375 50.34375 2.79296875 50.34375"></polygon>
                            <path d="M3.36425619,49.784375 L8.92480631,49.784375 L7.83272415,1.11875 L4.45633835,1.11875 L3.36425619,49.784375 Z M8.92508835,0 L10.0673812,50.903125 L2.22168131,50.903125 L3.36397415,0 L8.92508835,0 Z" id="Rectangle-8-Copy-17" fill="#682B90" fill-rule="nonzero"></path>
                            <path d="M3.3515625,0 C2.82454085,0 1.83697204,0.00258742197 1.77642052,0.00810075569 C0.773599799,0.0994095329 0,0.943277573 0,1.9578125 C0,3.03908249 0.875318292,3.915625 1.95507812,3.915625 C3.03483796,3.915625 3.91015625,3.03908249 3.91015625,1.9578125 L2.79296875,1.9578125 C2.79296875,2.42121392 2.41783234,2.796875 1.95507812,2.796875 C1.49232391,2.796875 1.1171875,2.42121392 1.1171875,1.9578125 C1.1171875,1.52316595 1.44893593,1.16128388 1.87758323,1.1222547 C1.88093885,1.12194917 3.10199962,1.11875 3.3515625,1.11875 L3.3515625,0 Z" id="Oval-12" fill="#682B90" fill-rule="nonzero"></path>
                            <path d="M8.9375,1.11875 C9.18706288,1.11875 10.4081236,1.12194917 10.4114793,1.1222547 C10.8401266,1.16128388 11.171875,1.52316595 11.171875,1.9578125 C11.171875,2.42121392 10.7967386,2.796875 10.3339844,2.796875 C9.87123016,2.796875 9.49609375,2.42121392 9.49609375,1.9578125 L8.37890625,1.9578125 C8.37890625,3.03908249 9.25422454,3.915625 10.3339844,3.915625 C11.4137442,3.915625 12.2890625,3.03908249 12.2890625,1.9578125 C12.2890625,0.943277573 11.5154627,0.0994095329 10.512642,0.00810075569 C10.4520905,0.00258742197 9.46452165,0 8.9375,0 L8.9375,1.11875 Z" id="Oval-12-Copy" fill="#682B90" fill-rule="nonzero"></path>
                        </g>
                        <g id="Group-3-Copy-5" transform="translate(78.203125, 0.000000)">
                            <rect id="Rectangle-8-Copy-5" fill="#FFDDC3" x="1.67578125" y="50.34375" width="8.9375" height="4.475"></rect>
                            <path d="M2.234375,50.903125 L2.234375,54.259375 L10.0546875,54.259375 L10.0546875,50.903125 L2.234375,50.903125 Z M11.171875,49.784375 L11.171875,55.378125 L1.1171875,55.378125 L1.1171875,49.784375 L11.171875,49.784375 Z" id="Rectangle-8-Copy-18" fill="#682B90" fill-rule="nonzero"></path>
                            <path d="M2.234375,51.4625 L2.234375,54.81875 L10.0546875,54.81875 L10.0546875,51.4625 L2.234375,51.4625 Z M11.171875,50.34375 L11.171875,55.9375 L1.1171875,55.9375 L1.1171875,50.34375 L11.171875,50.34375 Z" id="Rectangle-8-Copy-31" fill="#682B90" fill-rule="nonzero"></path>
                            <polygon id="Rectangle-8-Copy-6" fill="#FFDDC3" points="3.91015625 0.559375 8.37890625 0.559375 9.49609375 50.34375 2.79296875 50.34375"></polygon>
                            <path d="M3.36425619,49.784375 L8.92480631,49.784375 L7.83272415,1.11875 L4.45633835,1.11875 L3.36425619,49.784375 Z M8.92508835,0 L10.0673812,50.903125 L2.22168131,50.903125 L3.36397415,0 L8.92508835,0 Z" id="Rectangle-8-Copy-17" fill="#682B90" fill-rule="nonzero"></path>
                            <path d="M3.3515625,0 C2.82454085,0 1.83697204,0.00258742197 1.77642052,0.00810075569 C0.773599799,0.0994095329 0,0.943277573 0,1.9578125 C0,3.03908249 0.875318292,3.915625 1.95507812,3.915625 C3.03483796,3.915625 3.91015625,3.03908249 3.91015625,1.9578125 L2.79296875,1.9578125 C2.79296875,2.42121392 2.41783234,2.796875 1.95507812,2.796875 C1.49232391,2.796875 1.1171875,2.42121392 1.1171875,1.9578125 C1.1171875,1.52316595 1.44893593,1.16128388 1.87758323,1.1222547 C1.88093885,1.12194917 3.10199962,1.11875 3.3515625,1.11875 L3.3515625,0 Z" id="Oval-12" fill="#682B90" fill-rule="nonzero"></path>
                            <path d="M8.9375,1.11875 C9.18706288,1.11875 10.4081236,1.12194917 10.4114793,1.1222547 C10.8401266,1.16128388 11.171875,1.52316595 11.171875,1.9578125 C11.171875,2.42121392 10.7967386,2.796875 10.3339844,2.796875 C9.87123016,2.796875 9.49609375,2.42121392 9.49609375,1.9578125 L8.37890625,1.9578125 C8.37890625,3.03908249 9.25422454,3.915625 10.3339844,3.915625 C11.4137442,3.915625 12.2890625,3.03908249 12.2890625,1.9578125 C12.2890625,0.943277573 11.5154627,0.0994095329 10.512642,0.00810075569 C10.4520905,0.00258742197 9.46452165,0 8.9375,0 L8.9375,1.11875 Z" id="Oval-12-Copy" fill="#682B90" fill-rule="nonzero"></path>
                        </g>
                    </g>
                    <rect id="Rectangle-8" fill="#F3C19C" fill-rule="evenodd" x="51.9492188" y="58.734375" width="182.101562" height="11.1875"></rect>
                    <path d="M52.5078125,69.3625 L233.492188,69.3625 L233.492187,59.29375 L52.5078125,59.29375 L52.5078125,69.3625 Z M234.609375,58.175 L234.609375,70.48125 L51.390625,70.48125 L51.390625,58.175 L234.609375,58.175 Z" id="Rectangle-8-Copy-14" fill="#682B90" fill-rule="nonzero"></path>
                    <path d="M52.5078125,69.921875 L233.492188,69.921875 L233.492187,59.853125 L52.5078125,59.853125 L52.5078125,69.921875 Z M234.609375,58.734375 L234.609375,71.040625 L51.390625,71.040625 L51.390625,58.734375 L234.609375,58.734375 Z" id="Rectangle-8-Copy-19" fill="#682B90" fill-rule="nonzero"></path>
                    <polygon id="Rectangle-8-Copy-9" fill="#FFDDC3" fill-rule="evenodd" points="191.039062 43.2421196 241.871094 58.734375 99.4296875 58.734375 99.4296875 43.071875 191.039062 43.071875"></polygon>
                    <path d="M190.876421,43.777259 C190.783463,43.7489278 190.702135,43.6978582 190.637764,43.63125 L99.9882812,43.63125 L99.9882812,58.175 L238.117214,58.175 L190.876421,43.777259 Z M242.033735,58.1992355 C242.648076,58.3864706 242.513258,59.29375 241.871094,59.29375 L99.4296875,59.29375 C99.1211847,59.29375 98.8710938,59.0433093 98.8710938,58.734375 L98.8710938,43.071875 C98.8710938,42.7629407 99.1211847,42.5125 99.4296875,42.5125 L191.039062,42.5125 C191.252062,42.5125 191.437217,42.6318831 191.531441,42.8074754 L242.033735,58.1992355 Z" id="Rectangle-8-Copy-16" fill="#682B90" fill-rule="nonzero"></path>
                    <path d="M190.876421,44.336634 C190.783463,44.3083028 190.702135,44.2572332 190.637764,44.190625 L99.9882812,44.190625 L99.9882812,58.734375 L238.117214,58.734375 L190.876421,44.336634 Z M242.033735,58.7586105 C242.648076,58.9458456 242.513258,59.853125 241.871094,59.853125 L99.4296875,59.853125 C99.1211847,59.853125 98.8710938,59.6026843 98.8710938,59.29375 L98.8710938,43.63125 C98.8710938,43.3223157 99.1211847,43.071875 99.4296875,43.071875 L191.039062,43.071875 C191.252062,43.071875 191.437217,43.1912581 191.531441,43.3668504 L242.033735,58.7586105 Z" id="Rectangle-8-Copy-25" fill="#682B90" fill-rule="nonzero"></path>
                    <polygon id="Rectangle-8-Copy-8" fill="#F3C19C" fill-rule="evenodd" points="99.4296875 43.071875 150.820312 58.734375 47.4804688 58.734375"></polygon>
                    <path d="M51.2733928,58.175 L147.066432,58.175 L99.4288127,43.6563165 L51.2733928,58.175 Z M99.5923286,42.5367355 L150.982954,58.1992355 C151.597295,58.3864706 151.462477,59.29375 150.820313,59.29375 L47.4804688,59.29375 C46.8373308,59.29375 46.7035986,58.3844208 47.3194304,58.1987497 L99.2686492,42.5362497 C99.3742257,42.5044188 99.4868478,42.5045878 99.5923286,42.5367355 Z" id="Rectangle-8-Copy-15" fill="#682B90" fill-rule="nonzero"></path>
                    <path d="M51.2733928,58.734375 L147.066432,58.734375 L99.4288127,44.2156915 L51.2733928,58.734375 Z M99.5923286,43.0961105 L150.982954,58.7586105 C151.597295,58.9458456 151.462477,59.853125 150.820313,59.853125 L47.4804688,59.853125 C46.8373308,59.853125 46.7035986,58.9437958 47.3194304,58.7581247 L99.2686492,43.0956247 C99.3742257,43.0637938 99.4868478,43.0639628 99.5923286,43.0961105 Z" id="Rectangle-8-Copy-24" fill="#682B90" fill-rule="nonzero"></path>
                    <path d="M225.180811,34.188421 C224.414746,33.6814788 223.493633,33.3858553 222.50271,33.3858553 C220.17357,33.3858553 218.230112,35.0190983 217.779205,37.1908223 C217.126971,36.7942012 216.359188,36.5654605 215.537388,36.5654605 C213.54012,36.5654605 211.861906,37.9165519 211.386075,39.7450658 L205.822356,39.7450658 C202.901903,39.7450658 200.535156,42.1176621 200.535156,45.0444079 C200.535156,47.9717972 202.902316,50.34375 205.822356,50.34375 L247.755769,50.34375 C250.676222,50.34375 253.042969,47.9711537 253.042969,45.0444079 C253.042969,42.1170186 250.675809,39.7450658 247.755769,39.7450658 L246.58401,39.7450658 C246.317483,37.3603881 244.273389,35.5055921 241.791295,35.5055921 C241.103478,35.5055921 240.449297,35.648023 239.857254,35.9046913 C238.875909,32.6106259 235.795347,30.20625 232.147003,30.20625 C229.169014,30.20625 226.569324,31.8082295 225.180811,34.188421 L225.180811,34.188421 Z" id="Combined-Shape" fill="#FFFFFF" fill-rule="evenodd"></path>
                    <path d="M232.147003,29.646875 C235.778604,29.646875 238.966989,31.8961975 240.203206,35.1822515 C240.712632,35.0266024 241.246539,34.9462171 241.791295,34.9462171 C244.366779,34.9462171 246.548896,36.7474862 247.059524,39.1856908 L247.755769,39.1856908 C250.984635,39.1856908 253.601562,41.8084082 253.601562,45.0444079 C253.601562,48.2801123 250.984701,50.903125 247.755769,50.903125 L205.822356,50.903125 C202.59349,50.903125 199.976562,48.2804076 199.976562,45.0444079 C199.976562,41.8087035 202.593424,39.1856908 205.822356,39.1856908 L210.975187,39.1856908 C211.654477,37.3049262 213.465805,36.0060855 215.537388,36.0060855 C216.195715,36.0060855 216.835426,36.136621 217.426052,36.3844807 C218.170168,34.2880951 220.185639,32.8264803 222.50271,32.8264803 C223.384394,32.8264803 224.235417,33.0372967 224.996306,33.4320959 C226.573633,31.0943379 229.233518,29.646875 232.147003,29.646875 Z M224.872847,34.6551039 C224.177105,34.1946981 223.359497,33.9452303 222.50271,33.9452303 C220.467806,33.9452303 218.729158,35.3634362 218.326102,37.3046907 L218.16514,38.0799407 L217.48927,37.6689469 C216.90717,37.3149737 216.23718,37.1248355 215.537388,37.1248355 C213.824948,37.1248355 212.346083,38.2742059 211.926617,39.8861237 L211.817759,40.3044408 L211.386075,40.3044408 L205.822356,40.3044408 C203.210667,40.3044408 201.09375,42.4263342 201.09375,45.0444079 C201.09375,47.6627424 203.210699,49.784375 205.822356,49.784375 L247.755769,49.784375 C250.367458,49.784375 252.484375,47.6624816 252.484375,45.0444079 C252.484375,42.4260734 250.367426,40.3044408 247.755769,40.3044408 L246.084448,40.3044408 L246.028883,39.8072843 C245.792027,37.6880902 243.971139,36.0649671 241.791295,36.0649671 C241.193423,36.0649671 240.613846,36.1862311 240.079179,36.4180255 L239.501829,36.6683243 L239.321973,36.064605 C238.393551,32.9481847 235.486957,30.765625 232.147003,30.765625 C229.441295,30.765625 226.989539,32.1968548 225.663135,34.4705782 L225.365361,34.9810239 L224.872847,34.6551039 Z" id="Combined-Shape-Copy-4" fill="#682B90" fill-rule="nonzero"></path>
                    <path d="M60.1279699,43.6936344 C60.0338006,42.9663091 59.4734115,42.3879063 58.7611882,42.2773399 C58.4784105,41.1271481 57.4531926,40.275 56.2317708,40.275 C54.9997336,40.275 53.9673254,41.1420247 53.6951491,42.3073964 C53.5683789,42.2752856 53.4357288,42.2582386 53.2991536,42.2582386 C52.510945,42.2582386 51.8534674,42.8260265 51.7025124,43.5803977 L51.6914931,43.5803977 C50.5965355,43.5803977 49.7148438,44.4683239 49.7148438,45.5636364 C49.7148438,46.6567201 50.5998198,47.546875 51.6914931,47.546875 L59.4686631,47.546875 C60.5636208,47.546875 61.4453125,46.6589488 61.4453125,45.5636364 C61.4453125,44.7020374 60.8954742,43.9665187 60.1279699,43.6936344 L60.1279699,43.6936344 Z" id="Combined-Shape" fill="#FFFFFF" fill-rule="evenodd"></path>
                    <path d="M62.0039062,45.5636364 C62.0039062,46.9686376 60.8713749,48.10625 59.4686631,48.10625 L51.6914931,48.10625 C50.2917447,48.10625 49.15625,46.9660857 49.15625,45.5636364 C49.15625,44.2984784 50.0745535,43.2501306 51.2815268,43.0539747 C51.6152477,42.2504137 52.4002644,41.6988636 53.2991536,41.6988636 C53.7829281,40.5214887 54.9261973,39.715625 56.2317708,39.715625 C57.5776021,39.715625 58.7520974,40.5721342 59.20264,41.8112067 C59.8841408,42.039907 60.4147995,42.5970826 60.6145572,43.295354 C61.4527173,43.7217538 62.0039062,44.5910753 62.0039062,45.5636364 Z M59.5740128,43.7655579 C59.5117954,43.2850157 59.1422856,42.9025586 58.6756148,42.8301121 L58.307776,42.7730084 L58.2187908,42.411063 C57.9924377,41.4903773 57.1755315,40.834375 56.2317708,40.834375 C55.2792474,40.834375 54.4567987,41.5025188 54.2390648,42.4347853 L54.1095434,42.9893546 L53.5581694,42.8496919 C53.474384,42.8284691 53.3877027,42.8176136 53.2991536,42.8176136 C52.7894942,42.8176136 52.351336,43.1849836 52.2502179,43.6903042 L52.1602761,44.1397727 L51.6914931,44.1397727 C50.9065582,44.1397727 50.2734375,44.7757339 50.2734375,45.5636364 C50.2734375,46.3488939 50.9094281,46.9875 51.6914931,46.9875 L59.4686631,46.9875 C60.253598,46.9875 60.8867188,46.3515388 60.8867188,45.5636364 C60.8867188,44.9564207 60.5026096,44.4204232 59.9410714,44.2207697 L59.6180821,44.1059316 L59.5740128,43.7655579 Z" id="Combined-Shape-Copy-6" fill="#682B90" fill-rule="nonzero"></path>
                    <path d="M153.60058,47.6371467 C153.517714,47.0243241 153.038434,46.5375627 152.429791,46.4442876 C152.18741,45.4710484 151.308652,44.75 150.261719,44.75 C149.205687,44.75 148.320766,45.4836363 148.087472,46.46972 C147.978811,46.4425494 147.865111,46.428125 147.748047,46.428125 C147.072439,46.428125 146.508887,46.9085609 146.379497,47.546875 L146.347395,47.546875 C145.431517,47.546875 144.675781,48.2981972 144.675781,49.225 C144.675781,50.149917 145.424188,50.903125 146.347395,50.903125 L153.058855,50.903125 C153.974733,50.903125 154.730469,50.1518028 154.730469,49.225 C154.730469,48.4900384 154.257904,47.8634986 153.60058,47.6371467 L153.60058,47.6371467 Z" id="Combined-Shape-Copy-2" fill="#FFFFFF" fill-rule="evenodd"></path>
                    <path d="M155.149414,49.225 C155.149414,50.3810204 154.208591,51.3226562 153.058855,51.3226562 L146.347395,51.3226562 C145.193153,51.3226562 144.256836,50.3819629 144.256836,49.225 C144.256836,48.1656377 145.046906,47.2863082 146.063807,47.1466679 C146.334984,46.4724749 146.993819,46.0085937 147.748047,46.0085937 C147.763387,46.0085937 147.778707,46.0087852 147.794002,46.0091674 C148.187151,45.013689 149.155554,44.3304687 150.261719,44.3304687 C151.397421,44.3304687 152.388863,45.0508082 152.760393,46.0915847 C153.343688,46.2746315 153.799262,46.7437283 153.964802,47.3343309 C154.677345,47.6784697 155.149414,48.4072913 155.149414,49.225 Z M153.185423,47.6934412 C153.127584,47.2656987 152.792124,46.9242311 152.366415,46.8589908 L152.090773,46.8167485 L152.023296,46.5458067 C151.8234,45.7431574 151.099798,45.1695312 150.261719,45.1695312 C149.415874,45.1695312 148.687405,45.7537405 148.495132,46.5664369 L148.397377,46.9796253 L147.985976,46.8767536 C147.908991,46.8575033 147.829341,46.8476562 147.748047,46.8476562 C147.281102,46.8476562 146.881714,47.1782266 146.790069,47.6303333 L146.721945,47.9664062 L146.347395,47.9664062 C145.660313,47.9664062 145.094727,48.5324813 145.094727,49.225 C145.094727,49.9191738 145.656521,50.4835937 146.347395,50.4835937 L153.058855,50.4835937 C153.745937,50.4835937 154.311523,49.9175187 154.311523,49.225 C154.311523,48.6836439 153.966434,48.2067727 153.464345,48.0338768 L153.220083,47.9497641 L153.185423,47.6934412 Z" id="Combined-Shape-Copy-3" fill="#682B90" fill-rule="nonzero"></path>
                    <path d="M104.596212,19.9925325 C103.995679,17.1969433 101.535473,15.103125 98.5917969,15.103125 C96.6911557,15.103125 94.9920681,15.9760141 93.8649693,17.347092 C93.24458,16.9119384 92.4913291,16.6569444 91.6791992,16.6569444 C89.8212789,16.6569444 88.2715101,17.9914886 87.9156877,19.7645833 L87.8823209,19.7645833 C85.3153834,19.7645833 83.2304688,21.8515893 83.2304688,24.4260417 C83.2304688,26.9952555 85.3131739,29.0875 87.8823209,29.0875 L103.156742,29.0875 C105.723679,29.0875 107.808594,27.000494 107.808594,24.4260417 C107.808594,22.3592453 106.460802,20.6011125 104.596212,19.9925325 L104.596212,19.9925325 Z" id="Combined-Shape-Copy" fill="#FFFFFF" fill-rule="evenodd"></path>
                    <path d="M108.367188,24.4260417 C108.367188,27.3086216 106.032987,29.646875 103.156742,29.646875 L87.8823209,29.646875 C85.0062948,29.646875 82.671875,27.3058187 82.671875,24.4260417 C82.671875,21.6798687 84.7903882,19.4277249 87.4778306,19.2207263 C88.0398695,17.3910889 89.7271389,16.0975694 91.6791992,16.0975694 C92.4159971,16.0975694 93.1264407,16.2813639 93.7583493,16.624368 C95.0084551,15.3089554 96.7386369,14.54375 98.5917969,14.54375 C101.656432,14.54375 104.29695,16.6378913 105.069167,19.568827 C107.033915,20.3461894 108.367188,22.2597747 108.367188,24.4260417 Z M104.05011,20.1101713 C103.496093,17.5311179 101.231073,15.6625 98.5917969,15.6625 C96.9104671,15.6625 95.3518309,16.4185083 94.2962338,17.7026067 L93.9677845,18.1021542 L93.5445015,17.805255 C93.0004118,17.4236195 92.3557897,17.2163194 91.6791992,17.2163194 C90.1128207,17.2163194 88.7718453,18.3374457 88.4633327,19.8747917 L88.3731945,20.3239583 L87.8823209,20.3239583 C85.6231653,20.3239583 83.7890625,22.1612458 83.7890625,24.4260417 C83.7890625,26.6883108 85.6236612,28.528125 87.8823209,28.528125 L103.156742,28.528125 C105.415897,28.528125 107.25,26.6908375 107.25,24.4260417 C107.25,22.6390556 106.094242,21.0698086 104.42311,20.5243713 L104.117671,20.4246796 L104.05011,20.1101713 Z" id="Combined-Shape-Copy-5" fill="#682B90" fill-rule="nonzero"></path>
                    <path d="M170.371094,39.15625 C170.371094,38.2294472 169.620821,37.478125 168.695312,37.478125 C167.769804,37.478125 167.019531,38.2294472 167.019531,39.15625 L168.136719,39.15625 C168.136719,38.8473157 168.38681,38.596875 168.695312,38.596875 C169.003815,38.596875 169.253906,38.8473157 169.253906,39.15625 L170.371094,39.15625 Z" id="Oval-13" fill="#682B90" fill-rule="nonzero"></path>
                    <path d="M172.605469,39.15625 C172.605469,38.2294472 171.855196,37.478125 170.929688,37.478125 C170.004179,37.478125 169.253906,38.2294472 169.253906,39.15625 L170.371094,39.15625 C170.371094,38.8473157 170.621185,38.596875 170.929688,38.596875 C171.23819,38.596875 171.488281,38.8473157 171.488281,39.15625 L172.605469,39.15625 Z" id="Oval-13-Copy" fill="#682B90" fill-rule="nonzero"></path>
                    <path d="M22.34375,31.325 C22.34375,30.3981972 21.5934772,29.646875 20.6679688,29.646875 C19.7424603,29.646875 18.9921875,30.3981972 18.9921875,31.325 L20.109375,31.325 C20.109375,31.0160657 20.3594659,30.765625 20.6679688,30.765625 C20.9764716,30.765625 21.2265625,31.0160657 21.2265625,31.325 L22.34375,31.325 Z" id="Oval-13" fill="#682B90" fill-rule="nonzero"></path>
                    <path d="M24.578125,31.325 C24.578125,30.3981972 23.8278522,29.646875 22.9023438,29.646875 C21.9768353,29.646875 21.2265625,30.3981972 21.2265625,31.325 L22.34375,31.325 C22.34375,31.0160657 22.5938409,30.765625 22.9023438,30.765625 C23.2108466,30.765625 23.4609375,31.0160657 23.4609375,31.325 L24.578125,31.325 Z" id="Oval-13-Copy" fill="#682B90" fill-rule="nonzero"></path>
                    <path d="M15.0820312,35.8 C15.0820312,34.8731972 14.3317584,34.121875 13.40625,34.121875 C12.4807416,34.121875 11.7304688,34.8731972 11.7304688,35.8 L12.8476562,35.8 C12.8476562,35.4910657 13.0977472,35.240625 13.40625,35.240625 C13.7147528,35.240625 13.9648438,35.4910657 13.9648438,35.8 L15.0820312,35.8 Z" id="Oval-13" fill="#682B90" fill-rule="nonzero"></path>
                    <path d="M17.3164062,35.8 C17.3164062,34.8731972 16.5661334,34.121875 15.640625,34.121875 C14.7151166,34.121875 13.9648438,34.8731972 13.9648438,35.8 L15.0820312,35.8 C15.0820312,35.4910657 15.3321222,35.240625 15.640625,35.240625 C15.9491278,35.240625 16.1992188,35.4910657 16.1992188,35.8 L17.3164062,35.8 Z" id="Oval-13-Copy" fill="#682B90" fill-rule="nonzero"></path>
                    <path d="M98.8710938,55.9375 C96.0945685,55.9375 93.84375,53.6835335 93.84375,50.903125 C93.84375,48.1227165 96.0945685,45.86875 98.8710938,45.86875 C101.647619,45.86875 103.898438,48.1227165 103.898438,50.903125 C103.898438,53.6835335 101.647619,55.9375 98.8710938,55.9375 Z M98.8710938,54.81875 C101.030613,54.81875 102.78125,53.065665 102.78125,50.903125 C102.78125,48.740585 101.030613,46.9875 98.8710938,46.9875 C96.7115741,46.9875 94.9609375,48.740585 94.9609375,50.903125 C94.9609375,53.065665 96.7115741,54.81875 98.8710938,54.81875 Z" id="Oval" fill="#682B90" fill-rule="nonzero"></path>
                    <polygon id="Line" fill="#682B90" fill-rule="nonzero" points="53.9042969 69.3625 48.3183594 69.3625 48.3183594 70.48125 53.9042969 70.48125"></polygon>
                    <rect id="Rectangle-8-Copy-7" fill="#FFDDC3" fill-rule="evenodd" x="146.351562" y="58.734375" width="87.6992188" height="11.1875"></rect>
                    <path d="M146.910156,69.3625 L233.492187,69.3625 L233.492187,59.29375 L146.910156,59.29375 L146.910156,69.3625 Z M146.351562,58.175 L234.050781,58.175 C234.359284,58.175 234.609375,58.4254407 234.609375,58.734375 L234.609375,69.921875 C234.609375,70.2308093 234.359284,70.48125 234.050781,70.48125 L146.351562,70.48125 C146.04306,70.48125 145.792969,70.2308093 145.792969,69.921875 L145.792969,58.734375 C145.792969,58.4254407 146.04306,58.175 146.351562,58.175 Z" id="Rectangle-8-Copy-13" fill="#682B90" fill-rule="nonzero"></path>
                    <path d="M146.910156,69.921875 L233.492187,69.921875 L233.492187,59.853125 L146.910156,59.853125 L146.910156,69.921875 Z M146.351562,58.734375 L234.050781,58.734375 C234.359284,58.734375 234.609375,58.9848157 234.609375,59.29375 L234.609375,70.48125 C234.609375,70.7901843 234.359284,71.040625 234.050781,71.040625 L146.351562,71.040625 C146.04306,71.040625 145.792969,70.7901843 145.792969,70.48125 L145.792969,59.29375 C145.792969,58.9848157 146.04306,58.734375 146.351562,58.734375 Z" id="Rectangle-8-Copy-20" fill="#682B90" fill-rule="nonzero"></path>
                    <path d="M53.694145,69.6523017 L54.6730425,70.1914483 L57.8933663,64.328125 L54.6730425,58.4648017 L53.694145,59.0039483 L56.6183524,64.328125 L53.694145,69.6523017 Z M60.8175737,59.0039483 L59.8386763,58.4648017 L56.6183524,64.328125 L59.8386763,70.1914483 L60.8175737,69.6523017 L57.8933663,64.328125 L60.8175737,59.0039483 Z" id="Rectangle" fill="#682B90" fill-rule="nonzero"></path>
                    <path d="M85.5339888,69.6523017 L86.5128862,70.1914483 L89.7332101,64.328125 L86.5128862,58.4648017 L85.5339888,59.0039483 L88.4581962,64.328125 L85.5339888,69.6523017 Z M92.6574175,59.0039483 L91.67852,58.4648017 L88.4581962,64.328125 L91.67852,70.1914483 L92.6574175,69.6523017 L89.7332101,64.328125 L92.6574175,59.0039483 Z" id="Rectangle-Copy-2" fill="#682B90" fill-rule="nonzero"></path>
                    <path d="M116.815239,69.6523017 L117.794136,70.1914483 L121.01446,64.328125 L117.794136,58.4648017 L116.815239,59.0039483 L119.739446,64.328125 L116.815239,69.6523017 Z M121.01446,64.328125 L123.938667,59.0039483 L122.95977,58.4648017 L119.739446,64.328125 L122.95977,70.1914483 L123.938667,69.6523017 L121.01446,64.328125 Z" id="Rectangle-Copy-4" fill="#682B90" fill-rule="nonzero"></path>
                    <path d="M69.8933638,69.6523017 L70.8722612,70.1914483 L74.0925851,64.328125 L70.8722612,58.4648017 L69.8933638,59.0039483 L72.8175712,64.328125 L69.8933638,69.6523017 Z M77.0167925,59.0039483 L76.037895,58.4648017 L72.8175712,64.328125 L76.037895,70.1914483 L77.0167925,69.6523017 L74.0925851,64.328125 L77.0167925,59.0039483 Z" id="Rectangle-Copy" fill="#682B90" fill-rule="nonzero"></path>
                    <path d="M101.174614,69.6523017 L102.153511,70.1914483 L105.373835,64.328125 L102.153511,58.4648017 L101.174614,59.0039483 L104.098821,64.328125 L101.174614,69.6523017 Z M108.298042,59.0039483 L107.319145,58.4648017 L104.098821,64.328125 L107.319145,70.1914483 L108.298042,69.6523017 L105.373835,64.328125 L108.298042,59.0039483 Z" id="Rectangle-Copy-3" fill="#682B90" fill-rule="nonzero"></path>
                    <path d="M132.455864,69.6523017 L133.434761,70.1914483 L136.655085,64.328125 L133.434761,58.4648017 L132.455864,59.0039483 L135.380071,64.328125 L132.455864,69.6523017 Z M139.579292,59.0039483 L138.600395,58.4648017 L135.380071,64.328125 L138.600395,70.1914483 L139.579292,69.6523017 L136.655085,64.328125 L139.579292,59.0039483 Z" id="Rectangle-Copy-5" fill="#682B90" fill-rule="nonzero"></path>
                    <rect id="Rectangle-10" fill="#FFDDC3" fill-rule="evenodd" x="148.585938" y="69.3625" width="83.2304688" height="55.378125"></rect>
                    <rect id="Rectangle-10-Copy-3" fill="#FFDDC3" fill-rule="evenodd" x="148.585938" y="69.3625" width="83.2304688" height="55.378125"></rect>
                    <path d="M149.703125,123.621875 L230.699219,123.621875 L230.699219,70.48125 L149.703125,70.48125 L149.703125,123.621875 Z M148.585938,69.3625 L231.816406,69.3625 L231.816406,124.740625 L148.585938,124.740625 L148.585938,69.3625 Z" id="Rectangle-10-Copy-2" fill="#682B90" fill-rule="nonzero"></path>
                    <path d="M149.703125,124.18125 L230.699219,124.18125 L230.699219,71.040625 L149.703125,71.040625 L149.703125,124.18125 Z M148.585938,69.921875 L231.816406,69.921875 L231.816406,125.3 L148.585938,125.3 L148.585938,69.921875 Z" id="Rectangle-10-Copy-4" fill="#682B90" fill-rule="nonzero"></path>
                    <g id="Group-4" stroke-width="1" fill-rule="evenodd" transform="translate(163.109375, 73.278125)" fill="#682B90">
                        <path d="M1.1171875,21.25625 L4.46875,21.25625 L4.46875,17.9 L1.1171875,17.9 L1.1171875,21.25625 Z M5.5859375,16.78125 L5.5859375,22.375 L0,22.375 L0,16.78125 L5.5859375,16.78125 Z M1.1171875,12.30625 L4.46875,12.30625 L4.46875,1.11875 L1.1171875,1.11875 L1.1171875,12.30625 Z M5.5859375,0 L5.5859375,13.425 L0,13.425 L0,0 L5.5859375,0 Z M1.1171875,46.428125 L4.46875,46.428125 L4.46875,26.85 L1.1171875,26.85 L1.1171875,46.428125 Z M5.5859375,25.73125 L5.5859375,47.546875 L0,47.546875 L0,25.73125 L5.5859375,25.73125 Z" id="Rectangle-11-Copy" fill-rule="nonzero"></path>
                        <path d="M13.40625,21.25625 L16.7578125,21.25625 L16.7578125,17.9 L13.40625,17.9 L13.40625,21.25625 Z M17.875,16.78125 L17.875,22.375 L12.2890625,22.375 L12.2890625,16.78125 L17.875,16.78125 Z M13.40625,12.30625 L16.7578125,12.30625 L16.7578125,1.11875 L13.40625,1.11875 L13.40625,12.30625 Z M17.875,0 L17.875,13.425 L12.2890625,13.425 L12.2890625,0 L17.875,0 Z M13.40625,46.428125 L16.7578125,46.428125 L16.7578125,26.85 L13.40625,26.85 L13.40625,46.428125 Z M17.875,25.73125 L17.875,47.546875 L12.2890625,47.546875 L12.2890625,25.73125 L17.875,25.73125 Z" id="Rectangle-11-Copy" fill-rule="nonzero"></path>
                        <path d="M25.6953125,21.25625 L29.046875,21.25625 L29.046875,17.9 L25.6953125,17.9 L25.6953125,21.25625 Z M30.1640625,16.78125 L30.1640625,22.375 L24.578125,22.375 L24.578125,16.78125 L30.1640625,16.78125 Z M25.6953125,12.30625 L29.046875,12.30625 L29.046875,1.11875 L25.6953125,1.11875 L25.6953125,12.30625 Z M30.1640625,0 L30.1640625,13.425 L24.578125,13.425 L24.578125,0 L30.1640625,0 Z M25.6953125,46.428125 L29.046875,46.428125 L29.046875,26.85 L25.6953125,26.85 L25.6953125,46.428125 Z M30.1640625,25.73125 L30.1640625,47.546875 L24.578125,47.546875 L24.578125,25.73125 L30.1640625,25.73125 Z" id="Rectangle-11-Copy" fill-rule="nonzero"></path>
                        <path d="M37.984375,21.25625 L41.3359375,21.25625 L41.3359375,17.9 L37.984375,17.9 L37.984375,21.25625 Z M42.453125,16.78125 L42.453125,22.375 L36.8671875,22.375 L36.8671875,16.78125 L42.453125,16.78125 Z M37.984375,12.30625 L41.3359375,12.30625 L41.3359375,1.11875 L37.984375,1.11875 L37.984375,12.30625 Z M42.453125,0 L42.453125,13.425 L36.8671875,13.425 L36.8671875,0 L42.453125,0 Z M37.984375,46.428125 L41.3359375,46.428125 L41.3359375,26.85 L37.984375,26.85 L37.984375,46.428125 Z M42.453125,25.73125 L42.453125,47.546875 L36.8671875,47.546875 L36.8671875,25.73125 L42.453125,25.73125 Z" id="Rectangle-11-Copy" fill-rule="nonzero"></path>
                        <path d="M50.2734375,21.25625 L53.625,21.25625 L53.625,17.9 L50.2734375,17.9 L50.2734375,21.25625 Z M54.7421875,16.78125 L54.7421875,22.375 L49.15625,22.375 L49.15625,16.78125 L54.7421875,16.78125 Z M50.2734375,12.30625 L53.625,12.30625 L53.625,1.11875 L50.2734375,1.11875 L50.2734375,12.30625 Z M54.7421875,0 L54.7421875,13.425 L49.15625,13.425 L49.15625,0 L54.7421875,0 Z M50.2734375,46.428125 L53.625,46.428125 L53.625,26.85 L50.2734375,26.85 L50.2734375,46.428125 Z M54.7421875,25.73125 L54.7421875,47.546875 L49.15625,47.546875 L49.15625,25.73125 L54.7421875,25.73125 Z" id="Rectangle-11-Copy" fill-rule="nonzero"></path>
                    </g>
                    <g id="Group-4-Copy" stroke-width="1" fill-rule="evenodd" transform="translate(163.109375, 73.837500)" fill="#682B90">
                        <path d="M1.1171875,21.25625 L4.46875,21.25625 L4.46875,17.9 L1.1171875,17.9 L1.1171875,21.25625 Z M5.5859375,16.78125 L5.5859375,22.375 L0,22.375 L0,16.78125 L5.5859375,16.78125 Z M1.1171875,12.30625 L4.46875,12.30625 L4.46875,1.11875 L1.1171875,1.11875 L1.1171875,12.30625 Z M5.5859375,0 L5.5859375,13.425 L0,13.425 L0,0 L5.5859375,0 Z M1.1171875,46.428125 L4.46875,46.428125 L4.46875,26.85 L1.1171875,26.85 L1.1171875,46.428125 Z M5.5859375,25.73125 L5.5859375,47.546875 L0,47.546875 L0,25.73125 L5.5859375,25.73125 Z" id="Rectangle-11-Copy" fill-rule="nonzero"></path>
                        <path d="M13.40625,21.25625 L16.7578125,21.25625 L16.7578125,17.9 L13.40625,17.9 L13.40625,21.25625 Z M17.875,16.78125 L17.875,22.375 L12.2890625,22.375 L12.2890625,16.78125 L17.875,16.78125 Z M13.40625,12.30625 L16.7578125,12.30625 L16.7578125,1.11875 L13.40625,1.11875 L13.40625,12.30625 Z M17.875,0 L17.875,13.425 L12.2890625,13.425 L12.2890625,0 L17.875,0 Z M13.40625,46.428125 L16.7578125,46.428125 L16.7578125,26.85 L13.40625,26.85 L13.40625,46.428125 Z M17.875,25.73125 L17.875,47.546875 L12.2890625,47.546875 L12.2890625,25.73125 L17.875,25.73125 Z" id="Rectangle-11-Copy" fill-rule="nonzero"></path>
                        <path d="M25.6953125,21.25625 L29.046875,21.25625 L29.046875,17.9 L25.6953125,17.9 L25.6953125,21.25625 Z M30.1640625,16.78125 L30.1640625,22.375 L24.578125,22.375 L24.578125,16.78125 L30.1640625,16.78125 Z M25.6953125,12.30625 L29.046875,12.30625 L29.046875,1.11875 L25.6953125,1.11875 L25.6953125,12.30625 Z M30.1640625,0 L30.1640625,13.425 L24.578125,13.425 L24.578125,0 L30.1640625,0 Z M25.6953125,46.428125 L29.046875,46.428125 L29.046875,26.85 L25.6953125,26.85 L25.6953125,46.428125 Z M30.1640625,25.73125 L30.1640625,47.546875 L24.578125,47.546875 L24.578125,25.73125 L30.1640625,25.73125 Z" id="Rectangle-11-Copy" fill-rule="nonzero"></path>
                        <path d="M37.984375,21.25625 L41.3359375,21.25625 L41.3359375,17.9 L37.984375,17.9 L37.984375,21.25625 Z M42.453125,16.78125 L42.453125,22.375 L36.8671875,22.375 L36.8671875,16.78125 L42.453125,16.78125 Z M37.984375,12.30625 L41.3359375,12.30625 L41.3359375,1.11875 L37.984375,1.11875 L37.984375,12.30625 Z M42.453125,0 L42.453125,13.425 L36.8671875,13.425 L36.8671875,0 L42.453125,0 Z M37.984375,46.428125 L41.3359375,46.428125 L41.3359375,26.85 L37.984375,26.85 L37.984375,46.428125 Z M42.453125,25.73125 L42.453125,47.546875 L36.8671875,47.546875 L36.8671875,25.73125 L42.453125,25.73125 Z" id="Rectangle-11-Copy" fill-rule="nonzero"></path>
                        <path d="M50.2734375,21.25625 L53.625,21.25625 L53.625,17.9 L50.2734375,17.9 L50.2734375,21.25625 Z M54.7421875,16.78125 L54.7421875,22.375 L49.15625,22.375 L49.15625,16.78125 L54.7421875,16.78125 Z M50.2734375,12.30625 L53.625,12.30625 L53.625,1.11875 L50.2734375,1.11875 L50.2734375,12.30625 Z M54.7421875,0 L54.7421875,13.425 L49.15625,13.425 L49.15625,0 L54.7421875,0 Z M50.2734375,46.428125 L53.625,46.428125 L53.625,26.85 L50.2734375,26.85 L50.2734375,46.428125 Z M54.7421875,25.73125 L54.7421875,47.546875 L49.15625,47.546875 L49.15625,25.73125 L54.7421875,25.73125 Z" id="Rectangle-11-Copy" fill-rule="nonzero"></path>
                    </g>
                    <path d="M56.0470764,151.590625 L51.1079316,139.84375 L234.892068,139.84375 L229.952924,151.590625 L56.0470764,151.590625 Z M229.211139,150.471875 L233.209494,140.9625 L52.7905059,140.9625 L56.7888611,150.471875 L229.211139,150.471875 Z" id="Rectangle-11-Copy-2" fill="#682B90" fill-rule="nonzero"></path>
                    <g id="Group-5" stroke-width="1" fill-rule="evenodd" transform="translate(28.488281, 114.671875)">
                        <ellipse id="Oval-2" fill="#FF55C3" cx="7.8203125" cy="7.83125" rx="7.26171875" ry="7.271875"></ellipse>
                        <path d="M7.8203125,15.6625 C3.50127317,15.6625 0,12.1563299 0,7.83125 C0,3.50617005 3.50127317,0 7.8203125,0 C12.1393518,0 15.640625,3.50617005 15.640625,7.83125 C15.640625,12.1563299 12.1393518,15.6625 7.8203125,15.6625 Z M7.8203125,14.54375 C11.5223462,14.54375 14.5234375,11.5384614 14.5234375,7.83125 C14.5234375,4.12403862 11.5223462,1.11875 7.8203125,1.11875 C4.11827879,1.11875 1.1171875,4.12403862 1.1171875,7.83125 C1.1171875,11.5384614 4.11827879,14.54375 7.8203125,14.54375 Z" id="Oval-2-Copy-5" fill="#682B90" fill-rule="nonzero"></path>
                        <polygon id="Line" fill="#682B90" fill-rule="nonzero" points="7.26171875 3.35625 7.26171875 25.4515625 8.37890625 25.4515625 8.37890625 3.35625"></polygon>
                        <polygon id="Line" fill="#682B90" fill-rule="nonzero" points="8.05168961 8.95 4.46875 5.36204929 3.67877914 6.153125 7.26171875 9.74107571"></polygon>
                    </g>
                    <g id="Group-5-Copy-2" stroke-width="1" fill-rule="evenodd" transform="translate(244.105469, 99.009375)">
                        <path d="M2.24658984,6.52601975 C2.23848925,6.40276917 2.234375,6.27842822 2.234375,6.153125 C2.234375,3.06378218 4.73528441,0.559375 7.8203125,0.559375 C10.9053406,0.559375 13.40625,3.06378218 13.40625,6.153125 C13.40625,6.27842822 13.4021358,6.40276917 13.3940352,6.52601975 C14.4478,7.78817462 15.0820312,9.41366739 15.0820312,11.1875 C15.0820312,15.2036457 11.830849,18.459375 7.8203125,18.459375 C3.80977598,18.459375 0.55859375,15.2036457 0.55859375,11.1875 C0.55859375,9.41366739 1.19282504,7.78817462 2.24658984,6.52601975 L2.24658984,6.52601975 Z" id="Oval-2-Copy" fill="#FF55C3"></path>
                        <path d="M2.80397764,6.48928313 L2.81867422,6.71289166 L2.67513798,6.8848133 C1.67429928,8.08357553 1.1171875,9.59184589 1.1171875,11.1875 C1.1171875,14.8947114 4.11827879,17.9 7.8203125,17.9 C11.5223462,17.9 14.5234375,14.8947114 14.5234375,11.1875 C14.5234375,9.59184589 13.9663257,8.08357553 12.965487,6.8848133 L12.8219508,6.71289166 L12.8366474,6.48928313 C12.8439753,6.37778897 12.8476563,6.26569952 12.8476562,6.153125 C12.8476562,3.37271646 10.5968378,1.11875 7.8203125,1.11875 C5.04378721,1.11875 2.79296875,3.37271646 2.79296875,6.153125 C2.79296875,6.26569952 2.79664974,6.37778897 2.80397764,6.48928313 Z M1.67578125,6.153125 C1.67578125,2.7548479 4.4267816,0 7.8203125,0 C11.2138434,0 13.9648438,2.7548479 13.9648438,6.153125 C13.9648438,6.21524211 13.9639228,6.27725728 13.9620843,6.33915656 C15.0416507,7.70850879 15.640625,9.40252147 15.640625,11.1875 C15.640625,15.5125799 12.1393518,19.01875 7.8203125,19.01875 C3.50127317,19.01875 0,15.5125799 0,11.1875 C0,9.40252147 0.598974341,7.70850879 1.67854074,6.33915656 C1.67670221,6.27725728 1.67578125,6.21524211 1.67578125,6.153125 Z" id="Oval-2-Copy-3" fill="#682B90" fill-rule="nonzero"></path>
                        <polygon id="Line" fill="#682B90" fill-rule="nonzero" points="7.26171875 6.7125 7.26171875 40.9526746 8.37890625 40.9526746 8.37890625 6.7125"></polygon>
                        <polygon id="Line" fill="#682B90" fill-rule="nonzero" points="8.05168961 12.30625 4.46875 8.71829929 3.67877914 9.509375 7.26171875 13.0973257"></polygon>
                    </g>
                    <g id="Group-5-Copy" stroke-width="1" fill-rule="evenodd" transform="translate(267.007812, 114.671875)">
                        <ellipse id="Oval-2" fill="#FFFFFF" cx="7.8203125" cy="7.83125" rx="7.26171875" ry="7.271875"></ellipse>
                        <path d="M7.8203125,15.6625 C3.50127317,15.6625 0,12.1563299 0,7.83125 C0,3.50617005 3.50127317,0 7.8203125,0 C12.1393518,0 15.640625,3.50617005 15.640625,7.83125 C15.640625,12.1563299 12.1393518,15.6625 7.8203125,15.6625 Z M7.8203125,14.54375 C11.5223462,14.54375 14.5234375,11.5384614 14.5234375,7.83125 C14.5234375,4.12403862 11.5223462,1.11875 7.8203125,1.11875 C4.11827879,1.11875 1.1171875,4.12403862 1.1171875,7.83125 C1.1171875,11.5384614 4.11827879,14.54375 7.8203125,14.54375 Z" id="Oval-2-Copy-2" fill="#682B90" fill-rule="nonzero"></path>
                        <polygon id="Line" fill="#682B90" fill-rule="nonzero" points="7.26171875 3.35625 7.26171875 25.4515625 8.37890625 25.4515625 8.37890625 3.35625"></polygon>
                        <polygon id="Line" fill="#682B90" fill-rule="nonzero" points="8.05168961 8.95 4.46875 5.36204929 3.67877914 6.153125 7.26171875 9.74107571"></polygon>
                    </g>
                    <polygon id="Line-Copy" fill="#682B90" fill-rule="nonzero" points="38.7833566 122.485146 36.0772166 125.195071 36.8671875 125.986147 39.5733275 123.276222"></polygon>
                    <polygon id="Rectangle-33" fill="#F8ECE4" fill-rule="evenodd" points="10.0546875 126.978125 18.9921875 126.978125 20.109375 139.84375 8.9375 139.84375"></polygon>
                    <path d="M9.54677503,139.284375 L19.5001,139.284375 L18.4800592,127.5375 L10.5668158,127.5375 L9.54677503,139.284375 Z M19.5043158,126.41875 L20.71865,140.403125 L8.32822497,140.403125 L9.54255921,126.41875 L19.5043158,126.41875 Z" id="Rectangle-33-Copy" fill="#682B90" fill-rule="nonzero"></path>
                    <path d="M11.9496078,126.978125 L11.9496078,124.18125 C11.9496078,123.0625 14.1839828,120.825 14.1839828,120.825 C14.1839828,120.825 12.5082015,114.671875 12.5082015,111.315625 C12.5082015,107.959375 14.7425765,104.04375 14.7425765,104.04375 L13.625389,99.56875 C13.625389,99.56875 9.71523278,100.6875 8.59804528,100.6875 C7.48085778,100.6875 6.92226403,99.009375 7.48085778,97.33125 C8.03945153,95.653125 9.15663903,92.85625 9.71523278,92.85625 C10.2738265,92.85625 10.8324203,92.85625 10.2738265,94.534375 C9.71523278,96.2125 9.71523278,94.534375 9.15663903,96.2125 C8.59804528,97.890625 9.71523278,98.45 10.8324203,97.33125 C11.9496078,96.2125 13.625389,95.09375 13.625389,95.09375 L13.625389,93.415625 C13.625389,93.415625 11.391014,91.7375 11.391014,89.5 C11.391014,87.2625 15.3011703,85.584375 15.3011703,85.584375 L16.4183578,87.2625 C16.4183578,87.2625 16.9769515,87.821875 17.5355453,88.940625 C18.094139,90.059375 16.9769515,93.415625 16.9769515,93.415625 L17.5355453,94.534375 L19.2113265,93.975 L22.0042953,98.45 L18.094139,121.384375 L19.2113265,123.621875 L18.6527328,126.978125 L11.9496078,126.978125 Z" id="Path-65" fill="#F8ECE4" fill-rule="evenodd"></path>
                    <path d="M18.1795329,126.41875 L18.6304707,123.709339 L17.5127369,121.470745 L21.4178698,98.5658337 L18.9707353,94.6449423 L17.2525835,95.2184605 L16.3738551,93.4585457 L16.447023,93.2387351 C16.4676593,93.1767396 16.5050662,93.0590104 16.5536345,92.8968898 C16.6350633,92.6250807 16.7165681,92.3312531 16.792536,92.0269566 C16.8897014,91.6377516 16.9704469,91.260412 17.0292393,90.9071643 C17.1669499,90.0797454 17.1669499,89.4532036 17.0359238,89.1907851 C16.8069679,88.7322328 16.5628685,88.3411276 16.3206039,88.0176563 C16.1798777,87.8297589 16.0750465,87.7097843 16.0233724,87.6580379 L15.9535797,87.5727854 L15.1043798,86.2972041 C15.054184,86.3225919 15.0024698,86.3492175 14.9493998,86.377055 C14.5124356,86.6062611 14.0756709,86.8686864 13.6707682,87.1583072 C12.5820477,87.9370523 11.9496078,88.7513266 11.9496078,89.5 C11.9496078,90.3329032 12.3184081,91.1638645 12.94439,91.9474362 C13.1696504,92.2294055 13.4119486,92.4841744 13.6537235,92.7061114 C13.7965539,92.8372224 13.9047209,92.9261982 13.9605453,92.968125 L14.1839828,93.1359375 L14.1839828,95.3931184 L13.9352411,95.5591781 C13.9082376,95.5772057 13.8555089,95.612994 13.7807628,95.6646765 C13.6550289,95.7516142 13.514633,95.8507498 13.3632986,95.9601998 C12.931178,96.2727233 12.4992395,96.6043393 12.0977381,96.9393917 C11.7694745,97.2133274 11.4762203,97.4776253 11.2274057,97.7267879 C9.66237488,99.2940075 7.89547492,98.2323849 8.62671047,96.0356101 C8.89689425,95.2239251 9.13807537,94.8846753 9.56365252,94.8241739 C9.60799891,94.7338895 9.66963383,94.5805891 9.74389797,94.3574851 C9.91584896,93.8409107 9.96175008,93.5361054 9.95744964,93.4227402 C9.92794576,93.4194413 9.89005647,93.4174943 9.8354431,93.4164933 C9.79155866,93.4638887 9.73623641,93.5359602 9.67378529,93.6297678 C9.50984263,93.8760258 9.31603403,94.2414737 9.10522572,94.6988638 C8.73309794,95.5062683 8.32277569,96.5708628 8.01078635,97.5081399 C7.55443801,98.8790997 7.9701983,100.128125 8.59804528,100.128125 C8.95456254,100.128125 9.76080164,99.9786126 10.8349287,99.7225104 C11.0161085,99.679312 11.203193,99.6335163 11.3951836,99.5854515 C11.879759,99.4641383 12.3735272,99.3340175 12.8499953,99.2038899 C13.0167544,99.1583466 13.1693785,99.1160724 13.3045789,99.0781633 C13.3854268,99.0554942 13.442696,99.0392633 13.4719315,99.0308975 L14.0272345,98.8720177 L15.3389283,104.126131 L15.2275717,104.321278 C15.2123952,104.347874 15.18194,104.40277 15.1383939,104.483754 C15.0646371,104.620923 14.9821354,104.779802 14.8930769,104.958168 C14.6378276,105.46938 14.3823188,106.032286 14.1440303,106.62884 C13.6617744,107.836167 13.313777,109.021012 13.1571894,110.118658 C13.0975093,110.537004 13.0667953,110.936844 13.0667953,111.315625 C13.0667953,112.245154 13.2017631,113.470573 13.447523,114.914382 C13.571916,115.645175 13.7220145,116.415987 13.8922865,117.211701 C14.0741581,118.061622 14.2691231,118.894636 14.4640575,119.675464 C14.5322459,119.9486 14.5955284,120.195584 14.6522657,120.412028 C14.6861696,120.541367 14.7102585,120.631424 14.7228938,120.677819 L14.8081872,120.990998 L14.5789682,121.220538 C14.5141305,121.285466 14.3970307,121.406918 14.2453183,121.571503 C13.9918255,121.846504 13.7383963,122.138355 13.5029837,122.433033 C13.3107602,122.673648 13.139155,122.905639 12.9936683,123.124174 C12.6783759,123.597774 12.5082015,123.981202 12.5082015,124.18125 L12.5082015,126.41875 L18.1795329,126.41875 Z M13.0667953,95.09375 L13.315537,94.6283219 C13.2836263,94.6496254 13.2258909,94.6888119 13.1459872,94.7440606 C13.1201476,94.7619272 13.0937412,94.7802683 13.0667953,94.7990702 L13.0667953,95.09375 Z M19.7921824,123.534411 L19.1259327,127.5375 L11.391014,127.5375 L11.391014,124.18125 C11.391014,123.697617 11.6346128,123.148753 12.0641121,122.503603 C12.2289553,122.255993 12.4194015,121.998531 12.6306068,121.734155 C12.8839638,121.417016 13.1542162,121.105791 13.4244051,120.812677 C13.4724817,120.760521 13.5188477,120.710805 13.5632205,120.663737 C13.5076082,120.451056 13.4461411,120.210829 13.3802264,119.946801 C13.1823996,119.154387 12.9846034,118.309276 12.7998978,117.446112 C12.6265037,116.635807 12.4734397,115.849766 12.34622,115.102366 C12.0908003,113.601808 11.9496078,112.319873 11.9496078,111.315625 C11.9496078,110.881564 11.984354,110.429232 12.0512302,109.960443 C12.2219437,108.763778 12.5940086,107.496988 13.1067478,106.213347 C13.3572288,105.586269 13.6254017,104.995463 13.893834,104.457848 C13.9852179,104.274824 14.0704554,104.110464 14.147562,103.966725 L13.2225982,100.261695 C13.1967402,100.268786 13.1705188,100.275962 13.1439468,100.283219 C12.660332,100.415299 12.159105,100.547385 11.6661414,100.670798 C11.4702196,100.719847 11.2790896,100.766633 11.0936923,100.810837 C9.92762563,101.088861 9.07553953,101.246875 8.59804528,101.246875 C6.99151727,101.246875 6.29009006,99.1396503 6.95092922,97.1543601 C7.89925052,94.3054172 8.82497529,92.296875 9.71523278,92.296875 C10.3290843,92.296875 10.6133923,92.3578833 10.8782531,92.7557302 C11.1586459,93.1769078 11.1141182,93.7788735 10.8037551,94.7112649 C10.5335713,95.5229499 10.2923902,95.8621997 9.86681305,95.9227011 C9.82246666,96.0129855 9.76083174,96.1662859 9.6865676,96.3893899 C9.33164863,97.455636 9.69826647,97.6759143 10.4374349,96.9357121 C10.7123019,96.6604607 11.0300096,96.3741238 11.3825321,96.0799442 C11.8058293,95.7267032 12.2576036,95.3798585 12.7091958,95.0532524 C12.8362421,94.9613684 12.9560733,94.8763282 13.0667953,94.7990702 L13.0667953,93.6837884 C12.7792955,93.4393461 12.4257045,93.0890464 12.0720131,92.6463138 C11.3015106,91.6818387 10.8324203,90.6249093 10.8324203,89.5 C10.8324203,88.2908609 11.6662889,87.2172446 13.0214161,86.2479428 C13.4718601,85.9257472 13.9515383,85.6375377 14.431017,85.386031 C14.598848,85.2979965 14.7550253,85.220658 14.8958053,85.1544851 C14.9818981,85.1140177 15.0449289,85.0857645 15.0811294,85.0702282 L15.5082081,84.8869385 L16.8540604,86.9085403 C17.1708501,87.2381582 17.6062868,87.8315054 18.0351667,88.6904649 C18.3063282,89.2335464 18.3063282,90.0390046 18.1312263,91.0910857 C18.067128,91.476213 17.9802955,91.8819984 17.8763671,92.2982934 C17.7959287,92.6204969 17.7098554,92.9307943 17.6237061,93.2183602 C17.6073156,93.2730716 17.592037,93.3232976 17.5780448,93.3686924 L17.818507,93.8502895 L19.4519178,93.3050577 L22.5907207,98.3341663 L18.6755411,121.298005 L19.7921824,123.534411 Z" id="Path-65-Copy" fill="#682B90" fill-rule="nonzero"></path>
                    <ellipse id="Oval-3" fill="#F8ECE4" fill-rule="evenodd" transform="translate(22.549570, 100.517896) rotate(-10.000000) translate(-22.549570, -100.517896) " cx="22.5495704" cy="100.517896" rx="3.07226562" ry="9.509375"></ellipse>
                    <path d="M18.9738719,101.14927 C18.0089624,95.6693423 18.6610192,90.9804345 20.8035922,90.6021126 C22.9461653,90.2237908 25.1603593,94.4065945 26.1252688,99.8865218 C27.0901784,105.366449 26.4381216,110.055357 24.2955485,110.433679 C22.1529755,110.812001 19.9387814,106.629197 18.9738719,101.14927 Z M25.0250539,100.080791 C24.1685511,95.2165282 22.1969923,91.4920835 20.9975898,91.7038663 C19.7981873,91.9156491 19.217584,96.0907383 20.0740868,100.955001 C20.9305896,105.819263 22.9021485,109.543708 24.101551,109.331925 C25.3009535,109.120142 25.8815567,104.945053 25.0250539,100.080791 Z" id="Oval-3-Copy" fill="#682B90" fill-rule="nonzero"></path>
                    <polygon id="Path-66" fill="#682B90" fill-rule="nonzero" points="8.37963931 83.9348983 10.6140143 127.566148 11.7297357 127.508852 9.49536069 83.8776017"></polygon>
                    <path d="M13.9648438,121.384375 L17.875,121.94375 L17.6983571,120.853705 C17.6630368,120.865495 17.5893988,120.886564 17.4919832,120.908242 C17.3322812,120.943781 17.1745327,120.964844 17.0371094,120.964844 C16.785482,120.964844 16.7578125,120.946372 16.7578125,120.825 L16.7578125,109.6375 L15.640625,109.6375 L15.640625,120.825 C15.640625,121.392432 17.9822268,121.938216 18.0516429,121.915045 C18.6527965,121.71438 18.5086716,120.825 17.875,120.825 L13.9648438,120.265625 L13.9648438,121.384375 Z" id="Path-67" fill="#682B90" fill-rule="nonzero"></path>
                    <path d="M13.9648438,101.80625 C14.2871676,101.80625 15.2440968,101.53568 16.8998949,101.015488 C17.0178342,100.978393 17.0178342,100.978393 17.1354953,100.941223 C17.7179539,100.757031 18.3285131,100.559801 18.9302752,100.362585 C19.1408632,100.293569 19.3353345,100.229477 19.5090611,100.171943 C19.6134111,100.137386 19.6875742,100.112721 19.7274241,100.09942 L19.3741384,99.0380803 C19.335436,99.0509993 19.2617682,99.0754989 19.158282,99.1097705 C18.985615,99.1669528 18.7922346,99.230686 18.5827863,99.2993286 C17.9844447,99.4954234 17.3774441,99.6915039 16.7990751,99.8744022 C16.682378,99.9112674 16.682378,99.9112674 16.565476,99.9480363 C15.1596392,100.3897 14.106404,100.6875 13.9648438,100.6875 L13.9648438,101.80625 Z" id="Path-68" fill="#682B90" fill-rule="nonzero"></path>
                    <polygon id="Path-69" fill="#682B90" fill-rule="nonzero" points="13.9648438 100.128125 13.9648438 95.09375 12.8476562 95.09375 12.8476562 100.128125"></polygon>
                    <path d="M17.1809274,93.4323265 C17.1549188,93.4388378 17.1025796,93.4512048 17.0285443,93.4674791 C16.9032122,93.4950295 16.765235,93.5226636 16.6193598,93.5484423 C16.3409099,93.5976492 16.0685744,93.6339218 15.8174244,93.6518862 C15.3249653,93.687111 14.9760808,93.6372007 14.9184229,93.5794621 L14.1284521,94.3705379 C14.4982894,94.7408924 15.0898944,94.8255256 15.8970207,94.7677931 C16.1905313,94.7467987 16.4998005,94.7056069 16.8135106,94.6501689 C16.9753791,94.6215639 17.1283362,94.5909297 17.2680775,94.5602119 C17.3530863,94.5415253 17.4158277,94.5267004 17.4518851,94.5176735 L17.1809274,93.4323265 Z" id="Path-70" fill="#682B90" fill-rule="nonzero"></path>
                    <path d="M27.3710938,154.3875 L27.3710938,150.4732 C27.3710938,149.546557 28.1229873,148.79375 29.046875,148.79375 C29.9723308,148.79375 30.7226562,149.545557 30.7226562,150.4732 L30.7226562,154.3875 L31.8398438,154.3875 L31.8398438,150.4732 C31.8398438,148.927832 30.5894802,147.675 29.046875,147.675 C27.5060277,147.675 26.2539062,148.928642 26.2539062,150.4732 L26.2539062,154.3875 L27.3710938,154.3875 Z" id="Rectangle-34" fill="#682B90" fill-rule="nonzero"></path>
                    <path d="M246.339844,155.50625 L246.339844,153.270075 C246.339844,152.343432 247.091737,151.590625 248.015625,151.590625 C248.941081,151.590625 249.691406,152.342432 249.691406,153.270075 L249.691406,157.184375 L250.808594,157.184375 L250.808594,153.270075 C250.808594,151.724707 249.55823,150.471875 248.015625,150.471875 C246.474778,150.471875 245.222656,151.725517 245.222656,153.270075 L245.222656,155.50625 L246.339844,155.50625 Z" id="Rectangle-34-Copy-6" fill="#682B90" fill-rule="nonzero"></path>
                    <path d="M265.890625,148.2357 C265.890625,147.309057 266.642519,146.55625 267.566406,146.55625 C267.82224,146.55625 268.068834,146.613361 268.293374,146.721926 L268.779124,145.71446 C268.403907,145.533042 267.991374,145.4375 267.566406,145.4375 C266.025559,145.4375 264.773438,146.691142 264.773438,148.2357 L265.890625,148.2357 Z" id="Rectangle-34-Copy-11" fill="#682B90" fill-rule="nonzero"></path>
                    <path d="M34.6328125,154.946875 L34.6328125,149.349267 C34.6328125,148.425775 35.3844167,147.675 36.3085938,147.675 C37.234413,147.675 37.984375,148.424658 37.984375,149.349267 L37.984375,154.946875 L39.1015625,154.946875 L39.1015625,149.349267 C39.1015625,147.806338 37.8509682,146.55625 36.3085938,146.55625 C34.7680359,146.55625 33.515625,147.807279 33.515625,149.349267 L33.515625,154.946875 L34.6328125,154.946875 Z" id="Rectangle-34-Copy-3" fill="#682B90" fill-rule="nonzero"></path>
                    <path d="M244.664062,163.3375 L244.664062,157.739892 C244.664062,156.8164 245.415667,156.065625 246.339844,156.065625 C247.265663,156.065625 248.015625,156.815283 248.015625,157.739892 L249.132812,157.739892 C249.132812,156.196963 247.882218,154.946875 246.339844,154.946875 C244.799286,154.946875 243.546875,156.197904 243.546875,157.739892 L243.546875,163.3375 L244.664062,163.3375 Z" id="Rectangle-34-Copy-7" fill="#682B90" fill-rule="nonzero"></path>
                    <path d="M268.125,153.26875 L268.125,147.671142 C268.125,146.74765 268.876604,145.996875 269.800781,145.996875 C270.7266,145.996875 271.476562,146.746533 271.476562,147.671142 L271.476562,153.26875 L272.59375,153.26875 L272.59375,147.671142 C272.59375,146.128213 271.343156,144.878125 269.800781,144.878125 C268.260223,144.878125 267.007812,146.129154 267.007812,147.671142 L267.007812,153.26875 L268.125,153.26875 Z" id="Rectangle-34-Copy-12" fill="#682B90" fill-rule="nonzero"></path>
                    <path d="M37.4257812,159.421875 L37.4257812,156.904687 C37.4257812,155.824491 38.3028518,154.946875 39.3808594,154.946875 C40.4595473,154.946875 41.3359375,155.825172 41.3359375,156.904687 L41.3359375,159.421875 L42.453125,159.421875 L42.453125,156.904687 C42.453125,155.207498 41.076747,153.828125 39.3808594,153.828125 C37.6860401,153.828125 36.3085938,155.206428 36.3085938,156.904687 L36.3085938,159.421875 L37.4257812,159.421875 Z" id="Rectangle-34-Copy-4" fill="#682B90" fill-rule="nonzero"></path>
                    <path d="M252.484375,156.065625 L252.484375,152.707624 C252.484375,152.091601 252.985562,151.590625 253.601562,151.590625 C254.217447,151.590625 254.71875,152.092758 254.71875,152.707624 L254.71875,156.065625 L255.835938,156.065625 L255.835938,152.707624 C255.835938,151.474954 254.834517,150.471875 253.601562,150.471875 C252.369011,150.471875 251.367188,151.473276 251.367188,152.707624 L251.367188,156.065625 L252.484375,156.065625 Z" id="Rectangle-34-Copy-8" fill="#682B90" fill-rule="nonzero"></path>
                    <path d="M275.945312,153.828125 L275.945312,150.470124 C275.945312,149.854101 276.4465,149.353125 277.0625,149.353125 C277.678384,149.353125 278.179688,149.855258 278.179688,150.470124 L278.179688,153.828125 L279.296875,153.828125 L279.296875,150.470124 C279.296875,149.237454 278.295454,148.234375 277.0625,148.234375 C275.829949,148.234375 274.828125,149.235776 274.828125,150.470124 L274.828125,153.828125 L275.945312,153.828125 Z" id="Rectangle-34-Copy-13" fill="#682B90" fill-rule="nonzero"></path>
                    <path d="M31.8398438,160.540625 L31.8398438,147.678266 C31.8398438,146.441762 32.8423111,145.4375 34.0742188,145.4375 C35.3074887,145.4375 36.3085938,146.441569 36.3085938,147.678266 L37.4257812,147.678266 C37.4257812,145.82409 35.9248844,144.31875 34.0742188,144.31875 C32.2252077,144.31875 30.7226562,145.823992 30.7226562,147.678266 L30.7226562,160.540625 L31.8398438,160.540625 Z" id="Rectangle-34-Copy" fill="#682B90" fill-rule="nonzero"></path>
                    <path d="M248.574219,151.034516 C248.574219,149.798012 249.576686,148.79375 250.808594,148.79375 C252.041864,148.79375 253.042969,149.797819 253.042969,151.034516 L254.160156,151.034516 C254.160156,149.18034 252.659259,147.675 250.808594,147.675 C248.959583,147.675 247.457031,149.180242 247.457031,151.034516 L248.574219,151.034516 Z" id="Rectangle-34-Copy-9" fill="#682B90" fill-rule="nonzero"></path>
                    <path d="M270.359375,145.440766 C270.359375,144.204262 271.361842,143.2 272.59375,143.2 C273.82702,143.2 274.828125,144.204069 274.828125,145.440766 L274.828125,158.303125 L275.945312,158.303125 L275.945312,145.440766 C275.945312,143.58659 274.444416,142.08125 272.59375,142.08125 C270.744739,142.08125 269.242188,143.586492 269.242188,145.440766 L270.359375,145.440766 Z" id="Rectangle-34-Copy-14" fill="#682B90" fill-rule="nonzero"></path>
                    <path d="M12.8476562,161.1 C10.9986452,161.1 9.49609375,162.605242 9.49609375,164.459516 L10.6132812,164.459516 C10.6132812,163.223012 11.6157486,162.21875 12.8476562,162.21875 C13.1596909,162.21875 13.4618151,162.282704 13.7408176,162.405023 L14.5234375,162.748138 L14.5234375,161.662641 C14.5234375,160.426137 15.5259049,159.421875 16.7578125,159.421875 C17.9910825,159.421875 18.9921875,160.425944 18.9921875,161.662641 L18.9921875,164.45625 L20.109375,164.45625 L20.109375,161.662641 C20.109375,159.808465 18.6084781,158.303125 16.7578125,158.303125 C15.0814553,158.303125 13.6898763,159.540383 13.4446116,161.153276 C13.249165,161.117988 13.0495714,161.1 12.8476562,161.1 Z" id="Rectangle-34-Copy-5" fill="#682B90" fill-rule="nonzero"></path>
                    <path d="M84.0688483,156.905177 C82.6817054,156.905177 81.5546875,158.034213 81.5546875,159.425141 L82.671875,159.425141 C82.671875,158.651983 83.2988088,158.023927 84.0688483,158.023927 C84.264093,158.023927 84.4527749,158.063867 84.627049,158.140272 L85.4096689,158.483387 L85.4096689,157.466839 C85.4096689,156.693681 86.0366027,156.065625 86.8066422,156.065625 C87.5775918,156.065625 88.2036155,156.693502 88.2036155,157.466839 L88.2036155,159.422854 L89.320803,159.422854 L89.320803,157.466839 C89.320803,156.076023 88.1949875,154.946875 86.8066422,154.946875 C85.6063911,154.946875 84.6008929,155.792172 84.3517361,156.921016 C84.2583385,156.910499 84.1639277,156.905177 84.0688483,156.905177 Z" id="Rectangle-34-Copy-16" fill="#682B90" fill-rule="nonzero"></path>
                    <path d="M204.067929,160.722089 C203.043247,160.722089 202.210938,161.555889 202.210938,162.583196 L203.328125,162.583196 C203.328125,162.173659 203.660351,161.840839 204.067929,161.840839 C204.17152,161.840839 204.271176,161.861934 204.363262,161.902306 L205.145882,162.245421 L205.145882,161.282982 C205.145882,160.873446 205.478108,160.540625 205.885686,160.540625 C206.29382,160.540625 206.625491,160.873277 206.625491,161.282982 L206.625491,162.581678 L207.742678,162.581678 L207.742678,161.282982 C207.742678,160.255799 206.911216,159.421875 205.885686,159.421875 C205.055731,159.421875 204.351979,159.968883 204.114476,160.722666 C204.098985,160.722282 204.083469,160.722089 204.067929,160.722089 Z" id="Rectangle-34-Copy-21" fill="#682B90" fill-rule="nonzero"></path>
                    <path d="M227.167424,158.682015 C225.41782,158.682015 223.996094,160.106287 223.996094,161.860836 L225.113281,161.860836 C225.113281,160.724057 226.034923,159.800765 227.167424,159.800765 C227.454322,159.800765 227.73203,159.859551 227.988492,159.971988 L228.771112,160.315103 L228.771112,159.244446 C228.771112,158.107667 229.692754,157.184375 230.825254,157.184375 C231.95902,157.184375 232.879397,158.107477 232.879397,159.244446 L232.879397,161.857781 L233.996584,161.857781 L233.996584,159.244446 C233.996584,157.489998 232.576416,156.065625 230.825254,156.065625 C229.25165,156.065625 227.943277,157.217762 227.695971,158.726094 C227.522642,158.696885 227.345988,158.682015 227.167424,158.682015 Z" id="Rectangle-34-Copy-18" fill="#682B90" fill-rule="nonzero"></path>
                </g>
            </g>
        </g>
    </g>
</svg>