<?xml version="1.0" encoding="UTF-8"?>
<svg width="392px" height="188px" viewBox="0 0 392 188" version="1.1" xmlns="http://www.w3.org/2000/svg" xmlns:xlink="http://www.w3.org/1999/xlink">
    <!-- Generator: Sketch 45.2 (43514) - http://www.bohemiancoding.com/sketch -->
    <title>Illustration/Illustration_1_(392_188)</title>
    <desc>Created with Sketch.</desc>
    <defs></defs>
    <g id="Symbols" stroke="none" stroke-width="1" fill="none" fill-rule="evenodd">
        <g id="Illustration/Illustration_1_(392_188)">
            <g id="Group" transform="translate(51.000000, 12.000000)">
                <polygon id="1" fill="#F2F2F2" points="42.1823529 159.882353 13.6470588 159.882353 13.6470588 50.9823529 2 50.9823529 2 33.3176471 27.2352941 24 42.1823529 24"></polygon>
                <g id="Illustration/Connect_512">
                    <g id="Group-48" transform="translate(21.597656, 7.393750)">
                        <path d="M79.9672229,68.8922837 C79.9672229,68.8922837 71.1801943,71.0120479 72.2346377,89.0300443 C73.2890812,107.048041 78.6434996,146.01286 78.6434996,146.01286 L92.6999109,146.01286 L79.9672229,68.8922837 Z" id="Path-32" fill="#29A778"></path>
                        <path d="M79.8340231,68.3393732 L80.4283305,68.1960038 L93.3698762,146.58161 L78.1479475,146.58161 L78.0804388,146.09034 C78.0675384,145.996462 78.0425749,145.813937 78.0063525,145.547754 C77.9460015,145.10426 77.8759999,144.58709 77.7971519,144.001233 C77.5718927,142.327511 77.3208984,140.438929 77.0506016,138.375402 C76.2783277,132.479632 75.5060527,126.363188 74.7852301,120.345305 C74.4884478,117.867578 74.2060599,115.452845 73.9401849,113.11424 C72.7964166,103.053794 72.0044395,94.8250747 71.6672504,89.0632944 C71.1759306,80.6677762 72.7166891,74.9378315 75.6172609,71.3929839 C76.5179982,70.2921746 77.4886652,69.4867468 78.4646463,68.9321956 C79.062926,68.5922539 79.540088,68.4102815 79.8340231,68.3393732 Z M79.025917,69.9213611 C78.1689861,70.408268 77.3067413,71.1237307 76.4967608,72.1136243 C73.7916525,75.4195919 72.326365,80.8688668 72.802025,88.9967941 C73.1377154,94.7329658 73.9280168,102.944274 75.069618,112.985659 C75.335226,115.321915 75.6173503,117.734395 75.9138702,120.20993 C76.6341504,126.223285 77.4059142,132.335681 78.1776792,138.227566 C78.4477959,140.289718 78.6986142,142.176976 78.9236997,143.849407 C79.0024723,144.434704 79.0723993,144.951322 79.1326762,145.394272 C79.1349833,145.411226 92.0299456,145.44411 92.0299456,145.44411 L79.5191211,69.6673375 C79.3637575,69.7387871 79.198858,69.8230962 79.025917,69.9213611 Z" id="Path-32-Copy" fill="#682C90" fill-rule="nonzero"></path>
                        <path d="M88.8222802,146.01286 C88.8222802,146.01286 77.5068549,82.3174574 76.8038926,78.7845169 C76.1009303,75.2515765 75.7494492,68.1856956 83.4820344,68.1856956 L134.496422,68.1856956 C134.496422,68.1856956 142.227804,68.5389896 142.227804,77.7246348 C142.227804,86.91028 151.349075,146.01286 151.349075,146.01286 L88.8222802,146.01286 Z" id="Path-31" fill="#29A778"></path>
                        <path d="M150.686542,145.44411 C150.601339,144.889171 150.504444,144.256284 150.395302,143.54123 C150.08348,141.498306 149.736027,139.20656 149.36185,136.71922 C148.292765,129.612493 147.223676,122.362191 146.225827,115.394042 C146.029599,114.023747 145.837759,112.675595 145.650647,111.351621 C143.133382,93.5398815 141.659445,81.4896404 141.659445,77.7246348 C141.659445,73.899929 140.308645,71.4308782 138.055973,69.989741 C137.267064,69.4850402 136.418563,69.1438362 135.569961,68.9370211 C135.273666,68.8648103 134.999481,68.8146937 134.755099,68.782787 C134.612876,68.7642183 134.515445,68.7559076 134.496422,68.7544456 L83.4820344,68.7544456 C80.2148213,68.7544456 78.3418497,70.0425623 77.5146678,72.3521412 C76.8815965,74.1197429 76.9029143,76.3696529 77.36131,78.673453 C77.6615877,80.1825858 79.864101,92.4628783 83.3555309,112.048882 C84.7002155,119.592385 86.1058627,127.488659 87.5102286,135.384931 C88.0017564,138.148624 88.458015,140.714911 88.8673549,143.017991 C89.0106242,143.824071 89.0954047,144.301138 89.2474117,145.156572 C89.267959,145.272213 89.2847053,145.366462 89.2985018,145.44411 L150.686542,145.44411 Z M88.2626942,146.112406 C88.2393168,145.980814 88.2393168,145.980814 88.1282476,145.355709 C87.9762448,144.500299 87.891466,144.023241 87.7481998,143.217179 C87.338867,140.91414 86.8826158,138.347894 86.3910958,135.584244 C84.9867541,127.688108 83.5811319,119.791975 82.2674277,112.422266 C78.7508146,92.694989 76.5442976,80.3923731 76.2464752,78.8955809 C75.7514783,76.4078305 75.7283627,73.9681718 76.4445985,71.968366 C77.4354479,69.2018101 79.7399023,67.6169456 83.4820344,67.6169456 L134.522349,67.6175377 C134.798531,67.6301581 135.257145,67.6900348 135.838941,67.8318259 C136.802381,68.0666283 137.765923,68.4540933 138.668254,69.0313555 C141.247695,70.6815412 142.796163,73.5119011 142.796163,77.7246348 C142.796163,81.408452 144.271148,93.4672578 146.776166,111.192337 C146.963178,112.515607 147.154921,113.86307 147.351052,115.232687 C148.348481,122.197907 149.41719,129.445638 150.485904,136.549892 C150.859955,139.036395 151.207286,141.327337 151.518989,143.36948 C151.62808,144.0842 151.724924,144.716757 151.808407,145.260498 C151.854597,145.561194 151.854597,145.561194 151.884643,145.756441 C151.906338,145.897299 152.011947,146.58161 152.011947,146.58161 L88.3460477,146.58161 L88.2626942,146.112406 Z" id="Path-31-Copy" fill="#682C90" fill-rule="nonzero"></path>
                        <path d="M123.69271,62.8138876 C131.490801,62.6271143 137.751956,56.2419975 137.751956,48.3926157 L137.751956,26.3692268 C137.751956,18.3999242 131.300053,11.94375 123.341229,11.94375 C115.380654,11.94375 108.930502,18.402256 108.930502,26.3692268 L108.930502,32.987527 C106.132183,34.722514 104.009766,37.1594824 104.009766,40.5605677 C104.009766,50.5411245 109.633464,58.2252699 109.633464,58.2252699 L109.633464,69.5306794 L123.69271,69.5306794 L123.69271,62.8138876 Z" id="Combined-Shape-Copy" fill="#FFE0C9"></path>
                        <path d="M124.403424,70.0987027 L108.6391,70.0987027 L108.6391,58.2093743 C108.609489,58.1660297 108.577009,58.1180342 108.541792,58.0654498 C108.342043,57.767193 108.120461,57.4190528 107.882547,57.0235966 C107.206017,55.8990852 106.530645,54.616686 105.900604,53.1967295 C104.098114,49.1343623 103.015402,44.7726739 103.015402,40.275466 C103.015402,36.968349 104.797737,34.3016313 107.936138,32.2350184 L107.936138,26.0841251 C107.936138,17.6454615 114.768509,10.8055233 123.199404,10.8055233 C131.62992,10.8055233 138.46267,17.6445027 138.46267,26.0841251 L138.46267,48.107514 C138.46267,56.1271867 132.284162,62.7242209 124.403424,63.3392964 L124.403424,70.0987027 Z M122.698346,61.6958359 L123.530485,61.6759052 C130.87889,61.4999024 136.757592,55.4806039 136.757592,48.107514 L136.757592,26.0841251 C136.757592,18.5867529 130.688146,12.5117733 123.199404,12.5117733 C115.710358,12.5117733 109.641216,18.587637 109.641216,26.0841251 L109.641216,33.1774468 L109.237696,33.4276334 C106.306505,35.245003 104.72048,37.4991247 104.72048,40.275466 C104.72048,44.5112452 105.746655,48.6451746 107.458976,52.5043223 C108.059119,53.8568961 108.701802,55.0772264 109.343326,56.1435521 C109.56673,56.5148888 109.773517,56.8397842 109.958199,57.1155439 C110.066808,57.2777133 110.142389,57.3854576 110.17945,57.4360967 L110.344178,57.6611793 L110.344178,68.3924527 L122.698346,68.3924527 L122.698346,61.6958359 Z" id="Combined-Shape-Copy-2" fill="#682C90" fill-rule="nonzero"></path>
                        <path d="M123.15664,61.6809398 C123.157915,61.6809145 123.157915,61.6809145 123.125719,61.6819203 C122.934278,61.686899 122.661587,61.6814135 122.320091,61.6566322 C121.806646,61.6193732 121.248629,61.5453009 120.658435,61.4257953 C119.0423,61.0985521 117.440329,60.4873577 115.946535,59.5252865 C115.901311,59.4960726 115.901311,59.4960726 115.85609,59.4665098 L114.921585,60.8936714 C114.972665,60.9270639 114.972665,60.9270639 115.023745,60.9600601 C116.707477,62.0444609 118.506807,62.7309524 120.320272,63.0981523 C120.983835,63.2325138 121.613346,63.3160766 122.196768,63.3584135 C122.595906,63.3873777 122.924319,63.3939841 123.170017,63.3875944 C123.223318,63.3859505 123.223318,63.3859505 123.242167,63.3850419 L123.15664,61.6809398 Z" id="Path" fill="#682C90" fill-rule="nonzero"></path>
                        <path d="M104.199122,40.1944749 L109.82282,40.1944749 C109.82282,40.1944749 109.82282,36.3199218 109.82282,31.9037462 C109.82282,27.4875707 114.392075,27.3109236 114.392075,27.3109236 L121.070217,27.3109236 C130.648078,27.3109236 131.614651,17.4186904 131.614651,17.4186904 C131.614651,17.4186904 137.58983,21.6582189 137.58983,28.3708058 C138.233472,22.718101 136.008165,8.58633922 122.12466,8.58633922 C108.241155,8.58633922 111.752037,8.59174376 111.752037,8.59174376 L111.752037,5.57165846 L107.37188,9.97440757 L101.713775,9.97440757 L104.199122,12.4725737 C104.199122,12.4725737 97.0785365,13.2653296 97.3157528,24.4870777 C97.4236907,29.5931835 97.6614359,33.9072517 97.6614359,37.3681225 C97.6614359,48.673532 104.691059,49.026826 104.691059,49.026826 C104.691059,49.026826 103.707184,45.4938856 104.199122,40.1944749 Z" id="Path-2" fill="#ED8D49"></path>
                        <path d="M105.218721,47.3135423 C105.284808,47.740698 105.35529,48.1152734 105.425297,48.4336943 C105.466143,48.6194762 105.496774,48.7420382 105.512305,48.7978061 L105.829906,49.9382624 L104.648295,49.8788771 C104.359193,49.8643475 103.903131,49.7890366 103.334261,49.6079652 C102.406651,49.3127067 101.482325,48.8202873 100.622674,48.0858149 C98.2242766,46.0366623 96.8088968,42.551096 96.8088968,37.3681225 C96.8088968,35.5737517 96.7917791,34.9791453 96.6104444,29.6268469 C96.5404445,27.5607194 96.4965241,26.071877 96.4634044,24.5051203 C96.3531079,19.2874353 97.752719,15.7196783 100.188596,13.5560692 C100.949203,12.8804775 101.761448,12.3899574 102.580962,12.0552671 L99.6620332,9.12128257 L107.017633,9.12128257 L112.604576,3.50552311 L112.604576,7.73501337 C114.168692,7.73387276 117.227846,7.73321422 122.12466,7.73321422 C128.721473,7.73321422 133.355638,10.7778881 136.060708,15.9640552 C138.077616,19.8308773 138.858049,24.7685964 138.436889,28.4673882 L136.737291,28.3708058 C136.737291,25.6471123 135.690323,23.1400002 133.932351,20.9052147 C133.37444,20.1959813 132.779993,19.5610899 132.182706,19.0068847 C132.168785,19.0630808 132.154296,19.1202825 132.139225,19.1784532 C131.820539,20.4085188 131.342825,21.6391826 130.670894,22.7940596 C128.7271,26.1349422 125.581902,28.1640486 121.070217,28.1640486 L114.424987,28.1634127 C114.324647,28.1672918 114.118802,28.1894603 113.845008,28.2441487 C113.383755,28.3362809 112.923627,28.4874832 112.501691,28.7076953 C111.342971,29.3124416 110.675359,30.3061197 110.675359,31.9037462 L110.675359,41.0475999 L104.985464,41.0475999 C104.825931,43.3706981 104.935461,45.48269 105.218721,47.3135423 Z M111.753348,7.73861977 C111.704079,7.73854392 111.704079,7.73854392 111.556173,7.73821545 C111.48323,7.7380162 111.48323,7.7380162 111.422993,7.73777733 C111.35338,7.73530027 111.35338,7.73530027 111.506873,7.75068154 L111.679433,7.81247221 L111.753348,7.73861977 Z M103.533717,47.5745951 C103.198779,45.409714 103.092532,42.8917047 103.350237,40.1155657 L103.422107,39.3413499 L108.970281,39.3413499 C108.970281,39.474661 108.970281,39.0230152 108.970281,37.7051764 L108.970281,31.9037462 C108.970281,29.6372192 110.01614,28.0805558 111.713204,27.1948429 C112.701526,26.6790288 113.673138,26.4849563 114.392075,26.4577986 L121.070217,26.4577986 C124.93916,26.4577986 127.543974,24.7773176 129.19737,21.9355544 C129.784455,20.9265054 130.206724,19.8386769 130.488714,18.7502504 C130.587314,18.3696758 130.661095,18.0173772 130.713516,17.7032349 C130.744081,17.5200674 130.760433,17.3942676 130.766158,17.3356699 L130.909144,15.8723053 L132.107759,16.7227502 C132.319742,16.8731571 132.671702,17.1511239 133.117237,17.5506609 C133.852369,18.2098968 134.586282,18.977971 135.27213,19.8498413 C135.589906,20.2538067 135.887447,20.6667143 136.163046,21.0883367 C135.784136,19.5757061 135.24642,18.0903821 134.549143,16.7535613 C132.1277,12.1111651 128.061221,9.43946422 122.12466,9.43946422 C116.051144,9.43946422 112.80489,9.44047751 111.733376,9.44216543 C111.544187,9.44250118 111.544187,9.44250118 111.439539,9.4428274 C111.466048,9.43629471 111.466048,9.43629471 111.568645,9.41646703 L111.771689,7.84550747 L110.899498,8.59174376 L110.899498,7.63779381 L107.726127,10.8275326 L103.765516,10.8275326 L106.050984,13.1247891 L104.29339,13.3204672 C104.2692,13.3231605 104.198452,13.3347013 104.087999,13.3592569 C103.889206,13.4034522 103.663823,13.468952 103.418558,13.5597729 C102.70643,13.8234722 101.99087,14.2366856 101.320481,14.8321426 C99.2775423,16.6467338 98.0679265,19.7301729 98.1681012,24.4690352 C98.2010381,26.0271459 98.2447679,27.5095299 98.3145435,29.569033 C98.4968342,34.9495505 98.513975,35.5449566 98.513975,37.3681225 C98.513975,42.0773824 99.7347038,45.0835941 101.729821,46.7881907 C102.324225,47.2960401 102.953334,47.6547804 103.584512,47.8899488 C103.567614,47.7891676 103.550648,47.6840256 103.533717,47.5745951 Z" id="Path-2-Copy" fill="#682C90" fill-rule="nonzero"></path>
                        <path d="M104.199076,46.1398533 C104.199076,46.1398533 100.16642,46.3088874 100.16642,36.3358729 C100.16642,35.0054971 103.190912,34.138429 104.199076,33.2932583 L104.199076,21.4608681 C104.199076,17.4040486 109.239897,12.8401267 109.239897,12.8401267 L102.854857,10.1355804 L103.863021,12.8401267 L100.670502,14.1923999 L98.3181189,18.9253559 L97.3099548,24.1654144 L98.1500915,41.9139997 L100.16642,46.6469557 L103.358939,48.6753655 L105.20724,49.3515021 L104.199076,46.1398533 Z" id="Path-63" fill="#D8D8D8" style="mix-blend-mode: overlay;" opacity="0.4"></path>
                        <path d="M115.456908,68.1142922 L115.456908,60.607958 C115.456908,60.607958 112.768471,57.9722435 111.424252,51.8870142 C110.790771,49.0192701 110.455827,44.4246576 110.278729,40.3676899 C110.080033,35.8159474 110.080033,31.9409851 110.080033,31.9409851 L107.72765,40.7307607 L106.719486,34.9835997 L104.031049,33.9693948 L101.342611,35.9978046 L101.342611,42.4211021 L103.358939,46.1398533 L106.047377,49.1824679 L109.743979,59.6625849 L110.080033,67.7762239 L115.456908,68.1142922 Z" id="Path-64" fill="#D8D8D8" opacity="0.4" style="mix-blend-mode: overlay;"></path>
                        <path d="M107.382752,39.2155839 C107.382752,39.2155839 107.382752,41.9084539 107.382752,37.1212175 C107.382752,32.3339811 100.353129,32.4197454 100.353129,37.1212175 L100.353129,40.62876 C100.353129,43.3732159 102.462016,46.9880529 105.273865,45.5748767" id="Path-4" fill="#FFE0C9"></path>
                        <path d="M106.530213,39.9703187 L106.530213,37.1212175 C106.530213,35.4226669 105.398712,34.4067546 103.873138,34.416061 C102.348271,34.4253629 101.205668,35.4558893 101.205668,37.1212175 L101.205668,40.62876 C101.205668,43.3654564 103.123419,45.7009692 104.891237,44.8125009 L105.656493,46.3372525 C102.408925,47.9694118 99.5005903,44.4275263 99.5005903,40.62876 L99.5005903,37.1212175 C99.5005903,34.4732894 101.439432,32.7246253 103.862744,32.7098427 C106.297262,32.6949916 108.235291,34.4350416 108.235291,37.1212175 L108.235291,39.9611353 C108.235291,39.9685302 108.235291,39.9685302 106.530213,39.9703187 Z M106.530213,39.9703187 L106.530213,39.2155839 L108.235291,39.2155839 L108.235291,39.9703114 L106.530213,39.9703187 Z" id="Path-4-Copy-2" fill="#682C90" fill-rule="nonzero"></path>
                        <path d="M104.705506,39.2155839 L104.705506,39.5929476 C105.842225,39.592057 105.842225,39.592057 105.842225,39.5883596 L105.842225,38.1684007 C105.842225,36.187412 104.096254,35.1735087 102.805675,36.2272131 L103.524282,37.1085754 C104.026034,36.6989161 104.705506,37.0934927 104.705506,38.1684007 L104.705506,39.5929513 L105.842225,39.5929476 L105.842225,39.2155839 L104.705506,39.2155839 Z" id="Path-4-Copy" fill="#682C90" fill-rule="nonzero"></path>
                        <path d="M105.273865,38.6468339 C104.18293,38.6468339 103.299581,39.5347386 103.299581,40.62876 C103.299581,41.7227815 104.18293,42.6106862 105.273865,42.6106862 L105.273865,41.4731862 C104.811859,41.4731862 104.4363,41.0956899 104.4363,40.62876 C104.4363,40.1618302 104.811859,39.7843339 105.273865,39.7843339 L105.273865,38.6468339 Z" id="Oval-6" fill="#682C90" fill-rule="nonzero"></path>
                        <g id="Group-17" transform="translate(114.546978, 31.995956)" fill-rule="nonzero" fill="#682C90">
                            <path d="M4.78613312,6.34556321 C3.69519766,6.34556321 2.81184916,5.4576585 2.81184916,4.36363703 C2.81184916,3.26961556 3.69519766,2.38171085 4.78613312,2.38171085 C5.87706858,2.38171085 6.76041707,3.26961556 6.76041707,4.36363703 C6.76041707,5.4576585 5.87706858,6.34556321 4.78613312,6.34556321 Z M4.78613312,5.20806321 C5.24813907,5.20806321 5.62369832,4.83056686 5.62369832,4.36363703 C5.62369832,3.89670719 5.24813907,3.51921085 4.78613312,3.51921085 C4.32412717,3.51921085 3.94856791,3.89670719 3.94856791,4.36363703 C3.94856791,4.83056686 4.32412717,5.20806321 4.78613312,5.20806321 Z" id="Oval-5"></path>
                            <path d="M18.1424166,6.34556321 C17.0514812,6.34556321 16.1681327,5.4576585 16.1681327,4.36363703 C16.1681327,3.26961556 17.0514812,2.38171085 18.1424166,2.38171085 C19.2333521,2.38171085 20.1167006,3.26961556 20.1167006,4.36363703 C20.1167006,5.4576585 19.2333521,6.34556321 18.1424166,6.34556321 Z M18.1424166,5.20806321 C18.6044226,5.20806321 18.9799818,4.83056686 18.9799818,4.36363703 C18.9799818,3.89670719 18.6044226,3.51921085 18.1424166,3.51921085 C17.6804107,3.51921085 17.3048514,3.89670719 17.3048514,4.36363703 C17.3048514,4.83056686 17.6804107,5.20806321 18.1424166,5.20806321 Z" id="Oval-5-Copy"></path>
                            <path d="M1.13062748,2.93324757 C1.13066177,2.93321746 1.17353966,2.90228281 1.26511424,2.84890436 C1.44954258,2.74140183 1.69401223,2.6290981 2.00458721,2.52083839 C3.32832408,2.0594124 5.25161213,1.85658523 7.87654377,2.08208243 L8.02238308,0.382085165 C5.16854431,0.136923483 3.00591837,0.364990882 1.4436973,0.909547304 C0.719633852,1.16194013 0.252867433,1.43401638 0.00609127254,1.6506843 L1.13062748,2.93324757 Z" id="Path-5"></path>
                            <path d="M23.2739396,1.6506843 C23.0271635,1.43401638 22.560397,1.16194013 21.8363336,0.909547304 C20.2741125,0.364990882 18.1114866,0.136923483 15.2576478,0.382085165 L15.4034871,2.08208243 C18.0284188,1.85658523 19.9517068,2.0594124 21.2754437,2.52083839 C21.5860187,2.6290981 21.8304883,2.74140183 22.0149167,2.84890436 C22.1064912,2.90228281 22.1493691,2.93321746 22.1494034,2.93324757 L23.2739396,1.6506843 Z" id="Path-5-Copy"></path>
                            <path d="M8.45324247,12.2937536 C8.45324247,13.8633938 9.97368908,14.7367018 11.7661495,14.7367018 C13.55861,14.7367018 15.0790566,13.8633938 15.0790566,12.2937536 L13.3739785,12.2937536 C13.3739785,12.6672306 12.7416031,13.0304518 11.7661495,13.0304518 C10.790696,13.0304518 10.1583206,12.6672306 10.1583206,12.2937536 L8.45324247,12.2937536 Z" id="Path-6"></path>
                            <path d="M15.4801442,26.0199178 C15.4801442,23.3443563 8.85433009,23.3443563 8.85433009,26.0199178 L10.5594082,26.0199178 C10.5594082,26.0590471 10.5442201,26.0944937 10.5414234,26.0974908 C10.5811603,26.0549063 10.6699758,25.997961 10.8035021,25.9423131 C11.1383201,25.8027755 11.6378855,25.7194966 12.1672372,25.7194966 C12.6965888,25.7194966 13.1961542,25.8027755 13.5309722,25.9423131 C13.6644985,25.997961 13.753314,26.0549063 13.793051,26.0974908 C13.7902542,26.0944937 13.7750661,26.0590471 13.7750661,26.0199178 L15.4801442,26.0199178 Z" id="Path-6-Copy-2"></path>
                            <path d="M5.38526363,18.3374667 C7.88281465,22.092025 16.7876291,22.0899393 17.0280536,18.6311068 L15.3270855,18.5127094 C15.3001419,18.9003296 13.8511478,19.4826371 11.9622754,19.4830795 C9.69646673,19.4836102 7.68766277,18.7194539 6.80463207,17.3919974 L5.38526363,18.3374667 Z" id="Path-6-Copy"></path>
                        </g>
                        <path d="M110.194601,67.1258134 C110.194601,67.1258134 115.115337,69.9521658 119.684592,69.2455777 C124.253847,68.5389896 124.253847,68.1856956 124.253847,68.1856956 L133.743838,75.2515765 L137.610131,140.610975 L119.684592,139.551093 L104.922384,71.365342 L110.194601,67.1258134 Z" id="Path-7" fill="#FFFFFF"></path>
                        <path d="M105.867167,71.7000574 L120.380798,138.737644 L136.70237,139.702689 L132.91626,75.6987619 L124.168067,69.1851956 C123.385145,69.4880702 122.031057,69.7459727 119.814793,70.088695 C119.487845,70.1392541 119.154933,70.1739564 118.816471,70.1933968 C116.72883,70.3133059 114.526538,69.8622223 112.347219,69.0407623 C111.672877,68.7865795 111.049694,68.5142331 110.49144,68.2412492 C110.420723,68.2066691 110.354089,68.1736006 110.291665,68.1422021 L105.867167,71.7000574 Z M110.771216,66.4692274 C110.905217,66.5408358 111.062114,66.621235 111.240045,66.7082424 C111.752145,66.9586572 112.326602,67.2097094 112.948255,67.4440319 C114.92353,68.1885805 116.903835,68.5941957 118.718763,68.4899506 C119.003594,68.4735906 119.282259,68.4445429 119.554392,68.4024604 C121.515803,68.0991484 122.764665,67.8416502 123.430948,67.6355827 C123.617784,67.5777982 123.71705,67.5368637 123.734194,67.5262592 C123.689898,67.5536587 123.638222,67.5962779 123.582085,67.665727 C123.473219,67.8004068 123.401308,67.9783307 123.401308,68.1856956 C123.401308,67.4841818 124.200335,67.0824838 124.762762,67.5012458 L134.252753,74.5671267 C134.454771,74.7175413 134.580008,74.9496285 134.594887,75.201164 L138.46118,140.560562 C138.491357,141.070698 138.069634,141.492757 137.559845,141.462615 L119.634307,140.402732 C119.252455,140.380155 118.932376,140.105832 118.851383,139.731731 L104.089175,71.5459798 C104.020796,71.2301416 104.136623,70.9027526 104.38836,70.7003243 L109.660577,66.4607957 C109.934186,66.2407803 110.314583,66.2110577 110.619001,66.3859086 C110.641982,66.3991079 110.693336,66.4276092 110.771216,66.4692274 Z" id="Path-7-Copy" fill="#682C90" fill-rule="nonzero"></path>
                        <path d="M117.925285,73.7000639 L121.793479,79.8443991 L124.605328,79.8443991 L127.065696,73.4851063 C127.065696,73.4851063 124.223872,68.8342559 121.793479,69.3208367 C119.378805,69.8074175 117.925285,73.7000639 117.925285,73.7000639 Z" id="Path-9" stroke="#682C90" stroke-width="1.5" fill="#6F08B3"></path>
                        <path d="M129.258931,76.3299532 C128.891201,75.1479715 128.386056,73.9655462 127.71884,72.8560301 C126.315495,70.5224058 124.387805,68.8250173 121.86029,68.0744144 C121.640935,68.009272 121.40462,68.0350984 121.204488,68.1460857 C119.297984,69.2033753 117.91766,70.8521152 116.988393,72.9134877 C116.408921,74.1989183 116.039002,75.5665603 115.833733,76.9325902 C115.783521,77.266745 115.746856,77.5717605 115.721025,77.8419665 L109.932762,77.229533 C109.464528,77.179991 109.044815,77.519669 108.995307,77.9882251 C108.945799,78.4567811 109.285244,78.8767827 109.753478,78.9263247 L116.43162,79.6329128 C116.935125,79.6861867 117.373801,79.2911766 117.373801,78.7845169 C117.373801,78.7160072 117.378114,78.572502 117.391478,78.3649883 C117.41428,78.0109203 117.455537,77.6143355 117.519855,77.1863065 C117.703417,75.9647336 118.033392,74.7447727 118.542645,73.6151073 C119.276994,71.9861151 120.319991,70.6892809 121.71963,69.8212084 C123.631154,70.4871994 125.125341,71.8524737 126.25789,73.7357921 C126.848795,74.7184088 127.301274,75.7775543 127.630925,76.8371434 C127.746204,77.2076779 127.837624,77.550771 127.907476,77.8568907 C127.948321,78.0358885 127.972393,78.1593272 127.982086,78.2177213 C128.062708,78.7034228 128.536307,79.0201987 129.015616,78.9090182 L133.584871,77.8491361 C134.043554,77.7427403 134.329198,77.284398 134.222876,76.8254 C134.116553,76.3664021 133.658525,76.0805615 133.199843,76.1869574 L129.467062,77.0528113 C129.409727,76.8349923 129.34071,76.5928112 129.258931,76.3299532 Z" id="Path-8" fill="#682C90" fill-rule="nonzero"></path>
                        <polygon id="Path-10" stroke="#682C90" stroke-width="1.5" fill="#6F08B3" points="121.793479 79.8443991 117.927187 108.814511 123.199404 124.006155 132.689395 125.066037 132.689395 108.814511 124.605328 79.8443991"></polygon>
                        <path d="M192.089708,113.407333 C193.495633,110.580981 202.282661,101.042042 202.985624,100.335454 C203.688586,99.6288656 207.90636,98.5689835 208.960803,97.8623954 C210.015247,97.1558073 212.827096,95.7426311 213.530058,95.7426311 L215.287464,95.7426311 L204.743029,107.048041 L202.985624,107.401335 C202.985624,107.401335 207.203397,107.401335 209.312284,106.341452 C211.421171,105.28157 213.178577,103.868394 214.23302,104.928276 C215.287464,105.988158 214.23302,108.107923 212.827096,109.167805 C211.421171,110.227687 208.609322,110.227687 207.203397,111.640863 C205.797473,113.054039 203.688586,115.527098 202.282661,116.940274 C200.876737,118.35345 200.173775,119.060038 196.658963,120.11992 C193.144152,121.179802 190.683784,116.233686 192.089708,113.407333 Z" id="Path-18" fill="#FFE0C9"></path>
                        <path d="M204.575115,106.211627 L204.119775,106.465939 L204.306628,106.265601 L204.575115,106.211627 Z M211.745104,97.3071589 C210.856363,97.732552 209.923636,98.243936 209.435166,98.5712624 C208.927909,98.911178 208.309261,99.1481288 206.321267,99.8355502 C206.220687,99.8703362 206.220687,99.8703362 206.120437,99.9050624 C204.563896,100.444569 203.745777,100.780578 203.589802,100.937358 C203.012814,101.517322 200.442028,104.341744 198.444116,106.636849 C195.494117,110.025666 193.426304,112.63482 192.85292,113.787503 C191.628983,116.248003 193.923648,120.053729 196.412984,119.303077 C199.350056,118.41741 200.018768,118.006645 201.678483,116.338369 C202.250846,115.763055 202.803222,115.163996 204.110931,113.718096 C205.439331,112.24932 205.999978,111.641291 206.599219,111.038959 C207.331547,110.302853 208.206192,109.913228 209.775553,109.453136 C209.890478,109.419443 210.005018,109.386321 210.229462,109.321571 C211.39679,108.984033 211.919208,108.784109 212.314113,108.486402 C213.53108,107.56897 214.126385,106.03029 213.628842,105.530181 C213.317097,105.216827 212.903471,105.362183 210.495312,106.6813 C210.199621,106.843271 209.944811,106.978235 209.694912,107.103828 C208.960616,107.47287 208.006742,107.739202 206.875522,107.928711 C206.021033,108.07186 205.112378,108.163194 204.204729,108.213879 C203.887781,108.231579 203.593214,108.242966 203.328198,108.249309 C203.167392,108.253157 203.050789,108.25446 202.985624,108.25446 L202.817709,106.564921 L204.306628,106.265601 L213.260484,96.6655602 C212.935576,96.7750855 212.373774,97.0062482 211.745104,97.3071589 Z M208.929656,105.579077 C209.159383,105.463621 209.397207,105.337654 209.676597,105.184612 C209.693502,105.175353 210.676356,104.62887 210.948798,104.484301 C211.436023,104.225759 211.824692,104.044851 212.192363,103.915645 C213.240627,103.547266 214.137123,103.622685 214.837199,104.326372 C216.279832,105.776446 215.265767,108.397492 213.340078,109.849207 C212.718074,110.318117 212.07751,110.563254 210.702791,110.960761 C210.477379,111.025792 210.366351,111.057899 210.25494,111.090561 C208.950943,111.472855 208.273153,111.774789 207.807576,112.242768 C207.235213,112.818082 206.682837,113.417142 205.375128,114.863041 C204.046728,116.331817 203.486081,116.939846 202.88684,117.542178 C201.031743,119.406843 200.11879,119.967636 196.904942,120.936764 C192.80626,122.172711 189.502659,116.693654 191.326496,113.027164 C191.993339,111.6866 194.090509,109.040403 197.158438,105.516114 C199.179127,103.194844 201.772184,100.345953 202.381445,99.7335493 C202.82139,99.2913352 203.578054,98.9805662 205.562379,98.2927867 C205.663428,98.2577838 205.663428,98.2577838 205.764389,98.2228665 C207.516222,97.6171062 208.166086,97.3681994 208.48644,97.1535284 C209.856777,96.2352586 212.668355,94.8895061 213.530058,94.8895061 L217.249339,94.8895061 L206.669305,106.233083 C207.612949,106.070483 208.389492,105.850552 208.929656,105.579077 Z" id="Path-18-Copy" fill="#682C90" fill-rule="nonzero"></path>
                        <path d="M133.691552,76.7292302 C130.334021,79.6498927 131.304011,86.0981369 136.121159,96.0056857 C140.938308,105.913234 152.733156,125.307307 156.342631,130.431774 C159.952106,135.556241 164.999809,138.943482 169.315208,134.217315 C173.630606,129.491148 164.965585,115.63878 164.965585,115.63878 C164.965585,115.63878 156.055037,98.110914 149.317874,88.901286 C142.58071,79.691658 137.049082,73.8085677 133.691552,76.7292302 Z" id="Path-14" fill="#3DBB8C"></path>
                        <path d="M165.248008,115.528395 C165.441506,115.852577 165.65671,116.223286 165.888215,116.634827 C166.548938,117.809377 167.209467,119.078182 167.826615,120.396236 C168.633506,122.119527 169.305244,123.798485 169.79679,125.388893 C171.072161,129.515388 171.06624,132.744583 169.256424,134.72667 C164.922338,139.473302 159.508725,137.318471 154.957632,130.857163 C150.493112,124.518766 138.927337,105.076435 134.666382,96.3128231 C129.609514,85.9122386 128.729183,79.2507824 132.444074,76.0192573 C134.459007,74.2664987 137.038523,74.936606 140.102374,77.5511447 C142.607573,79.6889574 145.538639,83.1654103 149.317628,88.3312478 C150.587664,90.0673724 151.982561,92.1611178 153.483104,94.5654836 C154.352878,95.9591489 155.252037,97.4474815 156.175199,99.017789 C158.254975,102.555509 160.361571,106.343823 162.387687,110.131864 C163.096725,111.457486 163.745129,112.688518 164.319425,113.793518 C164.520541,114.180485 164.698066,114.524133 164.850316,114.820532 C164.928023,114.971811 164.985083,115.083367 165.020464,115.152794 C165.06942,115.231795 165.146447,115.358241 165.248008,115.528395 Z M133.562706,77.3069805 C130.668221,79.8248467 131.460367,85.8190009 136.199613,95.5663257 C140.419553,104.245582 151.938469,123.609141 156.351307,129.874163 C160.367967,135.576722 164.623828,137.270722 167.997668,133.575737 C169.275322,132.176468 169.280244,129.492248 168.167841,125.893042 C167.701785,124.385105 167.058424,122.777076 166.282617,121.120171 C165.684744,119.843281 165.043463,118.611451 164.402377,117.471808 C164.178249,117.073381 163.970365,116.715282 163.784169,116.403333 C163.67338,116.21772 163.595105,116.089782 163.554783,116.025321 C163.486075,115.897562 163.424275,115.776606 163.333847,115.600562 C163.18282,115.306544 163.006541,114.96531 162.806702,114.580799 C162.235409,113.481579 161.59013,112.256479 160.884398,110.937037 C158.868313,107.16775 156.772449,103.398737 154.705569,99.8829518 C153.789719,98.3250817 152.89828,96.8495271 152.036889,95.4692946 C150.556898,93.0978604 149.184345,91.0376528 147.941795,89.3391015 C140.451289,79.0996618 135.93365,75.2445332 133.562706,77.3069805 Z" id="Path-14-Copy-2" fill="#682C90" fill-rule="nonzero"></path>
                        <path d="M192.781344,111.317093 C192.781344,111.317093 176.593851,117.496258 168.971633,121.181023 C161.349416,124.865787 156.984897,129.191324 160.195275,133.634566 C163.405654,138.077807 169.338119,136.177411 179.787037,131.028403 C190.235955,125.879395 197.015703,120.843932 198.06972,120.152285 C192.530996,116.613091 192.781344,111.317093 192.781344,111.317093 Z" id="Path-15" fill="#3DBB8C"></path>
                        <path d="M192.477489,110.519994 L193.694476,110.05544 L193.632931,111.357404 C193.622932,111.769391 193.679968,112.398145 193.867484,113.170987 C194.166293,114.402522 194.720447,115.626883 195.593003,116.772311 C196.349725,117.765681 197.319408,118.660622 198.528546,119.43325 L199.638918,120.142768 L198.537222,120.865702 C198.417456,120.944292 197.202826,121.791653 196.719858,122.123015 C195.521484,122.945212 194.285199,123.764975 192.908189,124.639209 C189.025604,127.104176 184.789254,129.514371 180.163672,131.793761 C174.218524,134.723406 170.4536,136.233967 167.424837,136.768726 C163.854372,137.399127 161.281918,136.594551 159.504404,134.134428 C156.080774,129.396042 159.774482,124.679688 168.600785,120.41284 C170.651473,119.421487 173.417158,118.201592 176.75483,116.802478 C177.357425,116.549878 177.97628,116.292452 178.61017,116.030629 C181.644217,114.777442 184.893898,113.475897 188.143429,112.201549 C189.280651,111.755572 190.336683,111.344827 191.284505,110.97878 C191.61634,110.850626 191.91098,110.7372 192.165048,110.639685 C192.317655,110.581113 192.422928,110.540821 192.477489,110.519994 Z M191.898418,112.570597 C190.953246,112.935621 189.899941,113.345305 188.765571,113.790164 C185.524836,115.061062 182.28425,116.358964 179.260716,117.607809 C178.629518,117.86852 178.013405,118.124805 177.413621,118.376227 C174.10152,119.764622 171.360685,120.973557 169.342481,121.949205 C161.352267,125.811868 158.357792,129.635398 160.886147,133.134703 C163.45443,136.689269 167.99731,135.887178 179.410402,130.263045 C183.977951,128.012252 188.161555,125.632065 191.994744,123.198459 C193.353577,122.335765 194.573189,121.527058 195.755675,120.715761 C195.94408,120.586497 196.25985,120.367499 196.578239,120.146546 C195.661816,119.440223 194.884094,118.656185 194.236986,117.806708 C193.21413,116.463978 192.56256,115.024382 192.210546,113.573566 C192.12246,113.210525 192.05684,112.860687 192.010767,112.527222 C191.97381,112.541485 191.936359,112.555944 191.898418,112.570597 Z" id="Path-15-Copy" fill="#682C90" fill-rule="nonzero"></path>
                        <path d="M109.491639,67.1258134 L126.011253,124.006155 L130.931989,76.6647527 L124.605328,67.8324015 L136.204206,74.5449884 C136.204206,74.5449884 143.936791,80.1976931 143.936791,91.5031026 C143.936791,102.808512 142.882348,105.634864 142.882348,105.634864 L147.956148,146.01286 L101.909284,146.01286 L92.269063,81.6108693 L109.491639,67.1258134 Z" id="Path-11" fill="#3DBB8C"></path>
                        <path d="M93.1828844,81.9567284 L102.643631,145.159735 L146.989694,145.159735 L142.03647,105.741302 C142.019283,105.604529 142.035473,105.465625 142.083654,105.336481 C142.102315,105.286461 142.149201,105.124879 142.215181,104.830122 C142.332483,104.306091 142.451488,103.604328 142.563556,102.703158 C142.888383,100.091138 143.084252,96.4160597 143.084252,91.5031026 C143.084252,86.7385462 141.690779,82.6638966 139.366968,79.266374 C138.554526,78.0785448 137.684869,77.0613605 136.817569,76.2160047 C136.516351,75.9224078 136.238012,75.6719805 135.990086,75.4648486 C135.874073,75.3679249 135.787447,75.2991166 135.734149,75.2584754 L127.602776,70.5526281 L131.624904,76.1677312 C131.746362,76.3372919 131.801522,76.5455104 131.779953,76.7530126 L126.859217,124.094415 C126.7624,125.025877 125.453762,125.143524 125.192587,124.244245 L109.038236,68.6215772 L93.1828844,81.9567284 Z M148.802026,145.906423 C148.866035,146.415815 148.469199,146.865985 147.956148,146.865985 L101.909284,146.865985 C101.487214,146.865985 101.128676,146.55694 101.066151,146.13924 L91.4259303,81.7372499 C91.3820103,81.4438402 91.4935729,81.1486666 91.7205357,80.9577795 L108.943112,66.4727236 C109.414803,66.0760071 110.138345,66.2956322 110.310305,66.8877234 L125.614021,119.581486 L130.050546,76.8985801 L123.912413,68.329423 C123.377695,67.5829284 124.237613,66.6340725 125.03214,67.0938871 L136.631018,73.8064739 C136.979955,74.0555597 137.433494,74.4344715 138.007276,74.9937364 C138.952301,75.9148508 139.894969,77.0174307 140.774029,78.3026599 C143.283084,81.9710182 144.78933,86.3754257 144.78933,91.5031026 C144.78933,96.4823787 144.589783,100.226476 144.255583,102.913866 C144.079751,104.327778 143.899161,105.224861 143.752089,105.718332 L148.802026,145.906423 Z" id="Path-11-Copy" fill="#682C90" fill-rule="nonzero"></path>
                        <polygon id="Path-40" fill="#D8D8D8" opacity="0.4" style="mix-blend-mode: overlay;" points="101.179781 97.8313424 110.623957 146.546136 103.022885 146.546136 97.3099548 114.767716"></polygon>
                        <polygon id="Path-40-Copy" fill="#D8D8D8" opacity="0.4" style="mix-blend-mode: overlay;" points="143.685503 98.4867617 165.98637 136.828791 163.38108 136.828791 157.844839 133.223985 143.685503 110.372828"></polygon>
                        <polygon id="Path-12" fill="#682C90" fill-rule="nonzero" points="105.657208 93.9630105 126.141615 125.784017 141.441626 92.025397 135.865891 86.4209027 139.281794 80.5839152 135.561493 73.1049365 134.03507 73.865276 137.344392 80.5180591 133.730672 86.6930692 139.402334 92.3939844 125.880891 122.228293 107.702372 93.9893113 112.608124 86.782383 104.929623 84.4669512 102.234873 73.6323536 100.580272 74.044447 103.509221 85.8206683 109.889965 87.744765"></polygon>
                        <polygon id="Path-13" fill="#682C90" fill-rule="nonzero" points="125.450559 124.452546 128.965371 145.650189 130.086758 145.463994 126.571946 124.266352"></polygon>
                        <ellipse id="Oval-9" stroke="#682C90" stroke-width="1.5" fill="#FFFFFF" cx="132.337914" cy="130.365448" rx="1.75740573" ry="1.76647023"></ellipse>
                        <ellipse id="Oval-9-Copy" fill="#FFFFFF" cx="133.743838" cy="140.964269" rx="1.75740573" ry="1.76647023"></ellipse>
                        <path d="M133.743838,143.299489 C132.458785,143.299489 131.418073,142.253409 131.418073,140.964269 C131.418073,139.675129 132.458785,138.629049 133.743838,138.629049 C135.028891,138.629049 136.069603,139.675129 136.069603,140.964269 C136.069603,142.253409 135.028891,143.299489 133.743838,143.299489 Z M133.743838,142.161989 C134.399962,142.161989 134.932884,141.626318 134.932884,140.964269 C134.932884,140.30222 134.399962,139.766549 133.743838,139.766549 C133.087715,139.766549 132.554792,140.30222 132.554792,140.964269 C132.554792,141.626318 133.087715,142.161989 133.743838,142.161989 Z" id="Oval-9-Copy-2" fill="#682C90" fill-rule="nonzero"></path>
                        <g id="Group-19" transform="translate(74.612730, 67.689166)">
                            <path d="M21.5226252,12.5085267 C16.6018891,12.5085267 12.7355965,17.8079374 9.57226623,28.0534647 C6.40893593,38.2989921 2.19116219,59.8499288 1.4881999,65.8559276 C0.785237605,71.8619264 2.54264333,77.5146311 9.57226623,76.808043 C16.6018891,76.1014549 19.4137383,60.5565169 19.4137383,60.5565169 C19.4137383,60.5565169 24.6859555,42.1852266 25.7403989,31.2331111 C26.7948423,20.2809957 26.4433612,12.5085267 21.5226252,12.5085267 Z" id="Path-14" fill="#3DBB8C"></path>
                            <path d="M21.5226252,12.5085267 C16.6018891,12.5085267 12.7355965,17.8079374 9.57226623,28.0534647 C6.40893593,38.2989921 2.19116219,59.8499288 1.4881999,65.8559276 C0.785237605,71.8619264 2.54264333,77.5146311 9.57226623,76.808043 C16.6018891,76.1014549 19.4137383,60.5565169 19.4137383,60.5565169 C19.4137383,60.5565169 24.6859555,42.1852266 25.7403989,31.2331111 C26.7948423,20.2809957 26.4433612,12.5085267 21.5226252,12.5085267 Z" id="Path-14-Copy-3" fill="#3DBB8C"></path>
                            <path d="M20.1065407,61.4340061 C19.9855041,62.0013573 19.8382403,62.632561 19.6639235,63.3118817 C19.1655163,65.2541978 18.5491784,67.1973775 17.8066112,69.0172018 C15.7338727,74.0969033 13.08828,77.3120461 9.65747225,77.6568965 C2.71628355,78.3545955 -0.247723755,73.3536355 0.641448909,65.7566847 C1.51184345,58.3201713 5.95741282,36.8713755 8.75771912,27.8016256 C12.0744385,17.0592953 16.1749025,11.6554017 21.5226252,11.6554017 C24.3814984,11.6554017 26.0492624,13.7736008 26.7123267,17.6187025 C27.2559219,20.7710047 27.181546,25.1604582 26.5890086,31.3149256 C26.3041066,34.2740976 25.7036043,37.9131129 24.8441807,42.0851215 C24.4431215,44.0320344 23.9913724,46.066445 23.4980544,48.1637597 C22.7840154,51.1994576 22.0191811,54.216489 21.254327,57.077181 C20.9865938,58.0785516 20.7379403,58.9890024 20.5147175,59.7912881 C20.4365226,60.072329 20.3670698,60.3198506 20.3071531,60.5316962 C20.27978,60.6284788 20.2588193,60.7022096 20.2446187,60.7519447 C20.1853575,61.05711 20.1490828,61.234593 20.1065407,61.4340061 Z M21.5226252,13.3616517 C17.1837658,13.3616517 13.5030163,18.2124145 10.3868133,28.3053039 C7.61787615,37.2734542 3.1934636,58.6201734 2.33495088,65.9551705 C1.55551306,72.6145641 3.87232608,76.523559 9.48706022,75.9591895 C12.0840876,75.6981473 14.3745798,72.9145521 16.2280573,68.3721977 C16.9383101,66.631567 17.5319423,64.7599734 18.0124233,62.8875164 C18.1807174,62.2316664 18.3227071,61.6230689 18.4390375,61.0777779 C18.4795738,60.8877663 18.5139576,60.7195354 18.5422739,60.5750857 C18.5589874,60.4898255 18.569811,60.4323185 18.5748316,60.4045625 C18.6067345,60.2777742 18.6310663,60.192387 18.6665197,60.0670353 C18.7257848,59.8574933 18.7945827,59.6123055 18.8721185,59.3336337 C19.0938408,58.5367407 19.3409832,57.631823 19.607184,56.6361841 C20.3678557,53.791135 21.1285472,50.7904456 21.8383323,47.7728329 C22.3281846,45.6902525 22.7765329,43.6711569 23.1742147,41.7406396 C24.0223701,37.6233316 24.6136552,34.0401721 24.8917892,31.1512967 C26.0676903,18.9376448 25.1061444,13.3616517 21.5226252,13.3616517 Z" id="Path-14-Copy" fill="#682C90" fill-rule="nonzero"></path>
                            <g id="Group-45" transform="translate(66.209146, 63.155508) rotate(-5.000000) translate(-66.209146, -63.155508) translate(55.978677, 53.486758)">
                                <path d="M19.9859075,0.706588091 L20.3859064,0.706588091 L20.3859064,9.53893923 C20.3859064,15.898232 17.1414651,18.3712904 17.1414651,18.3712904 L13.3562835,18.3712904 L9.57110195,18.3712904 C9.57110195,18.3712904 8.57738099,17.6138318 7.68984795,15.8593719 C7.04986361,16.1124514 6.35269618,16.2515261 5.62369832,16.2515261 C2.5178155,16.2515261 1.39976919e-12,13.7387428 1.39976919e-12,10.6359467 L1.39976919e-12,9.14851982 C1.39976919e-12,6.04712097 2.52413535,3.53294045 5.62369832,3.53294045 C5.86176378,3.53294045 6.09637422,3.54770356 6.32666061,3.57636388 L6.32666061,0.706588091 L6.72665953,0.706588091 C7.69167775,0.294932564 10.2955416,8.70414851e-14 13.3562835,8.70414851e-14 C16.4170254,8.70414851e-14 19.0208893,0.294932564 19.9859075,0.706588091 Z M6.32666061,6.35992354 C6.30597755,6.35950374 6.28524319,6.35929282 6.26445957,6.35929282 L5.68589936,6.35929282 C4.0136835,6.35929282 2.68004373,7.70090274 2.68004373,9.35586245 L2.68004373,10.4286041 C2.68004373,12.0795039 4.02581114,13.4251737 5.68589936,13.4251737 L6.26445957,13.4251737 C6.4391664,13.4251737 6.61017756,13.4105297 6.77635832,13.3824142 C6.50426157,12.3019226 6.32666061,11.0267973 6.32666061,9.53893923 L6.32666061,6.35992354 Z" id="Combined-Shape" fill="#5EE38C"></path>
                                <path d="M13.0624864,1.70625 C10.6085809,1.70625 8.42098191,1.92727744 7.53828505,2.22074674 L7.53828505,4.91106545 L4.0355393,4.91106545 C2.80275668,4.91106545 1.7992187,5.91473054 1.7992187,7.14973468 L1.7992187,12.5034819 C1.7992187,13.738878 2.80116028,14.7421511 4.0355393,14.7421511 L8.0606046,14.7421511 C8.07920959,14.7421006 8.60629031,14.7335723 8.60629031,14.7335723 L8.85513966,15.1774459 C8.87586382,15.2142655 8.87586382,15.2142655 8.89657824,15.2504958 C9.18622767,15.7551443 9.49352364,16.1700744 9.79672742,16.5002394 C9.85512989,16.5638351 9.90797565,16.6187114 9.95438344,16.6650404 L16.1705893,16.6650404 C16.2169971,16.6187114 16.2698429,16.5638351 16.3282454,16.5002394 C16.6314491,16.1700744 16.9387451,15.7551443 17.2283945,15.2504958 C18.0743833,13.7765517 18.5866877,11.8798311 18.5866877,9.50612673 L18.5866877,2.22074674 C17.7039909,1.92727744 15.5163919,1.70625 13.0624864,1.70625 Z M20.2917659,0.640963091 L20.2917659,9.50612673 C20.2917659,12.1800067 19.7004036,14.3694258 18.7069481,16.1002972 C18.0949348,17.1665918 17.4664285,17.8509855 17.0127126,18.1968281 L16.783833,18.3712904 L9.34113979,18.3712904 L9.1122602,18.1968281 C8.70999879,17.8902065 8.17034394,17.3174677 7.62660177,16.4484011 L4.0355393,16.4484011 C1.85922689,16.4484011 0.0941405704,14.6809691 0.0941405704,12.5034819 L0.0941405704,7.14973468 C0.0941405704,4.97218056 1.86128187,3.20481545 4.0355393,3.20481545 L5.83320693,3.20481545 L5.83320693,0.640963091 L6.88983958,0.640963091 C8.00931882,0.241465774 10.3774018,9.23705556e-14 13.0624864,9.23705556e-14 C15.747571,9.23705556e-14 18.115654,0.241465774 19.2351332,0.640963091 L20.2917659,0.640963091 Z M7.53828505,5.76866782 L7.53828505,9.50612673 C7.53828505,10.7217665 7.67526164,11.8244857 7.92951457,12.8202211 L8.20128198,13.8845487 L4.92512002,13.8845487 C3.59863865,13.8845487 2.52527285,12.8094751 2.52527285,11.4798309 L2.52527285,8.17338567 C2.52527285,6.84692318 3.60281697,5.76866782 4.92512002,5.76866782 L7.53828505,5.76866782 Z M4.92512002,7.47491782 C4.54449523,7.47491782 4.23035097,7.78926943 4.23035097,8.17338567 L4.23035097,11.4798309 C4.23035097,11.8674839 4.54067204,12.1782987 4.92512002,12.1782987 L6.05147687,12.1782987 C5.90815857,11.3416125 5.83320693,10.4511812 5.83320693,9.50612673 L5.83320693,7.47491782 L4.92512002,7.47491782 Z" id="Combined-Shape-Copy-4" fill="#682C90" fill-rule="nonzero"></path>
                                <path d="M13.3562835,17.9403785 C12.3102636,17.9403785 11.3389262,17.8371384 10.6507207,17.6641996 C10.3640271,17.5921565 10.1538269,17.513971 10.0502712,17.452447 C10.0490839,17.4517416 10.0677866,17.4668519 10.1053968,17.5130381 C10.2045482,17.634798 10.2752285,17.8096898 10.2752285,18.0179963 C10.2752285,18.2263028 10.2045482,18.4011946 10.1053968,18.5229546 C10.0677866,18.5691407 10.0490839,18.584251 10.0502712,18.5835456 C10.1538269,18.5220216 10.3640271,18.4438361 10.6507207,18.371793 C11.3389262,18.1988542 12.3102636,18.0956142 13.3562835,18.0956142 C14.4023034,18.0956142 15.3736408,18.1988542 16.0618464,18.371793 C16.3485399,18.4438361 16.5587401,18.5220216 16.6622958,18.5835456 C16.6634831,18.584251 16.6447804,18.5691407 16.6071702,18.5229546 C16.5080189,18.4011946 16.4373385,18.2263028 16.4373385,18.0179963 C16.4373385,17.8096898 16.5080189,17.634798 16.6071702,17.5130381 C16.6447804,17.4668519 16.6634831,17.4517416 16.6622958,17.452447 C16.5587401,17.513971 16.3485399,17.5921565 16.0618464,17.6641996 C15.3736408,17.8371384 14.4023034,17.9403785 13.3562835,17.9403785 Z M13.3562835,19.0778785 C11.0268714,19.0778785 9.13850977,18.6033531 9.13850977,18.0179963 C9.13850977,17.4326396 11.0268714,16.9581142 13.3562835,16.9581142 C15.6856956,16.9581142 17.5740573,17.4326396 17.5740573,18.0179963 C17.5740573,18.6033531 15.6856956,19.0778785 13.3562835,19.0778785 Z" id="Oval" fill="#682C90" fill-rule="nonzero"></path>
                                <path d="M11.6554734,1.12159446 L7.09206494,1.22899521 C7.09206494,1.22899521 7.13394988,4.62627819 6.96656193,4.61154589 C6.79917398,4.5968136 4.45574261,4.39056144 4.45574261,4.39056144 L4.18584282,5.55456558 L5.81578872,6.20706131 L6.83476099,6.12706416 L7.07962091,11.06933 L7.63831426,14.342419 L5.64430336,13.9972405 L4.70485174,15.1023154 L4.76972786,16.2957842 L8.3434531,15.9315987 L9.6742101,18.0848804 L12.9780355,18.8846991 C12.9780355,18.8846991 11.7609922,14.5348507 11.72255,11.9870071 C11.6841077,9.43916341 11.6554734,1.12159446 11.6554734,1.12159446 Z" id="Path-41" fill="#D8D8D8" opacity="0.4" style="mix-blend-mode: overlay;"></path>
                            </g>
                            <path d="M39.0966824,63.3828693 C41.5570504,62.6762812 44.3688996,61.6163991 45.423343,60.2032229 C46.4777865,58.7900467 47.8837111,57.0235765 49.6411168,57.0235765 C51.3985225,57.0235765 55.9677774,57.0235765 57.0222208,56.3169884 C58.0766643,55.6104003 59.83407,54.5505181 59.83407,54.5505181 C59.83407,54.5505181 61.2399946,54.5505181 61.2399946,55.9636943 C61.2399946,57.3768705 59.1311077,59.4180424 59.1311077,59.4180424 C59.1311077,59.4180424 61.2399946,59.4966348 61.2399946,60.909811 C61.2399946,62.3229871 59.4825889,62.6762812 59.4825889,62.6762812 C59.4825889,62.6762812 61.5914757,62.3229871 61.5914757,64.0894574 C61.5914757,65.8559276 59.83407,65.8559276 59.83407,65.8559276 C59.83407,65.8559276 61.9429569,65.5026336 61.9429569,67.2691038 C61.9429569,69.035574 60.1855511,69.035574 60.1855511,69.035574 C60.1855511,69.035574 61.2399946,69.035574 61.2399946,70.0954561 C61.2399946,71.1553383 60.5370323,71.5086323 59.1311077,71.8619264 C57.7251831,72.2152204 52.0575497,72.2152204 49.5971816,72.2152204 C47.1368136,72.2152204 41.9085316,71.5086323 39.4481636,70.4487502 C36.9877956,69.3888681 36.6363144,64.0894574 39.0966824,63.3828693 Z" id="Path-16" fill="#FFE0C9"></path>
                            <path d="M59.7188304,55.6192977 C59.3016288,55.8749036 58.8845306,56.1336404 58.495946,56.3791535 C58.4294498,56.4211985 58.4294498,56.4211985 58.3631166,56.4632741 C58.0294601,56.6750914 57.7371284,56.8646653 57.4965841,57.0258553 C56.7893102,57.4998033 55.3446495,57.7111788 53.1346787,57.8137528 C52.0397963,57.864571 51.1029974,57.8767015 49.6411168,57.8767015 C48.5646089,57.8767015 47.5715656,58.7500961 46.1064665,60.7136373 C45.0389806,62.1442932 42.6648495,63.2456978 39.3318598,64.2028923 C37.7374231,64.6607954 37.9776508,68.8864628 39.7852614,69.6651488 C41.8767405,70.5661203 46.8260571,71.3620954 49.5971816,71.3620954 C51.4730239,71.3620954 52.6053607,71.3568163 53.9350582,71.3342439 C56.4994029,71.2907128 58.3054294,71.1897979 58.9234675,71.0344915 C60.1686979,70.7215782 60.3874555,70.5566637 60.3874555,70.0954561 C60.3874555,69.9659102 60.3808177,69.9559021 60.330145,69.9304351 C60.2724757,69.9014517 60.1963521,69.888699 60.1855511,69.888699 L60.1855511,68.182449 C60.2842224,68.182449 60.4921514,68.1476154 60.6816261,68.0523894 C60.9519745,67.916518 61.0904178,67.707782 61.0904178,67.2691038 C61.0904178,66.9186962 60.9850521,66.8039612 60.6808733,66.7275243 C60.4810301,66.6773058 60.2444348,66.6700044 60.0337507,66.6905933 C59.998648,66.6940236 59.83407,65.0028026 59.83407,65.0028026 C59.9327412,65.0028026 60.1406703,64.967969 60.330145,64.872743 C60.6004934,64.7368716 60.7389367,64.5281356 60.7389367,64.0894574 C60.7389367,63.7390498 60.6335709,63.6243148 60.3293921,63.5478779 C60.129549,63.4976594 59.8929536,63.490358 59.6822695,63.5109468 C58.5202441,63.7024967 58.2181209,62.0603092 59.3146741,61.8398673 C59.4466088,61.8133443 59.6898491,61.731846 59.9212257,61.592304 C60.2367137,61.4020348 60.3874555,61.1899078 60.3874555,60.909811 C60.3874555,60.7123662 60.2487518,60.567778 59.8882623,60.4335606 C59.718763,60.3704526 59.5276606,60.3249131 59.3351045,60.2962316 C59.2203088,60.2791327 59.1357052,60.2719302 59.0993798,60.2705764 C58.3487938,60.2426042 57.9985113,59.3273773 58.5383971,58.8048269 C58.5937137,58.7512865 58.6983059,58.6450464 58.8353738,58.4970713 C59.065713,58.2484029 59.2961065,57.9790908 59.509413,57.7011645 C59.7931827,57.3314287 60.0228248,56.976815 60.1780815,56.6574659 C60.3185904,56.3684516 60.3874555,56.1287332 60.3874555,55.9636943 C60.3874555,55.6795822 60.314915,55.5702102 60.1544044,55.489541 C60.1097212,55.4670841 60.062625,55.4496366 60.0181155,55.436512 C59.9247168,55.4933668 59.8245111,55.5545505 59.7188304,55.6192977 Z M62.0925336,70.0954561 C62.0925336,71.5773658 61.2568478,72.207363 59.3387479,72.6893613 C58.535527,72.8912022 56.6990346,72.9938194 53.9639788,73.0402485 C52.621795,73.0630328 51.4822743,73.0683454 49.5971816,73.0683454 C46.6128025,73.0683454 41.4430143,72.2369129 39.1110658,71.2323515 C35.9464682,69.8691 35.5846107,63.5039309 38.8615051,62.5628462 C41.8332084,61.7094088 43.977936,60.7144288 44.7402196,59.6928084 C46.5343092,57.2883506 47.8053523,56.1704515 49.6411168,56.1704515 C51.0778708,56.1704515 51.9947049,56.1585795 53.0556781,56.1093352 C54.8873486,56.0243197 56.2171127,55.8297553 56.5478576,55.6081214 C56.8015836,55.4380983 57.1051223,55.2412568 57.4497146,55.022497 C57.5176526,54.9794035 57.5176526,54.9794035 57.5856517,54.9364082 C57.9816232,54.686228 58.4051209,54.4235214 58.8285152,54.1641214 C58.9766246,54.0733796 59.1141831,53.9895071 59.2377047,53.9145051 C59.3120116,53.8693861 59.3649844,53.8373371 59.394004,53.819835 C59.5268329,53.7397265 59.6789826,53.6973931 59.83407,53.6973931 C60.130815,53.6973931 60.5160104,53.7619235 60.9196602,53.9647894 C61.6378525,54.3257377 62.0925336,55.0112773 62.0925336,55.9636943 C62.0925336,56.4245197 61.9553873,56.9019237 61.7113394,57.4039086 C61.4995869,57.8394645 61.210082,58.2865184 60.8616893,58.7404544 C60.8129061,58.8040162 60.7635091,58.8670094 60.7136186,58.929367 C61.5436612,59.3056539 62.0925336,59.9565324 62.0925336,60.909811 C62.0925336,61.4560721 61.9267278,61.9236646 61.6386534,62.3122251 C62.1404918,62.697484 62.4440148,63.2940993 62.4440148,64.0894574 C62.4440148,64.6627057 62.3044119,65.1495833 62.0548044,65.5436086 C62.5179308,65.929674 62.7954959,66.5085159 62.7954959,67.2691038 C62.7954959,68.1432105 62.4709041,68.8164957 61.9266579,69.26598 C62.0339419,69.5078894 62.0925336,69.7857223 62.0925336,70.0954561 Z" id="Path-16-Copy" fill="#682C90" fill-rule="nonzero"></path>
                            <path d="M40.502607,62.6762812 C40.502607,62.6762812 22.9285498,63.0295752 14.4930023,63.7361633 C6.05745478,64.4427514 0.43375646,66.9158097 1.83968104,72.2152204 C3.24560562,77.5146311 9.46461198,77.8679251 21.0634898,76.808043 C32.6623676,75.7481609 41.2055693,71.5086323 41.2055693,71.5086323 C39.0966824,67.2691038 40.502607,62.6762812 40.502607,62.6762812 Z" id="Path-15" fill="#3DBB8C"></path>
                            <path d="M40.4854835,61.8233283 L41.6625921,61.7996647 L41.3177589,62.9261532 C41.3077507,62.9588475 41.2867052,63.0343979 41.2581765,63.149101 C41.2087242,63.3479307 41.1588164,63.5786906 41.111975,63.8376472 C40.7338559,65.9280289 40.7981866,68.1912171 41.6018389,70.2914905 C41.7109577,70.5766628 41.8331363,70.8557737 41.9687811,71.1284626 L42.3492603,71.8933459 L41.5843322,72.2729383 C41.5584344,72.28579 41.5111956,72.308763 41.4431126,72.341181 C41.3322387,72.393974 41.2015192,72.4548565 41.0514504,72.5231521 C40.6258586,72.7168368 40.1288619,72.9320359 39.564425,73.1633348 C37.9570164,73.8220296 36.1277879,74.4799252 34.1083622,75.0936169 C29.9985526,76.342564 25.6406602,77.2464649 21.141017,77.6576332 C14.5415743,78.260677 10.4857499,78.3207525 7.46664656,77.7338349 C3.90757036,77.0419458 1.79411405,75.3682903 1.01568521,72.4341257 C-0.48362868,66.7826988 4.65377367,63.7042196 14.4218886,62.8860115 C17.0759041,62.6637028 20.7744852,62.4627483 25.255381,62.282588 C28.587466,62.1486171 32.1566546,62.033814 35.7257168,61.9381481 C36.9747893,61.9046677 38.134672,61.8759695 39.1756713,61.8520525 C39.5400966,61.8436798 39.8636584,61.8365023 40.1426442,61.8305199 C40.3101659,61.8269276 40.4255117,61.824534 40.4854835,61.8233283 Z M39.2148084,63.5578529 C38.1759054,63.5817218 37.0181826,63.6103665 35.7713724,63.6437863 C32.209341,63.7392637 28.647436,63.8538326 25.3238336,63.9874624 C20.8655708,64.1667127 17.1881594,64.366517 14.5641159,64.5863152 C5.72130423,65.327017 1.55643147,67.8227285 2.66367687,71.9963151 C3.78840775,76.2358106 8.31679802,77.1161356 20.9859625,75.9584528 C25.3630115,75.5584869 29.6085398,74.6778923 33.612898,73.4609912 C35.5793793,72.863389 37.3586259,72.2234697 38.9182662,71.5843497 C39.3490593,71.4078164 39.7378948,71.2415323 40.0827694,71.0881791 C40.0578044,71.0262226 40.0333826,70.9640362 40.0095008,70.9016233 C39.0806749,68.4742198 39.0057079,65.9184183 39.430703,63.5529235 C39.3604353,63.5545176 39.2884601,63.5561608 39.2148084,63.5578529 Z" id="Path-15-Copy-2" fill="#682C90" fill-rule="nonzero"></path>
                            <path d="M7.23870821,71.0813985 C7.23870821,65.9769147 9.43172495,65.5348184 12.9516381,47.8384972 C16.4715512,30.142176 23.6360988,13.6097891 23.6360988,13.6097891 L35.8033576,3.4677404 L34.4591388,0.0870574948 L17.9924586,13.6097891 L12.9516381,19.6950183 L7.91081761,35.9222963 L3.20605183,57.8967351 L2.53394243,72.4336716 C2.53394243,72.4336716 7.23870821,80.5473106 7.23870821,71.0813985 Z" id="Path-39" fill="#D8D8D8" opacity="0.4" style="mix-blend-mode: overlay;"></path>
                        </g>
                        <path d="M219.864082,102.717022 C220.264578,102.11318 220.251843,101.385268 219.980851,100.579483 C219.854485,100.203738 219.672771,99.8180877 219.44999,99.4274056 C219.198329,98.9860774 218.947802,98.6245549 218.772493,98.3988007 L217.426133,99.4457543 C217.455248,99.4832465 217.512923,99.561357 217.589428,99.6717575 C217.719027,99.8587756 217.848852,100.062249 217.969057,100.273048 C218.141247,100.575011 218.277677,100.864554 218.364833,101.12371 C218.484662,101.480019 218.488605,101.705374 218.44343,101.773485 C218.11461,102.269259 217.371576,102.280998 216.946085,101.853314 L216.243123,101.146725 L214.982812,102.29335 C215.011071,102.327436 215.067883,102.399632 215.143492,102.502231 C215.271779,102.676312 215.400306,102.866221 215.519195,103.0634 C215.699551,103.362522 215.839498,103.648884 215.923293,103.901566 C216.024709,104.207384 216.024709,104.393715 215.983062,104.456508 C215.68964,104.898912 214.939988,104.782986 214.134236,103.973078 L212.92588,105.176887 C214.388779,106.647331 216.372952,106.954163 217.403714,105.400045 C217.70348,104.948077 217.771614,104.429241 217.671728,103.868836 C218.506907,103.877957 219.340121,103.507017 219.864082,102.717022 Z" id="Path-19" fill="#682C90" fill-rule="nonzero"></path>
                        <path d="M204.743029,107.048041 C204.743029,107.048041 210.89395,100.67224 215.287464,95.7426311 C219.680978,90.8130227 221.965606,89.0300443 221.965606,89.0300443 L229.698191,93.2695728 L221.614124,101.395336 L218.099313,98.5689835 L212.827096,104.574982 C212.827096,104.574982 209.649625,106.161451 207.90636,106.694747 C206.163095,107.228042 204.743029,107.048041 204.743029,107.048041 Z" id="Path-20" fill="#E3EFEB"></path>
                        <path d="M207.657119,105.878894 C208.122802,105.736433 208.743811,105.498225 209.476164,105.186103 C209.658886,105.108228 209.847121,105.026353 210.040038,104.94094 C210.597819,104.693984 211.169599,104.42882 211.723391,104.163608 C211.917254,104.070767 212.094905,103.984608 212.2524,103.907381 C212.268439,103.899517 217.997298,97.3925098 217.997298,97.3925098 L221.550697,100.249892 L228.293566,93.4722435 L222.066322,90.0580454 C221.729043,90.3502284 221.326852,90.7149561 220.860384,91.1571083 C219.477626,92.4677874 217.830212,94.1713516 215.923719,96.3104734 C215.145919,97.1831805 214.283231,98.1347717 213.348005,99.1530706 C213.17142,99.3453399 212.992492,99.5397229 212.811321,99.7361187 C211.180248,101.504264 209.433297,103.364849 207.686429,105.203228 C207.397585,105.507203 207.118484,105.800309 206.850655,106.081031 C207.113138,106.029451 207.382935,105.962771 207.657119,105.878894 Z M213.35729,105.263683 L213.207718,105.338363 C213.170075,105.357158 213.100427,105.391638 213.002666,105.439575 C212.840592,105.519046 212.658226,105.607492 212.459445,105.702688 C211.891399,105.974726 211.304697,106.246811 210.729927,106.501288 C210.529988,106.58981 210.334527,106.674829 210.144282,106.75591 C209.361259,107.089627 208.689907,107.347146 208.155601,107.510599 C206.931331,107.885125 205.783869,107.978054 204.848618,107.913778 C204.752211,107.907152 204.680581,107.900067 204.635896,107.894403 L202.947938,107.680444 L204.129673,106.455504 C204.158311,106.42582 204.158311,106.42582 204.295923,106.282833 C204.431851,106.141505 204.589576,105.977238 204.767281,105.791831 C205.275183,105.261916 205.841202,104.669002 206.450788,104.027481 C208.19229,102.194749 209.933708,100.340057 211.558445,98.5787801 C211.738779,98.3832916 211.916862,98.1898267 212.092592,97.998488 C213.022399,96.9860902 213.879486,96.0406767 214.651209,95.1747888 C216.589041,93.0005033 218.269714,91.2625459 219.687821,89.9183608 C220.187481,89.4447465 220.619459,89.0536346 220.983078,88.7397097 C221.20577,88.5474516 221.358741,88.4217581 221.441314,88.3573167 L221.883483,88.0122375 L231.102816,93.0669022 L221.677552,102.54078 L218.201328,99.7454572 L213.35729,105.263683 Z" id="Path-20-Copy-2" fill="#682C90" fill-rule="nonzero"></path>
                        <polygon id="Path-20-Copy" fill="#00BF78" points="217.731408 93.0860982 221.965606 89.0300443 229.698191 93.2695728 224.985226 98.0068465"></polygon>
                        <path d="M224.879185,96.9042358 L228.293566,93.4722435 L222.10385,90.0786208 L219.083048,92.9723301 L224.879185,96.9042358 Z M221.827361,87.9814677 L231.102816,93.0669022 L225.091267,99.1094572 L216.379767,93.1998663 L221.827361,87.9814677 Z" id="Path-20-Copy-3" fill="#682C90" fill-rule="nonzero"></path>
                        <polygon id="Path-22" fill="#E3EFEB" points="209.312284 110.580981 211.06969 112.700745 202.985624 120.826508 201.228218 118.000156 207.554879 111.287569"></polygon>
                        <path d="M208.04655,112.009297 L202.299019,118.107427 L203.140842,119.461291 L209.918654,112.648519 L209.053165,111.604574 L208.04655,112.009297 Z M212.220726,112.752972 L202.830406,122.191726 L200.157417,117.892885 L207.063207,110.565841 L209.571404,109.557388 L212.220726,112.752972 Z" id="Path-22-Copy-3" fill="#682C90" fill-rule="nonzero"></path>
                        <polygon id="Path-22-Copy" fill="#00BF78" points="209.312284 110.580981 211.06969 112.700745 207.854069 115.932952 205.857777 113.088194 207.554879 111.287569"></polygon>
                        <path d="M208.04655,112.009297 L206.955073,113.167354 L207.967358,114.60988 L209.918654,112.648519 L209.053165,111.604574 L208.04655,112.009297 Z M212.220726,112.752972 L207.740781,117.256024 L204.760481,113.009034 L207.063207,110.565841 L209.571404,109.557388 L212.220726,112.752972 Z" id="Path-22-Copy-2" fill="#682C90" fill-rule="nonzero"></path>
                        <path d="M205.797473,113.054039 L207.90636,115.880392" id="Path-23" stroke="#682C90" stroke-width="1.5" fill="#FFFFFF"></path>
                        <g id="Group-34" transform="translate(71.328785, 108.569543)">
                            <g id="Group-24" transform="translate(14.787157, 10.902315) rotate(4.000000) translate(-14.787157, -10.902315) translate(11.945360, 0.664815)">
                                <rect id="Rectangle-14" fill="#FFFFFF" x="0.568359375" y="6.22145473" width="2.81184916" height="14.1317618"></rect>
                                <path d="M1.70507812,19.2157165 L2.24348979,19.2157165 L2.24348979,7.35895473 L1.70507812,7.35895473 L1.70507812,19.2157165 Z M0.568359375,6.22145473 L3.38020854,6.22145473 L3.38020854,20.3532165 L0.568359375,20.3532165 L0.568359375,6.22145473 Z" id="Rectangle-14-Copy-2" fill="#682C90" fill-rule="nonzero"></path>
                                <path d="M0.568359375,1.98008319 C0.568359375,1.20062539 1.19239984,0.56875 1.97428396,0.56875 L1.97428396,0.56875 C2.75075466,0.56875 3.38020854,1.20175246 3.38020854,1.98008319 L3.38020854,6.92804282 L0.568359375,6.92804282 L0.568359375,1.98008319 Z" id="Rectangle-14-Copy" fill="#FFFFFF"></path>
                                <path d="M2.81184916,1.98008319 C2.81184916,1.51500453 2.43599866,1.1375 1.97428396,1.1375 C1.50890802,1.1375 1.13671875,1.51211744 1.13671875,1.98008319 L1.13671875,6.35929282 L2.81184916,6.35929282 L2.81184916,1.98008319 Z M1.64135372e-12,1.98008319 C1.64135372e-12,0.885369673 0.879630942,-5.13811216e-13 1.97428396,-5.13811216e-13 C3.06473556,-5.13811216e-13 3.94856791,0.887721879 3.94856791,1.98008319 L3.94856791,7.49679282 L1.64141682e-12,7.49679282 L1.64135372e-12,1.98008319 Z" id="Rectangle-14-Copy-3" fill="#682C90" fill-rule="nonzero"></path>
                                <path d="M3.6352938,2.49017671 C3.61090297,2.50243502 3.59038134,2.51057745 3.57232293,2.51561955 C3.54013688,2.52460623 3.52241001,2.51824255 3.60962018,2.64973254 C3.97121208,3.19491796 4.21777374,4.55800167 4.21777374,6.92804282 L5.35449249,6.92804282 C5.35449249,4.35196733 5.07383244,2.80037516 4.55672147,2.02070791 C4.19403578,1.47387333 3.70391825,1.29792851 3.26682592,1.41996929 C3.21080755,1.43561021 3.16357334,1.45435146 3.12512328,1.47367565 L3.6352938,2.49017671 Z" id="Path-24" fill="#682C90" fill-rule="nonzero"></path>
                            </g>
                            <g id="Group-21" transform="translate(4.025605, 14.435431) rotate(-7.000000) translate(-4.025605, -14.435431) translate(2.036347, 0.501056)">
                                <rect id="Rectangle-13" fill="#FFFFFF" x="0.568359375" y="6.37669045" width="2.81184916" height="21.1976427"></rect>
                                <path d="M1.70507812,26.4368332 L2.24348979,26.4368332 L2.24348979,7.51419045 L1.70507812,7.51419045 L1.70507812,26.4368332 Z M0.568359375,6.37669045 L3.38020854,6.37669045 L3.38020854,27.5743332 L0.568359375,27.5743332 L0.568359375,6.37669045 Z" id="Rectangle-13-Copy-2" fill="#682C90" fill-rule="nonzero"></path>
                                <path d="M1.85145198,5.87725364 L2.088643,5.87725364 L1.97004749,5.37700496 L1.85145198,5.87725364 Z M3.52658239,7.01475364 L0.413512593,7.01475364 L1.97004749,0.449121414 L3.52658239,7.01475364 Z" id="Rectangle-13-Copy" fill="#682C90" fill-rule="nonzero"></path>
                            </g>
                            <polygon id="Rectangle-12" fill="#FFE0C9" points="0.568359375 13.8560856 17.4394543 13.8560856 13.8367726 38.0711634 4.14269586 38.0711634"></polygon>
                            <path d="M5.6144184,36.3649134 L12.3667544,36.3649134 L15.4617296,15.5623356 L2.54379383,15.5623356 L5.6144184,36.3649134 Z M0.568359375,13.8560856 L17.4394543,13.8560856 L13.8367726,38.0711634 L4.14269586,38.0711634 L0.568359375,13.8560856 Z" id="Rectangle-12-Copy" fill="#682C90" fill-rule="nonzero"></path>
                        </g>
                        <g id="Group-35" transform="translate(43.504546, 105.409985)">
                            <path d="M10.9781908,40.7683356 L18.710776,40.7683356 C22.9285498,40.7683356 21.8741063,36.175513 21.8741063,36.175513 L18.3592949,12.504812 L14.4930023,9.67845963 L14.4930023,3.67077854 L12.3841154,3.67077854 L8.86930394,3.66909623 L8.86930394,9.67677732 L5.00301135,12.5031297 L1.4881999,36.1738307 C1.4881999,36.1738307 0.43375646,40.7666533 4.6515302,40.7666533 L10.9781908,40.7666533 L10.9781908,40.7683356 Z" id="Combined-Shape" fill="#E3EFEB"></path>
                            <path d="M22.7772395,36.3992241 C22.8780345,37.1309433 22.8780345,37.9092605 22.7049993,38.6629473 C22.2897843,40.4714928 20.9697072,41.6214606 18.710776,41.6214606 L10.1256518,41.6214606 L4.6515302,41.6197783 C2.39259902,41.6197783 1.07252192,40.4698105 0.657306881,38.6612649 C0.484271664,37.9075782 0.484271664,37.129261 0.585066744,36.3975418 C0.607379938,36.2355598 0.630442451,36.107235 0.64927239,36.0191261 L4.21214533,12.0247521 L8.01676488,9.24348426 L8.01676488,2.81556308 L8.86971172,2.81597133 L12.3841154,2.81765354 L15.3455413,2.81765354 L15.3455413,9.24516657 L19.1501609,12.0264345 L22.7130338,36.0208084 C22.7318638,36.1089173 22.7549263,36.2372421 22.7772395,36.3992241 Z M18.710776,39.9152106 C20.1423968,39.9152106 20.7994012,39.3428699 21.0432133,38.2809014 C21.163079,37.7588041 21.163079,37.176285 21.0881335,36.6322201 C21.0698004,36.4991315 21.0524538,36.4067848 21.0432133,36.366536 L17.5684288,12.9831895 L13.6404632,10.1117527 L13.6404632,4.52390351 L12.3837076,4.52390345 L9.72184301,4.52262938 L9.72184301,10.1100704 L5.79387736,12.9815072 L2.33148041,36.2992198 C2.30985238,36.4051025 2.29250577,36.4974492 2.27417266,36.6305378 C2.19922717,37.1746026 2.19922717,37.7571218 2.31909291,38.2792191 C2.56290501,39.3411876 3.21990936,39.9135283 4.6515302,39.9135283 L11.8307299,39.9135283 L18.710776,39.9152106 Z" id="Combined-Shape-Copy-5" fill="#682C90" fill-rule="nonzero"></path>
                            <polygon id="Line" fill="#682C90" fill-rule="nonzero" points="3.02872739 21.04375 20.3488534 21.04375 20.3488534 19.90625 3.02872739 19.90625"></polygon>
                            <path d="M9.16845749,2.53327854 L14.1938487,2.53327854 L14.1938487,1.70625 L9.16845749,1.70625 L9.16845749,2.53327854 Z M7.46337936,1.13611585 C7.46337936,0.508656391 7.97206379,0 8.60103483,0 L14.7612714,0 C15.3895811,0 15.8989268,0.511386199 15.8989268,1.13611585 L15.8989268,3.1034127 C15.8989268,3.73087215 15.3902424,4.23952854 14.7612714,4.23952854 L8.60103483,4.23952854 C7.97272507,4.23952854 7.46337936,3.72814235 7.46337936,3.1034127 L7.46337936,1.13611585 Z" id="Rectangle-15" fill="#682C90" fill-rule="nonzero"></path>
                        </g>
                        <g id="Group-43" transform="translate(26.950022, 125.071570)">
                            <rect id="Rectangle-16" fill="#E3EFEB" x="0" y="10.3231452" width="61.8606816" height="11.3054095"></rect>
                            <path d="M1.70507812,19.9223046 L60.1556034,19.9223046 L60.1556034,12.0293952 L1.70507812,12.0293952 L1.70507812,19.9223046 Z M0,10.3231452 L61.8606816,10.3231452 L61.8606816,21.6285546 L0,21.6285546 L0,10.3231452 Z" id="Rectangle-16-Copy" fill="#682C90" fill-rule="nonzero"></path>
                            <polygon id="Path-26" fill="#682C90" fill-rule="nonzero" points="18.7558594 10.6764392 18.7558594 21.6342514 19.8925781 21.6342514 19.8925781 10.6764392"></polygon>
                            <path d="M18.6285007,10.3679885 L25.6669051,10.3679885" id="Path-27-Copy-3" stroke="#682C90" stroke-width="1.5" fill="#FFFFFF"></path>
                            <path d="M50.2563175,10.1313093 L61.517982,10.1313093" id="Path-27-Copy-7" stroke="#682C90" stroke-width="1.5" fill="#FFFFFF"></path>
                            <polygon id="Path-27-Copy-8" fill="#682C90" fill-rule="nonzero" points="46.7428111 14.5979167 61.517982 14.5979167 61.517982 13.4604167 46.7428111 13.4604167"></polygon>
                            <polygon id="Path-27-Copy-9" fill="#682C90" fill-rule="nonzero" points="53.7686402 16.1145833 61.517982 16.1145833 61.517982 14.9770833 53.7686402 14.9770833"></polygon>
                            <polygon id="Path-27-Copy-4" fill="#682C90" fill-rule="nonzero" points="16.5128636 14.0291667 28.4751376 14.0291667 28.4751376 12.8916667 16.5128636 12.8916667"></polygon>
                            <polygon id="Path-27-Copy-5" fill="#682C90" fill-rule="nonzero" points="19.1901098 15.7354167 31.1523838 15.7354167 31.1523838 14.5979167 19.1901098 14.5979167"></polygon>
                            <polygon id="Path-27-Copy-6" fill="#682C90" fill-rule="nonzero" points="17.2179539 17.8208333 27.0703197 17.8208333 27.0703197 16.6833333 17.2179539 16.6833333"></polygon>
                            <polygon id="Path-27-Copy" fill="#682C90" fill-rule="nonzero" points="0.70296229 14.7875 6.68847051 14.7875 6.68847051 13.65 0.70296229 13.65"></polygon>
                            <polygon id="Path-27-Copy-2" fill="#682C90" fill-rule="nonzero" points="0.70296229 16.49375 10.1994599 16.49375 10.1994599 15.35625 0.70296229 15.35625"></polygon>
                            <polygon id="Path-28" fill="#00BF78" points="6.67814176 10.6764392 1.75740573 1.1375 20.7406417 1.1375 26.3610859 5.37702854 58.6973512 8.20338091 58.6973512 10.6764392"></polygon>
                            <path d="M57.8448122,9.82331423 L57.8448122,8.98523783 L26.0432351,6.20561991 L20.4553158,1.990625 L3.15692542,1.990625 L7.19747911,9.82331423 L57.8448122,9.82331423 Z M59.5498903,7.42152399 L59.5498903,11.5295642 L6.15880441,11.5295642 L0.357886032,0.284375 L21.0259677,0.284375 L26.6789367,4.54843718 L59.5498903,7.42152399 Z" id="Path-28-Copy" fill="#682C90" fill-rule="nonzero"></path>
                            <polygon id="Path-29" fill="#682C90" fill-rule="nonzero" points="16.7570835 1.46383609 23.4352253 11.0027753 24.3662105 10.3501031 17.6880687 0.81116391"></polygon>
                            <polygon id="Path-30" fill="#682C90" fill-rule="nonzero" points="6.32666061 4.55 15.1136892 4.55 15.1136892 3.4125 6.32666061 3.4125"></polygon>
                            <polygon id="Path-30-Copy" fill="#682C90" fill-rule="nonzero" points="8.43554748 6.825 17.2225761 6.825 17.2225761 5.6875 8.43554748 5.6875"></polygon>
                        </g>
                        <g id="Group-44" transform="translate(182.435543, 130.871699)">
                            <path d="M0.910992209,15.3048761 L0.910992209,9.11867814 C0.910992209,9.11867814 0.208029919,5.85995871 5.4802471,4.77016055 C10.7524643,3.68036238 36.0591067,1.1375 36.0591067,1.1375 L51.8757583,1.86403211 L51.8757583,15.3048761 L0.910992209,15.3048761 Z" id="Path-33" fill="#E3EFEB"></path>
                            <path d="M51.0232192,14.4517511 L51.0232192,2.67889437 L36.0823488,1.99259095 C36.0149998,1.99937948 35.917286,2.00925135 35.7908329,2.02206174 C35.5023886,2.05128271 35.1677559,2.08533486 34.7907851,2.12387882 C33.7135947,2.2340178 32.5132436,2.35805294 31.2205383,2.4932689 C27.5272654,2.87958235 23.8340686,3.27805237 20.387593,3.66693068 C19.2450758,3.79584504 18.1467293,3.92182008 17.0979982,4.04437495 C11.372004,4.71351542 7.36108993,5.25251505 5.65270994,5.60564719 C3.93952154,5.95977327 2.85681373,6.55757555 2.26199518,7.30206631 C2.0015614,7.62803218 1.84785363,7.96802972 1.7766873,8.31269204 C1.72802893,8.54834709 1.72314645,8.75656591 1.74204911,8.91645686 C1.7446341,8.93832237 1.76353127,9.02764636 1.76353127,9.02764636 L1.76353127,14.4517511 L51.0232192,14.4517511 Z M0.0487790814,9.11691431 C-0.0556349489,8.23371313 0.156869464,7.20454304 0.9302342,6.2365791 C1.79260467,5.15721322 3.2282949,4.36451653 5.30778426,3.9346739 C7.08516769,3.56727834 11.1168605,3.02548639 16.9002234,2.34964181 C17.9512866,2.22681442 19.0518629,2.10058363 20.1965457,1.97142492 C23.648149,1.58196802 27.3457509,1.18302273 31.0432768,0.796264425 C32.3373511,0.660905265 33.5390095,0.53673503 34.6174688,0.426466309 C34.9949754,0.387867579 35.3301338,0.353761937 35.6190956,0.324488523 C35.7925516,0.306916485 35.9120084,0.294865631 35.9739291,0.288643679 L52.7282973,1.04916985 L52.7282973,16.1580011 L0.0584531465,16.1580011 L0.0584531465,9.19018186 C0.0551410228,9.16765323 0.051888053,9.143212 0.0487790814,9.11691431 Z" id="Path-33-Copy-3" fill="#682C90" fill-rule="nonzero"></path>
                            <polygon id="Path-33-Copy" fill="#00BF78" points="36.0591067 1.1375 51.8757583 1.86403211 51.8757583 15.3048761 36.1901574 15.3048761"></polygon>
                            <path d="M37.0348414,14.4517511 L51.0232192,14.4517511 L51.0232192,2.67889437 L36.919948,2.03106576 L37.0348414,14.4517511 Z M52.7282973,1.04916985 L52.7282973,16.1580011 L35.3454734,16.1580011 L35.1982655,0.243934239 L52.7282973,1.04916985 Z" id="Path-33-Copy-2" fill="#682C90" fill-rule="nonzero"></path>
                        </g>
                        <polygon id="Line" fill="#682C90" fill-rule="nonzero" points="0.284179688 147.30625 244.697275 147.30625 244.697275 145.6 0.284179688 145.6"></polygon>
                        <polygon id="Line-Copy" fill="#682C90" fill-rule="nonzero" points="22.0018213 150.15 88.6664049 150.15 88.6664049 149.0125 22.0018213 149.0125"></polygon>
                        <polygon id="Line-Copy-3" fill="#682C90" fill-rule="nonzero" points="93.4998158 150.15 105.224438 150.15 105.224438 149.0125 93.4998158 149.0125"></polygon>
                        <polygon id="Line-Copy-5" fill="#682C90" fill-rule="nonzero" points="114.64711 150.15 151.538649 150.15 151.538649 149.0125 114.64711 149.0125"></polygon>
                        <path d="M145.938459,110.64761 C146.008286,110.401865 146.045678,110.142488 146.045678,109.874393 C146.045678,108.316618 144.781107,107.048041 143.221179,107.048041 L136.919818,107.048041 C135.362903,107.048041 134.095319,108.313442 134.095319,109.874393 C134.095319,110.359471 134.217938,110.816507 134.433911,111.21593 C133.798028,111.734199 133.392357,112.523376 133.392357,113.407333 C133.392357,114.965108 134.65887,116.233686 136.221192,116.233686 L145.32573,116.233686 C146.889566,116.233686 148.154565,114.968285 148.154565,113.407333 C148.154565,112.059344 147.206206,110.927905 145.938459,110.64761 L145.938459,110.64761 Z" id="Combined-Shape" fill="#E3EFEB"></path>
                        <path d="M144.298392,110.180952 C144.326252,110.082904 144.3406,109.98045 144.3406,109.874393 C144.3406,109.257572 143.838039,108.754291 143.221179,108.754291 L136.919818,108.754291 C136.303259,108.754291 135.800397,109.257111 135.800397,109.874393 C135.800397,110.063462 135.846369,110.242735 135.933538,110.403947 L136.605464,111.646614 L135.510696,112.538892 C135.249644,112.751659 135.097435,113.065136 135.097435,113.407333 C135.097435,114.023568 135.601354,114.527436 136.221192,114.527436 L145.32573,114.527436 C145.947811,114.527436 146.449487,114.026014 146.449487,113.407333 C146.449487,112.881791 146.07886,112.426053 145.570602,112.313678 L143.803409,111.922957 L144.298392,110.180952 Z M145.938459,110.64761 L146.260165,110.739147 C147.36332,111.125456 148.154565,112.176058 148.154565,113.407333 C148.154565,114.968285 146.889566,116.233686 145.32573,116.233686 L136.221192,116.233686 C134.65887,116.233686 133.392357,114.965108 133.392357,113.407333 C133.392357,112.523376 133.798028,111.734199 134.433911,111.21593 C134.217938,110.816507 134.095319,110.359471 134.095319,109.874393 C134.095319,108.313442 135.362903,107.048041 136.919818,107.048041 L143.221179,107.048041 C144.781107,107.048041 146.045678,108.316618 146.045678,109.874393 C146.045678,110.026559 146.033632,110.175917 146.010447,110.321568 L145.938459,110.64761 Z" id="Combined-Shape-Copy-3" fill="#682C90" fill-rule="nonzero"></path>
                        <rect id="Rectangle-19-Copy" fill="#FFFFFF" x="137.921062" y="102.414459" width="1.48702433" height="1.49469423" rx="0.743512163"></rect>
                        <path d="M138.043887,103.151456 L138.043887,103.172156 C138.043887,103.514651 138.320451,103.790776 138.664574,103.790776 C139.006635,103.790776 139.285261,103.51257 139.285261,103.172156 L139.285261,103.151456 C139.285261,102.808962 139.008697,102.532836 138.664574,102.532836 C138.322513,102.532836 138.043887,102.811042 138.043887,103.151456 Z M136.907168,103.151456 C136.907168,102.181577 137.695961,101.395336 138.664574,101.395336 C139.635163,101.395336 140.42198,102.17941 140.42198,103.151456 L140.42198,103.172156 C140.42198,104.142035 139.633188,104.928276 138.664574,104.928276 C137.693986,104.928276 136.907168,104.144202 136.907168,103.172156 L136.907168,103.151456 Z" id="Rectangle-19-Copy-2" fill="#682C90" fill-rule="nonzero"></path>
                        <g id="Group-47" transform="translate(24.801014, 0.000000)" fill-rule="nonzero" fill="#682C90">
                            <path d="M2.45909584,65.2986031 L38.9118373,65.2986031 L46.4688565,58.6450377 L46.4688565,6.71326223 L2.45909584,6.71326223 L2.45909584,65.2986031 Z M1.32237709,5.57576223 L47.6055753,5.57576223 L47.6055753,59.1593232 L39.3407185,66.4361031 L1.32237709,66.4361031 L1.32237709,5.57576223 Z" id="Rectangle-20"></path>
                            <path d="M40.5160792,60.0349833 L40.0570809,64.397689 L45.3355613,59.8053673 L40.5160792,60.0349833 Z M47.3172943,59.588538 L39.7136261,66.2037924 C39.3241863,66.5426082 38.7214516,66.2285885 38.7754831,65.7150278 L39.4366716,59.430536 C39.4660476,59.151322 39.6946308,58.9353314 39.9748777,58.9219795 L46.9173574,58.5912168 C47.455903,58.5655587 47.7241752,59.2345482 47.3172943,59.588538 Z" id="Path-36"></path>
                            <path d="M1.13671875,5.47775445 L47.7912336,5.47775445 L47.7912336,1.1375 L1.13671875,1.1375 L1.13671875,5.47775445 Z M0,0 L48.9279524,0 L48.9279524,6.61525445 L0,6.61525445 L0,0 Z" id="Rectangle-21"></path>
                            <path d="M10.3412516,19.4677966 L10.3412516,51.0782346 C10.3412516,52.0194867 11.1058666,52.7837265 12.0452799,52.7837265 L40.339892,52.7837265 L40.339892,51.6462265 L12.0452799,51.6462265 C11.7333595,51.6462265 11.4779704,51.3909627 11.4779704,51.0782346 L11.4779704,19.4677966 L10.3412516,19.4677966 Z" id="Path-37"></path>
                            <polygon id="Rectangle-22" points="13.4495795 22.8299434 14.2533611 22.0256095 10.8932606 18.6631996 7.53263456 22.0261354 8.33641609 22.8304693 10.8932606 20.2718676"></polygon>
                            <polygon id="Rectangle-22-Copy" points="36.9389116 54.7550232 37.7426932 55.5593572 41.1027936 52.1969474 37.7421676 48.8340116 36.9383861 49.6383456 39.4952306 52.1969474"></polygon>
                            <path d="M15.538035,49.0687338 C14.3526134,49.0687338 13.3915984,48.1072292 13.3915984,46.9211025 C13.3915984,45.7349759 14.3526134,44.7734712 15.538035,44.7734712 C16.7234566,44.7734712 17.6844716,45.7349759 17.6844716,46.9211025 C17.6844716,48.1072292 16.7234566,49.0687338 15.538035,49.0687338 Z M15.538035,47.9312338 C16.0957093,47.9312338 16.5477528,47.47896 16.5477528,46.9211025 C16.5477528,46.363245 16.0957093,45.9109712 15.538035,45.9109712 C14.9803606,45.9109712 14.5283171,46.363245 14.5283171,46.9211025 C14.5283171,47.47896 14.9803606,47.9312338 15.538035,47.9312338 Z" id="Oval-11"></path>
                            <path d="M24.4639762,12.7597667 C23.4197739,12.7597667 22.5732397,11.9128012 22.5732397,10.8679658 C22.5732397,9.82313039 23.4197739,8.9761649 24.4639762,8.9761649 C25.5081785,8.9761649 26.3547127,9.82313039 26.3547127,10.8679658 C26.3547127,11.9128012 25.5081785,12.7597667 24.4639762,12.7597667 Z M24.4639762,11.6222667 C24.8804313,11.6222667 25.2179939,11.284532 25.2179939,10.8679658 C25.2179939,10.4513995 24.8804313,10.1136649 24.4639762,10.1136649 C24.0475211,10.1136649 23.7099585,10.4513995 23.7099585,10.8679658 C23.7099585,11.284532 24.0475211,11.6222667 24.4639762,11.6222667 Z" id="Oval-11-Copy"></path>
                            <polygon id="Path-38" points="27.045524 37.9726659 27.045524 36.8351659 22.1076488 36.8351659 15.9874416 45.6799696 16.9219891 46.3275237 22.7031757 37.9726659"></polygon>
                        </g>
                        <polygon id="Path-42" fill="#D8D8D8" style="mix-blend-mode: overlay;" opacity="0.4" points="119.091149 71.9422799 122.999085 79.8073116 120.719456 106.187939 119.091149 97.8313424 121.370778 79.8073116 117.788504 73.9085378"></polygon>
                    </g>
                </g>
            </g>
        </g>
    </g>
</svg>