<svg xmlns="http://www.w3.org/2000/svg" viewBox="0 0 369 166"><path fill="#fff" d="M139.5 109.2c-4.4 9.3-15.5 20.6-26.4 20.6-7.2 0-12.4-4.8-12.4-14.5 0-15.7 14.3-28.7 26.2-28.7 4.9 0 6.9 2.4 6.9 6.5 0 6.3-4.1 13.6-24.8 18.1-.2 1.3-.3 2.7-.3 4.1 0 12.1 5.6 12.5 8.4 12.5 4.6 0 16.3-8 21.7-19.1l.7.5zm-30.4.7c13.5-3 19.5-10.1 19.5-18 0-1.6-1-4.1-3-4.1-4.9-.1-13.9 8.1-16.5 22.1z"/><path fill="#fff" d="M196.3 39.6c-.3-1.8-.5-3.7-.5-5.5v-.8c-9.2 2.1-17.1 5-22.3 11.7 4.7-6.7 13-10.4 22.3-12.9.7-10.8 7.5-21.6 17.6-25.5-11.3 4.9-16.3 16.7-16.8 25.3 14.2-3.7 30.2-5.1 38.7-11.6.4-1.6.7-3.2.7-5 0-6.5-6-11-12.3-11-2.3 0-4.8.3-6.9 1.2 2.1-1.1 4.8-1.6 7.1-1.6 7.1 0 12.6 5.2 12.6 11.4 0 1.6-.2 2.9-.4 4.3 3.2-2.8 5.1-6.4 5.1-11.4 0-2.5-1.1-6.9-2.9-8.5 2 1.6 3.2 6 3.2 8.3 0 5.7-2.2 9.8-5.7 12.9-4.1 13.6-22.8 17.6-37.4 19.7-.2 0-.3.1-.4.1 3.1 8.5 11.1 14.9 21.3 14.9 7.3 0 16.3-3.9 16.3-13.6 0-1-.1-2.9-.5-4.3.5 1.4.7 3.4.7 4.3 0 10.8-10.2 14.2-17.3 14.2-13.4 0-19.6-7.4-21.8-15.4-24.6 3.5-29.9 6.5-39.9 31.7-4.2 10.6-8.8 25.8-12.3 36.6-.5 1.5-1.6 6.7-1.6 10.9 0 4.5.6 7.8 2.6 7.8 4 0 8.5-5.6 14.5-19.6l.9.5c-6.3 14.9-11.1 20.7-17.1 20.7-4.2 0-6.8-5-6.8-12.1 0-5.4 3.1-17.8 4.6-22.4 3.5-10.8 9.2-26.6 13.8-33.7 8.8-13.2 23.7-18.2 40.9-21.6zm1.1-.1c14.7-2.4 32.7-5.4 37.4-17.5-5 3.9-12.3 6-19.6 7.5-6.4 1.4-12.7 2.4-18.6 3.7 0 2.1.3 4.3.8 6.3z"/><path fill="#fff" d="M158.1 117.6c0-5.4 1.7-12.2 3.2-16.8l4.4-13.7c2.2 0 4.7-.2 7.4-1.2l-7.2 23.5c-.3 1.2-2.1 7.9-2.1 12.9 0 3.2.7 5.8 2.9 5.8 4 0 8.5-5.6 14.5-19.6l.9.5c-6.3 14.9-11.1 20.7-17.1 20.7-4.1 0-6.9-5-6.9-12.1zM173 76.5c-2.2 0-3.2-1.9-3.2-4.1 0-3.1 2.2-8.6 6.5-8.6 2.4 0 3.4 2.2 3.4 4.5-.1 3.4-2.7 8.2-6.7 8.2z"/><path fill="#fff" d="M218.3 109.2c-4.4 9.3-16.1 20.6-25.6 20.6-11.4 0-13.3-8.5-13.3-15.1 0-12.8 12.3-28.1 25-28.1 5 0 6.6 4.1 6.6 8.8 0 4.4-2.3 9.3-6.9 9.3-1.1 0-1.9-1.2-1.9-2.8 0-2.4 1.8-6.6 7.1-9.8-.3-2.8-1.7-4.4-4.8-4.4-6.4 0-16.9 11.9-16.9 27.5 0 11.6 5.4 12.4 8.3 12.4 4.6 0 16.3-7.9 21.7-19.1l.7.7z"/><path fill="#fff" d="M215.5 117.6c0-5.4 1.7-12.2 3.2-16.8l4.4-13.7c2.2 0 4.8-.2 7.4-1.2l-7.2 23.5c-.3 1.2-2.1 7.9-2.1 12.9 0 3.2.7 5.8 2.9 5.8 4 0 8.5-5.6 14.5-19.6l.9.5c-6.3 14.9-11.1 20.7-17.1 20.7-4.1 0-6.9-5-6.9-12.1zm14.9-41.1c-2.2 0-3.2-1.9-3.2-4.1 0-3.1 2.2-8.6 6.5-8.6 2.4 0 3.4 2.2 3.4 4.5-.1 3.4-2.6 8.2-6.7 8.2z"/><path fill="#fff" d="M270.8 116.6c-4 7.3-11 13.1-19.8 13.1-8.5 0-14.2-6.8-14.2-16.1 0-1.6.2-3.5.5-5.2 3.6-16.7 17.7-21.8 21-21.8.7 0 1 .1 1 .3 0 .4-.4.4-.7.4-8.4 1.6-14.4 16.4-14.4 26.9 0 7.9 2.9 13.9 9.2 13.9 6.7 0 10.8-6.3 13-13.5-4.9-3.5-8.6-11.1-8.6-20 0-3.4 1.8-8.4 6.4-8.4 7.9 0 10.5 9.8 10.5 16.1 0 4.1-1 8.5-3 12.6 3.5 1 7.4-.5 10.9-6.3l.9.5c-3.9 6.3-8.5 8.3-12.7 7.5zm-3.6-4.5c1.2-4.8 1.7-9.8 1.7-13.4 0-6.1-1.6-11.5-5.3-11.5-1.7 0-4.1 1.6-4.1 5.1.1 7.4 3.3 15.5 7.7 19.8z"/><path fill="#fff" d="M330.2 109.2c-6.1 13.1-13.6 20.6-16.7 20.6-4.7 0-6.9-4.1-6.9-9.1 0-6.9 1.6-11.7 3.1-16.2-6.3 11.1-15.9 25.3-23.5 25.3-5.1 0-6.5-3.5-6.5-7.6 0-4.4 1.5-9.7 2.4-12.8 1.8-5.9 5.6-17.4 7.2-22.3 2.4 0 5.5-.3 7.9-1.1-1.6 5-8.7 25.6-9.8 31-.3 1.5-.6 3.4-.6 5.1 0 2.8.6 4.9 2.3 4.9 4.5 0 18.4-14.9 26.4-39.9 2.5 0 5.4-.3 7.9-1.1-1.7 5-8.6 25.6-10 31-1.1 4.1-1.6 6.6-1.6 8.3 0 3 1 3 1.6 3 2.4 0 9.6-6.7 15.7-19.6l1.1.5z"/><path fill="#fff" d="M368.4 143.3c0 9-15.8 17.7-27.4 17.7-2.4 0-7-.9-11.3-3.1-6.7 4.6-14.4 8-23.2 8-7.4 0-21.6-3.8-22.1-14.2 1.2 10.1 14.2 13.6 21.2 13.6 8.3 0 15.8-3.5 22.8-8.2-1.7-1.1-3.5-2.5-5-4.2-3.3 1.6-7.6 3.2-12.6 3.2-4.4 0-17.8-3-17.8-13.4 0-2.9 1.5-5.6 3.4-8-1.7 2.5-3 5-3 8 0 8.9 10.7 12.4 16.3 12.4 5.2 0 9.5-1.7 12.9-3.4-2.2-3-3.8-7-3.8-12.1 0-22.3 17-32.5 24.8-43.6-.3-1.6-.5-3.5-.5-5.9 0-2.8.4-8.4 3.7-8.4 1.6 0 2.2 2.2 2.2 4.2 0 3-1.2 5.9-3 8.6 3 5 8.9 8.5 8.9 17 0 5.4-3.9 11.9-9.3 15.5 7-2.5 12.1-8.6 16-18.5l.9.5c-5.3 13.6-14.2 20.6-24.4 20.6h-.9c-5.9 0-8.5-3.9-8.5-8.5 0-3.8 3.2-11.2 6.7-11.2 1.1 0 1.5 1.6 1.5 2.9 0 3.5-2.8 8.1-6.5 9.2.3 3.4 3 6.4 5.8 6.4 6.5 0 11.6-8.9 11.6-17.9 0-6-2.5-8.5-3.9-13.4-8.5 10.4-25 21.1-25 42.3 0 4.6 1.6 8.6 4.2 11.8l2.1-1c4.3-2.2 9.9-6.8 16.8-11.3 5.8-3.7 13-7.3 21.2-7.3 1.6 0 3.5.3 5.3.9-1.6-.4-3.4-.6-5-.6-8.4 0-15.6 3.8-21.1 7.6-6.8 4.8-12.2 9.8-16.6 12l-1.9 1c1.6 1.6 3.3 2.9 5.3 4.1 4.3-2.9 8.5-6.4 12.6-9.8 5-4.1 11.7-9.2 20.2-9.2 4.3 0 6.4 2.6 6.4 5.7zm-37.8 14c3.4 1.6 7.2 2.5 11.2 2.5 11.6 0 26.4-9 26.4-16.5 0-2.9-2.4-5.4-6-5.4-8.5 0-14.7 5.3-19.7 9.7-3.6 3.3-7.6 6.6-11.9 9.7zm14.6-64c1.4-2.4 2.2-5 2.2-7.8 0-1.1-.3-2.2-.9-2.2-1.7 0-2.3 3.4-2.3 5.1-.1 1.9.4 3.5 1 4.9zm-254.9-45l-.1.2c0-.3 12 9 12 30.8 0 20.6-12.3 40.1-32.1 47.6-9.1 3.5-16 3.5-16 3.9 0 0 .2.1.7.1 3.3 0 32.5-1.4 44.4-29.9 3-7.4 4.4-14.7 4.4-21.7-.1-19.4-9.3-27.7-13.3-31M71 44.2c-.5-.2-7.7-8.3-23.8-8.3-4.6 0-10 1-15.3 2.9-.5.2-.7.3-1.4.5-12.2 5.1-23.8 16.1-23.8 36 0 2.3.1 4.4.4 6.2.1.5.2.8.2 1.1 3.6 17.1 19.6 22.1 23.6 22.1.4 0 .7-.1.7-.1 0-.3-8.6-.1-16.1-8.7-3-3.4-5.7-8.1-6.9-13.6-.1-.4-.1-.6-.2-1-.3-1.8-.5-3.8-.5-5.8 0-18.6 11.4-29.9 23.7-35.2 0 0 1.2-.5 1.3-.5C38 38 43.2 37 47.8 37c14.5 0 22.7 7.2 23.2 7.2"/><path fill="#fff" d="M102 39v-.4c-7.6 0-13.2 2.8-17.4 7.3l-2.1-1.6c4.6-4.8 10.2-7.2 18.8-8.7v-.9c-7.3.7-14.3 3.7-20.7 8.2-9.1-6.9-20.7-10.4-32.8-10.4-6.6 0-13.2 1.4-19.3 3.9-.6.2-.8.3-1.4.5C12.2 43.6.9 57.2.9 74.4c0 2.6.3 5.2.9 7.7.1.4.1.7.2 1.1 3.5 13.9 15 25.1 29.4 25.1v-.9c-14.1 0-23.4-10.6-26-24.5-.1-.3-.2-.7-.2-1-.4-2.4-.5-5-.5-7.6 0-16 9.9-29.7 24.1-36.4.2-.1 1-.4 1.3-.5 5.4-2.4 11.5-3.7 17.8-3.7 11 0 21.6 4 29.3 11.6C65.2 54.9 55.8 69 51 80.9c-7.5 18.7-13.6 32.8-22.3 40.8-4-1.4-8.6-2.6-14.6-2.6-6.9 0-14.1 2.7-14.1 7.1 0 4.4 5.4 4.5 8.7 4.5 6.1 0 12.7-2.5 19.4-6.6l4.1 1.4c-2.3 1.4-4.6 2.6-6.7 3.4-7 2.6-10.9 3.7-20.2 3.7v.2c.5.1 1.7.1 2.6.1 3.4 0 9.9-.2 18.1-3.2 2.5-.9 5.1-2.2 7.6-3.8 4.7 1.6 9.4 2.9 15 2.9 26.9 0 50.5-20.9 50.5-49.5 0-13.5-5.2-24.4-13.5-32.3 4.3-4.7 9.5-7.4 16.4-8M8.3 129.4c-2.7 0-6.2-.5-6.2-3.5 0-3.2 6.6-4.9 11.3-4.9 4.9 0 9.1 1.1 13.3 2.4-5 4-11 6-18.4 6m22.2-7C45 112.2 58.9 94.6 65.3 78.3c5.6-14.4 9.5-23.9 14.1-30.4l1.7 2.2c-7.5 11-11.5 28.1-20.4 43.5-7.3 12.7-17 23.7-26.4 30.3-1.1-.6-2.4-1.1-3.8-1.5m59.1-45.3c0 22.2-13.6 50.4-40.4 50.4-5.2 0-9.4-1.3-13.5-3 15.6-11 30.1-33.5 38.2-55.8 2.5-7.1 5.1-12.8 8.2-17.4 4.6 6.8 7.5 15.4 7.5 25.8"/></svg>