<?xml version="1.0" encoding="UTF-8"?>
<svg width="906px" height="608px" viewBox="0 0 906 608" version="1.1" xmlns="http://www.w3.org/2000/svg" xmlns:xlink="http://www.w3.org/1999/xlink">
    <!-- Generator: Sketch 39.1 (31720) - http://www.bohemiancoding.com/sketch -->
    <title>illustration_default</title>
    <desc>Created with Sketch.</desc>
    <defs>
        <linearGradient x1="36.1043306%" y1="30.8721976%" x2="56.590437%" y2="60.5562218%" id="linearGradient-1">
            <stop stop-color="#313D43" stop-opacity="0.11645154" offset="0%"></stop>
            <stop stop-color="#313D43" stop-opacity="0" offset="100%"></stop>
        </linearGradient>
        <rect id="path-2" x="17" y="18" width="433" height="244" rx="3"></rect>
        <mask id="mask-3" maskContentUnits="userSpaceOnUse" maskUnits="objectBoundingBox" x="0" y="0" width="433" height="244" fill="white">
            <use xlink:href="#path-2"></use>
        </mask>
        <linearGradient x1="25.1653031%" y1="17.8674798%" x2="75.9440026%" y2="77.3124142%" id="linearGradient-4">
            <stop stop-color="#313D43" stop-opacity="0.1" offset="0%"></stop>
            <stop stop-color="#313D43" stop-opacity="0" offset="100%"></stop>
        </linearGradient>
        <rect id="path-5" x="7" y="15.8148148" width="74" height="130" rx="1.5"></rect>
        <mask id="mask-6" maskContentUnits="userSpaceOnUse" maskUnits="objectBoundingBox" x="0" y="0" width="74" height="130" fill="white">
            <use xlink:href="#path-5"></use>
        </mask>
        <linearGradient x1="32.5790989%" y1="19.8919719%" x2="75.9440026%" y2="77.3124142%" id="linearGradient-7">
            <stop stop-color="#313D43" stop-opacity="0.1" offset="0%"></stop>
            <stop stop-color="#313D43" stop-opacity="0" offset="100%"></stop>
        </linearGradient>
        <rect id="path-8" x="186.287671" y="10.1339506" width="180" height="132" rx="1.5"></rect>
        <mask id="mask-9" maskContentUnits="userSpaceOnUse" maskUnits="objectBoundingBox" x="0" y="0" width="180" height="132" fill="white">
            <use xlink:href="#path-8"></use>
        </mask>
    </defs>
    <g id="15_Страницы-ошибок" stroke="none" stroke-width="1" fill="none" fill-rule="evenodd">
        <g id="illustration_default">
            <path d="M64,400 L20,400 C15.0294373,400 11,395.970563 11,391 C11,386.029437 15.0294373,382 20,382 L64,382 L335,382 L335,381.990183 C341.671767,381.727731 347,376.236103 347,369.5 C347,362.763897 341.671767,357.272269 335,357.009817 L335,357 L108,357 L104,357 L99.9999886,357 C88.954305,357 80,348.045695 80,337 C80,325.954305 88.954305,317 100,317 L145,317 L145,302 L87.5,302 L67,302 C66.8336895,301.998511 66.6670186,302 66.5,302 C51.3121694,302 39,289.687831 39,274.5 C39,259.312169 51.3121694,247 66.5,247 C66.6670186,247 66.8336895,247.001489 67,247.004454 L67,247 L74,247 C85.045695,247 94,238.045695 94,227 C94,215.954305 85.045695,207 74,207 L70.5,207 L87.5,207 L20,207 C8.954305,207 0,198.045695 0,187 C0,175.954305 8.954305,167 20,167 L64,167 L178,167 C197.329966,167 213,151.329966 213,132 C213,112.670034 197.329966,97 178,97 L107.999982,97 C88.6700338,97 73,81.3299662 73,62 C73,42.6700338 88.6700338,27 108,27 L805,27 C824.329966,27 840,42.6700338 840,62 C840,81.3299662 824.329966,97 805,97 L763,97 L763,97.0987505 C752.893355,98.1021993 745,106.629304 745,117 C745,127.370696 752.893355,135.897801 763,136.90125 L763,137 L845.5,137 L886,137 C897.045695,137 906,145.954305 906,157 C906,168.045695 897.045695,177 886,177 L845.5,177 L755,177 C735.670034,177 720,192.670034 720,212 C720,231.329966 735.670034,247 755,247 L843.106264,247 C858.527554,250.868273 870,265.460433 870,282 C870,301.329957 854.329981,316.999985 835.000027,317 C807.245015,317 778.913197,317 777.5,317 C770.596441,317 765,322.596441 765,329.5 C765,336.403559 770.596441,342 777.5,342 L805,342 C812.731986,342 819,348.268014 819,356 C819,363.731986 812.731986,370 805,370 L597,370 C585.954305,370 577,378.954305 577,390 C577,401.045695 585.954305,410 597,410 L701,410 L303.938987,410 C303.979191,409.671666 304,409.338009 304,409 C304,404.029437 299.970563,400 295,400 L64,400 Z M248,418 C239.163444,418 232,425.163444 232,434 C232,442.836556 239.163444,450 248,450 L693,450 L693,449.90125 C703.106645,448.897801 711,440.370696 711,430 C711,419.629304 703.106645,411.102199 693,410.09875 L693,410 L303.938987,410 C303.38798,414.49995 299.19399,418 295,418 L248,418 Z" id="BG" fill="#B9B9B9"></path>
            <g id="mac" transform="translate(235.000000, 0.000000)">
                <path d="M2.17089844,315.552469 L182.944336,607.10571 L646.681641,289.263272 L460.699219,0.78287037 L2.17089844,315.552469 Z" id="Path-6" fill="url(#linearGradient-1)"></path>
                <rect id="Rectangle" fill="#16272F" x="0" y="0" width="468" height="322" rx="15"></rect>
                <rect id="Rectangle-2" fill="#F9FAFC" x="0" y="279" width="468" height="45"></rect>
                <ellipse id="Oval" fill="#16272F" cx="234" cy="301.748148" rx="10.5" ry="10.508642"></ellipse>
                <polygon id="Path-2" fill="#F9FAFC" points="186.196644 322.267013 172.5 369.264198 295.5 369.264198 281.099532 321.264198"></polygon>
                <rect id="Rectangle-3" fill="#FAFAFC" x="156" y="368" width="155" height="10" rx="5"></rect>
                <use id="Rectangle-4" stroke="#758086" mask="url(#mask-3)" stroke-width="4" fill="#FFFFFF" xlink:href="#path-2"></use>
                <polygon id="Path-5" fill="#E9EDF0" points="186.407227 323.911883 215.12439 368.026123 295.111206 368.026123 282.166992 323.140741"></polygon>
                <g id="text" transform="translate(66.000000, 69.000000)">
                    <rect id="Rectangle-13" fill="#E7E7E7" x="0" y="0" width="147" height="28"></rect>
                    <rect id="Rectangle-14" fill="#D3D3D3" x="0" y="49" width="147" height="7"></rect>
                    <rect id="Rectangle-14-Copy" fill="#D3D3D3" x="0" y="66" width="147" height="7"></rect>
                    <rect id="Rectangle-14-Copy-2" fill="#D3D3D3" x="0" y="83" width="147" height="7"></rect>
                    <rect id="Rectangle-14-Copy-3" fill="#D3D3D3" x="0" y="100" width="110" height="7"></rect>
                    <rect id="Rectangle-14-Copy-4" fill="#D3D3D3" x="0" y="136" width="147" height="7"></rect>
                </g>
                <path d="M342.982246,141.466507 L362.168834,122.279919 C365.352734,119.096019 365.355128,113.937853 362.175144,110.75787 C359.001631,107.584357 353.836564,107.580711 350.653095,110.76418 L331.466507,129.950768 L312.279919,110.76418 C309.096019,107.58028 303.937853,107.577886 300.75787,110.75787 C297.584357,113.931382 297.580711,119.09645 300.76418,122.279919 L319.950768,141.466507 L300.76418,160.653095 C297.58028,163.836995 297.577886,168.995161 300.75787,172.175144 C303.931382,175.348657 309.09645,175.352303 312.279919,172.168834 L331.466507,152.982246 L350.653095,172.168834 C353.836995,175.352734 358.995161,175.355128 362.175144,172.175144 C365.348657,169.001631 365.352303,163.836564 362.168834,160.653095 L342.982246,141.466507 Z M331.5,212 C370.98836,212 403,179.98836 403,140.5 C403,101.01164 370.98836,69 331.5,69 C292.01164,69 260,101.01164 260,140.5 C260,179.98836 292.01164,212 331.5,212 Z" id="Combined-Shape" fill="#D9D9D9"></path>
            </g>
            <g id="phone" transform="translate(655.000000, 225.185185)">
                <polygon id="Path-8" fill="url(#linearGradient-4)" points="1.28320312 165.121142 77.4506836 284.488349 210.416016 191.757793 85.9248047 0.328395062"></polygon>
                <rect id="Rectangle-5" fill="#313D43" x="0" y="0" width="88.5" height="168.138272" rx="6"></rect>
                <use id="Rectangle-6" stroke="#758086" mask="url(#mask-6)" stroke-width="2" fill="#FFFFFF" xlink:href="#path-5"></use>
                <ellipse id="Oval-2" fill="#9E9FA3" cx="43.625" cy="156.417094" rx="6.75" ry="6.75555556"></ellipse>
                <rect id="Rectangle-7" fill="#4C565B" x="31.34375" y="7.39069326" width="25.8125" height="3.69534663" rx="1.84767331"></rect>
                <g id="text-copy" transform="translate(15.000000, 86.814815)">
                    <rect id="Rectangle-13" fill="#E7E7E7" x="0" y="0" width="58" height="9.59440559"></rect>
                    <rect id="Rectangle-14" fill="#D3D3D3" x="0" y="16.7902098" width="58" height="2.3986014"></rect>
                    <rect id="Rectangle-14-Copy" fill="#D3D3D3" x="0" y="22.6153846" width="58" height="2.3986014"></rect>
                    <rect id="Rectangle-14-Copy-2" fill="#D3D3D3" x="0" y="28.4405594" width="58" height="2.3986014"></rect>
                    <rect id="Rectangle-14-Copy-3" fill="#D3D3D3" x="0" y="34.2657343" width="37.414966" height="2.3986014"></rect>
                    <rect id="Rectangle-14-Copy-4" fill="#D3D3D3" x="0" y="46.6013986" width="58" height="2.3986014"></rect>
                </g>
                <path d="M48.6571347,52.2068246 L56.4447027,44.4192566 C57.7383679,43.1255913 57.7314504,41.0413566 56.4416669,39.7515731 C55.1545078,38.464414 53.0620903,38.4604304 51.7739834,39.7485373 L43.9864154,47.5361053 L36.1988474,39.7485373 C34.9051821,38.454872 32.8209474,38.4617896 31.5311639,39.7515731 C30.2440048,41.0387321 30.2400212,43.1311497 31.5281281,44.4192566 L39.3156961,52.2068246 L31.5281281,59.9943926 C30.2344628,61.2880578 30.2413803,63.3722926 31.5311639,64.6620761 C32.8183229,65.9492352 34.9107405,65.9532188 36.1988474,64.6651119 L43.9864154,56.8775439 L51.7739834,64.6651119 C53.0676486,65.9587772 55.1518834,65.9518596 56.4416669,64.6620761 C57.728826,63.374917 57.7328096,61.2824995 56.4447027,59.9943926 L48.6571347,52.2068246 Z M44,80.8148148 C60.0162577,80.8148148 73,67.8310726 73,51.8148148 C73,35.7985571 60.0162577,22.8148148 44,22.8148148 C27.9837423,22.8148148 15,35.7985571 15,51.8148148 C15,67.8310726 27.9837423,80.8148148 44,80.8148148 Z" id="Combined-Shape-Copy" fill="#D9D9D9"></path>
            </g>
            <g id="tablet" transform="translate(285.866049, 347.787654) rotate(-90.000000) translate(-285.866049, -347.787654) translate(87.366049, 185.787654)">
                <polygon id="Path-7" fill="url(#linearGradient-7)" transform="translate(197.363731, 162.027229) scale(-1, -1) rotate(-90.000000) translate(-197.363731, -162.027229) " points="36.0111919 193.022445 140.721153 358.932322 358.71627 240.702769 180.484336 -34.8778634 36.0111919 -17.2706103"></polygon>
                <rect id="Rectangle-8" fill="#303D43" x="153.287654" y="1.13395062" width="243" height="148" rx="15"></rect>
                <rect id="Rectangle-10" fill="#4C565B" x="382.684932" y="59.8026044" width="3.32876712" height="24.9863014" rx="1.66438356"></rect>
                <use id="Rectangle-9" stroke="#758086" mask="url(#mask-9)" stroke-width="2" fill="#FCFCFC" xlink:href="#path-8"></use>
                <ellipse id="Oval-3" fill="#9E9FA3" cx="169.140411" cy="75.627262" rx="9.15410959" ry="9.16164384"></ellipse>
                <ellipse id="Oval-4" fill="#4C565B" cx="384.349315" cy="88.1204127" rx="1.66438356" ry="1.66575342"></ellipse>
                <g id="text-copy-2" transform="translate(232.000000, 76.133951) scale(-1, -1) rotate(-90.000000) translate(-232.000000, -76.133951) translate(176.000000, 44.133951)">
                    <rect id="Rectangle-13" fill="#E7E7E7" x="0" y="0" width="112" height="16.6433566"></rect>
                    <rect id="Rectangle-14" fill="#D3D3D3" x="0" y="29.1258741" width="112" height="4.16083916"></rect>
                    <rect id="Rectangle-14-Copy" fill="#D3D3D3" x="0" y="39.2307692" width="112" height="4.16083916"></rect>
                    <rect id="Rectangle-14-Copy-2" fill="#D3D3D3" x="0" y="49.3356643" width="112" height="4.16083916"></rect>
                    <rect id="Rectangle-14-Copy-3" fill="#D3D3D3" x="0" y="59.4405594" width="83.8095238" height="4.16083916"></rect>
                </g>
                <path d="M321.423634,76.5407031 L332.165107,65.79923 C333.938592,64.0257448 333.939932,61.1400576 332.16092,59.3610459 C330.385528,57.585654 327.499435,57.5801594 325.722736,59.3568586 L314.981263,70.0983317 L304.239789,59.3568586 C302.466304,57.5833733 299.580617,57.5820341 297.801605,59.3610459 C296.026213,61.1364377 296.020719,64.0225309 297.797418,65.79923 L308.538891,76.5407031 L297.797418,87.2821762 C296.023933,89.0556615 296.022594,91.9413486 297.801605,93.7203604 C299.576997,95.4957522 302.46309,95.5012469 304.239789,93.7245477 L314.981263,82.9830746 L325.722736,93.7245477 C327.496221,95.498033 330.381908,95.4993722 332.16092,93.7203604 C333.936312,91.9449686 333.941806,89.0588754 332.165107,87.2821762 L321.423634,76.5407031 Z M315,116 C337.09139,116 355,98.09139 355,76 C355,53.90861 337.09139,36 315,36 C292.90861,36 275,53.90861 275,76 C275,98.09139 292.90861,116 315,116 Z" id="Combined-Shape-Copy-2" fill="#D9D9D9"></path>
            </g>
        </g>
    </g>
</svg>