<?xml version="1.0" encoding="UTF-8"?>
<svg width="906px" height="608px" viewBox="0 0 906 608" version="1.1" xmlns="http://www.w3.org/2000/svg" xmlns:xlink="http://www.w3.org/1999/xlink">
    <!-- Generator: Sketch 39.1 (31720) - http://www.bohemiancoding.com/sketch -->
    <title>illustration_500</title>
    <desc>Created with Sketch.</desc>
    <defs>
        <linearGradient x1="36.1043306%" y1="30.8721976%" x2="56.590437%" y2="60.5562218%" id="linearGradient-1">
            <stop stop-color="#313D43" stop-opacity="0.11645154" offset="0%"></stop>
            <stop stop-color="#313D43" stop-opacity="0" offset="100%"></stop>
        </linearGradient>
        <rect id="path-2" x="17" y="18" width="433" height="244" rx="3"></rect>
        <mask id="mask-3" maskContentUnits="userSpaceOnUse" maskUnits="objectBoundingBox" x="0" y="0" width="433" height="244" fill="white">
            <use xlink:href="#path-2"></use>
        </mask>
        <linearGradient x1="25.1653031%" y1="17.8674798%" x2="75.9440026%" y2="77.3124142%" id="linearGradient-4">
            <stop stop-color="#313D43" stop-opacity="0.1" offset="0%"></stop>
            <stop stop-color="#313D43" stop-opacity="0" offset="100%"></stop>
        </linearGradient>
        <rect id="path-5" x="7" y="15.8148148" width="74" height="130" rx="1.5"></rect>
        <mask id="mask-6" maskContentUnits="userSpaceOnUse" maskUnits="objectBoundingBox" x="0" y="0" width="74" height="130" fill="white">
            <use xlink:href="#path-5"></use>
        </mask>
        <linearGradient x1="32.5790989%" y1="19.8919719%" x2="75.9440026%" y2="77.3124142%" id="linearGradient-7">
            <stop stop-color="#313D43" stop-opacity="0.1" offset="0%"></stop>
            <stop stop-color="#313D43" stop-opacity="0" offset="100%"></stop>
        </linearGradient>
        <rect id="path-8" x="186.287671" y="10.1339506" width="180" height="132" rx="1.5"></rect>
        <mask id="mask-9" maskContentUnits="userSpaceOnUse" maskUnits="objectBoundingBox" x="0" y="0" width="180" height="132" fill="white">
            <use xlink:href="#path-8"></use>
        </mask>
    </defs>
    <g id="15_Страницы-ошибок" stroke="none" stroke-width="1" fill="none" fill-rule="evenodd">
        <g id="illustration_500">
            <path d="M64,400 L20,400 C15.0294373,400 11,395.970563 11,391 C11,386.029437 15.0294373,382 20,382 L64,382 L335,382 L335,381.990183 C341.671767,381.727731 347,376.236103 347,369.5 C347,362.763897 341.671767,357.272269 335,357.009817 L335,357 L108,357 L104,357 L99.9999886,357 C88.954305,357 80,348.045695 80,337 C80,325.954305 88.954305,317 100,317 L145,317 L145,302 L87.5,302 L67,302 C66.8336895,301.998511 66.6670186,302 66.5,302 C51.3121694,302 39,289.687831 39,274.5 C39,259.312169 51.3121694,247 66.5,247 C66.6670186,247 66.8336895,247.001489 67,247.004454 L67,247 L74,247 C85.045695,247 94,238.045695 94,227 C94,215.954305 85.045695,207 74,207 L70.5,207 L87.5,207 L20,207 C8.954305,207 0,198.045695 0,187 C0,175.954305 8.954305,167 20,167 L64,167 L178,167 C197.329966,167 213,151.329966 213,132 C213,112.670034 197.329966,97 178,97 L107.999982,97 C88.6700338,97 73,81.3299662 73,62 C73,42.6700338 88.6700338,27 108,27 L805,27 C824.329966,27 840,42.6700338 840,62 C840,81.3299662 824.329966,97 805,97 L763,97 L763,97.0987505 C752.893355,98.1021993 745,106.629304 745,117 C745,127.370696 752.893355,135.897801 763,136.90125 L763,137 L845.5,137 L886,137 C897.045695,137 906,145.954305 906,157 C906,168.045695 897.045695,177 886,177 L845.5,177 L755,177 C735.670034,177 720,192.670034 720,212 C720,231.329966 735.670034,247 755,247 L843.106264,247 C858.527554,250.868273 870,265.460433 870,282 C870,301.329957 854.329981,316.999985 835.000027,317 C807.245015,317 778.913197,317 777.5,317 C770.596441,317 765,322.596441 765,329.5 C765,336.403559 770.596441,342 777.5,342 L805,342 C812.731986,342 819,348.268014 819,356 C819,363.731986 812.731986,370 805,370 L597,370 C585.954305,370 577,378.954305 577,390 C577,401.045695 585.954305,410 597,410 L701,410 L303.938987,410 C303.979191,409.671666 304,409.338009 304,409 C304,404.029437 299.970563,400 295,400 L64,400 Z M248,418 C239.163444,418 232,425.163444 232,434 C232,442.836556 239.163444,450 248,450 L693,450 L693,449.90125 C703.106645,448.897801 711,440.370696 711,430 C711,419.629304 703.106645,411.102199 693,410.09875 L693,410 L303.938987,410 C303.38798,414.49995 299.19399,418 295,418 L248,418 Z" id="BG" fill="#B9B9B9"></path>
            <g id="mac" transform="translate(235.000000, 0.000000)">
                <path d="M2.17089844,315.552469 L182.944336,607.10571 L646.681641,289.263272 L460.699219,0.78287037 L2.17089844,315.552469 Z" id="Path-6" fill="url(#linearGradient-1)"></path>
                <rect id="Rectangle" fill="#16272F" x="0" y="0" width="468" height="322" rx="15"></rect>
                <rect id="Rectangle-2" fill="#F9FAFC" x="0" y="279" width="468" height="45"></rect>
                <ellipse id="Oval" fill="#16272F" cx="234" cy="301.748148" rx="10.5" ry="10.508642"></ellipse>
                <polygon id="Path-2" fill="#F9FAFC" points="186.196644 322.267013 172.5 369.264198 295.5 369.264198 281.099532 321.264198"></polygon>
                <rect id="Rectangle-3" fill="#FAFAFC" x="156" y="368" width="155" height="10" rx="5"></rect>
                <use id="Rectangle-4" stroke="#758086" mask="url(#mask-3)" stroke-width="4" fill="#FFFFFF" xlink:href="#path-2"></use>
                <polygon id="Path-5" fill="#E9EDF0" points="186.407227 323.911883 215.12439 368.026123 295.111206 368.026123 282.166992 323.140741"></polygon>
                <g id="text" transform="translate(66.000000, 69.000000)">
                    <rect id="Rectangle-13" fill="#E7E7E7" x="0" y="0" width="147" height="28"></rect>
                    <rect id="Rectangle-14" fill="#D3D3D3" x="0" y="49" width="147" height="7"></rect>
                    <rect id="Rectangle-14-Copy" fill="#D3D3D3" x="0" y="66" width="147" height="7"></rect>
                    <rect id="Rectangle-14-Copy-2" fill="#D3D3D3" x="0" y="83" width="147" height="7"></rect>
                    <rect id="Rectangle-14-Copy-3" fill="#D3D3D3" x="0" y="100" width="110" height="7"></rect>
                    <rect id="Rectangle-14-Copy-4" fill="#D3D3D3" x="0" y="136" width="147" height="7"></rect>
                </g>
                <path d="M374.624232,189.055379 C363.032976,200.636398 344.250692,200.636398 332.659437,189.055379 L315.77876,172.215313 C315.158592,171.578683 315.039648,170.606395 315.48806,169.839042 C315.936472,169.071689 316.841938,168.698027 317.701018,168.925814 C321.663186,170.027837 325.776908,170.484917 329.884345,170.279517 C331.170688,170.222146 332.420774,170.714306 333.322751,171.63322 L341.71571,179.958494 C348.27005,186.508166 358.891785,186.508166 365.446125,179.958494 C368.594826,176.812629 370.363987,172.544218 370.363987,168.093287 C370.363987,163.642356 368.594826,159.373944 365.446125,156.228079 L347.130523,137.871866 C343.984658,134.723164 339.716246,132.954004 335.265315,132.954004 C330.814384,132.954004 326.545973,134.723164 323.400108,137.871866 C322.882846,138.345088 322.089871,138.345088 321.572609,137.871866 L314.289686,130.575406 C313.816464,130.058144 313.816464,129.265169 314.289686,128.747907 C325.880942,117.166888 344.663226,117.166888 356.254481,128.747907 L374.624232,147.090584 C386.205251,158.681839 386.205251,177.464123 374.624232,189.055379 Z M321.315405,101.998735 L329.721901,110.405231 C330.623879,111.324145 331.873965,111.816305 333.160307,111.758934 C337.267744,111.553534 341.381467,112.010614 345.343635,113.112637 C346.202714,113.340424 347.10818,112.966762 347.556592,112.199409 C348.005005,111.432056 347.88606,110.459768 347.265893,109.823138 L330.439364,92.9424611 C318.848108,81.3614418 300.065824,81.3614418 288.474569,92.9424611 C276.893549,104.533717 276.893549,123.316 288.474569,134.907256 L306.817245,153.222859 C318.408501,164.803878 337.190785,164.803878 348.78204,153.222859 C349.255263,152.705596 349.255263,151.912622 348.78204,151.39536 L341.485581,144.0989 C340.968319,143.625677 340.175344,143.625677 339.658082,144.0989 C336.512217,147.247601 332.243805,149.016762 327.792874,149.016762 C323.341943,149.016762 319.073532,147.247601 315.927667,144.0989 L297.58499,125.729149 C294.436289,122.583284 292.667128,118.314873 292.667128,113.863942 C292.667128,109.413011 294.436289,105.1446 297.58499,101.998735 C304.13933,95.4490626 314.761065,95.4490626 321.315405,101.998735 Z M374.746065,111.596489 L385.494467,103.041086 C387.431797,101.315823 387.683458,98.377454 386.067718,96.3478829 C384.451978,94.3183117 381.53197,93.9049057 379.416341,95.4062007 L368.667938,103.961604 C366.730609,105.686867 366.478948,108.625236 368.094688,110.654807 C369.710428,112.684378 372.630435,113.097784 374.746065,111.596489 Z M390.015836,117.309116 L376.478805,119.854078 C374.603267,119.986207 372.969857,121.182623 372.278117,122.930935 C371.586377,124.679248 371.958996,126.669372 373.236392,128.048996 C374.513788,129.428619 376.469399,129.953048 378.265693,129.397685 L391.802724,126.852723 C393.678262,126.720594 395.311672,125.524178 396.003412,123.775866 C396.695152,122.027553 396.322533,120.037429 395.045137,118.657805 C393.767741,117.278182 391.81213,116.753753 390.015836,117.309116 Z M357.608184,83.9267986 L352.11215,96.5162372 C351.158982,98.9594259 352.304228,101.719399 354.707135,102.769989 C357.110042,103.820579 359.913813,102.787181 361.060127,100.428439 L366.556162,87.8390005 C367.63413,85.3680394 366.507491,82.4908691 364.038274,81.4089109 C361.567313,80.3309426 358.690142,81.4575819 357.608184,83.9267986 Z M285.293366,160.790059 C287.168905,160.65793 288.802315,159.461514 289.494055,157.713201 C290.185795,155.964889 289.813176,153.974765 288.53578,152.595141 C287.258383,151.215518 285.302773,150.691089 283.506478,151.246452 L269.969448,153.791414 C267.326002,154.29715 265.589054,156.845076 266.08432,159.490504 C266.609421,162.104889 269.133412,163.815661 271.756336,163.335021 L285.293366,160.790059 Z M297.733898,199.235226 C300.204859,200.313194 303.082029,199.186555 304.163987,196.717338 L309.660022,184.1279 C310.61319,181.684711 309.467943,178.924738 307.065036,177.874148 C304.662129,176.823558 301.858359,177.856956 300.712044,180.215698 L295.21601,192.805136 C294.138042,195.276097 295.264681,198.153268 297.733898,199.235226 Z M276.534908,177.345847 C274.515726,179.050521 274.217409,182.051514 275.861483,184.120337 C277.505556,186.18916 280.496388,186.576299 282.613034,184.99427 L293.361437,176.438866 C295.484705,174.7567 295.842288,171.671786 294.160122,169.548518 C292.477955,167.42525 289.393041,167.067666 287.269773,168.749833 L276.534908,177.345847 Z" id="Shape" fill="#57068C"></path>
            </g>
            <g id="phone" transform="translate(655.000000, 225.185185)">
                <polygon id="Path-8" fill="url(#linearGradient-4)" points="1.28320312 165.121142 77.4506836 284.488349 210.416016 191.757793 85.9248047 0.328395062"></polygon>
                <rect id="Rectangle-5" fill="#313D43" x="0" y="0" width="88.5" height="168.138272" rx="6"></rect>
                <use id="Rectangle-6" stroke="#758086" mask="url(#mask-6)" stroke-width="2" fill="#FFFFFF" xlink:href="#path-5"></use>
                <ellipse id="Oval-2" fill="#9E9FA3" cx="43.625" cy="156.417094" rx="6.75" ry="6.75555556"></ellipse>
                <rect id="Rectangle-7" fill="#4C565B" x="31.34375" y="7.39069326" width="25.8125" height="3.69534663" rx="1.84767331"></rect>
                <g id="text-copy" transform="translate(15.000000, 86.814815)">
                    <rect id="Rectangle-13" fill="#E7E7E7" x="0" y="0" width="58" height="9.59440559"></rect>
                    <rect id="Rectangle-14" fill="#D3D3D3" x="0" y="16.7902098" width="58" height="2.3986014"></rect>
                    <rect id="Rectangle-14-Copy" fill="#D3D3D3" x="0" y="22.6153846" width="58" height="2.3986014"></rect>
                    <rect id="Rectangle-14-Copy-2" fill="#D3D3D3" x="0" y="28.4405594" width="58" height="2.3986014"></rect>
                    <rect id="Rectangle-14-Copy-3" fill="#D3D3D3" x="0" y="34.2657343" width="37.414966" height="2.3986014"></rect>
                    <rect id="Rectangle-14-Copy-4" fill="#D3D3D3" x="0" y="46.6013986" width="58" height="2.3986014"></rect>
                </g>
                <path d="M62.6928748,72.2631642 C57.7102936,77.2413452 49.6365995,77.2413452 44.6540184,72.2631642 L37.3977429,65.0243457 C37.1311596,64.7506862 37.0800306,64.3327415 37.2727837,64.0028894 C37.4655368,63.6730373 37.8547576,63.5124164 38.2240389,63.6103321 C39.9272041,64.0840441 41.6955161,64.2805232 43.4611262,64.1922307 C44.0140692,64.1675693 44.5514274,64.3791276 44.9391487,64.7741293 L48.54692,68.3528056 C51.3643482,71.1682273 55.930174,71.1682273 58.7476023,68.3528056 C60.1010933,67.0005339 60.8615792,65.1657279 60.8615792,63.2524645 C60.8615792,61.3392011 60.1010933,59.504395 58.7476023,58.1521233 L50.8745143,50.2615784 C49.5222426,48.9080873 47.6874366,48.1476014 45.7741732,48.1476014 C43.8609098,48.1476014 42.0261037,48.9080873 40.673832,50.2615784 C40.4514832,50.4649964 40.1106176,50.4649964 39.8882689,50.2615784 L36.7576544,47.1251449 C36.5542365,46.9027962 36.5542365,46.5619306 36.7576544,46.3395818 C41.7402356,41.3614009 49.8139297,41.3614009 54.7965109,46.3395818 L62.6928748,54.2243078 C67.6710557,59.2068889 67.6710557,67.280583 62.6928748,72.2631642 Z M39.7777081,34.8412656 L43.3912984,38.4548559 C43.7790197,38.8498576 44.3163778,39.0614159 44.8693208,39.0367545 C46.634931,38.948462 48.403243,39.1449411 50.1064082,39.6186531 C50.4756895,39.7165688 50.8649103,39.5559479 51.0576634,39.2260958 C51.2504165,38.8962436 51.1992875,38.478299 50.9327042,38.2046395 L43.6997047,30.948364 C38.7171235,25.9701831 30.6434294,25.9701831 25.6608483,30.948364 C20.6826673,35.9309452 20.6826673,44.0046393 25.6608483,48.9872204 L33.5455742,56.8603084 C38.5281554,61.8384894 46.6018495,61.8384894 51.5844306,56.8603084 C51.7878486,56.6379597 51.7878486,56.2970941 51.5844306,56.0747453 L48.4479972,52.9383119 C48.2256485,52.7348939 47.8847828,52.7348939 47.6624341,52.9383119 C46.3101623,54.2918029 44.4753563,55.0522888 42.5620929,55.0522888 C40.6488295,55.0522888 38.8140235,54.2918029 37.4617517,52.9383119 L29.5770258,45.041948 C28.2235348,43.6896762 27.4630489,41.8548702 27.4630489,39.9416068 C27.4630489,38.0283434 28.2235348,36.1935374 29.5770258,34.8412656 C32.3944541,32.025844 36.9602799,32.025844 39.7777081,34.8412656 Z M62.7452457,38.9669266 L67.3655205,35.2893275 C68.1982948,34.5477115 68.3064732,33.2846332 67.6119361,32.4122081 C66.9173991,31.5397829 65.6622138,31.3620775 64.7527958,32.0074195 L60.132521,35.6850186 C59.2997467,36.4266346 59.1915683,37.6897129 59.8861053,38.5621381 C60.5806424,39.4345632 61.8358277,39.6122686 62.7452457,38.9669266 Z M69.3090618,41.4225387 L63.4900759,42.5165081 C62.6838628,42.5733046 61.9817303,43.0875921 61.6843811,43.8391164 C61.3870319,44.5906407 61.5472047,45.4461092 62.0963023,46.0391499 C62.6453998,46.6321905 63.4860325,46.8576199 64.258182,46.6188932 L70.0771679,45.5249238 C70.883381,45.4681273 71.5855135,44.9538398 71.8828627,44.2023155 C72.1802119,43.4507912 72.0200391,42.5953227 71.4709415,42.002282 C70.921844,41.4092414 70.0812113,41.183812 69.3090618,41.4225387 Z M55.3784095,27.0729194 L53.0159012,32.4845763 C52.6061752,33.5347978 53.0984674,34.7211912 54.1313735,35.1727947 C55.1642796,35.6243981 56.3694997,35.1801848 56.8622509,34.1662632 L59.2247592,28.7546063 C59.6881313,27.6924467 59.2038376,26.4556752 58.1424278,25.990588 C57.0802681,25.5272159 55.8434966,26.0115096 55.3784095,27.0729194 Z M24.2933866,60.1131216 C25.0995996,60.0563251 25.8017321,59.5420375 26.0990813,58.7905132 C26.3964305,58.038989 26.2362577,57.1835204 25.6871602,56.5904798 C25.1380626,55.9974391 24.2974299,55.7720098 23.5252804,56.0107365 L17.7062945,57.1047058 C16.5699909,57.3221 15.8233522,58.4173435 16.0362455,59.5544989 C16.261964,60.6783105 17.3469189,61.4136976 18.4744006,61.2070909 L24.2933866,60.1131216 Z M29.6410346,76.6390416 C30.7031943,77.1024137 31.9399658,76.6181201 32.405053,75.5567102 L34.7675613,70.1450533 C35.1772872,69.0948318 34.684995,67.9084384 33.6520889,67.456835 C32.6191828,67.0052315 31.4139627,67.4494448 30.9212115,68.4633664 L28.5587033,73.8750233 C28.0953311,74.937183 28.5796248,76.1739545 29.6410346,76.6390416 Z M20.5285027,67.2297414 C19.6605434,67.9625071 19.5323099,69.2525044 20.2390263,70.1418023 C20.9457427,71.0311003 22.2313723,71.1975144 23.1412273,70.5174684 L27.7615022,66.8398693 C28.6742035,66.1167784 28.8279132,64.7907068 28.1048224,63.8780055 C27.3817315,62.9653041 26.0556599,62.8115944 25.1429585,63.5346853 L20.5285027,67.2297414 Z" id="Shape-Copy" fill="#57068C"></path>
            </g>
            <g id="tablet" transform="translate(285.866049, 347.787654) rotate(-90.000000) translate(-285.866049, -347.787654) translate(87.366049, 185.787654)">
                <polygon id="Path-7" fill="url(#linearGradient-7)" transform="translate(197.363731, 162.027229) scale(-1, -1) rotate(-90.000000) translate(-197.363731, -162.027229) " points="36.0111919 193.022445 140.721153 358.932322 358.71627 240.702769 180.484336 -34.8778634 36.0111919 -17.2706103"></polygon>
                <rect id="Rectangle-8" fill="#303D43" x="153.287654" y="1.13395062" width="243" height="148" rx="15"></rect>
                <rect id="Rectangle-10" fill="#4C565B" x="382.684932" y="59.8026044" width="3.32876712" height="24.9863014" rx="1.66438356"></rect>
                <use id="Rectangle-9" stroke="#758086" mask="url(#mask-9)" stroke-width="2" fill="#FCFCFC" xlink:href="#path-8"></use>
                <ellipse id="Oval-3" fill="#9E9FA3" cx="169.140411" cy="75.627262" rx="9.15410959" ry="9.16164384"></ellipse>
                <ellipse id="Oval-4" fill="#4C565B" cx="384.349315" cy="88.1204127" rx="1.66438356" ry="1.66575342"></ellipse>
                <g id="text-copy-2" transform="translate(232.000000, 76.133951) scale(-1, -1) rotate(-90.000000) translate(-232.000000, -76.133951) translate(176.000000, 44.133951)">
                    <rect id="Rectangle-13" fill="#E7E7E7" x="0" y="0" width="112" height="16.6433566"></rect>
                    <rect id="Rectangle-14" fill="#D3D3D3" x="0" y="29.1258741" width="112" height="4.16083916"></rect>
                    <rect id="Rectangle-14-Copy" fill="#D3D3D3" x="0" y="39.2307692" width="112" height="4.16083916"></rect>
                    <rect id="Rectangle-14-Copy-2" fill="#D3D3D3" x="0" y="49.3356643" width="112" height="4.16083916"></rect>
                    <rect id="Rectangle-14-Copy-3" fill="#D3D3D3" x="0" y="59.4405594" width="83.8095238" height="4.16083916"></rect>
                </g>
                <path d="M344.323606,108.883221 C336.556641,116.643326 323.971177,116.643326 316.204212,108.883221 L304.892959,97.5991802 C304.477403,97.1725934 304.397702,96.5210914 304.69817,96.0069102 C304.998638,95.4927289 305.605365,95.2423493 306.181009,95.3949826 C308.835943,96.133416 311.592429,96.4396922 314.344704,96.3020598 C315.206645,96.263617 316.044291,96.5933991 316.64868,97.209137 L322.272559,102.787662 C326.664432,107.176407 333.781749,107.176407 338.173623,102.787662 C340.283476,100.679709 341.46894,97.8195701 341.46894,94.8371301 C341.46894,91.8546901 340.283476,88.9945513 338.173623,86.8865983 L325.900868,74.5866312 C323.792915,72.4767775 320.932776,71.2913142 317.950336,71.2913142 C314.967896,71.2913142 312.107757,72.4767775 309.999804,74.5866312 C309.653202,74.9037239 309.121852,74.9037239 308.77525,74.5866312 L303.895174,69.6974849 C303.578082,69.3508825 303.578082,68.8195332 303.895174,68.4729307 C311.662139,60.7128251 324.247604,60.7128251 332.014568,68.4729307 L344.323606,80.763827 C352.083712,88.5307918 352.083712,101.116256 344.323606,108.883221 Z M308.602905,50.5490848 L314.235855,56.1820344 C314.840244,56.7977723 315.67789,57.1275544 316.539831,57.0891116 C319.292106,56.9514791 322.048592,57.2577554 324.703526,57.9961888 C325.27917,58.1488221 325.885897,57.8984425 326.186365,57.3842612 C326.486833,56.87008 326.407132,56.218578 325.991576,55.7919912 L314.716606,44.4807382 C306.949641,36.7206326 294.364177,36.7206326 286.597212,44.4807382 C278.837106,52.247703 278.837106,64.8331673 286.597212,72.600132 L298.888108,84.8728868 C306.655073,92.6329924 319.240537,92.6329924 327.007502,84.8728868 C327.324595,84.5262844 327.324595,83.994935 327.007502,83.6483326 L322.118356,78.7591864 C321.771753,78.4420936 321.240404,78.4420936 320.893802,78.7591864 C318.785849,80.86904 315.92571,82.0545033 312.94327,82.0545033 C309.96083,82.0545033 307.100691,80.86904 304.992738,78.7591864 L292.701842,66.4501485 C290.591988,64.3421955 289.406525,61.4820567 289.406525,58.4996167 C289.406525,55.5171767 290.591988,52.6570379 292.701842,50.5490848 C297.093715,46.1603393 304.211032,46.1603393 308.602905,50.5490848 Z M344.405243,56.9802623 L351.607436,51.2475343 C352.905584,50.0914857 353.074215,48.1225696 351.991555,46.7626127 C350.908894,45.4026559 348.952282,45.1256445 347.53466,46.1316188 L340.332466,51.8643468 C339.034318,53.0203954 338.865687,54.9893115 339.948348,56.3492683 C341.031009,57.7092252 342.987621,57.9862366 344.405243,56.9802623 Z M354.637074,60.8081282 L345.566302,62.5134334 C344.309558,62.6019691 343.215057,63.4036526 342.751542,64.5751463 C342.288028,65.7466401 342.537709,67.0801646 343.393655,68.0046103 C344.249601,68.929056 345.559999,69.2804606 346.763644,68.9083278 L355.834416,67.2030226 C357.09116,67.1144869 358.185661,66.3128034 358.649176,65.1413096 C359.112691,63.9698159 358.863009,62.6362914 358.007063,61.7118457 C357.151117,60.7874 355.840719,60.4359954 354.637074,60.8081282 Z M332.921646,38.4396039 L329.238912,46.8754221 C328.600222,48.5125321 329.367618,50.3619101 330.977737,51.0658801 C332.587855,51.7698501 334.46658,51.0774001 335.234692,49.4968753 L338.917426,41.0610571 C339.639741,39.4053376 338.884813,37.4774291 337.230262,36.7524403 C335.574543,36.0301249 333.646634,36.7850533 332.921646,38.4396039 Z M284.46558,89.9434485 C285.722324,89.8549128 286.816825,89.0532293 287.28034,87.8817355 C287.743855,86.7102418 287.494174,85.3767173 286.638228,84.4522716 C285.782281,83.5278259 284.471883,83.1764213 283.268238,83.5485541 L274.197466,85.2538593 C272.42617,85.5927384 271.262292,87.3000297 271.594155,89.0726544 C271.94601,90.8244784 273.637263,91.970817 275.394808,91.6487537 L284.46558,89.9434485 Z M292.80162,115.704442 C294.45734,116.426757 296.385248,115.671829 297.110237,114.017278 L300.79297,105.58146 C301.431661,103.94435 300.664264,102.094972 299.054146,101.391002 C297.444028,100.687032 295.565302,101.379482 294.79719,102.960007 L291.114456,111.395825 C290.392141,113.051544 291.147069,114.979453 292.80162,115.704442 Z M278.596791,101.037003 C277.243796,102.179255 277.043902,104.190134 278.145548,105.576392 C279.247194,106.962651 281.251264,107.222061 282.669568,106.161989 L289.871761,100.429261 C291.294501,99.3020901 291.534107,97.2349785 290.406936,95.8122381 C289.279765,94.3894978 287.212654,94.1498915 285.789913,95.2770626 L278.596791,101.037003 Z" id="Shape-Copy-2" fill="#57068C" transform="translate(315.208287, 76.228441) scale(-1, 1) translate(-315.208287, -76.228441) "></path>
            </g>
        </g>
    </g>
</svg>