<?xml version="1.0" encoding="UTF-8"?>
<svg width="906px" height="608px" viewBox="0 0 906 608" version="1.1" xmlns="http://www.w3.org/2000/svg" xmlns:xlink="http://www.w3.org/1999/xlink">
    <!-- Generator: Sketch 39.1 (31720) - http://www.bohemiancoding.com/sketch -->
    <title>illustration_404</title>
    <desc>Created with Sketch.</desc>
    <defs>
        <linearGradient x1="36.1043306%" y1="30.8721976%" x2="56.590437%" y2="60.5562218%" id="linearGradient-1">
            <stop stop-color="#313D43" stop-opacity="0.11645154" offset="0%"></stop>
            <stop stop-color="#313D43" stop-opacity="0" offset="100%"></stop>
        </linearGradient>
        <rect id="path-2" x="17" y="18" width="433" height="244" rx="3"></rect>
        <mask id="mask-3" maskContentUnits="userSpaceOnUse" maskUnits="objectBoundingBox" x="0" y="0" width="433" height="244" fill="white">
            <use xlink:href="#path-2"></use>
        </mask>
        <linearGradient x1="25.1653031%" y1="17.8674798%" x2="75.9440026%" y2="77.3124142%" id="linearGradient-4">
            <stop stop-color="#313D43" stop-opacity="0.1" offset="0%"></stop>
            <stop stop-color="#313D43" stop-opacity="0" offset="100%"></stop>
        </linearGradient>
        <rect id="path-5" x="7" y="15.8148148" width="74" height="130" rx="1.5"></rect>
        <mask id="mask-6" maskContentUnits="userSpaceOnUse" maskUnits="objectBoundingBox" x="0" y="0" width="74" height="130" fill="white">
            <use xlink:href="#path-5"></use>
        </mask>
        <linearGradient x1="32.5790989%" y1="19.8919719%" x2="75.9440026%" y2="77.3124142%" id="linearGradient-7">
            <stop stop-color="#313D43" stop-opacity="0.1" offset="0%"></stop>
            <stop stop-color="#313D43" stop-opacity="0" offset="100%"></stop>
        </linearGradient>
        <rect id="path-8" x="186.287671" y="10.1339506" width="180" height="132" rx="1.5"></rect>
        <mask id="mask-9" maskContentUnits="userSpaceOnUse" maskUnits="objectBoundingBox" x="0" y="0" width="180" height="132" fill="white">
            <use xlink:href="#path-8"></use>
        </mask>
    </defs>
    <g id="15_Страницы-ошибок" stroke="none" stroke-width="1" fill="none" fill-rule="evenodd">
        <g id="illustration_404">
            <path d="M64,400 L20,400 C15.0294373,400 11,395.970563 11,391 C11,386.029437 15.0294373,382 20,382 L64,382 L335,382 L335,381.990183 C341.671767,381.727731 347,376.236103 347,369.5 C347,362.763897 341.671767,357.272269 335,357.009817 L335,357 L108,357 L104,357 L99.9999886,357 C88.954305,357 80,348.045695 80,337 C80,325.954305 88.954305,317 100,317 L145,317 L145,302 L87.5,302 L67,302 C66.8336895,301.998511 66.6670186,302 66.5,302 C51.3121694,302 39,289.687831 39,274.5 C39,259.312169 51.3121694,247 66.5,247 C66.6670186,247 66.8336895,247.001489 67,247.004454 L67,247 L74,247 C85.045695,247 94,238.045695 94,227 C94,215.954305 85.045695,207 74,207 L70.5,207 L87.5,207 L20,207 C8.954305,207 0,198.045695 0,187 C0,175.954305 8.954305,167 20,167 L64,167 L178,167 C197.329966,167 213,151.329966 213,132 C213,112.670034 197.329966,97 178,97 L107.999982,97 C88.6700338,97 73,81.3299662 73,62 C73,42.6700338 88.6700338,27 108,27 L805,27 C824.329966,27 840,42.6700338 840,62 C840,81.3299662 824.329966,97 805,97 L763,97 L763,97.0987505 C752.893355,98.1021993 745,106.629304 745,117 C745,127.370696 752.893355,135.897801 763,136.90125 L763,137 L845.5,137 L886,137 C897.045695,137 906,145.954305 906,157 C906,168.045695 897.045695,177 886,177 L845.5,177 L755,177 C735.670034,177 720,192.670034 720,212 C720,231.329966 735.670034,247 755,247 L843.106264,247 C858.527554,250.868273 870,265.460433 870,282 C870,301.329957 854.329981,316.999985 835.000027,317 C807.245015,317 778.913197,317 777.5,317 C770.596441,317 765,322.596441 765,329.5 C765,336.403559 770.596441,342 777.5,342 L805,342 C812.731986,342 819,348.268014 819,356 C819,363.731986 812.731986,370 805,370 L597,370 C585.954305,370 577,378.954305 577,390 C577,401.045695 585.954305,410 597,410 L701,410 L303.938987,410 C303.979191,409.671666 304,409.338009 304,409 C304,404.029437 299.970563,400 295,400 L64,400 Z M248,418 C239.163444,418 232,425.163444 232,434 C232,442.836556 239.163444,450 248,450 L693,450 L693,449.90125 C703.106645,448.897801 711,440.370696 711,430 C711,419.629304 703.106645,411.102199 693,410.09875 L693,410 L303.938987,410 C303.38798,414.49995 299.19399,418 295,418 L248,418 Z" id="BG" fill="#B9B9B9"></path>
            <g id="mac" transform="translate(235.000000, 0.000000)">
                <path d="M2.17089844,315.552469 L182.944336,607.10571 L646.681641,289.263272 L460.699219,0.78287037 L2.17089844,315.552469 Z" id="Path-6" fill="url(#linearGradient-1)"></path>
                <rect id="Rectangle" fill="#16272F" x="0" y="0" width="468" height="322" rx="15"></rect>
                <rect id="Rectangle-2" fill="#F9FAFC" x="0" y="279" width="468" height="45"></rect>
                <ellipse id="Oval" fill="#16272F" cx="234" cy="301.748148" rx="10.5" ry="10.508642"></ellipse>
                <polygon id="Path-2" fill="#F9FAFC" points="186.196644 322.267013 172.5 369.264198 295.5 369.264198 281.099532 321.264198"></polygon>
                <rect id="Rectangle-3" fill="#FAFAFC" x="156" y="368" width="155" height="10" rx="5"></rect>
                <use id="Rectangle-4" stroke="#758086" mask="url(#mask-3)" stroke-width="4" fill="#FFFFFF" xlink:href="#path-2"></use>
                <polygon id="Path-5" fill="#E9EDF0" points="186.407227 323.911883 215.12439 368.026123 295.111206 368.026123 282.166992 323.140741"></polygon>
                <g id="text" transform="translate(66.000000, 69.000000)">
                    <rect id="Rectangle-13" fill="#E7E7E7" x="0" y="0" width="147" height="28"></rect>
                    <rect id="Rectangle-14" fill="#D3D3D3" x="0" y="49" width="147" height="7"></rect>
                    <rect id="Rectangle-14-Copy" fill="#D3D3D3" x="0" y="66" width="147" height="7"></rect>
                    <rect id="Rectangle-14-Copy-2" fill="#D3D3D3" x="0" y="83" width="147" height="7"></rect>
                    <rect id="Rectangle-14-Copy-3" fill="#D3D3D3" x="0" y="100" width="110" height="7"></rect>
                    <rect id="Rectangle-14-Copy-4" fill="#D3D3D3" x="0" y="136" width="147" height="7"></rect>
                </g>
                <path d="M398.351331,192.754839 L361.571926,155.762903 C360.674867,156.21129 359.553544,156.435484 358.43222,156.435484 C354.171192,156.435484 350.582957,153.296774 349.685898,149.26129 C356.638103,140.966129 360.674867,129.980645 360.674867,118.322581 C360.674867,91.1951613 338.472665,69 311.33664,69 C284.200616,69 261.998414,91.1951613 261.998414,118.322581 C261.998414,145.45 284.200616,167.645161 311.33664,167.645161 C322.998403,167.645161 333.987372,163.609677 342.285164,156.659677 C346.321928,157.556452 349.461634,161.143548 349.461634,165.403226 C349.461634,166.524194 349.237369,167.645161 348.78884,168.541935 L385.568245,205.309677 C389.156479,208.896774 394.763096,208.896774 398.351331,205.309677 C401.939565,201.946774 401.939565,196.117742 398.351331,192.754839 Z M270.969001,118.322581 C270.969001,96.1274194 289.134438,77.9677419 311.33664,77.9677419 C333.538842,77.9677419 351.70428,96.1274194 351.70428,118.322581 C351.70428,140.517742 333.538842,158.677419 311.33664,158.677419 C289.134438,158.677419 270.969001,140.517742 270.969001,118.322581 Z" id="Shape" fill="#57068C"></path>
            </g>
            <g id="phone" transform="translate(655.000000, 225.185185)">
                <polygon id="Path-8" fill="url(#linearGradient-4)" points="1.28320312 165.121142 77.4506836 284.488349 210.416016 191.757793 85.9248047 0.328395062"></polygon>
                <rect id="Rectangle-5" fill="#313D43" x="0" y="0" width="88.5" height="168.138272" rx="6"></rect>
                <use id="Rectangle-6" stroke="#758086" mask="url(#mask-6)" stroke-width="2" fill="#FFFFFF" xlink:href="#path-5"></use>
                <ellipse id="Oval-2" fill="#9E9FA3" cx="43.625" cy="156.417094" rx="6.75" ry="6.75555556"></ellipse>
                <rect id="Rectangle-7" fill="#4C565B" x="31.34375" y="7.39069326" width="25.8125" height="3.69534663" rx="1.84767331"></rect>
                <g id="text-copy" transform="translate(15.000000, 86.814815)">
                    <rect id="Rectangle-13" fill="#E7E7E7" x="0" y="0" width="58" height="9.59440559"></rect>
                    <rect id="Rectangle-14" fill="#D3D3D3" x="0" y="16.7902098" width="58" height="2.3986014"></rect>
                    <rect id="Rectangle-14-Copy" fill="#D3D3D3" x="0" y="22.6153846" width="58" height="2.3986014"></rect>
                    <rect id="Rectangle-14-Copy-2" fill="#D3D3D3" x="0" y="28.4405594" width="58" height="2.3986014"></rect>
                    <rect id="Rectangle-14-Copy-3" fill="#D3D3D3" x="0" y="34.2657343" width="37.414966" height="2.3986014"></rect>
                    <rect id="Rectangle-14-Copy-4" fill="#D3D3D3" x="0" y="46.6013986" width="58" height="2.3986014"></rect>
                </g>
                <path d="M67.0516129,70.4267869 L54.0903226,57.3905996 C53.7741935,57.548614 53.3790323,57.6276212 52.983871,57.6276212 C51.4822581,57.6276212 50.2177419,56.5215205 49.9016129,55.0993909 C52.3516129,52.1761247 53.7741935,48.3047721 53.7741935,44.1963979 C53.7741935,34.6365272 45.95,26.8148148 36.3870968,26.8148148 C26.8241935,26.8148148 19,34.6365272 19,44.1963979 C19,53.7562686 26.8241935,61.577981 36.3870968,61.577981 C40.4967742,61.577981 44.3693548,60.1558515 47.2935484,57.7066284 C48.716129,58.0226572 49.8225806,59.2867723 49.8225806,60.787909 C49.8225806,61.182945 49.7435484,61.577981 49.5854839,61.8940098 L62.5467742,74.8511899 C63.8112903,76.115305 65.7870968,76.115305 67.0516129,74.8511899 C68.316129,73.666082 68.316129,71.6118949 67.0516129,70.4267869 Z M22.1612903,44.1963979 C22.1612903,36.3746855 28.5629032,29.9751026 36.3870968,29.9751026 C44.2112903,29.9751026 50.6129032,36.3746855 50.6129032,44.1963979 C50.6129032,52.0181103 44.2112903,58.4176932 36.3870968,58.4176932 C28.5629032,58.4176932 22.1612903,52.0181103 22.1612903,44.1963979 Z" id="Shape-Copy" fill="#57068C"></path>
            </g>
            <g id="tablet" transform="translate(285.866049, 347.787654) rotate(-90.000000) translate(-285.866049, -347.787654) translate(87.366049, 185.787654)">
                <polygon id="Path-7" fill="url(#linearGradient-7)" transform="translate(197.363731, 162.027229) scale(-1, -1) rotate(-90.000000) translate(-197.363731, -162.027229) " points="36.0111919 193.022445 140.721153 358.932322 358.71627 240.702769 180.484336 -34.8778634 36.0111919 -17.2706103"></polygon>
                <rect id="Rectangle-8" fill="#303D43" x="153.287654" y="1.13395062" width="243" height="148" rx="15"></rect>
                <rect id="Rectangle-10" fill="#4C565B" x="382.684932" y="59.8026044" width="3.32876712" height="24.9863014" rx="1.66438356"></rect>
                <use id="Rectangle-9" stroke="#758086" mask="url(#mask-9)" stroke-width="2" fill="#FCFCFC" xlink:href="#path-8"></use>
                <ellipse id="Oval-3" fill="#9E9FA3" cx="169.140411" cy="75.627262" rx="9.15410959" ry="9.16164384"></ellipse>
                <ellipse id="Oval-4" fill="#4C565B" cx="384.349315" cy="88.1204127" rx="1.66438356" ry="1.66575342"></ellipse>
                <g id="text-copy-2" transform="translate(232.000000, 76.133951) scale(-1, -1) rotate(-90.000000) translate(-232.000000, -76.133951) translate(176.000000, 44.133951)">
                    <rect id="Rectangle-13" fill="#E7E7E7" x="0" y="0" width="112" height="16.6433566"></rect>
                    <rect id="Rectangle-14" fill="#D3D3D3" x="0" y="29.1258741" width="112" height="4.16083916"></rect>
                    <rect id="Rectangle-14-Copy" fill="#D3D3D3" x="0" y="39.2307692" width="112" height="4.16083916"></rect>
                    <rect id="Rectangle-14-Copy-2" fill="#D3D3D3" x="0" y="49.3356643" width="112" height="4.16083916"></rect>
                    <rect id="Rectangle-14-Copy-3" fill="#D3D3D3" x="0" y="59.4405594" width="83.8095238" height="4.16083916"></rect>
                </g>
                <path d="M345.992678,104.675886 L327.999876,86.5791119 C327.561027,86.7984667 327.012466,86.9081442 326.463905,86.9081442 C324.379373,86.9081442 322.623978,85.3726603 322.185129,83.3984667 C325.586207,79.3404022 327.561027,73.9662087 327.561027,68.2629829 C327.561027,54.9920151 316.699518,44.1339506 303.424341,44.1339506 C290.149163,44.1339506 279.287654,54.9920151 279.287654,68.2629829 C279.287654,81.5339506 290.149163,92.3920151 303.424341,92.3920151 C309.129376,92.3920151 314.505274,90.4178216 318.564626,87.0178216 C320.539446,87.4565313 322.075416,89.21137 322.075416,91.2952409 C322.075416,91.843628 321.965704,92.3920151 321.74628,92.8307248 L339.739082,110.817822 C341.494478,112.57266 344.237283,112.57266 345.992678,110.817822 C347.748074,109.17266 347.748074,106.321047 345.992678,104.675886 Z M283.676143,68.2629829 C283.676143,57.4049184 292.562832,48.5210474 303.424341,48.5210474 C314.285849,48.5210474 323.172539,57.4049184 323.172539,68.2629829 C323.172539,79.1210474 314.285849,88.0049184 303.424341,88.0049184 C292.562832,88.0049184 283.676143,79.1210474 283.676143,68.2629829 Z" id="Shape-Copy-2" fill="#57068C" transform="translate(313.298440, 78.133951) scale(-1, 1) translate(-313.298440, -78.133951) "></path>
            </g>
        </g>
    </g>
</svg>