<svg width="48" height="48" viewBox="0 0 48 48" xmlns="http://www.w3.org/2000/svg" xmlns:xlink="http://www.w3.org/1999/xlink"><title>426F7FF6-6692-4CBC-AFC4-370F4B55D412</title><defs><path d="M27.641 42.651l6.945-6.944-1.793-1.793L25 41.707v1.267a19.03 19.03 0 0 0 2.641-.323zm1.881-.466a18.977 18.977 0 0 0 7.34-4.2l-1.57-1.57-5.77 5.77zM25 40.293l7.086-7.086-1.793-1.793L25 36.707v3.586zm0-5l4.586-4.586-1.793-1.793L25 31.707v3.586zm0-5l2.086-2.086L25 26.121v4.172zm13.905 5.491A18.92 18.92 0 0 0 43 24a18.93 18.93 0 0 0-4.922-12.76l-11.98 11.737 12.807 12.807zM22 42.896V22.791l13.893-13.61A18.92 18.92 0 0 0 24 5C13.507 5 5 13.507 5 24c0 9.818 7.447 17.897 17 18.896zM24 46C11.85 46 2 36.15 2 24S11.85 2 24 2s22 9.85 22 22-9.85 22-22 22z" id="a"/></defs><g fill="none" fill-rule="evenodd"><mask id="b" fill="#fff"><use xlink:href="#a"/></mask><use fill="#000" fill-rule="nonzero" xlink:href="#a"/><g mask="url(#b)" fill="#57068C"><path d="M0 0h48v48H0z"/></g></g></svg>