<svg width="48" height="48" viewBox="0 0 48 48" xmlns="http://www.w3.org/2000/svg" xmlns:xlink="http://www.w3.org/1999/xlink"><title>7689E6BE-5637-4B78-9D87-D2B43741EFEF</title><defs><path d="M24 46C11.85 46 2 36.15 2 24S11.85 2 24 2s22 9.85 22 22-9.85 22-22 22zm2-11h-3v-3h3v3zm2.06-9.94c-.38.382-1.892 1.742-2.06 1.964V29h-3v-2c0-.658.212-1.24.605-1.776.36-.49 2.16-2.11 2.334-2.285C27.612 21.267 28 20.65 28 19.5c0-1.995-1.462-3-3.5-3-2.038 0-3.5 1.005-3.5 3h-3c0-3.943 2.992-6 6.5-6s6.5 2.057 6.5 6c0 2.179-.745 3.366-2.94 5.56zM24 43c10.493 0 19-8.507 19-19S34.493 5 24 5 5 13.507 5 24s8.507 19 19 19z" id="a"/></defs><g fill="none" fill-rule="evenodd"><mask id="b" fill="#fff"><use xlink:href="#a"/></mask><use fill="#008BFB" xlink:href="#a"/><g mask="url(#b)" fill="#57068C"><path d="M0 0h48v48H0z"/></g></g></svg>