<svg width="48" height="48" viewBox="0 0 48 48" xmlns="http://www.w3.org/2000/svg" xmlns:xlink="http://www.w3.org/1999/xlink"><title>B9A8EA3D-59DE-4FA5-AE20-0E464F2CA06D</title><defs><path d="M28 6c9.941 0 18 8.059 18 18s-8.059 18-18 18c-1.569 0-3.09-.2-4.541-.578l.755-2.903A15.03 15.03 0 0 0 28 39c8.284 0 15-6.716 15-15 0-8.284-6.716-15-15-15a15.04 15.04 0 0 0-3.616.438l-.72-2.912A18.041 18.041 0 0 1 28 6zm0 0c9.941 0 18 8.059 18 18s-8.059 18-18 18c-1.569 0-3.09-.2-4.541-.578l.755-2.903A15.03 15.03 0 0 0 28 39c8.284 0 15-6.716 15-15 0-8.284-6.716-15-15-15a15.04 15.04 0 0 0-3.616.438l-.72-2.912A18.041 18.041 0 0 1 28 6zm-8 33c8.284 0 15-6.716 15-15 0-8.284-6.716-15-15-15-8.284 0-15 6.716-15 15 0 8.284 6.716 15 15 15zm0 3c-9.941 0-18-8.059-18-18S10.059 6 20 6s18 8.059 18 18-8.059 18-18 18zm3.373-23.15A4 4 0 0 0 16 20.996v6.006c0 .389.056.765.16 1.12l7.213-9.274zm.467 1.027l-7.213 9.274A4 4 0 0 0 24 27.003v-6.006c0-.389-.056-.765-.16-1.12zM15 20.997a5.001 5.001 0 0 1 10 0v6.006a5.001 5.001 0 0 1-10 0v-6.006z" id="a"/></defs><g fill="none" fill-rule="evenodd"><mask id="b" fill="#fff"><use xlink:href="#a"/></mask><use fill="#000" fill-rule="nonzero" xlink:href="#a"/><g mask="url(#b)" fill="#57068C"><path d="M0 0h48v48H0z"/></g></g></svg>