<svg width="48" height="48" viewBox="0 0 48 48" xmlns="http://www.w3.org/2000/svg" xmlns:xlink="http://www.w3.org/1999/xlink"><title>47ACD125-4027-4AFC-8266-4CD1D0B4C240</title><defs><path d="M25.5 33H38v-8h-2.491a2.01 2.01 0 0 1-2.009-2.009V15.01A2.01 2.01 0 0 1 35.509 13h7.982a2.01 2.01 0 0 1 2.009 2.009v7.982A2.01 2.01 0 0 1 43.491 25H41v8.505A2.49 2.49 0 0 1 38.504 36H9.496A2.502 2.502 0 0 1 7 33.505V25H4.509A2.01 2.01 0 0 1 2.5 22.991V15.01A2.01 2.01 0 0 1 4.509 13h7.982a2.01 2.01 0 0 1 2.009 2.009v7.982A2.01 2.01 0 0 1 12.491 25H10v8h12.5v-8h-2.491A2.01 2.01 0 0 1 18 22.991V15.01A2.01 2.01 0 0 1 20.009 13h7.982A2.01 2.01 0 0 1 30 15.009v7.982A2.01 2.01 0 0 1 27.991 25H25.5v8zm11-17v6h6v-6h-6zM21 16v6h6v-6h-6zM5.5 16v6h6v-6h-6z" id="a"/></defs><g fill="none" fill-rule="evenodd"><mask id="b" fill="#fff"><use xlink:href="#a"/></mask><use fill="#979797" fill-rule="nonzero" xlink:href="#a"/><g mask="url(#b)" fill="#57068C"><path d="M0 0h48v48H0z"/></g></g></svg>