<svg xmlns="http://www.w3.org/2000/svg" xmlns:xlink="http://www.w3.org/1999/xlink" width="48" height="48" viewBox="0 0 48 48">
    <defs>
        <path id="a" d="M10.684 46.154h-1.37V31.171L4.792 32.85v-1.28l5.664-2.1h.228v16.684zm16.903 0H17.172v-1.05l5.699-6.464c.944-1.089 1.599-1.987 1.964-2.695.366-.708.548-1.397.548-2.067 0-1.051-.308-1.883-.925-2.496-.616-.613-1.465-.92-2.546-.92-1.12 0-2.024.359-2.713 1.074-.689.716-1.033 1.645-1.033 2.787h-1.36c0-.936.212-1.79.635-2.558a4.56 4.56 0 0 1 1.804-1.81c.78-.438 1.67-.657 2.667-.657 1.522 0 2.712.4 3.568 1.2.857.799 1.285 1.887 1.285 3.265 0 .777-.242 1.626-.725 2.547-.483.921-1.334 2.07-2.552 3.449l-4.637 5.242h8.736v1.153zM10.684 18.868h-1.37V3.884l-4.522 1.68v-1.28l5.664-2.101h.228v16.685zm16.903 0H17.172v-1.051l5.699-6.464c.944-1.089 1.599-1.987 1.964-2.695.366-.708.548-1.397.548-2.067 0-1.05-.308-1.883-.925-2.495-.616-.613-1.465-.92-2.546-.92-1.12 0-2.024.358-2.713 1.074-.689.715-1.033 1.644-1.033 2.786h-1.36c0-.936.212-1.789.635-2.558a4.56 4.56 0 0 1 1.804-1.81c.78-.438 1.67-.657 2.667-.657 1.522 0 2.712.4 3.568 1.2.857.799 1.285 1.888 1.285 3.266 0 .776-.242 1.625-.725 2.546-.483.922-1.334 2.071-2.552 3.45l-4.637 5.241h8.736v1.154zm14.238 20.788h1.69v2.97h-1.69v3.528h-3.849v-3.529h-6.43l-.228-2.352 6.658-10.712v-.035h3.849v10.13zm-6.841 0h2.992V34.54l-.24.388-2.752 4.728zm.195-30.713h1.815c1.44 0 2.159-.704 2.159-2.112 0-.548-.171-.996-.514-1.342-.343-.347-.826-.52-1.45-.52-.51 0-.954.149-1.33.446-.378.297-.566.666-.566 1.107h-3.849c0-.875.244-1.656.731-2.34.487-.686 1.163-1.22 2.027-1.605.864-.385 1.814-.577 2.85-.577 1.85 0 3.304.423 4.362 1.268 1.058.845 1.588 2.006 1.588 3.483 0 .715-.22 1.391-.657 2.027-.438.636-1.076 1.151-1.913 1.547.883.32 1.576.805 2.078 1.456.503.651.754 1.456.754 2.416 0 1.484-.57 2.672-1.713 3.563-1.142.89-2.642 1.336-4.5 1.336-1.088 0-2.099-.207-3.031-.622-.933-.415-1.64-.99-2.119-1.725-.48-.735-.72-1.57-.72-2.507h3.872c0 .51.206.952.617 1.325.41.373.917.56 1.519.56.677 0 1.218-.189 1.621-.566.404-.376.606-.858.606-1.444 0-.838-.21-1.431-.629-1.782-.418-.35-.997-.525-1.735-.525h-1.873V8.943z"/>
    </defs>
    <g fill="none" fill-rule="evenodd">
        <mask id="b" fill="#fff">
            <use xlink:href="#a"/>
        </mask>
        <use fill="#000" xlink:href="#a"/>
        <g fill="#57068C" mask="url(#b)">
            <path d="M0 0h48v48H0z"/>
        </g>
    </g>
</svg>
