<svg width="48" height="48" viewBox="0 0 48 48" xmlns="http://www.w3.org/2000/svg" xmlns:xlink="http://www.w3.org/1999/xlink"><title>2C838019-E8AE-4D16-A4BC-9CA298E0F117</title><defs><path d="M28.238 17.382l2.495-.416.175-.03c.327-.055.645-.112.955-.17l-7.618-9.802-7.64 9.83c.234.047.474.092.72.137l2.45.444-7.078 9.106c.634.138 1.306.274 2.01.405l2.437.45-7.946 10.226c.966.223 2.012.444 3.12.654 4 .755 7.995 1.207 11.7 1.207 3.705 0 7.694-.452 11.682-1.207a78.043 78.043 0 0 0 3.105-.653L30.86 27.341l2.437-.452a64.28 64.28 0 0 0 2.014-.406l-7.073-9.101zm12.29 10.85l-2.16.602a47.234 47.234 0 0 1-2.092.512L44 39.282l-2.144.61-.417.114c-.329.087-.708.184-1.135.288a79.71 79.71 0 0 1-4.019.866c-4.166.789-8.341 1.262-12.267 1.262-3.925 0-8.107-.473-12.283-1.262a80.395 80.395 0 0 1-4.031-.866 58.307 58.307 0 0 1-1.557-.401L4 39.285l7.727-9.942a61.058 61.058 0 0 1-1.747-.419 22.203 22.203 0 0 1-.34-.09l-2.163-.6 6.88-8.852c-.382-.089-.66-.16-.821-.203l-2.183-.59L24.245 2 37.17 18.63l-2.247.557c-.05.013-.14.034-.268.064a43.889 43.889 0 0 1-.944.209l6.817 8.771zM22 45h4v-3h-4v3zm-1-4h6v5h-6v-5z" id="a"/></defs><g fill="none" fill-rule="evenodd"><mask id="b" fill="#fff"><use xlink:href="#a"/></mask><use fill="#57068C" fill-rule="nonzero" xlink:href="#a"/><g mask="url(#b)" fill="#57068C"><path d="M0 0h48v48H0z"/></g></g></svg>