<svg width="48" height="48" viewBox="0 0 48 48" xmlns="http://www.w3.org/2000/svg"
     xmlns:xlink="http://www.w3.org/1999/xlink">
    <title>A79A308A-F4E0-453E-AE6C-9FD1E57B044D</title>
    <defs>
        <path d="M19.19 39.768A1.497 1.497 0 0 1 20.497 39h7.006c.827 0 1.497.666 1.497 1.5a1.5 1.5 0 0 1-1.497 1.5h-7.006c-.74 0-1.356-.535-1.476-1.246C13.305 39.604 9 34.554 9 28.5h1c0 5.56 3.946 10.199 9.19 11.268zM39.93 18H42c2.21 0 4 1.797 4 3.996v4.008C46 28.211 44.2 30 42 30h-5V19.5c0-7.18-5.82-13-13-13s-13 5.82-13 13V30H6c-2.21 0-4-1.797-4-3.996v-4.008C2 19.789 3.8 18 6 18h2.07C8.825 9.867 15.67 3.5 24 3.5S39.174 9.867 39.93 18zM8 21H6c-.548 0-1 .45-1 .996v4.008c0 .545.45.996 1 .996h2v-6zm34 6c.548 0 1-.45 1-.996v-4.008c0-.545-.45-.996-1-.996h-2v6h2zm-24.714 3.214l.708-.708a8.47 8.47 0 0 0 6.01 2.49 8.47 8.47 0 0 0 6.01-2.49l.707.708a9.47 9.47 0 0 1-6.717 2.782 9.47 9.47 0 0 1-6.718-2.782zM19 23a2 2 0 1 1 0-4 2 2 0 0 1 0 4zm10 0a2 2 0 1 1 0-4 2 2 0 0 1 0 4z"
              id="a"/>
    </defs>
    <g fill="none" fill-rule="evenodd">
        <mask id="b" fill="#fff">
            <use xlink:href="#a"/>
        </mask>
        <use fill="#000" fill-rule="nonzero" xlink:href="#a"/>
        <g mask="url(#b)" fill="#57068C">
            <path d="M0 0h48v48H0z"/>
        </g>
    </g>
</svg>