<svg xmlns="http://www.w3.org/2000/svg" xmlns:xlink="http://www.w3.org/1999/xlink" width="48" height="48" viewBox="0 0 48 48">
    <defs>
        <path id="a" d="M34.943 3.057l.66.932c-1.881 3.81-2.4 7.259-2.18 9.872.015.166.028.276.036.326l-.717.755H15.464l-.717-.755c.008-.05.021-.16.035-.326.22-2.613-.298-6.062-2.179-9.872l.66-.932c1.537 0 4.009 1.109 6.263 3.27.04-.107.083-.214.127-.322.4-.97.966-1.988 1.655-3.032A29.38 29.38 0 0 1 23.563 0l1.127.003a29.502 29.502 0 0 1 2.233 2.98c.679 1.041 1.237 2.057 1.633 3.023.044.108.086.215.126.321 2.253-2.155 4.747-3.27 6.26-3.27zm-2.967 10.564c-.15-2.476.303-5.562 1.767-8.951-.28.1-.583.224-.894.374-1.335.642-2.678 1.644-3.931 3.05l-1.276-.284a8.325 8.325 0 0 0-.434-1.342c-.364-.883-.886-1.832-1.525-2.81a28.203 28.203 0 0 0-1.562-2.15l-.097.121c-.505.631-1.01 1.315-1.48 2.025-.648.98-1.177 1.93-1.544 2.816a8.191 8.191 0 0 0-.436 1.34l-1.275.285c-1.256-1.41-2.593-2.412-3.917-3.052a9.101 9.101 0 0 0-.912-.381c1.467 3.392 1.92 6.48 1.77 8.96h15.746zM15 28V17h18v10.217l-.558.45c-.036.03-.114.094-.226.19a26.135 26.135 0 0 0-2.592 2.552c-1.113 1.265-1.935 2.489-2.346 3.569a4.093 4.093 0 0 0-.28 1.448C26.978 39.5 31 40 31 40s-1.5 2-3.248 3.051a9.572 9.572 0 0 1-4.974 1.393c-2.252 0-4.193-1.016-5.543-3.139-1.82-2.857-1.375-6.058.702-9.37.856-1.364 1.864-2.608 3.141-3.935H15zm13.686-3l-2.507 2c-6.179 5-8.403 9.568-6.414 12.695.788 1.238 1.765 1.75 3.013 1.75 1.028 0 2.201-.354 3.401-.959-1.27-1.19-2.075-2.83-2.177-4.912-.043-.863.126-1.752.472-2.663.56-1.472 1.568-2.972 2.897-4.483A29.094 29.094 0 0 1 30 25.807V20H18v5h10.686z"/>
    </defs>
    <g fill="none" fill-rule="evenodd">
        <mask id="b" fill="#fff">
            <use xlink:href="#a"/>
        </mask>
        <use fill="#57068C" fill-rule="nonzero" xlink:href="#a"/>
        <g fill="#57068C" mask="url(#b)">
            <path d="M0 0h48v48H0z"/>
        </g>
    </g>
</svg>
