<svg xmlns="http://www.w3.org/2000/svg" xmlns:xlink="http://www.w3.org/1999/xlink" width="48" height="48" viewBox="0 0 48 48">
    <defs>
        <path id="a" d="M34.722 34.53c.21-.014.43-.02.663-.02 2.183 0 3.306.59 5.202 2.255 1.673 1.47 2.533 1.923 4.315 1.923h.671v1.343h-.671c-2.183 0-3.306-.592-5.202-2.256-1.673-1.47-2.533-1.923-4.315-1.923-1.782 0-2.642.453-4.315 1.923-1.895 1.664-3.018 2.256-5.201 2.256-2.136 0-3.245-.501-5.066-1.892l-.049-.037c-1.64-1.252-2.534-1.653-4.402-1.653-1.88 0-2.863.41-4.73 1.675l-.062.042c-2.025 1.373-3.199 1.865-5.32 1.865h-.67v-1.343h.67c1.795 0 2.743-.398 4.566-1.633l.062-.042c2.07-1.403 3.28-1.907 5.484-1.907.399 0 .763.017 1.103.052.032-.716-.034-2.194-.263-4.64l-.201-.014a8.423 8.423 0 0 0-.639-.024c-1.88 0-2.863.41-4.73 1.675l-.062.042c-2.025 1.373-3.199 1.865-5.32 1.865h-.67v-1.343h.67c1.795 0 2.743-.398 4.566-1.634l.062-.042c2.07-1.402 3.28-1.906 5.484-1.906.24 0 .473.008.699.024-.245-1.905-.766-3.802-1.485-5.63a18.295 18.295 0 0 0-1.037-2.238c-1.466.657-3.08.934-4.76.597a9.024 9.024 0 0 1-1.44-.427c-.882-.337-1.797-.811-2.73-1.388A25.406 25.406 0 0 1 3 18.225l.862-2.374c.07 0 .243-.012.48-.052.401-.067.801-.187 1.34-.442l-.178.074c.27-.135 0 .094 1.462-1.21.955-.852 1.703-1.365 3.068-1.748l-.426.069c.469-.157.94-.23 1.41-.232a3.644 3.644 0 0 1-.083-.747c0-2.017.394-3.202 2.075-4.89.25-.25.405-.562.482-.946.102-.51.056-1.106-.09-1.688a3.774 3.774 0 0 0-.127-.425L15.27 2a18.208 18.208 0 0 1 2.644 2.252c1.053 1.092 1.868 2.237 2.345 3.435.36.903.505 1.939.479 3.083-.026 1.127-.214 2.308-.511 3.49-.062.242-.123.469-.182.676.491.343 1.092.794 1.783 1.361 2 1.642 4.065 3.715 6.09 6.255 2.013 2.526 3.512 4.653 4.608 6.58.842-.393 1.76-.592 2.86-.592 2.182 0 3.305.592 5.2 2.256 1.674 1.47 2.534 1.923 4.316 1.923h.671v1.343h-.671c-2.183 0-3.306-.592-5.202-2.256-1.673-1.47-2.533-1.923-4.315-1.923-.865 0-1.572.143-2.222.435.741 1.472 1.242 2.843 1.559 4.212zm-2.583.76c-.67-3.048-2.445-6.201-6.322-11.064-1.903-2.388-3.836-4.327-5.694-5.853a24.902 24.902 0 0 0-1.745-1.319c-.3-.204-.503-.33-.595-.384l-.59-1.635a17.09 17.09 0 0 0 .43-1.432c.25-1 .409-1.992.43-2.894.018-.81-.078-1.5-.289-2.027-.311-.781-.88-1.601-1.64-2.415-.178.874-.571 1.66-1.21 2.302-1.125 1.128-1.293 1.633-1.293 2.994 0 .1.035.274.107.492.075.224.182.476.314.74.182.365.365.672.477.84l-1.865 1.86a3.125 3.125 0 0 0-.472-.237c-.616-.258-1.222-.336-2.148-.1l.426-.069c-.51.171-1 .507-1.706 1.137.03-.027-.713.648-.927.83-.305.26-.578.465-.931.662l.116.072c.8.495 1.57.895 2.276 1.164.363.14.702.24 1.01.302 1.07.215 2.138.032 3.132-.414.42-.188.715-.37.846-.468l1.948.363c.126.202.332.56.592 1.06a28.67 28.67 0 0 1 1.25 2.75c.873 2.222 1.486 4.545 1.721 6.903.351 3.526.42 5.452.312 6.318-.01.084-.023.162-.039.236.472.27.96.611 1.51 1.03l.048.038c1.608 1.228 2.467 1.616 4.25 1.616s2.643-.453 4.316-1.923c.732-.642 1.348-1.125 1.955-1.475zM6.241 46h-.672v-1.343h.672c1.794 0 2.742-.398 4.565-1.633l.062-.042c2.07-1.402 3.28-1.907 5.484-1.907 2.217 0 3.364.514 5.217 1.929l.049.037c1.608 1.229 2.467 1.616 4.25 1.616s2.643-.453 4.316-1.922c1.895-1.665 3.018-2.256 5.201-2.256s3.306.591 5.202 2.256c1.673 1.469 2.533 1.922 4.315 1.922h.671V46h-.671c-2.183 0-3.306-.592-5.202-2.256-1.673-1.47-2.533-1.922-4.315-1.922-1.782 0-2.642.453-4.315 1.922C29.175 45.408 28.052 46 25.87 46c-2.136 0-3.245-.5-5.066-1.892l-.049-.037c-1.64-1.252-2.534-1.653-4.402-1.653-1.88 0-2.863.41-4.73 1.676l-.062.042C9.535 45.508 8.36 46 6.24 46z"/>
    </defs>
    <g fill="none" fill-rule="evenodd">
        <mask id="b" fill="#fff">
            <use xlink:href="#a"/>
        </mask>
        <use fill="#57068C" fill-rule="nonzero" xlink:href="#a"/>
        <g fill="#57068C" mask="url(#b)">
            <path d="M0 0h48v48H0z"/>
        </g>
    </g>
</svg>
