<?xml version="1.0" encoding="UTF-8" standalone="no"?>
<svg width="52px" height="40px" viewBox="0 0 52 40" version="1.1" xmlns="http://www.w3.org/2000/svg" xmlns:xlink="http://www.w3.org/1999/xlink">
    <!-- Generator: Sketch 41 (35326) - http://www.bohemiancoding.com/sketch -->
    <title>ic_copyrigth</title>
    <desc>Created with Sketch.</desc>
    <defs></defs>
    <g id="9_Отзывы" stroke="none" stroke-width="1" fill="none" fill-rule="evenodd">
        <g id="1_Отзывы_1272" transform="translate(-588.000000, -499.000000)" fill="#BAB9BA">
            <g id="active_card" transform="translate(548.000000, 445.000000)">
                <path d="M62.545,61.012 C61.941,59.468 61.138,58.18 60.137,57.143 C59.137,56.107 57.962,55.323 56.612,54.794 C55.263,54.264 53.867,54 52.424,54 C49.772,54 47.562,54.713 45.793,56.142 C44.025,57.569 43.141,59.641 43.141,62.359 C43.141,63.786 43.397,64.973 43.909,65.917 C44.421,66.86 45.06,67.655 45.828,68.3 C46.596,68.945 47.434,69.498 48.341,69.958 C49.248,70.418 50.086,70.891 50.854,71.375 C51.622,71.858 52.262,72.411 52.773,73.033 C53.286,73.655 53.541,74.425 53.541,75.347 C53.541,78.11 52.448,80.551 50.26,82.67 C48.074,84.788 44.654,86.584 40,88.059 L40,94 C44.235,92.756 47.842,91.178 50.819,89.268 C53.797,87.356 56.228,85.202 58.113,82.808 C59.997,80.413 61.358,77.81 62.196,75.002 C63.034,72.192 63.452,69.29 63.452,66.297 C63.452,64.316 63.15,62.555 62.545,61.012 M91.128,61.012 C90.546,59.468 89.744,58.18 88.719,57.143 C87.696,56.107 86.521,55.323 85.195,54.794 C83.868,54.264 82.485,54 81.042,54 C78.389,54 76.168,54.713 74.376,56.142 C72.585,57.569 71.689,59.641 71.689,62.359 C71.689,63.786 71.945,64.973 72.456,65.917 C72.969,66.86 73.62,67.655 74.411,68.3 C75.203,68.945 76.04,69.498 76.924,69.958 C77.808,70.418 78.646,70.891 79.436,71.375 C80.228,71.858 80.879,72.411 81.391,73.033 C81.903,73.655 82.158,74.425 82.158,75.347 C82.158,78.11 81.066,80.551 78.878,82.67 C76.691,84.788 73.248,86.584 68.548,88.059 L68.548,94 C72.782,92.756 76.389,91.178 79.366,89.268 C82.345,87.356 84.776,85.202 86.66,82.808 C88.545,80.413 89.906,77.81 90.744,75.002 C91.581,72.192 92,69.29 92,66.297 C92,64.316 91.71,62.555 91.128,61.012" id="ic_copyrigth"></path>
            </g>
        </g>
    </g>
</svg>