<?xml version="1.0" encoding="UTF-8"?>
<svg width="20px" height="19px" viewBox="0 0 20 19" version="1.1" xmlns="http://www.w3.org/2000/svg" xmlns:xlink="http://www.w3.org/1999/xlink">
    <!-- Generator: Sketch 43.1 (39012) - http://www.bohemiancoding.com/sketch -->
    <title>ic_download</title>
    <desc>Created with Sketch.</desc>
    <defs></defs>
    <g id="Main_1272" stroke="none" stroke-width="1" fill="none" fill-rule="evenodd">
        <g id="Main/_1272/Area_1272-01" transform="translate(-455.000000, -2825.000000)" fill-rule="nonzero" fill="#008BFB">
            <g id="Group-2" transform="translate(24.000000, 2204.000000)">
                <g id="Group-16-Copy" transform="translate(419.000000, 609.000000)">
                    <path d="M21.2835397,23.9704821 L21.2835397,12.2623252 L22.7164603,12.2623252 L22.7164603,23.7290343 L24.9761792,21.4693154 L25.9894071,22.4825433 L22.38589,26.0860603 C22.1060949,26.3658554 21.6524573,26.3658554 21.3726622,26.0860603 L17.6410981,22.3544962 L18.654326,21.3412684 L21.2835397,23.9704821 Z M19.1828295,16.2840503 L19.1828295,17.7169709 L14.4834713,17.7169709 C14.083511,17.7169709 13.7607065,18.0384939 13.7607065,18.4343246 L13.7607065,28.5027853 C13.7607065,28.9009865 14.0794319,29.220139 14.4797424,29.220139 L29.5202576,29.220139 C29.9177432,29.220139 30.2392935,28.8990333 30.2392935,28.5027851 L30.2392935,18.4343228 C30.2392935,18.0350637 29.9224251,17.7169689 29.5225722,17.7169689 L24.8098642,17.7169689 L24.8098642,16.2840483 L29.5225722,16.2840483 C30.7150471,16.2840483 31.6722141,17.24492 31.6722141,18.4343228 L31.6722141,28.5027851 C31.6722141,29.6908575 30.70868,30.6530596 29.5202576,30.6530596 L14.4797424,30.6530596 C13.2876218,30.6530596 12.3277859,29.6919374 12.3277859,28.5027853 L12.3277859,18.4343246 C12.3277859,17.2458349 13.2934039,16.2840503 14.4834713,16.2840503 L19.1828295,16.2840503 Z" id="ic_download"></path>
                </g>
            </g>
        </g>
    </g>
</svg>