<svg version="1.1" id="Слой_1" xmlns="http://www.w3.org/2000/svg" xmlns:xlink="http://www.w3.org/1999/xlink" x="0px" y="0px"
	 viewBox="0 0 159 28" style="enable-background:new 0 0 159 28;" xml:space="preserve">
<style type="text/css">
	.st0{fill:#650C8E;}
	.st1{filter:url(#Adobe_OpacityMaskFilter);}
	.st2{fill:#FFFFFF;}
	.st3{mask:url(#mask-2);fill:#650C8E;}
	.st4{filter:url(#Adobe_OpacityMaskFilter_1_);}
	.st5{mask:url(#mask-4);fill:#650C8E;}
</style>
<g id="Group-20">
	<path id="Fill-2" class="st0" d="M72.5,23.4v-3.4H64c-0.2,0-0.1,0.2-0.1,0v-2.5h8.5v-3.4H64v-1.8c0-0.2-0.2-0.8,0.1-0.8h8.5V9.1
		H62.4c-1.3,0-1.8,0.7-1.8,2.2v9.8c0,1.5,0.6,2.3,1.8,2.3H72.5z"/>
	<path id="Fill-4" class="st0" d="M78.8,11.7c-0.2,0-0.3,0.5-0.3,0.8v11h-3.4V11.3c0-1.5,0.8-2.2,2.1-2.2h10.8v2.5H78.8z"/>
	<path id="Fill-6" class="st0" d="M99.1,23.4h3.8l-5.8-12.9c-0.6-1.3-1.6-2-2.9-2c-1.3,0-2.3,0.6-2.9,2l-5.8,12.9h3.8l1.3-3.4h7.3
		L99.1,23.4z M91.7,17.6l2.2-5.3C94,12,94.1,12,94.2,12c0.1,0,0.2,0.1,0.3,0.3l2.2,5.3H91.7z"/>
	<path id="Fill-8" class="st0" d="M115.3,10h1.6c3.2,0,4.1,1.2,4.1,4.2c0,3-0.8,4.2-4.1,4.2h-1.6V10z M115.3,23.4v-1.7h1.6
		c5.3,0,7.5-2.6,7.5-7.6c0-5.1-2.1-7.6-7.5-7.6h-6.7c-5.3,0-7.5,2.5-7.5,7.6c0,5,2.2,7.6,7.5,7.6h1.6v1.7H115.3z M111.8,18.4h-1.6
		c-3.2,0-4.1-1.2-4.1-4.2c0-3,0.8-4.2,4.1-4.2h1.6V18.4z"/>
	<path id="Fill-10" class="st0" d="M51.5,9.1c0.8-1.8,1.8-2.7,3.4-2.7c2,0,3.1,1.1,3.1,3.6v13.5h-3.4V10.3l-4.7,11.1
		c-0.6,1.5-1.5,2.3-3,2.3c-1.5,0-2.3-0.8-3-2.3l-4.7-11.1v13.1h-3.4V10c0-2.5,1.1-3.6,3.1-3.6c1.7,0,2.7,0.9,3.5,2.7L46.9,20
		L51.5,9.1z"/>
	<path id="Fill-12" class="st0" d="M134.9,9.1h-1.5c-5.4,0-7.5,2.1-7.5,7.1c0,5,2.2,7.2,7.5,7.2h1.2c5.3,0,7.5-2.2,7.5-7.2
		c0-5.1-2.1-7.1-7.5-7.1 M138.7,16.3c0,3-0.8,4.6-4.1,4.6h-1.1c-3.2,0-4.1-1.6-4.1-4.6c0-3,0.8-4.6,4.1-4.6h1.1
		C137.8,11.7,138.7,13.3,138.7,16.3"/>
	<g id="Group-16">
		<g id="Clip-15">
		</g>
		<defs>
			<filter id="Adobe_OpacityMaskFilter" filterUnits="userSpaceOnUse" x="0" y="0.1" width="14.5" height="27.8">
				<feColorMatrix  type="matrix" values="1 0 0 0 0  0 1 0 0 0  0 0 1 0 0  0 0 0 1 0"/>
			</filter>
		</defs>
		<mask maskUnits="userSpaceOnUse" x="0" y="0.1" width="14.5" height="27.8" id="mask-2">
			<g class="st1">
				<polygon id="path-1" class="st2" points="0,0.1 0,27.9 14.5,27.9 14.5,0.1 				"/>
			</g>
		</mask>
		<path id="Fill-14" class="st3" d="M9.8,10.1c0-0.9,0.8-1.7,1.7-1.7c0.9,0,1.7,0.8,1.7,1.7c0,0.9-0.8,1.7-1.7,1.7
			C10.6,11.8,9.8,11,9.8,10.1L9.8,10.1z M14.2,14c0.1,0,0.3,0.1,0.3,0V0.1c0,0-0.3,0-0.4,0C6.3,0.3,0,6.5,0,14.2
			c0,6.6,4.6,12.1,10.8,13.6c0.1,0,0.2,0,0.3,0.1l0-12.6c0-0.6,0.5-1.2,1.2-1.2H14.2z"/>
	</g>
	<g id="Group-19" transform="translate(12.000000, 0.000000)">
		<g id="Clip-18">
		</g>
		<defs>
			<filter id="Adobe_OpacityMaskFilter_1_" filterUnits="userSpaceOnUse" x="0.7" y="0" width="16" height="28">
				<feColorMatrix  type="matrix" values="1 0 0 0 0  0 1 0 0 0  0 0 1 0 0  0 0 0 1 0"/>
			</filter>
		</defs>
		<mask maskUnits="userSpaceOnUse" x="0.7" y="0" width="16" height="28" id="mask-4">
			<g class="st4">
				<polygon id="path-3" class="st2" points="0.7,28 16.7,28 16.7,0 0.7,0 				"/>
			</g>
		</mask>
		<path id="Fill-17" class="st5" d="M13.8,19.7c0,0.9-0.8,1.7-1.7,1.7c-0.9,0-1.7-0.8-1.7-1.7c0-0.9,0.8-1.7,1.7-1.7
			C13.1,18.1,13.8,18.8,13.8,19.7 M7.9,21.4c-0.9,0-1.7-0.8-1.7-1.7c0-0.9,0.8-1.7,1.7-1.7c0.9,0,1.7,0.8,1.7,1.7
			C9.6,20.7,8.9,21.4,7.9,21.4 M3.7,21.4c-0.9,0-1.7-0.8-1.7-1.7c0-0.9,0.8-1.7,1.7-1.7c0.9,0,1.7,0.8,1.7,1.7
			C5.4,20.7,4.7,21.4,3.7,21.4 M4.5,0C4.4,0,4.3,0,4.3,0v14.5c0,0.6-0.7,1.3-1.4,1.3H1.1c-0.1,0-0.4,0-0.4,0v12.1c0,0,0.3,0,0.4,0
			c0.4,0,0.8,0,1.2,0c7.9,0,14.4-6.3,14.4-14.1C16.7,6.9,11.4,1,4.5,0"/>
	</g>
	<polygon id="Fill-1" class="st0" points="154.6,9.1 154.6,14.2 147.7,14.2 147.7,9.1 144.3,9.1 144.3,23.4 147.7,23.4 147.7,17.6 
		154.6,17.6 154.6,23.4 158,23.4 158,9.1 	"/>
</g>
</svg>
