<?xml version="1.0" encoding="UTF-8" standalone="no"?>
<svg width="155px" height="19px" viewBox="0 0 155 19" version="1.1" xmlns="http://www.w3.org/2000/svg" xmlns:xlink="http://www.w3.org/1999/xlink">
    <!-- Generator: sketchtool 41.2 (35397) - http://www.bohemiancoding.com/sketch -->
    <title>F03284E6-19B7-421D-ACA8-37337CD81DAE</title>
    <desc>Created with sketchtool.</desc>
    <defs>
        <polygon id="path-1" points="25.0555471 17.9530268 0 17.9530268 0 0.0536103805 25.0555471 0.0536103805 25.0555471 17.9530268"></polygon>
        <polygon id="path-3" points="15.00596 15.0657099 15.00596 0.00814624274 0.0108806259 0.00814624274 0.0108806259 15.0657099"></polygon>
    </defs>
    <g id="Symbols" stroke="none" stroke-width="1" fill="none" fill-rule="evenodd">
        <g id="Foot" transform="translate(-181.000000, -69.000000)">
            <g id="black-logo">
                <g transform="translate(181.000000, 69.000000)">
                    <g id="Page-1" transform="translate(0.000000, 0.087052)">
                        <path d="M70.8538251,11.7502379 L73.2789269,6.29427939 C73.3530216,6.11982675 73.4942022,6.07573432 73.5973341,6.07573432 L73.6013392,6.07573432 C73.7054724,6.07573432 73.8456517,6.11982675 73.9207478,6.29427939 L76.3428457,11.7502379 L70.8538251,11.7502379 Z M76.8344746,4.57850888 C76.172628,3.21164365 74.8629529,2.54354754 73.6013392,2.54354754 L73.5973341,2.54354754 C72.3327166,2.54354754 71.0220402,3.21164365 70.3672026,4.57850888 L63.9299692,17.9289288 L68.1183262,17.9289288 L69.5201192,14.7590668 L77.6745491,14.7590668 L79.0773433,17.9289288 L83.2657004,17.9289288 L76.8344746,4.57850888 Z" id="Fill-1" fill="#000000"></path>
                        <g id="Group-5" transform="translate(0.000000, 0.127733)">
                            <mask id="mask-2" fill="white">
                                <use xlink:href="#path-1"></use>
                            </mask>
                            <g id="Clip-4"></g>
                            <path d="M21.5500634,0.0536103805 C19.707707,0.0536103805 18.5312022,0.992012243 17.660088,2.88511099 L12.5285245,14.195777 L7.39896359,2.88511099 C6.52484556,0.992012243 5.34934204,0.0536103805 3.50698558,0.0536103805 C1.78077769,0.0536103805 -0.000500640342,1.23547912 -0.000500640342,3.80146664 L-0.000500640342,17.8017706 L3.92952603,17.8017706 L3.92952603,4.18583758 L9.0931305,15.4006504 C9.78902057,16.9659316 10.903446,17.9513015 12.5245194,17.9532185 L12.5285245,17.9532185 C14.1526018,17.9513015 15.2690297,16.9659316 15.9649198,15.4006504 L21.1235179,4.18583758 L21.1235179,17.8017706 L25.0555471,17.8017706 L25.0555471,3.80146664 C25.0555471,1.23547912 23.2732675,0.0536103805 21.5500634,0.0536103805" id="Fill-3" fill="#000000" mask="url(#mask-2)"></path>
                        </g>
                        <path d="M32.775321,14.7539866 C32.5830751,14.7539866 32.4368882,14.6063728 32.4368882,14.4328787 L32.4368882,11.7499504 L42.246435,11.7499504 L42.246435,8.68744377 L32.4368882,8.68744377 L32.4368882,6.40134731 C32.4368882,6.22593613 32.5830751,6.07544676 32.775321,6.07544676 L42.4767295,6.07544676 L42.4767295,2.90175057 L30.8388442,2.90175057 C29.4761012,2.90175057 28.4958474,3.99255887 28.4958474,5.14183755 L28.4958474,15.6904714 C28.4958474,16.83975 29.4761012,17.9295998 30.8388442,17.9295998 L42.4767295,17.9295998 L42.4767295,14.7539866 L32.775321,14.7539866 Z" id="Fill-6" fill="#000000"></path>
                        <path d="M57.6967967,9.84908751 L57.6967967,14.4864606 C57.6967967,14.6609132 57.5486071,14.808527 57.3623689,14.808527 L53.5334716,14.808527 C50.4435194,14.761559 49.2069378,13.3927767 49.1588763,10.4309158 C49.2069378,7.55723985 50.3103491,6.11944333 53.5524959,6.07726797 L53.5524959,6.08493622 L61.6158092,6.08493622 L61.6158092,2.9102815 L53.5524959,2.9102815 C47.8081487,2.93903743 45.4431237,5.27881164 45.3289777,10.2478364 L45.3239713,10.637 L45.3289777,10.6465853 C45.4521352,15.4670378 47.8131551,17.837485 53.3902885,17.9180016 L53.3902885,17.9199186 L59.2958419,17.9199186 C60.6595862,17.9199186 61.6368361,16.8310274 61.6368361,15.6807902 L61.6368361,9.84908751 L57.6967967,9.84908751 Z" id="Fill-8" fill="#000000"></path>
                        <path d="M89.7001303,0.483664387 L89.7001303,14.1983261 C89.7001303,14.4379589 89.7451879,14.6191212 89.9935055,14.6191212 L99.327444,14.6191212 L99.327444,17.9212606 L88.2042169,17.9212606 C86.7964163,17.9212606 85.8902573,16.9953196 85.8902573,15.384029 L85.8902573,0.483664387 L89.7001303,0.483664387 Z" id="Fill-10" fill="#000000"></path>
                        <path d="M110.658637,11.6603277 L108.012252,11.6603277 L110.367264,6.28392726 C110.471398,6.03854332 110.556506,5.99924355 110.658637,5.97719733 L110.681667,5.97719733 C110.744747,5.97719733 110.812834,5.97719733 110.931987,6.28392726 L113.314033,11.6603277 L110.658637,11.6603277 Z M113.754597,4.64963188 C113.122789,3.28084959 112.092471,2.51690037 110.658637,2.51690037 L110.638611,2.51690037 C109.205779,2.51690037 108.200493,3.17828677 107.543653,4.55186171 L101.34172,17.9214523 L105.380887,17.9214523 L106.811717,14.6806589 L110.658637,14.6806589 L114.552618,14.6806589 L116.046528,17.9214523 L119.957531,17.9214523 L113.754597,4.64963188 Z" id="Fill-12" fill="#000000"></path>
                        <path d="M131.882984,14.7858098 L125.936378,14.7858098 C125.684055,14.7858098 125.643003,14.6429887 125.643003,14.4177339 L125.643003,11.7395982 L131.890994,11.7434324 C133.05248,11.7434324 133.520078,12.2006516 133.520078,13.2646211 C133.520078,14.3180467 132.997409,14.7858098 131.882984,14.7858098 L131.882984,14.7858098 Z M125.643003,6.48684827 C125.643003,6.26159348 125.684055,6.08426525 125.936378,6.08426525 L131.605629,6.08234818 C132.604907,6.08234818 133.001414,6.47630443 133.001414,7.3964942 C133.001414,8.29847189 132.555845,8.70105491 131.599622,8.70105491 L125.643003,8.70105491 L125.643003,6.48684827 Z M134.519356,10.2433313 L134.519356,10.1225564 C136.441815,9.53114277 136.575986,8.10772422 136.575986,6.58174284 C136.575986,5.09122712 135.463564,2.90673494 132.681005,2.90673494 L124.291274,2.89714963 C122.94355,2.89714963 122.06042,3.78666641 122.06042,5.34236224 L122.06042,15.5085422 C122.06042,17.0584868 122.94355,17.9662157 124.291274,17.9662157 L132.913302,17.961423 C135.758941,17.961423 137.082635,16.0510707 137.082635,14.0841651 C137.082635,12.5888567 136.801275,10.7801087 134.519356,10.2433313 L134.519356,10.2433313 Z" id="Fill-14" fill="#000000"></path>
                        <g id="Group-18" transform="translate(139.358479, 2.896097)">
                            <mask id="mask-4" fill="white">
                                <use xlink:href="#path-3"></use>
                            </mask>
                            <g id="Clip-17"></g>
                            <path d="M10.0587323,5.80342475 L10.0357028,5.80342475 C10.0296951,5.80342475 10.0236874,5.80534181 10.0176797,5.80534181 L4.97422896,5.80534181 C4.01800591,5.80534181 3.56843088,5.40275879 3.56843088,4.49886404 C3.56843088,3.57867427 3.96894316,3.18375949 4.96822128,3.18375949 L14.3552277,3.17513271 L14.3552277,0.00814624274 L4.71990367,0.0167730219 C1.3545993,0.0167730219 0.0108806259,1.34146288 0.0108806259,4.42984981 C0.0108806259,7.47318578 1.51280165,8.84771925 4.74093056,8.84771925 L9.81642233,8.85059484 C10.9739028,8.85059484 11.4374958,9.30589707 11.4374958,10.368908 C11.4374958,11.4175409 10.9188324,11.8872211 9.80640952,11.8872211 L0.34130325,11.8795528 L0.34130325,15.0657099 L10.0357028,15.0647514 C13.4300443,15.0647514 15.0060601,13.6384573 15.0060601,10.4379222 C15.0060601,7.19233619 13.5942543,5.80342475 10.0587323,5.80342475" id="Fill-16" fill="#000000" mask="url(#mask-4)"></path>
                        </g>
                    </g>
                </g>
            </g>
        </g>
    </g>
</svg>