<svg xmlns="http://www.w3.org/2000/svg" xmlns:xlink="http://www.w3.org/1999/xlink" width="256" height="256" viewBox="0 0 256 256">
    <defs>
        <path id="a" d="M12.08 22.12h2.131v5.709H2.842V19.98l1.066.713 1.066-.713v2.14h1.421v-2.14l1.066.713 1.066-.713v2.14h1.42v-2.14l1.067.713 1.065-.713v2.14z"/>
        <path id="b" d="M31.975 22.12h2.132v5.709h-11.37V19.98l1.067.713 1.066-.713v2.14h1.42v-2.14l1.066.713 1.066-.713v2.14h1.421v-2.14l1.066.713 1.066-.713v2.14z"/>
        <path id="c" d="M13.501 17.125h9.948v12.844h-9.948z"/>
        <path id="d" d="M14.922 7.849h7.106v12.844h-7.106z"/>
        <path id="e" d="M16.343 8.563L18.475 0l2.131 8.563z"/>
        <path id="f" d="M16.343 20.693l2.132-4.281 2.131 4.281z"/>
        <path id="g" d="M16.343 26.387c0-1.174.946-2.126 2.132-2.126 1.177 0 2.131.955 2.131 2.126v3.582h-4.263v-3.582z"/>
        <path id="h" d="M17.053 11.417l1.422-3.568 1.42 3.568z"/>
        <path id="i" d="M2.882 5.708L.71 9.276h1.808L0 13.558h9.237L6.718 9.276h1.809L6.356 5.708h1.46L4.62 0 1.42 5.708h1.46z"/>
        <path id="j" d="M2.882 5.708L.71 9.276h1.808L0 13.558h9.237L6.718 9.276h1.809L6.356 5.708h1.46L4.62 0 1.42 5.708h1.46z"/>
        <path id="k" d="M2.438 4.83L.601 7.85h1.53L0 11.471h7.816L5.684 7.849h1.53L5.379 4.83h1.236L3.908 0 1.202 4.83h1.236z"/>
        <path id="l" d="M2.217 4.338L.547 7.05h1.39L0 10.304h7.106L5.168 7.05h1.391l-1.67-2.712h1.123L3.552 0 1.094 4.338h1.124z"/>
        <path id="m" d="M2.217 4.338L.547 7.05h1.39L0 10.304h7.106L5.168 7.05h1.391l-1.67-2.712h1.123L3.552 0 1.094 4.338h1.124z"/>
        <path id="n" d="M2.217 4.338L.547 7.05h1.39L0 10.304h7.106L5.168 7.05h1.391l-1.67-2.712h1.123L3.552 0 1.094 4.338h1.124z"/>
        <path id="o" d="M2.217 4.338L.547 7.05h1.39L0 10.304h7.106L5.168 7.05h1.391l-1.67-2.712h1.123L3.552 0 1.094 4.338h1.124z"/>
        <path id="p" d="M2.217 4.338L.547 7.05h1.39L0 10.304h7.106L5.168 7.05h1.391l-1.67-2.712h1.123L3.552 0 1.094 4.338h1.124z"/>
        <path id="q" d="M2.217 4.338L.547 7.05h1.39L0 10.304h7.106L5.168 7.05h1.391l-1.67-2.712h1.123L3.552 0 1.094 4.338h1.124z"/>
        <path id="r" d="M1.773 3.47L.437 5.64H1.55L0 8.243h5.684L4.134 5.64h1.113L3.911 3.47h.899L2.842 0 .875 3.47h.898z"/>
        <path id="s" d="M1.773 3.47L.437 5.64H1.55L0 8.243h5.684L4.134 5.64h1.113L3.911 3.47h.899L2.842 0 .875 3.47h.898z"/>
        <path id="t" d="M1.773 3.47L.437 5.64H1.55L0 8.243h5.684L4.134 5.64h1.113L3.911 3.47h.899L2.842 0 .875 3.47h.898z"/>
        <path id="u" d="M1.773 3.47L.437 5.64H1.55L0 8.243h5.684L4.134 5.64h1.113L3.911 3.47h.899L2.842 0 .875 3.47h.898z"/>
        <path id="v" d="M1.773 3.47L.437 5.64H1.55L0 8.243h5.684L4.134 5.64h1.113L3.911 3.47h.899L2.842 0 .875 3.47h.898z"/>
        <path id="w" d="M1.773 3.47L.437 5.64H1.55L0 8.243h5.684L4.134 5.64h1.113L3.911 3.47h.899L2.842 0 .875 3.47h.898z"/>
        <path id="x" d="M1.773 3.47L.437 5.64H1.55L0 8.243h5.684L4.134 5.64h1.113L3.911 3.47h.899L2.842 0 .875 3.47h.898z"/>
        <path id="y" d="M.711 14.271h9.237v7.136H.711z"/>
        <path id="z" d="M0 12.13h11.369v2.854H0z"/>
        <path id="A" d="M.711 4.995h4.974v7.849H.711z"/>
        <path id="B" d="M2.132 8.908c0-.585.473-1.059 1.066-1.059.588 0 1.065.48 1.065 1.06v3.935H2.132V8.908z"/>
        <path id="C" d="M7.106 10.347c0-.591.473-1.07 1.065-1.07a1.07 1.07 0 0 1 1.066 1.07v2.497H7.106v-2.497z"/>
        <path id="D" d="M0 3.568h6.395v2.141H0z"/>
        <path id="E" d="M6.395 7.849h3.553v4.995H6.395z"/>
        <path id="F" d="M2.132 18.545c0-1.178.946-2.133 2.131-2.133 1.178 0 2.132.963 2.132 2.133v2.862H2.132v-2.862z"/>
        <path id="G" d="M0 11.417V4.995L4.263.714l4.264 4.28v6.423c0 .788-1.91 1.427-4.264 1.427S0 12.205 0 11.417z"/>
        <path id="H" d="M3.553.714l3.553 7.405s-.37 1.157-3.553 1.157S0 8.12 0 8.12L3.553.714z"/>
        <path id="I" d="M3.553 5.708l1.42 3.086s-.147.482-1.42.482-1.421-.482-1.421-.482l1.42-3.086z"/>
        <path id="J" d="M6.395 4.281l6.395 11.417s-.666 1.784-6.395 1.784C.666 17.482 0 15.698 0 15.698L6.395 4.281z"/>
        <path id="K" d="M4.148 16.772l2.545-4.542 2.544 4.542"/>
        <rect id="L" width="4.974" height="11.417" x="21.317" y="8.563" rx="2.487"/>
        <ellipse id="M" cx="23.448" cy="6.422" rx="2.132" ry="2.141"/>
    </defs>
    <g fill="none" fill-rule="evenodd">
        <path fill="#3DBB8C" stroke="#682B90" stroke-width="1.5" d="M72.808 69.493l5.685.357 2.487-6.779s-1.422-8.92-6.75-8.92c-5.33 0-5.685 6.78-9.949 9.634-4.263 2.854-4.973 4.995-7.46 2.497-2.487-2.497-4.264-.357-6.395 1.427-2.132 1.784-9.593 4.995-9.593 4.995s2.132 1.427 1.066 3.568c-1.066 2.14-1.421 3.211-1.421 3.211s2.131 3.211-.71 6.065c-2.843 2.855-6.04 3.925-6.04 5.709 0 1.784 1.065 3.924 1.065 3.924s-3.197 2.141-3.197 6.422c0 4.282 5.684 7.493 3.908 11.06-1.777 3.568-3.908 4.282-5.33 4.282-1.42 0-2.131-1.427-3.552-1.427-1.421 0-2.132-.714-3.553 1.07-1.421 1.784-2.842 3.925-2.842 3.925s-1.777-2.855-3.198-3.925c-1.42-1.07-1.776-1.427-1.776-3.21 0-1.785 0-6.78-5.685-6.78-5.684 0-4.618 1.784-6.75 3.211-2.131 1.427-1.42 2.498 0 4.638 1.421 2.141 2.132 6.78 3.553 8.206 1.421 1.427 4.263 2.141 5.33 0 1.065-2.14 1.065-4.638 3.197-2.854 2.131 1.784 3.908 1.784 3.908 4.638s-1.421 6.065 0 7.136c1.42 1.07 4.974 8.206 5.684 10.346.71 2.141 4.264 6.78 5.685 2.855 1.42-3.925 3.908-8.206 3.908-8.206h7.114v-8.275l5.32-3.142 2.843 2.854 6.395-2.14 4.618 9.276 8.527 6.065 1.777-1.427.355-2.498 4.618-3.924 7.106 1.427 1.066 6.065 4.618 4.638s7.461-2.14 7.461 2.854v8.92s3.553 4.281 6.75 6.065c3.198 1.784 8.172-1.427 8.172-1.427l8.882 3.925s4.974 1.427 5.684.713c.711-.713 1.777-3.21 4.62-3.21h4.631l7.448 5.35 12.08-1.426 3.907-3.211 6.04 1.07 5.33-1.784 1.065-7.849-2.132-1.784s4.619-3.21 7.461-3.21c2.842 0 5.33 2.497 6.75 4.637 1.422 2.14 2.843 4.638 4.264 4.638 1.42 0 3.197-.713 4.263-.356 1.066.356 2.842 3.21 3.908 2.854 1.066-.357 2.842-.357 3.553-1.427.71-1.07 2.487-2.141 2.487-.357v7.492s-1.421.357-2.487 2.498c-1.066 2.14.355 5.351 2.842 5.351s7.461-4.638 7.461-4.638l4.974-15.698s-6.395 0-7.106-5.708c-.71-5.709 0-9.633 0-9.633s-1.065-2.855-3.197-3.211c-2.132-.357-3.908.356-3.908.356s-1.777 2.498-3.553-.713c-1.776-3.211-2.842-2.14-1.421-7.136 1.421-4.995 4.619-20.693 5.684-21.763 1.066-1.07 12.79-6.78 12.79-6.78l2.132-3.924s-1.421-7.849-.355-8.562c1.066-.714 2.842-1.784 2.842-1.784v-6.066s2.842-3.567 2.842.714c0 4.281 1.066 22.12 1.066 22.12s7.106 7.493 9.237 7.493c2.132 0 3.908-.714 3.908-4.995 0-4.282-1.065-11.774-1.065-11.774l-8.172-10.347 6.04-7.135-1.776-12.844 3.197-2.854-1.776-2.141s-4.264.357-4.974-.714c-.71-1.07-2.842-7.135-.71-7.135 2.13 0 5.328-2.498 5.684-4.995.355-2.498-3.553-3.925-3.553-3.925l-4.974 1.07-1.066 3.212-2.487-.357-9.592 4.638-3.908 3.925 1.065 3.924-.355 2.14-3.197.358-4.619 6.065-2.487-1.784h-5.33l-4.263 3.568h-3.908l-8.526 3.21-.356 4.282-4.618 1.784-2.132 3.568-3.908-5.352-5.684-.357-1.777 3.568-6.395-1.07-6.75 3.924 5.33-9.99-5.33-6.065h-4.974l-2.487 3.211-8.171 3.568.355 3.568h-6.04l-1.066 4.281-4.263-.713-3.198-6.78-7.105 4.282-3.198 4.282 1.066 4.28-1.42 1.428-6.04-11.417-1.422 3.568-4.974-3.568-4.263-1.427-2.132-3.925-5.329 4.282-6.04-2.14s-3.197-1.785-2.131-3.926l2.131-4.28 1.066 4.637z"/>
        <path fill="#FFF" stroke="#682B90" stroke-width="1.5" d="M210.656 59.86c0-3.547 2.864-6.422 6.396-6.422 3.531 0 6.395 2.875 6.395 6.422 0 1.577-2.864 2.854-6.395 2.854-3.532 0-6.396-1.277-6.396-2.854z"/>
        <path fill="#FFF" stroke="#682B90" stroke-width="1.5" d="M210.656 59.86c0 1.577 2.864 2.854 6.396 2.854 3.531 0 6.395-1.277 6.395-2.854"/>
        <path fill="#FFF" stroke="#682B90" stroke-width="1.5" d="M211.367 57.72c0 1.128 1.65 2.084 3.932 2.414m3.746-.038c2.156-.36 3.691-1.288 3.691-2.376M212.078 55.579c0 1.226 2.226 2.22 4.974 2.22 2.747 0 4.973-.994 4.973-2.22"/>
        <path fill="#FFF" stroke="#682B90" stroke-width="1.5" d="M213.499 54.152c0 .876 1.59 1.585 3.553 1.585 1.962 0 3.552-.71 3.552-1.585"/>
        <path fill="#3DBB8C" stroke="#682B90" stroke-width="1.5" d="M214.476 62.714c0-1.97 1.153-3.567 2.576-3.567 1.422 0 2.575 1.597 2.575 3.567"/>
        <g transform="translate(39.412 76.986)">
            <use fill="#FF9595" xlink:href="#a"/>
            <path stroke="#682B90" stroke-width="1.5" d="M13.461 22.87v4.209H3.592v-5.695l.316.212.316-.212v1.486H7.145v-1.486l.316.212.316-.212v1.486h2.92v-1.486l.317.212.315-.212v1.486H13.461z"/>
            <g transform="matrix(-1 0 0 1 56.845 0)">
                <use fill="#FF9595" xlink:href="#b"/>
                <path stroke="#682B90" stroke-width="1.5" d="M33.357 22.87v4.209h-9.87v-5.695l.317.212.316-.212v1.486h2.92v-1.486l.316.212.316-.212v1.486H30.593v-1.486l.316.212.316-.212v1.486H33.357z"/>
            </g>
            <use fill="#FF9595" xlink:href="#c"/>
            <path stroke="#682B90" stroke-width="1.5" d="M14.251 17.875h8.448v11.344h-8.448z"/>
            <use fill="#FF9595" xlink:href="#d"/>
            <path stroke="#682B90" stroke-width="1.5" d="M15.672 8.599h5.606v11.344h-5.606z"/>
            <use fill="#FF9595" xlink:href="#e"/>
            <path stroke="#682B90" stroke-width="1.5" d="M17.302 7.813l1.173-4.708 1.172 4.708h-2.345z"/>
            <use fill="#FFF" xlink:href="#f"/>
            <path stroke="#682B90" stroke-width="1.5" d="M17.554 19.943l.92-1.848.92 1.848h-1.84z"/>
            <use fill="#FFF" xlink:href="#g"/>
            <path stroke="#682B90" stroke-width="1.5" d="M19.856 29.22h-2.763v-2.833c0-.763.613-1.376 1.382-1.376.762 0 1.381.619 1.381 1.376v2.832z"/>
            <path fill="#FFF" stroke="#682B90" stroke-linecap="square" stroke-width="1.5" d="M11.014 27.857h14.921M.355 26.045h12.79"/>
            <use fill="#FFF" xlink:href="#h"/>
            <path stroke="#682B90" stroke-width="1.5" d="M18.16 10.667l.315-.791.315.79h-.63z"/>
            <path fill="#FFF" stroke="#682B90" stroke-linecap="square" stroke-width="1.5" d="M15.277 9.739h6.395M15.277 16.08h6.395M13.856 18.798h9.237M15.155 22.477v-2.14M17.869 22.477v-2.14M19.679 22.477v-2.14"/>
            <ellipse cx="18.475" cy="14.271" fill="#FFF" stroke="#682B90" stroke-width="1.5" rx="1.421" ry="1.427"/>
            <path fill="#FFF" stroke="#682B90" stroke-linecap="square" stroke-width="1.5" d="M12.44 16.055v2.14M14.25 7.136v2.14M20.583 7.136v2.14M21.488 16.055v2.14"/>
        </g>
        <g fill="#3DBB8C" stroke="#682B90" stroke-width="1.5">
            <path d="M67.295 128.423a3.574 3.574 0 0 0-.77-1.157 3.534 3.534 0 0 0-2.513-1.045c-.981 0-1.87.4-2.512 1.045a3.574 3.574 0 0 0-.771 1.157M69.958 127.648a2.316 2.316 0 0 0-.5-.75 2.29 2.29 0 0 0-1.628-.677 2.29 2.29 0 0 0-1.628.677"/>
        </g>
        <g fill="#3DBB8C" stroke="#682B90" stroke-width="1.5">
            <path d="M106.282 157.171a2.75 2.75 0 0 0-.593-.89 2.719 2.719 0 0 0-1.933-.804c-.755 0-1.438.307-1.932.804a2.75 2.75 0 0 0-.593.89M108.33 156.575a1.782 1.782 0 0 0-.384-.577 1.762 1.762 0 0 0-2.505 0"/>
        </g>
        <g fill="#3DBB8C" stroke="#682B90" stroke-width="1.5">
            <path d="M153.778 124.311a3.849 3.849 0 0 0-.83-1.246 3.806 3.806 0 0 0-2.706-1.125c-1.057 0-2.013.43-2.705 1.125a3.849 3.849 0 0 0-.83 1.246M156.646 123.477a2.494 2.494 0 0 0-.539-.808 2.467 2.467 0 0 0-1.753-.73c-.685 0-1.304.28-1.753.73"/>
        </g>
        <g fill="#3DBB8C" stroke="#682B90" stroke-width="1.5">
            <path d="M217.728 75.076a3.849 3.849 0 0 0-.83-1.246 3.806 3.806 0 0 0-2.706-1.126c-1.056 0-2.013.43-2.705 1.126a3.849 3.849 0 0 0-.83 1.246M220.596 74.241a2.494 2.494 0 0 0-.538-.807 2.467 2.467 0 0 0-1.754-.73c-.684 0-1.304.279-1.753.73"/>
        </g>
        <g fill="#3DBB8C" stroke="#682B90" stroke-width="1.5">
            <path d="M43.504 112.011c.18-.436.444-.828.77-1.157a3.534 3.534 0 0 1 2.513-1.045c.981 0 1.87.4 2.512 1.045.328.329.591.721.771 1.157M40.841 111.236c.117-.282.288-.537.5-.75a2.29 2.29 0 0 1 1.628-.677 2.29 2.29 0 0 1 1.628.678"/>
        </g>
        <g fill="#3DBB8C" stroke="#682B90" stroke-width="1.5">
            <path d="M97.506 114.866c.18-.436.444-.829.771-1.157a3.534 3.534 0 0 1 2.513-1.045c.98 0 1.869.399 2.512 1.045.327.328.59.72.77 1.157M94.843 114.09c.117-.282.288-.536.5-.75a2.29 2.29 0 0 1 1.628-.676 2.29 2.29 0 0 1 1.628.677"/>
        </g>
        <g fill="#3DBB8C" stroke="#682B90" stroke-width="1.5">
            <path d="M191.805 155.37a3.3 3.3 0 0 1 .712-1.069 3.262 3.262 0 0 1 2.319-.965c.905 0 1.725.369 2.319.965a3.3 3.3 0 0 1 .711 1.068M189.347 154.654c.108-.261.265-.496.461-.693a2.114 2.114 0 0 1 1.503-.625c.587 0 1.118.24 1.503.625"/>
        </g>
        <g stroke="#682B90" stroke-width="1.5">
            <path fill="#3DBB8C" d="M105.155 126.393a2.76 2.76 0 0 1-.194-1.02c0-1.502 1.193-2.72 2.665-2.72 1.471 0 2.664 1.218 2.664 2.72 0 .36-.069.705-.194 1.02a3.65 3.65 0 0 1 1.082 2.605c0 2.002-1.59 3.625-3.552 3.625-1.963 0-3.553-1.623-3.553-3.625a3.65 3.65 0 0 1 1.082-2.605z"/>
            <path fill="#FFF" stroke-linecap="square" d="M107.24 137.638v-10.162"/>
            <path fill="#FFF" d="M106.441 128.454l1.308 1.335M107.862 130.402l1.436-1.465"/>
        </g>
        <g stroke="#682B90" stroke-width="1.5">
            <path fill="#FF9595" d="M154.183 129.247a2.76 2.76 0 0 1-.194-1.02c0-1.502 1.193-2.72 2.665-2.72s2.665 1.218 2.665 2.72c0 .36-.07.705-.194 1.02a3.65 3.65 0 0 1 1.082 2.605c0 2.002-1.59 3.625-3.553 3.625-1.962 0-3.553-1.623-3.553-3.625a3.65 3.65 0 0 1 1.082-2.605z"/>
            <path fill="#FFF" stroke-linecap="square" d="M156.268 140.492V130.33"/>
            <path fill="#FFF" d="M155.47 131.308l1.308 1.335M156.89 133.256l1.436-1.464"/>
        </g>
        <g stroke="#682B90" stroke-width="1.5">
            <path fill="#3DBB8C" d="M111.55 145.659a2.76 2.76 0 0 1-.194-1.02c0-1.502 1.193-2.72 2.665-2.72 1.471 0 2.664 1.218 2.664 2.72 0 .36-.069.705-.194 1.02a3.65 3.65 0 0 1 1.082 2.605c0 2.002-1.59 3.625-3.552 3.625-1.963 0-3.553-1.623-3.553-3.625a3.65 3.65 0 0 1 1.082-2.605z"/>
            <path fill="#FFF" stroke-linecap="square" d="M113.634 156.904v-10.162"/>
            <path fill="#FFF" d="M112.836 147.72l1.308 1.335M114.257 149.668l1.436-1.465"/>
        </g>
        <g stroke="#682B90" stroke-width="1.5">
            <path fill="#FF9595" d="M182.606 142.804a2.76 2.76 0 0 1-.194-1.02c0-1.501 1.193-2.719 2.664-2.719 1.472 0 2.665 1.218 2.665 2.72 0 .36-.069.704-.194 1.02a3.65 3.65 0 0 1 1.082 2.605c0 2.002-1.59 3.625-3.553 3.625-1.962 0-3.552-1.623-3.552-3.625a3.65 3.65 0 0 1 1.082-2.606z"/>
            <path fill="#FFF" stroke-linecap="square" d="M184.69 154.05v-10.163"/>
            <path fill="#FFF" d="M183.892 144.866l1.308 1.335M185.313 146.814l1.436-1.465"/>
        </g>
        <g transform="translate(122.547 97.679)">
            <use fill="#3DBB8C" xlink:href="#i"/>
            <path stroke="#682B90" stroke-width="1.5" d="M2.7 4.958L4.62 1.535l1.917 3.423H5.021l.694 1.14 1.477 2.428H5.406l.666 1.13 1.854 3.152H1.312l1.854-3.151.665-1.13H2.045l1.477-2.429.694-1.14H2.701z"/>
        </g>
        <path fill="#FFF" stroke="#682B90" stroke-linecap="square" stroke-width="1.5" d="M125.94 111.593v3.568"/>
        <g transform="translate(168.023 79.84)">
            <use fill="#3DBB8C" xlink:href="#j"/>
            <path stroke="#682B90" stroke-width="1.5" d="M2.7 4.958L4.62 1.535l1.917 3.423H5.021l.694 1.14 1.477 2.428H5.406l.666 1.13 1.854 3.152H1.312l1.854-3.151.665-1.13H2.045l1.477-2.429.694-1.14H2.701z"/>
        </g>
        <path fill="#FFF" stroke="#682B90" stroke-linecap="square" stroke-width="1.5" d="M171.416 93.754v3.568"/>
        <g transform="translate(136.758 84.121)">
            <use fill="#3DBB8C" xlink:href="#k"/>
            <path stroke="#682B90" stroke-width="1.5" d="M2.482 4.08l1.426-2.545L5.334 4.08h-1.29l.693 1.14L5.881 7.1H4.373l.665 1.13 1.467 2.492H1.312l1.466-2.493.665-1.13H1.936L3.079 5.22l.694-1.14h-1.29z"/>
        </g>
        <path fill="#FFF" stroke="#682B90" stroke-linecap="square" stroke-width="1.5" d="M140.151 95.895v3.019"/>
        <g transform="translate(114.02 84.121)">
            <use fill="#3DBB8C" xlink:href="#l"/>
            <path stroke="#682B90" stroke-width="1.5" d="M3.553 3.6l.697 1.132.966 1.568H3.848l.675 1.134 1.263 2.12H1.32l1.262-2.12.676-1.134H1.889l.966-1.568.698-1.133zm0 0l.006-.012H2.381l1.172-2.067 1.172 2.067H3.546l.007.011z"/>
        </g>
        <path fill="#FFF" stroke="#682B90" stroke-linecap="square" stroke-width="1.5" d="M116.509 94.696v2.712"/>
        <g transform="translate(155.233 108.382)">
            <use fill="#3DBB8C" xlink:href="#m"/>
            <path stroke="#682B90" stroke-width="1.5" d="M3.553 3.6l.697 1.132.966 1.568H3.848l.675 1.134 1.263 2.12H1.32l1.262-2.12.676-1.134H1.889l.966-1.568.698-1.133zm0 0l.006-.012H2.381l1.172-2.067 1.172 2.067H3.546l.007.011z"/>
        </g>
        <path fill="#FFF" stroke="#682B90" stroke-linecap="square" stroke-width="1.5" d="M157.721 118.957v2.712"/>
        <g transform="translate(181.524 91.257)">
            <use fill="#3DBB8C" xlink:href="#n"/>
            <path stroke="#682B90" stroke-width="1.5" d="M3.553 3.6l.697 1.132.966 1.568H3.848l.675 1.134 1.263 2.12H1.32l1.262-2.12.676-1.134H1.889l.966-1.568.698-1.133zm0 0l.006-.012H2.381l1.172-2.067 1.172 2.067H3.546l.007.011z"/>
        </g>
        <path fill="#FFF" stroke="#682B90" stroke-linecap="square" stroke-width="1.5" d="M184.012 101.832v2.711"/>
        <g transform="translate(82.045 76.272)">
            <use fill="#3DBB8C" xlink:href="#o"/>
            <path stroke="#682B90" stroke-width="1.5" d="M3.553 3.6l.697 1.132.966 1.568H3.848l.675 1.134 1.263 2.12H1.32l1.262-2.12.676-1.134H1.889l.966-1.568.698-1.133zm0 0l.006-.012H2.381l1.172-2.067 1.172 2.067H3.546l.007.011z"/>
        </g>
        <path fill="#FFF" stroke="#682B90" stroke-linecap="square" stroke-width="1.5" d="M84.534 86.847v2.712"/>
        <g transform="translate(203.55 73.418)">
            <use fill="#3DBB8C" xlink:href="#p"/>
            <path stroke="#682B90" stroke-width="1.5" d="M3.553 3.6l.697 1.132.966 1.568H3.848l.675 1.134 1.263 2.12H1.32l1.262-2.12.676-1.134H1.889l.966-1.568.698-1.133zm0 0l.006-.012H2.381l1.172-2.067 1.172 2.067H3.546l.007.011z"/>
        </g>
        <path fill="#FFF" stroke="#682B90" stroke-linecap="square" stroke-width="1.5" d="M206.039 83.993v2.711"/>
        <g transform="translate(116.863 119.8)">
            <use fill="#3DBB8C" xlink:href="#q"/>
            <path stroke="#682B90" stroke-width="1.5" d="M3.553 3.6l.697 1.132.966 1.568H3.848l.675 1.134 1.263 2.12H1.32l1.262-2.12.676-1.134H1.889l.966-1.568.698-1.133zm0 0l.006-.012H2.381l1.172-2.067 1.172 2.067H3.546l.007.011z"/>
        </g>
        <path fill="#FFF" stroke="#682B90" stroke-linecap="square" stroke-width="1.5" d="M119.35 130.374v2.712"/>
        <g transform="translate(135.337 71.99)">
            <use fill="#3DBB8C" xlink:href="#r"/>
            <path stroke="#682B90" stroke-width="1.5" d="M2.842 4.936l.648 1.088.875 1.469H1.32l.875-1.47.647-1.087zm0-1.77l.274-.445h-.954l.68-1.2.68 1.2h-.954l.274.444zm0 0l.43.698.632 1.026h-1.09l.028.046.028-.046H1.78l.632-1.026.43-.699z"/>
        </g>
        <path fill="#FFF" stroke="#682B90" stroke-linecap="square" stroke-width="1.5" d="M137.825 80.45v2.17"/>
        <g transform="translate(74.23 85.548)">
            <use fill="#FFF" xlink:href="#s"/>
            <path stroke="#682B90" stroke-width="1.5" d="M2.842 4.936l.648 1.088.875 1.469H1.32l.875-1.47.647-1.087zm0-1.77l.274-.445h-.954l.68-1.2.68 1.2h-.954l.274.444zm0 0l.43.698.632 1.026h-1.09l.028.046.028-.046H1.78l.632-1.026.43-.699z"/>
        </g>
        <path fill="#FFF" stroke="#682B90" stroke-linecap="square" stroke-width="1.5" d="M76.717 94.008v2.17"/>
        <g transform="translate(63.57 70.564)">
            <use fill="#3DBB8C" xlink:href="#t"/>
            <path stroke="#682B90" stroke-width="1.5" d="M2.842 4.936l.648 1.088.875 1.469H1.32l.875-1.47.647-1.087zm0-1.77l.274-.445H2.162l.68-1.2.68 1.2h-.954l.274.444zm0 0l.43.698.632 1.026h-1.09l.028.046.028-.046H1.78l.632-1.026.43-.699z"/>
        </g>
        <path fill="#FFF" stroke="#682B90" stroke-linecap="square" stroke-width="1.5" d="M66.059 79.024v2.169"/>
        <g transform="translate(143.153 105.528)">
            <use fill="#3DBB8C" xlink:href="#u"/>
            <path stroke="#682B90" stroke-width="1.5" d="M2.842 4.936l.648 1.088.875 1.469H1.32l.875-1.47.647-1.087zm0-1.77l.274-.445h-.954l.68-1.2.68 1.2h-.954l.274.444zm0 0l.43.698.632 1.026h-1.09l.028.046.028-.046H1.78l.632-1.026.43-.699z"/>
        </g>
        <path fill="#FFF" stroke="#682B90" stroke-linecap="square" stroke-width="1.5" d="M145.642 113.988v2.17"/>
        <g transform="translate(182.945 122.653)">
            <use fill="#FFF" xlink:href="#v"/>
            <path stroke="#682B90" stroke-width="1.5" d="M2.842 4.936l.648 1.088.875 1.469H1.32l.875-1.47.647-1.087zm0-1.77l.274-.445h-.954l.68-1.2.68 1.2h-.954l.274.444zm0 0l.43.698.632 1.026h-1.09l.028.046.028-.046H1.78l.632-1.026.43-.699z"/>
        </g>
        <path fill="#FFF" stroke="#682B90" stroke-linecap="square" stroke-width="1.5" d="M185.433 131.113v2.17"/>
        <g transform="translate(195.735 89.116)">
            <use fill="#3DBB8C" xlink:href="#w"/>
            <path stroke="#682B90" stroke-width="1.5" d="M2.568 2.72h-.406l.68-1.2.68 1.2h-.954zm.274 2.216l.648 1.088.875 1.469H1.32l.875-1.47.647-1.087zm0-1.77l.43.698.632 1.026h-1.09l.028.046.028-.046H1.78l.632-1.026.43-.699z"/>
        </g>
        <path fill="#FFF" stroke="#682B90" stroke-linecap="square" stroke-width="1.5" d="M198.223 97.576v2.17"/>
        <g transform="translate(190.05 69.85)">
            <use fill="#3DBB8C" xlink:href="#x"/>
            <path stroke="#682B90" stroke-width="1.5" d="M2.842 4.936l.648 1.088.875 1.469H1.32l.875-1.47.647-1.087zm0-1.77l.274-.445h-.954l.68-1.2.68 1.2h-.954l.274.444zm0 0l.43.698.632 1.026h-1.09l.028.046.028-.046H1.78l.632-1.026.43-.699z"/>
        </g>
        <path fill="#FFF" stroke="#682B90" stroke-linecap="square" stroke-width="1.5" d="M192.538 78.31v2.17"/>
        <g stroke="#682B90" stroke-width="1.5">
            <path fill="#3DBB8C" d="M133.963 131.033a2.007 2.007 0 0 1-.136-.729c0-1.073.835-1.942 1.866-1.942 1.03 0 1.865.87 1.865 1.942 0 .258-.048.504-.136.729.467.47.758 1.13.758 1.86 0 1.43-1.114 2.59-2.487 2.59-1.374 0-2.487-1.16-2.487-2.59 0-.73.29-1.39.757-1.86z"/>
            <path fill="#FFF" stroke-linecap="square" d="M135.468 139.065v-7.259"/>
            <path fill="#FFF" d="M134.864 132.505l.915.953M135.858 133.897l1.005-1.047"/>
        </g>
        <g stroke="#682B90" stroke-width="1.5" transform="translate(90.572 132.643)">
            <ellipse cx="3.566" cy="3.534" fill="#3DBB8C" rx="3.324" ry="3.306"/>
            <path fill="#FFF" stroke-linecap="square" d="M3.167 9.06V3.31"/>
            <path fill="#FFF" d="M2.634 3.945l.813.809M3.553 4.43l1.345-1.338"/>
        </g>
        <g stroke="#682B90" stroke-width="1.5" transform="translate(121.126 151.91)">
            <ellipse cx="3.566" cy="3.534" fill="#FF9595" rx="3.324" ry="3.306"/>
            <path fill="#FFF" stroke-linecap="square" d="M3.167 9.06V3.31"/>
            <path fill="#FFF" d="M2.634 3.945l.813.809M3.553 4.43l1.345-1.338"/>
        </g>
        <g stroke="#682B90" stroke-width="1.5" transform="translate(83.467 109.096)">
            <ellipse cx="3.566" cy="3.534" fill="#3DBB8C" rx="3.324" ry="3.306"/>
            <path fill="#FFF" stroke-linecap="square" d="M2.545 10.356V3.31"/>
            <path fill="#FFF" d="M2.634 3.945l.813.809M3.553 4.43l1.345-1.338"/>
        </g>
        <g stroke="#682B90" stroke-width="1.5" transform="translate(165.891 135.497)">
            <ellipse cx="3.923" cy="3.976" fill="#3DBB8C" rx="3.656" ry="3.72"/>
            <path fill="#FFF" stroke-linecap="square" d="M2.545 11.65V3.723"/>
            <path fill="#FFF" d="M2.897 4.438l.894.91M3.908 4.984l1.48-1.505"/>
        </g>
        <g stroke="#682B90" stroke-width="1.5" transform="translate(63.57 109.096)">
            <ellipse cx="3.566" cy="3.534" fill="#FF9595" rx="3.324" ry="3.306"/>
            <path fill="#FFF" stroke-linecap="square" d="M2.545 11.068V3.31"/>
            <path fill="#FFF" d="M2.634 3.945l.813.809M3.553 4.43l1.345-1.338"/>
        </g>
        <g transform="translate(3.173 92.684)">
            <use fill="#FFF" xlink:href="#y"/>
            <path stroke="#682B90" stroke-width="1.5" d="M1.461 15.021h7.737v5.636H1.461z"/>
        </g>
        <g transform="translate(3.173 92.684)">
            <use fill="#FFF" xlink:href="#z"/>
            <path stroke="#682B90" stroke-width="1.5" d="M.75 12.88h9.869v1.354H.75z"/>
        </g>
        <g transform="translate(3.173 92.684)">
            <use fill="#FFF" xlink:href="#A"/>
            <path stroke="#682B90" stroke-width="1.5" d="M1.461 5.745h3.474v6.349H1.461z"/>
        </g>
        <g transform="translate(3.173 92.684)">
            <use fill="#FFF" xlink:href="#B"/>
            <path stroke="#682B90" stroke-width="1.5" d="M3.513 12.094h-.631V8.908a.31.31 0 0 1 .316-.309c.173 0 .315.142.315.31v3.185z"/>
        </g>
        <g transform="translate(3.173 92.684)">
            <use fill="#FFF" xlink:href="#C"/>
            <path stroke="#682B90" stroke-width="1.5" d="M8.487 12.094h-.631v-1.747a.316.316 0 1 1 .631 0v1.747z"/>
        </g>
        <g transform="translate(3.173 92.684)">
            <use fill="#FFF" xlink:href="#D"/>
            <path stroke="#682B90" stroke-width="1.5" d="M.75 4.318h4.895v1H.75z"/>
        </g>
        <path fill="#FFF" stroke="#682B90" stroke-linecap="square" stroke-width="1.5" d="M3.852 96.608v-2.14M6.566 96.608v-3.567"/>
        <g transform="translate(3.173 92.684)">
            <use fill="#FFF" xlink:href="#E"/>
            <path stroke="#682B90" stroke-width="1.5" d="M7.145 8.599h2.053v3.495H7.145z"/>
        </g>
        <g transform="translate(3.173 92.684)">
            <use fill="#FFF" xlink:href="#F"/>
            <path stroke="#682B90" stroke-width="1.5" d="M5.645 20.657H2.882v-2.112c0-.767.613-1.383 1.381-1.383.76 0 1.382.624 1.382 1.383v2.112z"/>
        </g>
        <g transform="translate(139.6 150.482)">
            <use fill="#FF9595" xlink:href="#G"/>
            <path stroke="#682B90" stroke-width="1.5" d="M.75 11.376V5.305l3.513-3.529 3.514 3.529v6.071c-.001-.028-.009-.025-.05.008-.138.11-.374.226-.687.33-.712.24-1.707.38-2.777.38s-2.064-.14-2.776-.38c-.313-.104-.549-.22-.687-.33-.041-.033-.049-.036-.05-.008z"/>
        </g>
        <path fill="#FFF" stroke="#682B90" stroke-linecap="square" stroke-width="1.5" d="M142.994 151.91v-1.428"/>
        <path fill="#FFF" stroke="#682B90" stroke-width="1.5" d="M140.311 155.477c0 .394 1.59.714 3.553.714 1.962 0 3.553-.32 3.553-.714"/>
        <path stroke="#682B90" stroke-width="1.5" d="M142.968 161.901l1.011-1.944 1.012 1.944h-2.023z"/>
        <path fill="#FFF" stroke="#682B90" stroke-linecap="square" stroke-width="1.5" d="M133.046 151.196v-1.427"/>
        <g transform="translate(129.653 149.769)">
            <use fill="#FF9595" xlink:href="#H"/>
            <path stroke="#682B90" stroke-width="1.5" d="M3.553 2.447l2.666 5.557-.077.048c-.486.286-1.321.474-2.59.474-1.267 0-2.102-.188-2.588-.474a2.506 2.506 0 0 1-.077-.048l2.666-5.557z"/>
        </g>
        <g transform="translate(129.653 149.769)">
            <use fill="#FFF" xlink:href="#I"/>
            <path stroke="#682B90" stroke-width="1.5" d="M3.553 7.501l.458.996c-.122.018-.274.03-.458.03-.185 0-.337-.012-.459-.03l.459-.996z"/>
        </g>
        <path fill="#3DBB8C" stroke="#682B90" stroke-width="1.5" d="M169.8 61.287l-3.909 2.855 1.421 2.854h2.487l6.395-3.925v-2.14zM136.758 56.292l-2.664 4.639-2.665-5.352 2.487-3.568zM97.678 66.639l-2.132 2.854-1.421.357-1.776-3.568 1.42-4.281 10.304-1.07 11.369.713v1.784zM22.714 126.935l4.618-6.066 5.33 6.78h1.42l1.067-1.071 1.065 1.07h1.777"/>
        <path fill="#FFF" stroke="#682B90" stroke-width="1.5" d="M23.07 129.789h2.13l1.422-1.427 1.066 1.427h4.618"/>
        <g stroke="#682B90" stroke-width="1.5">
            <path fill="#3DBB8C" d="M29.82 124.08l3.552-4.994 7.816 9.276"/>
            <path fill="#FFF" d="M30.885 121.94l1.066 1.23 1.244-1.23 1.243 1.243 1.066-1.243"/>
        </g>
        <g stroke="#682B90" stroke-width="1.5">
            <path fill="#3DBB8C" d="M92.349 95.538l4.263-4.995 7.008 8.317"/>
            <path fill="#FFF" d="M94.125 93.397l1.066 1.232 1.243-1.232 1.244 1.244 1.066-1.244"/>
        </g>
        <g stroke="#682B90" stroke-width="1.5">
            <path fill="#3DBB8C" d="M106.915 104.458l5.33-6.066 5.328 6.066"/>
            <path fill="#FFF" d="M109.757 101.247l1.066 1.23 1.244-1.23 1.243 1.243 1.066-1.243"/>
        </g>
        <g stroke="#682B90" stroke-width="1.5">
            <path fill="#3DBB8C" d="M84.177 100.533l6.04-7.136 6.04 7.136"/>
            <path fill="#FFF" d="M87.73 96.252l1.066 1.23 1.243-1.23 1.244 1.243 1.066-1.243"/>
        </g>
        <g stroke="#682B90" stroke-width="1.5">
            <path fill="#3DBB8C" d="M99.81 103.387l6.04-7.135 4.164 4.92"/>
            <path fill="#FFF" d="M103.362 99.106l1.066 1.231 1.243-1.231 1.244 1.243 1.066-1.243"/>
        </g>
        <path fill="#FFF" stroke="#682B90" stroke-width="1.5" d="M82.756 100.533h4.974l1.421-1.427 1.421 1.427h1.777M101.23 104.603h2.106l1.21-1.216 1.211 1.216h1.513"/>
        <g stroke="#682B90" stroke-width="1.5">
            <path fill="#3DBB8C" d="M35.86 121.94l6.394-8.206 4.264 4.995"/>
            <path fill="#FFF" d="M40.123 116.231l1.065 1.231 1.244-1.23 1.243 1.242 1.066-1.243"/>
        </g>
        <g stroke="#682B90" stroke-width="1.5">
            <path fill="#3DBB8C" d="M43.675 122.653c0-.356 5.33-7.135 5.33-7.135l5.329 6.779"/>
            <path fill="#FFF" d="M46.518 118.372l1.147 1.326 1.34-1.326 1.339 1.339 1.147-1.339"/>
        </g>
        <path fill="#3DBB8C" stroke="#682B90" stroke-width="1.5" d="M163.05 122.653l4.262-5.708 5.33 7.135h1.776l1.066-1.07 1.066 1.07h1.776M163.05 125.508h2.13l1.422-1.428 1.421 1.428h4.263"/>
        <path fill="#3DBB8C" stroke="#682B90" stroke-width="1.5" d="M169.444 120.513l3.553-4.995 5.684 7.135"/>
        <g stroke="#682B90" stroke-width="1.5">
            <path fill="#3DBB8C" d="M149.548 151.98l4.264-5.422 5.329 6.778h1.776l1.066-1.016 1.066 1.016h1.776"/>
            <path d="M156.299 149.412l3.607-4.638 6.34 7.849"/>
            <path d="M164.115 150.125l2.268-2.497 2.35 2.854"/>
        </g>
        <g fill="#3DBB8C" stroke="#682B90" stroke-width="1.5">
            <path d="M97.678 129.147l-4.264-5.423-5.329 6.778H86.31l-1.066-1.016-1.066 1.016h-1.776"/>
            <path d="M91.283 127.434l-3.963-5.494-6.34 7.849"/>
            <path d="M83.111 127.291l-2.268-2.497-2.35 2.854"/>
        </g>
        <path fill="#3DBB8C" stroke="#682B90" stroke-width="1.5" d="M175.84 117.658l6.394-7.849 4.263 4.995M184.01 118.372l5.33-6.779 4.974 6.422"/>
        <g>
            <g transform="translate(150.97 86.262)">
                <use fill="#FFF" xlink:href="#J"/>
                <path stroke="#682B90" stroke-width="1.5" d="M6.395 5.816l5.496 9.811c-.108.08-.265.181-.488.294-.987.498-2.61.811-5.008.811s-4.02-.313-5.008-.811a3.308 3.308 0 0 1-.488-.294l5.496-9.81z"/>
            </g>
            <g transform="translate(150.97 86.262)">
                <use fill="#3DBB8C" xlink:href="#K"/>
                <path stroke="#682B90" stroke-width="1.5" d="M5.428 16.022l1.265-2.258 1.265 2.258h-2.53z"/>
            </g>
            <path fill="#FFF" stroke="#682B90" stroke-width="1.5" d="M157.72 91.97l-2.842-5.351M155.943 88.403l2.132-1.428M156.654 89.83l2.132-1.427"/>
        </g>
        <path fill="#FFF" stroke="#682B90" stroke-width="1.5" d="M78.016 168.632h1.798c.589 0 1.524.142 2.087.316l2.556.794c.563.175 1.474.156 2.03-.041l4.019-1.425c.558-.197 1.447-.183 2.013.045l3.325 1.335c.553.223 1.46.25 2.014.064l1.174-.393M88.884 176.7h.562c.637 0 1.608.252 2.163.56l.734.408c.557.31 1.438.289 1.978-.054L96 176.55c.535-.34 1.386-.314 1.9.055l1.329.955c.514.37 1.376.404 1.911.083l-.045.027M171.217 166.615h1.798c.59 0 1.524.142 2.087.317l2.556.793c.563.175 1.474.156 2.031-.041l4.018-1.424c.558-.198 1.447-.183 2.013.044l3.325 1.335c.553.223 1.46.25 2.014.064l1.174-.393M13.99 85.302h1.042c.395 0 1.016.101 1.396.23l1.453.49c.377.128.973.12 1.344-.024l2.378-.917c.366-.14.964-.123 1.323.034l1.945.85c.365.159.967.177 1.324.046l.633-.23M234.815 167.345h2.067c.44 0 1.128.103 1.557.236l3.078.955c.42.13 1.101.115 1.5-.026l4.558-1.616M108.637 176.714l2.213-1.037c.358-.168.932-.172 1.289-.004l1.363.638c.353.166.933.163 1.285-.002l1.267-.594c.357-.167.941-.165 1.291 0l1.117.523c.356.167.927.17 1.3-.004l.995-.467c.361-.17.939-.173 1.303-.003l2.21 1.036"/>
        <g stroke="#682B90" stroke-width="1.5" transform="translate(31.77 152.208)">
            <path fill="#FFF" d="M0 21.973h3.362c.592 0 1.54.093 2.123.21l5.017 1.006c.58.117 1.527.102 2.087-.026l7.279-1.667c.572-.13 1.503-.116 2.081.034l6.162 1.599c.577.15 1.52.168 2.095.044l2.85-.617M3.553 17.691h2.53c.497 0 1.296.103 1.76.223l3.786.981c.475.124 1.249.108 1.718-.03l5.518-1.633c.474-.14 1.238-.127 1.706.03l4.687 1.572"/>
            <path fill="#00BF78" d="M12.79 22.834l.568-7.85h4.548l.569 6.423"/>
            <path fill="#FFF" stroke-linecap="square" d="M13.145 18.798h5.025M13.145 16.08h5.025"/>
            <path fill="#FFF" d="M24.159 11.06h-8.882c-1.865 0-3.198-1.427-3.198-3.21V4.994c0-1.427-.71-1.784-1.776-1.784H8.171s.356-1.784 1.777-1.784h1.42s.356-1.07 2.133-1.07c1.776 0 2.487 1.07 2.487 2.497v2.854l8.171 5.352z"/>
            <path stroke-linecap="square" d="M18.83 11.06l-1.421 3.568M16.698 11.06l-1.421 3.568"/>
            <path fill="#FFF" d="M24.514 11.06s-4.618-4.638-6.04-5.708c-1.42-1.07-3.197-.714-3.908.713-.71 1.427 0 3.211 2.132 3.925 2.132.713 7.816 1.07 7.816 1.07z"/>
            <ellipse cx="12.79" cy="2.141" fill="#FFF" rx="1" ry="1"/>
        </g>
        <g>
            <path fill="#FFF" stroke="#682B90" stroke-width="1.5" d="M156.605 197.23h2.067c.44 0 1.128.103 1.557.236l3.078.956c.42.13 1.101.114 1.5-.027l4.558-1.616M114.683 196.78s-2.487 2.14-5.685 2.14M141.684 198.207s3.908 1.427 6.395-.714"/>
            <g transform="translate(108.998 176.8)">
                <use fill="#FFF" xlink:href="#L"/>
                <rect width="3.474" height="9.917" x="22.067" y="9.313" stroke="#682B90" stroke-width="1.5" rx="1.737"/>
            </g>
            <g transform="translate(108.998 176.8)">
                <use fill="#FFF" xlink:href="#M"/>
                <ellipse cx="23.448" cy="6.422" stroke="#682B90" stroke-width="1.5" rx="1.382" ry="1.391"/>
            </g>
            <path fill="#B7B8DC" stroke="#682B90" stroke-width="1.5" d="M142.162 197.837a16.065 16.065 0 0 0 2.296-6.074c-4.731.618-9.557.937-14.456.937-5.888 0-11.669-.46-17.309-1.347a16.06 16.06 0 0 0 1.76 5.461c.472-.15.917-.308 1.322-.471l-1.295.52.027.052c2.549-.7 6.057-.534 8.3.457l-.26-.115c2.524 1.116 6.62 1.115 9.141 0l-.26.115c2.525-1.115 6.614-1.08 9.11.069l-.55-.253c.643.296 1.386.511 2.174.649z"/>
            <path fill="#FFF" stroke="#682B90" stroke-width="1.5" d="M128.538 183.579s5.33-.357 7.461-1.784M132.488 187.146c1.192.714 3.971 2.141 5.162 2.498 1.191.357 1.191.713 1.191 1.07 0 .357-.397 1.07-2.382.357-1.985-.714-4.723-2.14-4.723-2.14"/>
            <path stroke="#682B90" stroke-width="1.5" d="M138.486 190.357l24.514-13.2-1.776 20.336"/>
            <path fill="#FFF" stroke="#682B90" stroke-width="1.5" d="M164.066 198.563l1.421-2.854"/>
        </g>
        <path fill="#D8D8D8" d="M8.238 123.533l-1.357-5.889 8.143-2.265 6.786 7.248 9.047-3.171 5.429-4.077 3.166-6.341L39 95.449l7.238-10.87-.452-4.983 1.357-7.7 8.143-6.342 8.143 4.077s8.142-8.607 8.142-9.513c0-.906 4.072-5.888 4.072-5.888l-4.976.906-4.524 7.247-4.976 3.17-8.143.454-11.31 6.794v10.871l-8.143 6.795-1.81 8.606 3.62 9.965-1.81 7.247h-9.047l-15.381-9.512L1 110.85l5.429 12.23 1.81.453z" opacity=".4" style="mix-blend-mode:overlay"/>
    </g>
</svg>
