<?xml version="1.0" encoding="utf-8"?>
<!-- Generator: Adobe Illustrator 21.1.0, SVG Export Plug-In . SVG Version: 6.00 Build 0)  -->
<svg version="1.1" id="Слой_1" xmlns="http://www.w3.org/2000/svg" xmlns:xlink="http://www.w3.org/1999/xlink" x="0px" y="0px"
	 viewBox="0 0 190 133" style="enable-background:new 0 0 190 133;" xml:space="preserve">
<style type="text/css">
	.st0{fill:#E4E4E4;}
	.st1{fill:#BCC0CC;}
	.st2{fill:#666B7F;}
	.st3{fill:#B40014;}
	.st4{fill:#7A00FD;}
	.st5{fill:#D8D8D8;}
	.st6{fill:#FFFFFF;}
</style>
<g>
	<g>
		<g>
			<g>
				<rect x="45.6" y="49.2" class="st0" width="103.3" height="7.4"/>
			</g>
		</g>
		<g>
			<g>
				<rect x="45.6" y="49.2" class="st1" width="103.3" height="3"/>
			</g>
		</g>
		<g>
			<g>
				<path class="st0" d="M80.2,44.8H58.1c-2.4,0-4.4,2-4.4,4.4v0h31l0,0v0C84.7,46.8,82.7,44.8,80.2,44.8z"/>
			</g>
			<g>
				<path class="st2" d="M155.5,50.7H33v-3h122.5c2.4,0,4.4-2,4.4-4.4V25.6c0-2.4-2-4.4-4.4-4.4H51.4v-3h104.1
					c4.1,0,7.4,3.3,7.4,7.4v17.7C162.9,47.4,159.6,50.7,155.5,50.7z"/>
			</g>
			<g>
				<circle class="st3" cx="148.9" cy="34.5" r="4.4"/>
			</g>
			<g>
				<rect x="76.6" y="33.4" class="st0" width="59" height="3"/>
			</g>
			<g>
				<path class="st2" d="M85.9,49.7H52.4v-2.4c0-2.5,2-4.5,4.5-4.5h24.5c2.5,0,4.5,2,4.5,4.5V49.7z M53.4,48.7h31.5v-1.4
					c0-1.9-1.6-3.5-3.5-3.5H56.9c-1.9,0-3.5,1.6-3.5,3.5V48.7z"/>
			</g>
		</g>
		<g>
			<circle class="st0" cx="38.2" cy="27.1" r="2.2"/>
		</g>
		<g>
			<circle class="st0" cx="47" cy="27.1" r="2.2"/>
		</g>
		<g>
			<circle class="st0" cx="55.9" cy="27.1" r="2.2"/>
		</g>
		<g>
			<g>
				<path class="st2" d="M149.4,57.1H45.1v-8.4h104.3V57.1z M46.1,56.1h102.3v-6.4H46.1V56.1z"/>
			</g>
		</g>
	</g>
	<g>
		<g>
			<g>
				<rect x="45.6" y="86.1" class="st0" width="103.3" height="7.4"/>
			</g>
		</g>
		<g>
			<g>
				<rect x="45.6" y="86.1" class="st1" width="103.3" height="3"/>
			</g>
		</g>
		<g>
			<g>
				<path class="st0" d="M80.2,81.7H58.1c-2.4,0-4.4,2-4.4,4.4v0h31l0,0v0C84.7,83.7,82.7,81.7,80.2,81.7z"/>
			</g>
			<g>
				<path class="st2" d="M157.4,87.6H32.6c-3,0-5.5-2.5-5.5-5.5V60.6c0-3,2.5-5.5,5.5-5.5h124.8c3,0,5.5,2.5,5.5,5.5v21.5
					C162.9,85.1,160.4,87.6,157.4,87.6z M32.6,58.1c-1.4,0-2.5,1.1-2.5,2.5v21.5c0,1.4,1.1,2.5,2.5,2.5h124.8c1.4,0,2.5-1.1,2.5-2.5
					V60.6c0-1.4-1.1-2.5-2.5-2.5H32.6z"/>
			</g>
			<g>
				<circle class="st4" cx="148.9" cy="71.4" r="4.4"/>
			</g>
			<g>
				<rect x="76.6" y="70.2" class="st0" width="59" height="3"/>
			</g>
			<g>
				<path class="st2" d="M85.9,86.6H52.4v-2.4c0-2.5,2-4.5,4.5-4.5h24.5c2.5,0,4.5,2,4.5,4.5V86.6z M53.4,85.6h31.5v-1.4
					c0-1.9-1.6-3.5-3.5-3.5H56.9c-1.9,0-3.5,1.6-3.5,3.5V85.6z"/>
			</g>
		</g>
		<g>
			<circle class="st0" cx="38.2" cy="64" r="2.2"/>
		</g>
		<g>
			<circle class="st0" cx="47" cy="64" r="2.2"/>
		</g>
		<g>
			<circle class="st0" cx="55.9" cy="64" r="2.2"/>
		</g>
		<g>
			<g>
				<path class="st2" d="M149.4,94H45.1v-8.4h104.3V94z M46.1,93h102.3v-6.4H46.1V93z"/>
			</g>
		</g>
	</g>
	<g>
		<g>
			<g>
				<rect x="45.6" y="123" class="st0" width="103.3" height="7.4"/>
			</g>
		</g>
		<g>
			<g>
				<rect x="45.6" y="123" class="st1" width="103.3" height="3"/>
			</g>
		</g>
		<g>
			<g>
				<path class="st0" d="M80.2,118.6H58.1c-2.4,0-4.4,2-4.4,4.4l0,0l31,0l0,0v0C84.7,120.6,82.7,118.6,80.2,118.6z"/>
			</g>
			<g>
				<path class="st2" d="M157.4,124.5H32.6c-3,0-5.5-2.5-5.5-5.5V97.5c0-3,2.5-5.5,5.5-5.5h124.8c3,0,5.5,2.5,5.5,5.5V119
					C162.9,122,160.4,124.5,157.4,124.5z M32.6,95c-1.4,0-2.5,1.1-2.5,2.5V119c0,1.4,1.1,2.5,2.5,2.5h124.8c1.4,0,2.5-1.1,2.5-2.5
					V97.5c0-1.4-1.1-2.5-2.5-2.5H32.6z"/>
			</g>
			<g>
				<circle class="st4" cx="148.9" cy="108.2" r="4.4"/>
			</g>
			<g>
				<rect x="76.6" y="107.1" class="st0" width="59" height="3"/>
			</g>
			<g>
				<path class="st2" d="M85.9,123.5H52.4v-2.4c0-2.5,2-4.5,4.5-4.5h24.5c2.5,0,4.5,2,4.5,4.5V123.5z M53.4,122.5h31.5v-1.4
					c0-1.9-1.6-3.5-3.5-3.5H56.9c-1.9,0-3.5,1.6-3.5,3.5V122.5z"/>
			</g>
		</g>
		<g>
			<circle class="st0" cx="38.2" cy="100.9" r="2.2"/>
		</g>
		<g>
			<circle class="st0" cx="47" cy="100.9" r="2.2"/>
		</g>
		<g>
			<circle class="st0" cx="55.9" cy="100.9" r="2.2"/>
		</g>
		<g>
			<g>
				<path class="st2" d="M149.4,130.9H45.1v-8.4h104.3V130.9z M46.1,129.9h102.3v-6.4H46.1V129.9z"/>
			</g>
		</g>
	</g>
	<g>
		<g>
			<rect x="165.8" y="34.3" class="st5" width="1" height="1"/>
		</g>
		<g>
			<path class="st5" d="M170.1,71.9C170.1,71.9,170.1,71.9,170.1,71.9h-1.2v-1h1.1c0.3,0,0.6,0,0.9,0l0.1,1
				C170.7,71.8,170.4,71.9,170.1,71.9z M173.1,71.4l-0.3-1c0.6-0.2,1.2-0.4,1.8-0.7l0.4,0.9C174.5,71,173.8,71.2,173.1,71.4z
				 M176.9,69.5l-0.6-0.8c0.5-0.4,1-0.8,1.4-1.3l0.7,0.7C178,68.6,177.5,69.1,176.9,69.5z M179.8,66.4l-0.9-0.5
				c0.3-0.6,0.6-1.1,0.9-1.8l0.9,0.4C180.5,65.1,180.2,65.8,179.8,66.4z M181.3,62.4l-1-0.2c0.1-0.6,0.2-1.2,0.2-1.8v-0.2h1v0.2
				C181.5,61.1,181.4,61.8,181.3,62.4z M181.5,58.2h-1v-2.1h1V58.2z M181.5,54.1h-1v-2.1h1V54.1z M181.5,50h-1V48h1V50z M181.5,45.9
				h-1v-0.2c0-0.6-0.1-1.2-0.2-1.8l1-0.2c0.1,0.6,0.2,1.3,0.2,2V45.9z M179.8,42.1c-0.2-0.6-0.5-1.2-0.9-1.8l0.9-0.5
				c0.4,0.6,0.7,1.3,0.9,1.9L179.8,42.1z M177.7,38.7c-0.4-0.5-0.9-0.9-1.4-1.3l0.6-0.8c0.6,0.4,1.1,0.9,1.6,1.4L177.7,38.7z
				 M174.6,36.4c-0.6-0.3-1.2-0.5-1.8-0.7l0.3-1c0.7,0.2,1.4,0.4,2,0.8L174.6,36.4z M170.9,35.4c-0.3,0-0.6,0-0.8,0h-1.2v-1h1.2
				c0.3,0,0.6,0,0.9,0L170.9,35.4z"/>
		</g>
		<g>
			<rect x="165.8" y="70.9" class="st5" width="1" height="1"/>
		</g>
	</g>
	<g>
		<g>
			<rect x="23.2" y="71.2" class="st5" width="1" height="1"/>
		</g>
		<g>
			<path class="st5" d="M21.1,108.7h-1.1c-0.3,0-0.6,0-0.9,0l0.1-1c0.3,0,0.6,0,0.9,0h1.1V108.7z M16.9,108.3
				c-0.7-0.2-1.4-0.4-2-0.8l0.4-0.9c0.6,0.3,1.2,0.5,1.8,0.7L16.9,108.3z M13.1,106.4c-0.6-0.4-1.1-0.9-1.6-1.4l0.7-0.7
				c0.4,0.5,0.9,0.9,1.4,1.3L13.1,106.4z M10.2,103.3c-0.4-0.6-0.7-1.3-0.9-1.9l0.9-0.4c0.2,0.6,0.5,1.2,0.9,1.8L10.2,103.3z
				 M8.7,99.3c-0.1-0.6-0.2-1.3-0.2-1.9v-0.2h1v0.2c0,0.6,0.1,1.2,0.1,1.8L8.7,99.3z M9.5,95.1h-1v-2.1h1V95.1z M9.5,91h-1v-2.1h1
				V91z M9.5,86.9h-1v-2.1h1V86.9z M9.5,82.8h-1v-0.2c0-0.7,0.1-1.3,0.2-2l1,0.2c-0.1,0.6-0.2,1.2-0.2,1.8V82.8z M10.2,78.9
				l-0.9-0.4c0.3-0.7,0.6-1.3,0.9-1.9l0.9,0.5C10.7,77.8,10.4,78.3,10.2,78.9z M12.2,75.6L11.5,75c0.5-0.5,1-1,1.6-1.4l0.6,0.8
				C13.2,74.7,12.7,75.1,12.2,75.6z M15.4,73.3l-0.4-0.9c0.6-0.3,1.3-0.6,2-0.8l0.3,1C16.6,72.8,15.9,73,15.4,73.3z M19.1,72.3
				l-0.1-1c0.3,0,0.6,0,0.9,0h1.2v1h-1.2C19.7,72.2,19.4,72.2,19.1,72.3z"/>
		</g>
		<g>
			<rect x="23.2" y="107.7" class="st5" width="1" height="1"/>
		</g>
	</g>
	<g>
		<path class="st2" d="M165.8,130.9H24.2c-0.3,0-0.5-0.2-0.5-0.5s0.2-0.5,0.5-0.5h141.7c0.3,0,0.5,0.2,0.5,0.5
			S166.1,130.9,165.8,130.9z"/>
	</g>
	<g>
		<path class="st2" d="M185,130.9h-13.3c-0.3,0-0.5-0.2-0.5-0.5s0.2-0.5,0.5-0.5H185c0.3,0,0.5,0.2,0.5,0.5S185.3,130.9,185,130.9z"
			/>
	</g>
	<g>
		<path class="st2" d="M18.3,130.9H5c-0.3,0-0.5-0.2-0.5-0.5s0.2-0.5,0.5-0.5h13.3c0.3,0,0.5,0.2,0.5,0.5S18.6,130.9,18.3,130.9z"/>
	</g>
	<g>
		<circle class="st6" cx="26.5" cy="23.7" r="20.5"/>
		<path class="st2" d="M26.5,45.7c-12.1,0-22-9.9-22-22c0-12.1,9.9-22,22-22s22,9.9,22,22C48.5,35.9,38.7,45.7,26.5,45.7z M26.5,4.7
			c-10.5,0-19,8.5-19,19c0,10.5,8.5,19,19,19s19-8.5,19-19C45.5,13.2,37,4.7,26.5,4.7z"/>
	</g>
	<g>
		<g>
			<path class="st3" d="M28,29.3h-2.4l-1.1-10.7v-7.2h4.6v7.1L28,29.3z M28.7,36.2h-3.8v-4.7h3.8V36.2z"/>
		</g>
	</g>
</g>
</svg>
