<svg xmlns="http://www.w3.org/2000/svg" xmlns:xlink="http://www.w3.org/1999/xlink" width="182" height="130" viewBox="0 0 182 130">
    <defs>
        <path id="a" d="M0 130h181.02V.804H0z"/>
    </defs>
    <g fill="none" fill-rule="evenodd">
        <path fill="#E5E5E5" d="M41.073 54.914h103.295v-7.378H41.073z"/>
        <path fill="#BCC2CE" d="M41.073 50.487h103.295v-2.951H41.073z"/>
        <g transform="translate(0 -.804)">
            <path fill="#E5E5E5" d="M75.75 43.913a4.428 4.428 0 0 1 4.427 4.427H49.188a4.427 4.427 0 0 1 4.427-4.427H75.75z"/>
            <path stroke="#646B81" stroke-linecap="square" stroke-width="3" d="M48.45 18.827h102.558a5.903 5.903 0 0 1 5.902 5.902v17.708a5.903 5.903 0 0 1-5.902 5.903H30.006"/>
            <path fill="#E96980" d="M144.367 38.01a4.427 4.427 0 1 1 0-8.853 4.427 4.427 0 0 1 0 8.854z"/>
            <mask id="b" fill="#fff">
                <use xlink:href="#a"/>
            </mask>
            <path fill="#E5E5E5" d="M72.061 35.428h59.025v-2.952H72.061z" mask="url(#b)"/>
            <path stroke="#646B81" stroke-linecap="round" d="M76.915 42.438H52.45a4 4 0 0 0-4 4v1.902h32.465v-1.902a4 4 0 0 0-4-4z" mask="url(#b)"/>
            <path fill="#E5E5E5" d="M35.908 26.205a2.213 2.213 0 1 1-4.427.001 2.213 2.213 0 0 1 4.427 0M44.761 26.205a2.213 2.213 0 1 1-4.425.003 2.213 2.213 0 0 1 4.425-.003M53.616 26.205a2.214 2.214 0 1 1-4.428 0 2.214 2.214 0 0 1 4.428 0" mask="url(#b)"/>
            <path stroke="#646B81" d="M41.073 55.718h103.295V48.34H41.073z" mask="url(#b)"/>
            <path fill="#E5E5E5" d="M41.073 92.609h103.295v-7.378H41.073z" mask="url(#b)"/>
            <path fill="#BCC2CE" d="M41.073 88.182h103.295v-2.951H41.073z" mask="url(#b)"/>
            <path fill="#E5E5E5" d="M75.75 80.804H53.615a4.426 4.426 0 0 0-4.427 4.427h30.99a4.427 4.427 0 0 0-4.428-4.427" mask="url(#b)"/>
            <path stroke="#646B81" stroke-width="3" d="M152.91 85.231H28.103a4 4 0 0 1-4-4V59.718a4 4 0 0 1 4-4H152.91a4 4 0 0 1 4 4v21.513a4 4 0 0 1-4 4z" mask="url(#b)"/>
            <path fill="#8F00FF" d="M148.794 70.474a4.427 4.427 0 1 1-8.854 0 4.427 4.427 0 0 1 8.854 0" mask="url(#b)"/>
            <path fill="#E5E5E5" d="M72.061 72.319h59.025v-2.951H72.061z" mask="url(#b)"/>
            <path stroke="#646B81" d="M76.915 79.329H52.45a4 4 0 0 0-4 4v1.902h32.465v-1.902a4 4 0 0 0-4-4z" mask="url(#b)"/>
            <path fill="#E5E5E5" d="M35.908 63.096a2.213 2.213 0 1 1-4.427.001 2.213 2.213 0 0 1 4.427 0M44.761 63.096a2.213 2.213 0 1 1-4.425.003 2.213 2.213 0 0 1 4.425-.003M53.616 63.096a2.214 2.214 0 1 1-4.428 0 2.214 2.214 0 0 1 4.428 0" mask="url(#b)"/>
            <path stroke="#646B81" d="M41.073 92.609h103.295v-7.378H41.073z" mask="url(#b)"/>
            <path fill="#E5E5E5" d="M41.073 129.5h103.295v-7.378H41.073z" mask="url(#b)"/>
            <path fill="#BCC2CE" d="M41.073 125.073h103.295v-2.951H41.073z" mask="url(#b)"/>
            <path fill="#E5E5E5" d="M75.75 117.695H53.615a4.427 4.427 0 0 0-4.427 4.427h30.99a4.428 4.428 0 0 0-4.428-4.427" mask="url(#b)"/>
            <path stroke="#646B81" stroke-width="3" d="M152.91 122.122H28.103a4 4 0 0 1-4-4V96.609a4 4 0 0 1 4-4H152.91a4 4 0 0 1 4 4v21.513a4 4 0 0 1-4 4z" mask="url(#b)"/>
            <path fill="#8F00FF" d="M148.794 107.366a4.428 4.428 0 1 1-8.855-.001 4.428 4.428 0 0 1 8.855 0" mask="url(#b)"/>
            <path fill="#E5E5E5" d="M72.061 109.21h59.025v-2.951H72.061z" mask="url(#b)"/>
            <path stroke="#646B81" d="M76.915 116.22H52.45a4 4 0 0 0-4 4v1.901h32.465v-1.902a4 4 0 0 0-4-4z" mask="url(#b)"/>
            <path fill="#E5E5E5" d="M35.908 99.987a2.213 2.213 0 1 1-4.427 0 2.213 2.213 0 0 1 4.427 0M44.761 99.987a2.213 2.213 0 1 1-4.425.002 2.213 2.213 0 0 1 4.425-.002M53.616 99.987a2.214 2.214 0 1 1-4.428 0 2.214 2.214 0 0 1 4.428 0" mask="url(#b)"/>
            <path stroke="#646B81" d="M41.073 129.5h103.295v-7.378H41.073z" mask="url(#b)"/>
            <path stroke="#D9D9D9" d="M161.337 33.953h1" mask="url(#b)"/>
            <path stroke="#D9D9D9" stroke-dasharray="2.052,2.052" d="M164.39 33.953h1.167c6.022 0 10.905 4.882 10.905 10.905V59.57c0 6.023-4.883 10.904-10.905 10.904h-2.194" mask="url(#b)"/>
            <path stroke="#D9D9D9" d="M162.337 70.474h-1M19.676 70.843h-1" mask="url(#b)"/>
            <path stroke="#D9D9D9" stroke-dasharray="2.052,2.052" d="M16.623 70.843h-1.168c-6.021 0-10.905 4.883-10.905 10.905V96.46c0 6.023 4.884 10.905 10.906 10.905h2.194" mask="url(#b)"/>
            <path stroke="#D9D9D9" d="M18.676 107.366h1" mask="url(#b)"/>
            <path stroke="#646B81" stroke-linecap="round" d="M19.676 129.5h141.661M167.24 129.5h13.28M.52 129.5h13.281" mask="url(#b)"/>
            <path fill="#FFF" d="M42.548 22.828c0 11.335-9.189 20.524-20.524 20.524S1.5 34.163 1.5 22.828 10.69 2.304 22.024 2.304c11.335 0 20.524 9.19 20.524 20.524" mask="url(#b)"/>
            <path stroke="#646B81" stroke-width="3" d="M42.548 22.828c0 11.335-9.189 20.524-20.524 20.524S1.5 34.163 1.5 22.828 10.69 2.304 22.024 2.304c11.335 0 20.524 9.19 20.524 20.524z" mask="url(#b)"/>
            <path fill="#E96980" d="M20.413 35.337h3.793v-4.748h-3.793v4.748zm3.048-6.873h-2.373l-1.134-10.737v-7.193h4.641v7.052l-1.134 10.878z" mask="url(#b)"/>
        </g>
    </g>
</svg>
